%TF.GenerationSoftware,KiCad,Pcbnew,10.0.0*%
%TF.CreationDate,2026-05-22T19:45:14-07:00*%
%TF.ProjectId,microNES_pcb_v0.1,6d696372-6f4e-4455-935f-7063625f7630,rev?*%
%TF.SameCoordinates,Original*%
%TF.FileFunction,Legend,Top*%
%TF.FilePolarity,Positive*%
%FSLAX46Y46*%
G04 Gerber Fmt 4.6, Leading zero omitted, Abs format (unit mm)*
G04 Created by KiCad (PCBNEW 10.0.0) date 2026-05-22 19:45:14*
%MOMM*%
%LPD*%
G01*
G04 APERTURE LIST*
%ADD10C,0.100000*%
%ADD11C,0.150000*%
%ADD12C,0.000000*%
%ADD13C,0.120000*%
%ADD14C,0.250000*%
%ADD15C,0.060000*%
G04 APERTURE END LIST*
D10*
X98003571Y-85091109D02*
X97836905Y-84853014D01*
X97717857Y-85091109D02*
X97717857Y-84591109D01*
X97717857Y-84591109D02*
X97908333Y-84591109D01*
X97908333Y-84591109D02*
X97955952Y-84614919D01*
X97955952Y-84614919D02*
X97979762Y-84638728D01*
X97979762Y-84638728D02*
X98003571Y-84686347D01*
X98003571Y-84686347D02*
X98003571Y-84757776D01*
X98003571Y-84757776D02*
X97979762Y-84805395D01*
X97979762Y-84805395D02*
X97955952Y-84829204D01*
X97955952Y-84829204D02*
X97908333Y-84853014D01*
X97908333Y-84853014D02*
X97717857Y-84853014D01*
X98194048Y-84638728D02*
X98217857Y-84614919D01*
X98217857Y-84614919D02*
X98265476Y-84591109D01*
X98265476Y-84591109D02*
X98384524Y-84591109D01*
X98384524Y-84591109D02*
X98432143Y-84614919D01*
X98432143Y-84614919D02*
X98455952Y-84638728D01*
X98455952Y-84638728D02*
X98479762Y-84686347D01*
X98479762Y-84686347D02*
X98479762Y-84733966D01*
X98479762Y-84733966D02*
X98455952Y-84805395D01*
X98455952Y-84805395D02*
X98170238Y-85091109D01*
X98170238Y-85091109D02*
X98479762Y-85091109D01*
X98717857Y-85091109D02*
X98813095Y-85091109D01*
X98813095Y-85091109D02*
X98860714Y-85067300D01*
X98860714Y-85067300D02*
X98884523Y-85043490D01*
X98884523Y-85043490D02*
X98932142Y-84972061D01*
X98932142Y-84972061D02*
X98955952Y-84876823D01*
X98955952Y-84876823D02*
X98955952Y-84686347D01*
X98955952Y-84686347D02*
X98932142Y-84638728D01*
X98932142Y-84638728D02*
X98908333Y-84614919D01*
X98908333Y-84614919D02*
X98860714Y-84591109D01*
X98860714Y-84591109D02*
X98765476Y-84591109D01*
X98765476Y-84591109D02*
X98717857Y-84614919D01*
X98717857Y-84614919D02*
X98694047Y-84638728D01*
X98694047Y-84638728D02*
X98670238Y-84686347D01*
X98670238Y-84686347D02*
X98670238Y-84805395D01*
X98670238Y-84805395D02*
X98694047Y-84853014D01*
X98694047Y-84853014D02*
X98717857Y-84876823D01*
X98717857Y-84876823D02*
X98765476Y-84900633D01*
X98765476Y-84900633D02*
X98860714Y-84900633D01*
X98860714Y-84900633D02*
X98908333Y-84876823D01*
X98908333Y-84876823D02*
X98932142Y-84853014D01*
X98932142Y-84853014D02*
X98955952Y-84805395D01*
X121678490Y-99133333D02*
X121702300Y-99157142D01*
X121702300Y-99157142D02*
X121726109Y-99228571D01*
X121726109Y-99228571D02*
X121726109Y-99276190D01*
X121726109Y-99276190D02*
X121702300Y-99347618D01*
X121702300Y-99347618D02*
X121654680Y-99395237D01*
X121654680Y-99395237D02*
X121607061Y-99419047D01*
X121607061Y-99419047D02*
X121511823Y-99442856D01*
X121511823Y-99442856D02*
X121440395Y-99442856D01*
X121440395Y-99442856D02*
X121345157Y-99419047D01*
X121345157Y-99419047D02*
X121297538Y-99395237D01*
X121297538Y-99395237D02*
X121249919Y-99347618D01*
X121249919Y-99347618D02*
X121226109Y-99276190D01*
X121226109Y-99276190D02*
X121226109Y-99228571D01*
X121226109Y-99228571D02*
X121249919Y-99157142D01*
X121249919Y-99157142D02*
X121273728Y-99133333D01*
X121226109Y-98966666D02*
X121226109Y-98657142D01*
X121226109Y-98657142D02*
X121416585Y-98823809D01*
X121416585Y-98823809D02*
X121416585Y-98752380D01*
X121416585Y-98752380D02*
X121440395Y-98704761D01*
X121440395Y-98704761D02*
X121464204Y-98680952D01*
X121464204Y-98680952D02*
X121511823Y-98657142D01*
X121511823Y-98657142D02*
X121630871Y-98657142D01*
X121630871Y-98657142D02*
X121678490Y-98680952D01*
X121678490Y-98680952D02*
X121702300Y-98704761D01*
X121702300Y-98704761D02*
X121726109Y-98752380D01*
X121726109Y-98752380D02*
X121726109Y-98895237D01*
X121726109Y-98895237D02*
X121702300Y-98942856D01*
X121702300Y-98942856D02*
X121678490Y-98966666D01*
X140591109Y-91561428D02*
X140353014Y-91728094D01*
X140591109Y-91847142D02*
X140091109Y-91847142D01*
X140091109Y-91847142D02*
X140091109Y-91656666D01*
X140091109Y-91656666D02*
X140114919Y-91609047D01*
X140114919Y-91609047D02*
X140138728Y-91585237D01*
X140138728Y-91585237D02*
X140186347Y-91561428D01*
X140186347Y-91561428D02*
X140257776Y-91561428D01*
X140257776Y-91561428D02*
X140305395Y-91585237D01*
X140305395Y-91585237D02*
X140329204Y-91609047D01*
X140329204Y-91609047D02*
X140353014Y-91656666D01*
X140353014Y-91656666D02*
X140353014Y-91847142D01*
X140591109Y-91085237D02*
X140591109Y-91370951D01*
X140591109Y-91228094D02*
X140091109Y-91228094D01*
X140091109Y-91228094D02*
X140162538Y-91275713D01*
X140162538Y-91275713D02*
X140210157Y-91323332D01*
X140210157Y-91323332D02*
X140233966Y-91370951D01*
X140091109Y-90918571D02*
X140091109Y-90609047D01*
X140091109Y-90609047D02*
X140281585Y-90775714D01*
X140281585Y-90775714D02*
X140281585Y-90704285D01*
X140281585Y-90704285D02*
X140305395Y-90656666D01*
X140305395Y-90656666D02*
X140329204Y-90632857D01*
X140329204Y-90632857D02*
X140376823Y-90609047D01*
X140376823Y-90609047D02*
X140495871Y-90609047D01*
X140495871Y-90609047D02*
X140543490Y-90632857D01*
X140543490Y-90632857D02*
X140567300Y-90656666D01*
X140567300Y-90656666D02*
X140591109Y-90704285D01*
X140591109Y-90704285D02*
X140591109Y-90847142D01*
X140591109Y-90847142D02*
X140567300Y-90894761D01*
X140567300Y-90894761D02*
X140543490Y-90918571D01*
X139328490Y-101881428D02*
X139352300Y-101905237D01*
X139352300Y-101905237D02*
X139376109Y-101976666D01*
X139376109Y-101976666D02*
X139376109Y-102024285D01*
X139376109Y-102024285D02*
X139352300Y-102095713D01*
X139352300Y-102095713D02*
X139304680Y-102143332D01*
X139304680Y-102143332D02*
X139257061Y-102167142D01*
X139257061Y-102167142D02*
X139161823Y-102190951D01*
X139161823Y-102190951D02*
X139090395Y-102190951D01*
X139090395Y-102190951D02*
X138995157Y-102167142D01*
X138995157Y-102167142D02*
X138947538Y-102143332D01*
X138947538Y-102143332D02*
X138899919Y-102095713D01*
X138899919Y-102095713D02*
X138876109Y-102024285D01*
X138876109Y-102024285D02*
X138876109Y-101976666D01*
X138876109Y-101976666D02*
X138899919Y-101905237D01*
X138899919Y-101905237D02*
X138923728Y-101881428D01*
X138923728Y-101690951D02*
X138899919Y-101667142D01*
X138899919Y-101667142D02*
X138876109Y-101619523D01*
X138876109Y-101619523D02*
X138876109Y-101500475D01*
X138876109Y-101500475D02*
X138899919Y-101452856D01*
X138899919Y-101452856D02*
X138923728Y-101429047D01*
X138923728Y-101429047D02*
X138971347Y-101405237D01*
X138971347Y-101405237D02*
X139018966Y-101405237D01*
X139018966Y-101405237D02*
X139090395Y-101429047D01*
X139090395Y-101429047D02*
X139376109Y-101714761D01*
X139376109Y-101714761D02*
X139376109Y-101405237D01*
X139042776Y-100976666D02*
X139376109Y-100976666D01*
X138852300Y-101095714D02*
X139209442Y-101214761D01*
X139209442Y-101214761D02*
X139209442Y-100905238D01*
X130330953Y-110678109D02*
X130616667Y-110678109D01*
X130473810Y-111178109D02*
X130473810Y-110678109D01*
X130783333Y-111178109D02*
X130783333Y-110678109D01*
X130783333Y-110678109D02*
X130973809Y-110678109D01*
X130973809Y-110678109D02*
X131021428Y-110701919D01*
X131021428Y-110701919D02*
X131045238Y-110725728D01*
X131045238Y-110725728D02*
X131069047Y-110773347D01*
X131069047Y-110773347D02*
X131069047Y-110844776D01*
X131069047Y-110844776D02*
X131045238Y-110892395D01*
X131045238Y-110892395D02*
X131021428Y-110916204D01*
X131021428Y-110916204D02*
X130973809Y-110940014D01*
X130973809Y-110940014D02*
X130783333Y-110940014D01*
X131545238Y-111178109D02*
X131259524Y-111178109D01*
X131402381Y-111178109D02*
X131402381Y-110678109D01*
X131402381Y-110678109D02*
X131354762Y-110749538D01*
X131354762Y-110749538D02*
X131307143Y-110797157D01*
X131307143Y-110797157D02*
X131259524Y-110820966D01*
X132021428Y-111178109D02*
X131735714Y-111178109D01*
X131878571Y-111178109D02*
X131878571Y-110678109D01*
X131878571Y-110678109D02*
X131830952Y-110749538D01*
X131830952Y-110749538D02*
X131783333Y-110797157D01*
X131783333Y-110797157D02*
X131735714Y-110820966D01*
X121130953Y-110678109D02*
X121416667Y-110678109D01*
X121273810Y-111178109D02*
X121273810Y-110678109D01*
X121583333Y-111178109D02*
X121583333Y-110678109D01*
X121583333Y-110678109D02*
X121773809Y-110678109D01*
X121773809Y-110678109D02*
X121821428Y-110701919D01*
X121821428Y-110701919D02*
X121845238Y-110725728D01*
X121845238Y-110725728D02*
X121869047Y-110773347D01*
X121869047Y-110773347D02*
X121869047Y-110844776D01*
X121869047Y-110844776D02*
X121845238Y-110892395D01*
X121845238Y-110892395D02*
X121821428Y-110916204D01*
X121821428Y-110916204D02*
X121773809Y-110940014D01*
X121773809Y-110940014D02*
X121583333Y-110940014D01*
X122345238Y-111178109D02*
X122059524Y-111178109D01*
X122202381Y-111178109D02*
X122202381Y-110678109D01*
X122202381Y-110678109D02*
X122154762Y-110749538D01*
X122154762Y-110749538D02*
X122107143Y-110797157D01*
X122107143Y-110797157D02*
X122059524Y-110820966D01*
X122654761Y-110678109D02*
X122702380Y-110678109D01*
X122702380Y-110678109D02*
X122749999Y-110701919D01*
X122749999Y-110701919D02*
X122773809Y-110725728D01*
X122773809Y-110725728D02*
X122797618Y-110773347D01*
X122797618Y-110773347D02*
X122821428Y-110868585D01*
X122821428Y-110868585D02*
X122821428Y-110987633D01*
X122821428Y-110987633D02*
X122797618Y-111082871D01*
X122797618Y-111082871D02*
X122773809Y-111130490D01*
X122773809Y-111130490D02*
X122749999Y-111154300D01*
X122749999Y-111154300D02*
X122702380Y-111178109D01*
X122702380Y-111178109D02*
X122654761Y-111178109D01*
X122654761Y-111178109D02*
X122607142Y-111154300D01*
X122607142Y-111154300D02*
X122583333Y-111130490D01*
X122583333Y-111130490D02*
X122559523Y-111082871D01*
X122559523Y-111082871D02*
X122535714Y-110987633D01*
X122535714Y-110987633D02*
X122535714Y-110868585D01*
X122535714Y-110868585D02*
X122559523Y-110773347D01*
X122559523Y-110773347D02*
X122583333Y-110725728D01*
X122583333Y-110725728D02*
X122607142Y-110701919D01*
X122607142Y-110701919D02*
X122654761Y-110678109D01*
X94853571Y-85091109D02*
X94686905Y-84853014D01*
X94567857Y-85091109D02*
X94567857Y-84591109D01*
X94567857Y-84591109D02*
X94758333Y-84591109D01*
X94758333Y-84591109D02*
X94805952Y-84614919D01*
X94805952Y-84614919D02*
X94829762Y-84638728D01*
X94829762Y-84638728D02*
X94853571Y-84686347D01*
X94853571Y-84686347D02*
X94853571Y-84757776D01*
X94853571Y-84757776D02*
X94829762Y-84805395D01*
X94829762Y-84805395D02*
X94805952Y-84829204D01*
X94805952Y-84829204D02*
X94758333Y-84853014D01*
X94758333Y-84853014D02*
X94567857Y-84853014D01*
X95044048Y-84638728D02*
X95067857Y-84614919D01*
X95067857Y-84614919D02*
X95115476Y-84591109D01*
X95115476Y-84591109D02*
X95234524Y-84591109D01*
X95234524Y-84591109D02*
X95282143Y-84614919D01*
X95282143Y-84614919D02*
X95305952Y-84638728D01*
X95305952Y-84638728D02*
X95329762Y-84686347D01*
X95329762Y-84686347D02*
X95329762Y-84733966D01*
X95329762Y-84733966D02*
X95305952Y-84805395D01*
X95305952Y-84805395D02*
X95020238Y-85091109D01*
X95020238Y-85091109D02*
X95329762Y-85091109D01*
X95496428Y-84591109D02*
X95829761Y-84591109D01*
X95829761Y-84591109D02*
X95615476Y-85091109D01*
X116813486Y-80080833D02*
X116837296Y-80104642D01*
X116837296Y-80104642D02*
X116861105Y-80176071D01*
X116861105Y-80176071D02*
X116861105Y-80223690D01*
X116861105Y-80223690D02*
X116837296Y-80295118D01*
X116837296Y-80295118D02*
X116789676Y-80342737D01*
X116789676Y-80342737D02*
X116742057Y-80366547D01*
X116742057Y-80366547D02*
X116646819Y-80390356D01*
X116646819Y-80390356D02*
X116575391Y-80390356D01*
X116575391Y-80390356D02*
X116480153Y-80366547D01*
X116480153Y-80366547D02*
X116432534Y-80342737D01*
X116432534Y-80342737D02*
X116384915Y-80295118D01*
X116384915Y-80295118D02*
X116361105Y-80223690D01*
X116361105Y-80223690D02*
X116361105Y-80176071D01*
X116361105Y-80176071D02*
X116384915Y-80104642D01*
X116384915Y-80104642D02*
X116408724Y-80080833D01*
X116408724Y-79890356D02*
X116384915Y-79866547D01*
X116384915Y-79866547D02*
X116361105Y-79818928D01*
X116361105Y-79818928D02*
X116361105Y-79699880D01*
X116361105Y-79699880D02*
X116384915Y-79652261D01*
X116384915Y-79652261D02*
X116408724Y-79628452D01*
X116408724Y-79628452D02*
X116456343Y-79604642D01*
X116456343Y-79604642D02*
X116503962Y-79604642D01*
X116503962Y-79604642D02*
X116575391Y-79628452D01*
X116575391Y-79628452D02*
X116861105Y-79914166D01*
X116861105Y-79914166D02*
X116861105Y-79604642D01*
X119269047Y-113376109D02*
X119269047Y-113780871D01*
X119269047Y-113780871D02*
X119292857Y-113828490D01*
X119292857Y-113828490D02*
X119316666Y-113852300D01*
X119316666Y-113852300D02*
X119364285Y-113876109D01*
X119364285Y-113876109D02*
X119459523Y-113876109D01*
X119459523Y-113876109D02*
X119507142Y-113852300D01*
X119507142Y-113852300D02*
X119530952Y-113828490D01*
X119530952Y-113828490D02*
X119554761Y-113780871D01*
X119554761Y-113780871D02*
X119554761Y-113376109D01*
X120007143Y-113376109D02*
X119911905Y-113376109D01*
X119911905Y-113376109D02*
X119864286Y-113399919D01*
X119864286Y-113399919D02*
X119840476Y-113423728D01*
X119840476Y-113423728D02*
X119792857Y-113495157D01*
X119792857Y-113495157D02*
X119769048Y-113590395D01*
X119769048Y-113590395D02*
X119769048Y-113780871D01*
X119769048Y-113780871D02*
X119792857Y-113828490D01*
X119792857Y-113828490D02*
X119816667Y-113852300D01*
X119816667Y-113852300D02*
X119864286Y-113876109D01*
X119864286Y-113876109D02*
X119959524Y-113876109D01*
X119959524Y-113876109D02*
X120007143Y-113852300D01*
X120007143Y-113852300D02*
X120030952Y-113828490D01*
X120030952Y-113828490D02*
X120054762Y-113780871D01*
X120054762Y-113780871D02*
X120054762Y-113661823D01*
X120054762Y-113661823D02*
X120030952Y-113614204D01*
X120030952Y-113614204D02*
X120007143Y-113590395D01*
X120007143Y-113590395D02*
X119959524Y-113566585D01*
X119959524Y-113566585D02*
X119864286Y-113566585D01*
X119864286Y-113566585D02*
X119816667Y-113590395D01*
X119816667Y-113590395D02*
X119792857Y-113614204D01*
X119792857Y-113614204D02*
X119769048Y-113661823D01*
X138391071Y-82676109D02*
X138224405Y-82438014D01*
X138105357Y-82676109D02*
X138105357Y-82176109D01*
X138105357Y-82176109D02*
X138295833Y-82176109D01*
X138295833Y-82176109D02*
X138343452Y-82199919D01*
X138343452Y-82199919D02*
X138367262Y-82223728D01*
X138367262Y-82223728D02*
X138391071Y-82271347D01*
X138391071Y-82271347D02*
X138391071Y-82342776D01*
X138391071Y-82342776D02*
X138367262Y-82390395D01*
X138367262Y-82390395D02*
X138343452Y-82414204D01*
X138343452Y-82414204D02*
X138295833Y-82438014D01*
X138295833Y-82438014D02*
X138105357Y-82438014D01*
X138581548Y-82223728D02*
X138605357Y-82199919D01*
X138605357Y-82199919D02*
X138652976Y-82176109D01*
X138652976Y-82176109D02*
X138772024Y-82176109D01*
X138772024Y-82176109D02*
X138819643Y-82199919D01*
X138819643Y-82199919D02*
X138843452Y-82223728D01*
X138843452Y-82223728D02*
X138867262Y-82271347D01*
X138867262Y-82271347D02*
X138867262Y-82318966D01*
X138867262Y-82318966D02*
X138843452Y-82390395D01*
X138843452Y-82390395D02*
X138557738Y-82676109D01*
X138557738Y-82676109D02*
X138867262Y-82676109D01*
X139319642Y-82176109D02*
X139081547Y-82176109D01*
X139081547Y-82176109D02*
X139057738Y-82414204D01*
X139057738Y-82414204D02*
X139081547Y-82390395D01*
X139081547Y-82390395D02*
X139129166Y-82366585D01*
X139129166Y-82366585D02*
X139248214Y-82366585D01*
X139248214Y-82366585D02*
X139295833Y-82390395D01*
X139295833Y-82390395D02*
X139319642Y-82414204D01*
X139319642Y-82414204D02*
X139343452Y-82461823D01*
X139343452Y-82461823D02*
X139343452Y-82580871D01*
X139343452Y-82580871D02*
X139319642Y-82628490D01*
X139319642Y-82628490D02*
X139295833Y-82652300D01*
X139295833Y-82652300D02*
X139248214Y-82676109D01*
X139248214Y-82676109D02*
X139129166Y-82676109D01*
X139129166Y-82676109D02*
X139081547Y-82652300D01*
X139081547Y-82652300D02*
X139057738Y-82628490D01*
X129244047Y-78543653D02*
X129244047Y-78948415D01*
X129244047Y-78948415D02*
X129267857Y-78996034D01*
X129267857Y-78996034D02*
X129291666Y-79019844D01*
X129291666Y-79019844D02*
X129339285Y-79043653D01*
X129339285Y-79043653D02*
X129434523Y-79043653D01*
X129434523Y-79043653D02*
X129482142Y-79019844D01*
X129482142Y-79019844D02*
X129505952Y-78996034D01*
X129505952Y-78996034D02*
X129529761Y-78948415D01*
X129529761Y-78948415D02*
X129529761Y-78543653D01*
X129982143Y-78710320D02*
X129982143Y-79043653D01*
X129863095Y-78519844D02*
X129744048Y-78876986D01*
X129744048Y-78876986D02*
X130053571Y-78876986D01*
X136969047Y-113276109D02*
X136969047Y-113680871D01*
X136969047Y-113680871D02*
X136992857Y-113728490D01*
X136992857Y-113728490D02*
X137016666Y-113752300D01*
X137016666Y-113752300D02*
X137064285Y-113776109D01*
X137064285Y-113776109D02*
X137159523Y-113776109D01*
X137159523Y-113776109D02*
X137207142Y-113752300D01*
X137207142Y-113752300D02*
X137230952Y-113728490D01*
X137230952Y-113728490D02*
X137254761Y-113680871D01*
X137254761Y-113680871D02*
X137254761Y-113276109D01*
X137445238Y-113276109D02*
X137778571Y-113276109D01*
X137778571Y-113276109D02*
X137564286Y-113776109D01*
X65778571Y-71326109D02*
X65611905Y-71088014D01*
X65492857Y-71326109D02*
X65492857Y-70826109D01*
X65492857Y-70826109D02*
X65683333Y-70826109D01*
X65683333Y-70826109D02*
X65730952Y-70849919D01*
X65730952Y-70849919D02*
X65754762Y-70873728D01*
X65754762Y-70873728D02*
X65778571Y-70921347D01*
X65778571Y-70921347D02*
X65778571Y-70992776D01*
X65778571Y-70992776D02*
X65754762Y-71040395D01*
X65754762Y-71040395D02*
X65730952Y-71064204D01*
X65730952Y-71064204D02*
X65683333Y-71088014D01*
X65683333Y-71088014D02*
X65492857Y-71088014D01*
X66207143Y-70992776D02*
X66207143Y-71326109D01*
X66088095Y-70802300D02*
X65969048Y-71159442D01*
X65969048Y-71159442D02*
X66278571Y-71159442D01*
X66564285Y-70826109D02*
X66611904Y-70826109D01*
X66611904Y-70826109D02*
X66659523Y-70849919D01*
X66659523Y-70849919D02*
X66683333Y-70873728D01*
X66683333Y-70873728D02*
X66707142Y-70921347D01*
X66707142Y-70921347D02*
X66730952Y-71016585D01*
X66730952Y-71016585D02*
X66730952Y-71135633D01*
X66730952Y-71135633D02*
X66707142Y-71230871D01*
X66707142Y-71230871D02*
X66683333Y-71278490D01*
X66683333Y-71278490D02*
X66659523Y-71302300D01*
X66659523Y-71302300D02*
X66611904Y-71326109D01*
X66611904Y-71326109D02*
X66564285Y-71326109D01*
X66564285Y-71326109D02*
X66516666Y-71302300D01*
X66516666Y-71302300D02*
X66492857Y-71278490D01*
X66492857Y-71278490D02*
X66469047Y-71230871D01*
X66469047Y-71230871D02*
X66445238Y-71135633D01*
X66445238Y-71135633D02*
X66445238Y-71016585D01*
X66445238Y-71016585D02*
X66469047Y-70921347D01*
X66469047Y-70921347D02*
X66492857Y-70873728D01*
X66492857Y-70873728D02*
X66516666Y-70849919D01*
X66516666Y-70849919D02*
X66564285Y-70826109D01*
X136076109Y-71800952D02*
X136480871Y-71800952D01*
X136480871Y-71800952D02*
X136528490Y-71777142D01*
X136528490Y-71777142D02*
X136552300Y-71753333D01*
X136552300Y-71753333D02*
X136576109Y-71705714D01*
X136576109Y-71705714D02*
X136576109Y-71610476D01*
X136576109Y-71610476D02*
X136552300Y-71562857D01*
X136552300Y-71562857D02*
X136528490Y-71539047D01*
X136528490Y-71539047D02*
X136480871Y-71515238D01*
X136480871Y-71515238D02*
X136076109Y-71515238D01*
X136076109Y-71039047D02*
X136076109Y-71277142D01*
X136076109Y-71277142D02*
X136314204Y-71300951D01*
X136314204Y-71300951D02*
X136290395Y-71277142D01*
X136290395Y-71277142D02*
X136266585Y-71229523D01*
X136266585Y-71229523D02*
X136266585Y-71110475D01*
X136266585Y-71110475D02*
X136290395Y-71062856D01*
X136290395Y-71062856D02*
X136314204Y-71039047D01*
X136314204Y-71039047D02*
X136361823Y-71015237D01*
X136361823Y-71015237D02*
X136480871Y-71015237D01*
X136480871Y-71015237D02*
X136528490Y-71039047D01*
X136528490Y-71039047D02*
X136552300Y-71062856D01*
X136552300Y-71062856D02*
X136576109Y-71110475D01*
X136576109Y-71110475D02*
X136576109Y-71229523D01*
X136576109Y-71229523D02*
X136552300Y-71277142D01*
X136552300Y-71277142D02*
X136528490Y-71300951D01*
X111969047Y-70626109D02*
X111969047Y-71030871D01*
X111969047Y-71030871D02*
X111992857Y-71078490D01*
X111992857Y-71078490D02*
X112016666Y-71102300D01*
X112016666Y-71102300D02*
X112064285Y-71126109D01*
X112064285Y-71126109D02*
X112159523Y-71126109D01*
X112159523Y-71126109D02*
X112207142Y-71102300D01*
X112207142Y-71102300D02*
X112230952Y-71078490D01*
X112230952Y-71078490D02*
X112254761Y-71030871D01*
X112254761Y-71030871D02*
X112254761Y-70626109D01*
X112469048Y-70673728D02*
X112492857Y-70649919D01*
X112492857Y-70649919D02*
X112540476Y-70626109D01*
X112540476Y-70626109D02*
X112659524Y-70626109D01*
X112659524Y-70626109D02*
X112707143Y-70649919D01*
X112707143Y-70649919D02*
X112730952Y-70673728D01*
X112730952Y-70673728D02*
X112754762Y-70721347D01*
X112754762Y-70721347D02*
X112754762Y-70768966D01*
X112754762Y-70768966D02*
X112730952Y-70840395D01*
X112730952Y-70840395D02*
X112445238Y-71126109D01*
X112445238Y-71126109D02*
X112754762Y-71126109D01*
X98833333Y-77886109D02*
X98833333Y-78243252D01*
X98833333Y-78243252D02*
X98809524Y-78314680D01*
X98809524Y-78314680D02*
X98761905Y-78362300D01*
X98761905Y-78362300D02*
X98690476Y-78386109D01*
X98690476Y-78386109D02*
X98642857Y-78386109D01*
X99023809Y-77886109D02*
X99333333Y-77886109D01*
X99333333Y-77886109D02*
X99166666Y-78076585D01*
X99166666Y-78076585D02*
X99238095Y-78076585D01*
X99238095Y-78076585D02*
X99285714Y-78100395D01*
X99285714Y-78100395D02*
X99309523Y-78124204D01*
X99309523Y-78124204D02*
X99333333Y-78171823D01*
X99333333Y-78171823D02*
X99333333Y-78290871D01*
X99333333Y-78290871D02*
X99309523Y-78338490D01*
X99309523Y-78338490D02*
X99285714Y-78362300D01*
X99285714Y-78362300D02*
X99238095Y-78386109D01*
X99238095Y-78386109D02*
X99095238Y-78386109D01*
X99095238Y-78386109D02*
X99047619Y-78362300D01*
X99047619Y-78362300D02*
X99023809Y-78338490D01*
X93303571Y-85091109D02*
X93136905Y-84853014D01*
X93017857Y-85091109D02*
X93017857Y-84591109D01*
X93017857Y-84591109D02*
X93208333Y-84591109D01*
X93208333Y-84591109D02*
X93255952Y-84614919D01*
X93255952Y-84614919D02*
X93279762Y-84638728D01*
X93279762Y-84638728D02*
X93303571Y-84686347D01*
X93303571Y-84686347D02*
X93303571Y-84757776D01*
X93303571Y-84757776D02*
X93279762Y-84805395D01*
X93279762Y-84805395D02*
X93255952Y-84829204D01*
X93255952Y-84829204D02*
X93208333Y-84853014D01*
X93208333Y-84853014D02*
X93017857Y-84853014D01*
X93494048Y-84638728D02*
X93517857Y-84614919D01*
X93517857Y-84614919D02*
X93565476Y-84591109D01*
X93565476Y-84591109D02*
X93684524Y-84591109D01*
X93684524Y-84591109D02*
X93732143Y-84614919D01*
X93732143Y-84614919D02*
X93755952Y-84638728D01*
X93755952Y-84638728D02*
X93779762Y-84686347D01*
X93779762Y-84686347D02*
X93779762Y-84733966D01*
X93779762Y-84733966D02*
X93755952Y-84805395D01*
X93755952Y-84805395D02*
X93470238Y-85091109D01*
X93470238Y-85091109D02*
X93779762Y-85091109D01*
X94208333Y-84591109D02*
X94113095Y-84591109D01*
X94113095Y-84591109D02*
X94065476Y-84614919D01*
X94065476Y-84614919D02*
X94041666Y-84638728D01*
X94041666Y-84638728D02*
X93994047Y-84710157D01*
X93994047Y-84710157D02*
X93970238Y-84805395D01*
X93970238Y-84805395D02*
X93970238Y-84995871D01*
X93970238Y-84995871D02*
X93994047Y-85043490D01*
X93994047Y-85043490D02*
X94017857Y-85067300D01*
X94017857Y-85067300D02*
X94065476Y-85091109D01*
X94065476Y-85091109D02*
X94160714Y-85091109D01*
X94160714Y-85091109D02*
X94208333Y-85067300D01*
X94208333Y-85067300D02*
X94232142Y-85043490D01*
X94232142Y-85043490D02*
X94255952Y-84995871D01*
X94255952Y-84995871D02*
X94255952Y-84876823D01*
X94255952Y-84876823D02*
X94232142Y-84829204D01*
X94232142Y-84829204D02*
X94208333Y-84805395D01*
X94208333Y-84805395D02*
X94160714Y-84781585D01*
X94160714Y-84781585D02*
X94065476Y-84781585D01*
X94065476Y-84781585D02*
X94017857Y-84805395D01*
X94017857Y-84805395D02*
X93994047Y-84829204D01*
X93994047Y-84829204D02*
X93970238Y-84876823D01*
X151319048Y-70226109D02*
X151604762Y-70226109D01*
X151461905Y-70726109D02*
X151461905Y-70226109D01*
X151771428Y-70726109D02*
X151771428Y-70226109D01*
X151771428Y-70226109D02*
X151961904Y-70226109D01*
X151961904Y-70226109D02*
X152009523Y-70249919D01*
X152009523Y-70249919D02*
X152033333Y-70273728D01*
X152033333Y-70273728D02*
X152057142Y-70321347D01*
X152057142Y-70321347D02*
X152057142Y-70392776D01*
X152057142Y-70392776D02*
X152033333Y-70440395D01*
X152033333Y-70440395D02*
X152009523Y-70464204D01*
X152009523Y-70464204D02*
X151961904Y-70488014D01*
X151961904Y-70488014D02*
X151771428Y-70488014D01*
X152485714Y-70392776D02*
X152485714Y-70726109D01*
X152366666Y-70202300D02*
X152247619Y-70559442D01*
X152247619Y-70559442D02*
X152557142Y-70559442D01*
X117866666Y-88926109D02*
X117700000Y-88688014D01*
X117580952Y-88926109D02*
X117580952Y-88426109D01*
X117580952Y-88426109D02*
X117771428Y-88426109D01*
X117771428Y-88426109D02*
X117819047Y-88449919D01*
X117819047Y-88449919D02*
X117842857Y-88473728D01*
X117842857Y-88473728D02*
X117866666Y-88521347D01*
X117866666Y-88521347D02*
X117866666Y-88592776D01*
X117866666Y-88592776D02*
X117842857Y-88640395D01*
X117842857Y-88640395D02*
X117819047Y-88664204D01*
X117819047Y-88664204D02*
X117771428Y-88688014D01*
X117771428Y-88688014D02*
X117580952Y-88688014D01*
X118295238Y-88426109D02*
X118200000Y-88426109D01*
X118200000Y-88426109D02*
X118152381Y-88449919D01*
X118152381Y-88449919D02*
X118128571Y-88473728D01*
X118128571Y-88473728D02*
X118080952Y-88545157D01*
X118080952Y-88545157D02*
X118057143Y-88640395D01*
X118057143Y-88640395D02*
X118057143Y-88830871D01*
X118057143Y-88830871D02*
X118080952Y-88878490D01*
X118080952Y-88878490D02*
X118104762Y-88902300D01*
X118104762Y-88902300D02*
X118152381Y-88926109D01*
X118152381Y-88926109D02*
X118247619Y-88926109D01*
X118247619Y-88926109D02*
X118295238Y-88902300D01*
X118295238Y-88902300D02*
X118319047Y-88878490D01*
X118319047Y-88878490D02*
X118342857Y-88830871D01*
X118342857Y-88830871D02*
X118342857Y-88711823D01*
X118342857Y-88711823D02*
X118319047Y-88664204D01*
X118319047Y-88664204D02*
X118295238Y-88640395D01*
X118295238Y-88640395D02*
X118247619Y-88616585D01*
X118247619Y-88616585D02*
X118152381Y-88616585D01*
X118152381Y-88616585D02*
X118104762Y-88640395D01*
X118104762Y-88640395D02*
X118080952Y-88664204D01*
X118080952Y-88664204D02*
X118057143Y-88711823D01*
X132683334Y-102452300D02*
X132754762Y-102476109D01*
X132754762Y-102476109D02*
X132873810Y-102476109D01*
X132873810Y-102476109D02*
X132921429Y-102452300D01*
X132921429Y-102452300D02*
X132945238Y-102428490D01*
X132945238Y-102428490D02*
X132969048Y-102380871D01*
X132969048Y-102380871D02*
X132969048Y-102333252D01*
X132969048Y-102333252D02*
X132945238Y-102285633D01*
X132945238Y-102285633D02*
X132921429Y-102261823D01*
X132921429Y-102261823D02*
X132873810Y-102238014D01*
X132873810Y-102238014D02*
X132778572Y-102214204D01*
X132778572Y-102214204D02*
X132730953Y-102190395D01*
X132730953Y-102190395D02*
X132707143Y-102166585D01*
X132707143Y-102166585D02*
X132683334Y-102118966D01*
X132683334Y-102118966D02*
X132683334Y-102071347D01*
X132683334Y-102071347D02*
X132707143Y-102023728D01*
X132707143Y-102023728D02*
X132730953Y-101999919D01*
X132730953Y-101999919D02*
X132778572Y-101976109D01*
X132778572Y-101976109D02*
X132897619Y-101976109D01*
X132897619Y-101976109D02*
X132969048Y-101999919D01*
X133135714Y-101976109D02*
X133254762Y-102476109D01*
X133254762Y-102476109D02*
X133350000Y-102118966D01*
X133350000Y-102118966D02*
X133445238Y-102476109D01*
X133445238Y-102476109D02*
X133564286Y-101976109D01*
X133969048Y-102142776D02*
X133969048Y-102476109D01*
X133850000Y-101952300D02*
X133730953Y-102309442D01*
X133730953Y-102309442D02*
X134040476Y-102309442D01*
X105436109Y-80671428D02*
X105198014Y-80838094D01*
X105436109Y-80957142D02*
X104936109Y-80957142D01*
X104936109Y-80957142D02*
X104936109Y-80766666D01*
X104936109Y-80766666D02*
X104959919Y-80719047D01*
X104959919Y-80719047D02*
X104983728Y-80695237D01*
X104983728Y-80695237D02*
X105031347Y-80671428D01*
X105031347Y-80671428D02*
X105102776Y-80671428D01*
X105102776Y-80671428D02*
X105150395Y-80695237D01*
X105150395Y-80695237D02*
X105174204Y-80719047D01*
X105174204Y-80719047D02*
X105198014Y-80766666D01*
X105198014Y-80766666D02*
X105198014Y-80957142D01*
X104936109Y-80504761D02*
X104936109Y-80195237D01*
X104936109Y-80195237D02*
X105126585Y-80361904D01*
X105126585Y-80361904D02*
X105126585Y-80290475D01*
X105126585Y-80290475D02*
X105150395Y-80242856D01*
X105150395Y-80242856D02*
X105174204Y-80219047D01*
X105174204Y-80219047D02*
X105221823Y-80195237D01*
X105221823Y-80195237D02*
X105340871Y-80195237D01*
X105340871Y-80195237D02*
X105388490Y-80219047D01*
X105388490Y-80219047D02*
X105412300Y-80242856D01*
X105412300Y-80242856D02*
X105436109Y-80290475D01*
X105436109Y-80290475D02*
X105436109Y-80433332D01*
X105436109Y-80433332D02*
X105412300Y-80480951D01*
X105412300Y-80480951D02*
X105388490Y-80504761D01*
X104936109Y-80028571D02*
X104936109Y-79719047D01*
X104936109Y-79719047D02*
X105126585Y-79885714D01*
X105126585Y-79885714D02*
X105126585Y-79814285D01*
X105126585Y-79814285D02*
X105150395Y-79766666D01*
X105150395Y-79766666D02*
X105174204Y-79742857D01*
X105174204Y-79742857D02*
X105221823Y-79719047D01*
X105221823Y-79719047D02*
X105340871Y-79719047D01*
X105340871Y-79719047D02*
X105388490Y-79742857D01*
X105388490Y-79742857D02*
X105412300Y-79766666D01*
X105412300Y-79766666D02*
X105436109Y-79814285D01*
X105436109Y-79814285D02*
X105436109Y-79957142D01*
X105436109Y-79957142D02*
X105412300Y-80004761D01*
X105412300Y-80004761D02*
X105388490Y-80028571D01*
X143278571Y-86178490D02*
X143254762Y-86202300D01*
X143254762Y-86202300D02*
X143183333Y-86226109D01*
X143183333Y-86226109D02*
X143135714Y-86226109D01*
X143135714Y-86226109D02*
X143064286Y-86202300D01*
X143064286Y-86202300D02*
X143016667Y-86154680D01*
X143016667Y-86154680D02*
X142992857Y-86107061D01*
X142992857Y-86107061D02*
X142969048Y-86011823D01*
X142969048Y-86011823D02*
X142969048Y-85940395D01*
X142969048Y-85940395D02*
X142992857Y-85845157D01*
X142992857Y-85845157D02*
X143016667Y-85797538D01*
X143016667Y-85797538D02*
X143064286Y-85749919D01*
X143064286Y-85749919D02*
X143135714Y-85726109D01*
X143135714Y-85726109D02*
X143183333Y-85726109D01*
X143183333Y-85726109D02*
X143254762Y-85749919D01*
X143254762Y-85749919D02*
X143278571Y-85773728D01*
X143469048Y-85773728D02*
X143492857Y-85749919D01*
X143492857Y-85749919D02*
X143540476Y-85726109D01*
X143540476Y-85726109D02*
X143659524Y-85726109D01*
X143659524Y-85726109D02*
X143707143Y-85749919D01*
X143707143Y-85749919D02*
X143730952Y-85773728D01*
X143730952Y-85773728D02*
X143754762Y-85821347D01*
X143754762Y-85821347D02*
X143754762Y-85868966D01*
X143754762Y-85868966D02*
X143730952Y-85940395D01*
X143730952Y-85940395D02*
X143445238Y-86226109D01*
X143445238Y-86226109D02*
X143754762Y-86226109D01*
X143945238Y-85773728D02*
X143969047Y-85749919D01*
X143969047Y-85749919D02*
X144016666Y-85726109D01*
X144016666Y-85726109D02*
X144135714Y-85726109D01*
X144135714Y-85726109D02*
X144183333Y-85749919D01*
X144183333Y-85749919D02*
X144207142Y-85773728D01*
X144207142Y-85773728D02*
X144230952Y-85821347D01*
X144230952Y-85821347D02*
X144230952Y-85868966D01*
X144230952Y-85868966D02*
X144207142Y-85940395D01*
X144207142Y-85940395D02*
X143921428Y-86226109D01*
X143921428Y-86226109D02*
X144230952Y-86226109D01*
X139319048Y-77826109D02*
X139604762Y-77826109D01*
X139461905Y-78326109D02*
X139461905Y-77826109D01*
X139771428Y-78326109D02*
X139771428Y-77826109D01*
X139771428Y-77826109D02*
X139961904Y-77826109D01*
X139961904Y-77826109D02*
X140009523Y-77849919D01*
X140009523Y-77849919D02*
X140033333Y-77873728D01*
X140033333Y-77873728D02*
X140057142Y-77921347D01*
X140057142Y-77921347D02*
X140057142Y-77992776D01*
X140057142Y-77992776D02*
X140033333Y-78040395D01*
X140033333Y-78040395D02*
X140009523Y-78064204D01*
X140009523Y-78064204D02*
X139961904Y-78088014D01*
X139961904Y-78088014D02*
X139771428Y-78088014D01*
X140247619Y-77873728D02*
X140271428Y-77849919D01*
X140271428Y-77849919D02*
X140319047Y-77826109D01*
X140319047Y-77826109D02*
X140438095Y-77826109D01*
X140438095Y-77826109D02*
X140485714Y-77849919D01*
X140485714Y-77849919D02*
X140509523Y-77873728D01*
X140509523Y-77873728D02*
X140533333Y-77921347D01*
X140533333Y-77921347D02*
X140533333Y-77968966D01*
X140533333Y-77968966D02*
X140509523Y-78040395D01*
X140509523Y-78040395D02*
X140223809Y-78326109D01*
X140223809Y-78326109D02*
X140533333Y-78326109D01*
X128416666Y-85126109D02*
X128250000Y-84888014D01*
X128130952Y-85126109D02*
X128130952Y-84626109D01*
X128130952Y-84626109D02*
X128321428Y-84626109D01*
X128321428Y-84626109D02*
X128369047Y-84649919D01*
X128369047Y-84649919D02*
X128392857Y-84673728D01*
X128392857Y-84673728D02*
X128416666Y-84721347D01*
X128416666Y-84721347D02*
X128416666Y-84792776D01*
X128416666Y-84792776D02*
X128392857Y-84840395D01*
X128392857Y-84840395D02*
X128369047Y-84864204D01*
X128369047Y-84864204D02*
X128321428Y-84888014D01*
X128321428Y-84888014D02*
X128130952Y-84888014D01*
X128869047Y-84626109D02*
X128630952Y-84626109D01*
X128630952Y-84626109D02*
X128607143Y-84864204D01*
X128607143Y-84864204D02*
X128630952Y-84840395D01*
X128630952Y-84840395D02*
X128678571Y-84816585D01*
X128678571Y-84816585D02*
X128797619Y-84816585D01*
X128797619Y-84816585D02*
X128845238Y-84840395D01*
X128845238Y-84840395D02*
X128869047Y-84864204D01*
X128869047Y-84864204D02*
X128892857Y-84911823D01*
X128892857Y-84911823D02*
X128892857Y-85030871D01*
X128892857Y-85030871D02*
X128869047Y-85078490D01*
X128869047Y-85078490D02*
X128845238Y-85102300D01*
X128845238Y-85102300D02*
X128797619Y-85126109D01*
X128797619Y-85126109D02*
X128678571Y-85126109D01*
X128678571Y-85126109D02*
X128630952Y-85102300D01*
X128630952Y-85102300D02*
X128607143Y-85078490D01*
X105866071Y-106966109D02*
X105699405Y-106728014D01*
X105580357Y-106966109D02*
X105580357Y-106466109D01*
X105580357Y-106466109D02*
X105770833Y-106466109D01*
X105770833Y-106466109D02*
X105818452Y-106489919D01*
X105818452Y-106489919D02*
X105842262Y-106513728D01*
X105842262Y-106513728D02*
X105866071Y-106561347D01*
X105866071Y-106561347D02*
X105866071Y-106632776D01*
X105866071Y-106632776D02*
X105842262Y-106680395D01*
X105842262Y-106680395D02*
X105818452Y-106704204D01*
X105818452Y-106704204D02*
X105770833Y-106728014D01*
X105770833Y-106728014D02*
X105580357Y-106728014D01*
X106032738Y-106466109D02*
X106342262Y-106466109D01*
X106342262Y-106466109D02*
X106175595Y-106656585D01*
X106175595Y-106656585D02*
X106247024Y-106656585D01*
X106247024Y-106656585D02*
X106294643Y-106680395D01*
X106294643Y-106680395D02*
X106318452Y-106704204D01*
X106318452Y-106704204D02*
X106342262Y-106751823D01*
X106342262Y-106751823D02*
X106342262Y-106870871D01*
X106342262Y-106870871D02*
X106318452Y-106918490D01*
X106318452Y-106918490D02*
X106294643Y-106942300D01*
X106294643Y-106942300D02*
X106247024Y-106966109D01*
X106247024Y-106966109D02*
X106104167Y-106966109D01*
X106104167Y-106966109D02*
X106056548Y-106942300D01*
X106056548Y-106942300D02*
X106032738Y-106918490D01*
X106770833Y-106466109D02*
X106675595Y-106466109D01*
X106675595Y-106466109D02*
X106627976Y-106489919D01*
X106627976Y-106489919D02*
X106604166Y-106513728D01*
X106604166Y-106513728D02*
X106556547Y-106585157D01*
X106556547Y-106585157D02*
X106532738Y-106680395D01*
X106532738Y-106680395D02*
X106532738Y-106870871D01*
X106532738Y-106870871D02*
X106556547Y-106918490D01*
X106556547Y-106918490D02*
X106580357Y-106942300D01*
X106580357Y-106942300D02*
X106627976Y-106966109D01*
X106627976Y-106966109D02*
X106723214Y-106966109D01*
X106723214Y-106966109D02*
X106770833Y-106942300D01*
X106770833Y-106942300D02*
X106794642Y-106918490D01*
X106794642Y-106918490D02*
X106818452Y-106870871D01*
X106818452Y-106870871D02*
X106818452Y-106751823D01*
X106818452Y-106751823D02*
X106794642Y-106704204D01*
X106794642Y-106704204D02*
X106770833Y-106680395D01*
X106770833Y-106680395D02*
X106723214Y-106656585D01*
X106723214Y-106656585D02*
X106627976Y-106656585D01*
X106627976Y-106656585D02*
X106580357Y-106680395D01*
X106580357Y-106680395D02*
X106556547Y-106704204D01*
X106556547Y-106704204D02*
X106532738Y-106751823D01*
X130576109Y-100633333D02*
X130338014Y-100799999D01*
X130576109Y-100919047D02*
X130076109Y-100919047D01*
X130076109Y-100919047D02*
X130076109Y-100728571D01*
X130076109Y-100728571D02*
X130099919Y-100680952D01*
X130099919Y-100680952D02*
X130123728Y-100657142D01*
X130123728Y-100657142D02*
X130171347Y-100633333D01*
X130171347Y-100633333D02*
X130242776Y-100633333D01*
X130242776Y-100633333D02*
X130290395Y-100657142D01*
X130290395Y-100657142D02*
X130314204Y-100680952D01*
X130314204Y-100680952D02*
X130338014Y-100728571D01*
X130338014Y-100728571D02*
X130338014Y-100919047D01*
X130242776Y-100204761D02*
X130576109Y-100204761D01*
X130052300Y-100323809D02*
X130409442Y-100442856D01*
X130409442Y-100442856D02*
X130409442Y-100133333D01*
X143593571Y-84476109D02*
X143426905Y-84238014D01*
X143307857Y-84476109D02*
X143307857Y-83976109D01*
X143307857Y-83976109D02*
X143498333Y-83976109D01*
X143498333Y-83976109D02*
X143545952Y-83999919D01*
X143545952Y-83999919D02*
X143569762Y-84023728D01*
X143569762Y-84023728D02*
X143593571Y-84071347D01*
X143593571Y-84071347D02*
X143593571Y-84142776D01*
X143593571Y-84142776D02*
X143569762Y-84190395D01*
X143569762Y-84190395D02*
X143545952Y-84214204D01*
X143545952Y-84214204D02*
X143498333Y-84238014D01*
X143498333Y-84238014D02*
X143307857Y-84238014D01*
X143784048Y-84023728D02*
X143807857Y-83999919D01*
X143807857Y-83999919D02*
X143855476Y-83976109D01*
X143855476Y-83976109D02*
X143974524Y-83976109D01*
X143974524Y-83976109D02*
X144022143Y-83999919D01*
X144022143Y-83999919D02*
X144045952Y-84023728D01*
X144045952Y-84023728D02*
X144069762Y-84071347D01*
X144069762Y-84071347D02*
X144069762Y-84118966D01*
X144069762Y-84118966D02*
X144045952Y-84190395D01*
X144045952Y-84190395D02*
X143760238Y-84476109D01*
X143760238Y-84476109D02*
X144069762Y-84476109D01*
X144498333Y-84142776D02*
X144498333Y-84476109D01*
X144379285Y-83952300D02*
X144260238Y-84309442D01*
X144260238Y-84309442D02*
X144569761Y-84309442D01*
X148969048Y-79326109D02*
X149254762Y-79326109D01*
X149111905Y-79826109D02*
X149111905Y-79326109D01*
X149421428Y-79826109D02*
X149421428Y-79326109D01*
X149421428Y-79326109D02*
X149611904Y-79326109D01*
X149611904Y-79326109D02*
X149659523Y-79349919D01*
X149659523Y-79349919D02*
X149683333Y-79373728D01*
X149683333Y-79373728D02*
X149707142Y-79421347D01*
X149707142Y-79421347D02*
X149707142Y-79492776D01*
X149707142Y-79492776D02*
X149683333Y-79540395D01*
X149683333Y-79540395D02*
X149659523Y-79564204D01*
X149659523Y-79564204D02*
X149611904Y-79588014D01*
X149611904Y-79588014D02*
X149421428Y-79588014D01*
X150183333Y-79826109D02*
X149897619Y-79826109D01*
X150040476Y-79826109D02*
X150040476Y-79326109D01*
X150040476Y-79326109D02*
X149992857Y-79397538D01*
X149992857Y-79397538D02*
X149945238Y-79445157D01*
X149945238Y-79445157D02*
X149897619Y-79468966D01*
X144088609Y-83119047D02*
X143588609Y-83119047D01*
X143588609Y-83119047D02*
X143588609Y-82999999D01*
X143588609Y-82999999D02*
X143612419Y-82928571D01*
X143612419Y-82928571D02*
X143660038Y-82880952D01*
X143660038Y-82880952D02*
X143707657Y-82857142D01*
X143707657Y-82857142D02*
X143802895Y-82833333D01*
X143802895Y-82833333D02*
X143874323Y-82833333D01*
X143874323Y-82833333D02*
X143969561Y-82857142D01*
X143969561Y-82857142D02*
X144017180Y-82880952D01*
X144017180Y-82880952D02*
X144064800Y-82928571D01*
X144064800Y-82928571D02*
X144088609Y-82999999D01*
X144088609Y-82999999D02*
X144088609Y-83119047D01*
X143588609Y-82404761D02*
X143588609Y-82499999D01*
X143588609Y-82499999D02*
X143612419Y-82547618D01*
X143612419Y-82547618D02*
X143636228Y-82571428D01*
X143636228Y-82571428D02*
X143707657Y-82619047D01*
X143707657Y-82619047D02*
X143802895Y-82642856D01*
X143802895Y-82642856D02*
X143993371Y-82642856D01*
X143993371Y-82642856D02*
X144040990Y-82619047D01*
X144040990Y-82619047D02*
X144064800Y-82595237D01*
X144064800Y-82595237D02*
X144088609Y-82547618D01*
X144088609Y-82547618D02*
X144088609Y-82452380D01*
X144088609Y-82452380D02*
X144064800Y-82404761D01*
X144064800Y-82404761D02*
X144040990Y-82380952D01*
X144040990Y-82380952D02*
X143993371Y-82357142D01*
X143993371Y-82357142D02*
X143874323Y-82357142D01*
X143874323Y-82357142D02*
X143826704Y-82380952D01*
X143826704Y-82380952D02*
X143802895Y-82404761D01*
X143802895Y-82404761D02*
X143779085Y-82452380D01*
X143779085Y-82452380D02*
X143779085Y-82547618D01*
X143779085Y-82547618D02*
X143802895Y-82595237D01*
X143802895Y-82595237D02*
X143826704Y-82619047D01*
X143826704Y-82619047D02*
X143874323Y-82642856D01*
X118066666Y-91478490D02*
X118042857Y-91502300D01*
X118042857Y-91502300D02*
X117971428Y-91526109D01*
X117971428Y-91526109D02*
X117923809Y-91526109D01*
X117923809Y-91526109D02*
X117852381Y-91502300D01*
X117852381Y-91502300D02*
X117804762Y-91454680D01*
X117804762Y-91454680D02*
X117780952Y-91407061D01*
X117780952Y-91407061D02*
X117757143Y-91311823D01*
X117757143Y-91311823D02*
X117757143Y-91240395D01*
X117757143Y-91240395D02*
X117780952Y-91145157D01*
X117780952Y-91145157D02*
X117804762Y-91097538D01*
X117804762Y-91097538D02*
X117852381Y-91049919D01*
X117852381Y-91049919D02*
X117923809Y-91026109D01*
X117923809Y-91026109D02*
X117971428Y-91026109D01*
X117971428Y-91026109D02*
X118042857Y-91049919D01*
X118042857Y-91049919D02*
X118066666Y-91073728D01*
X118352381Y-91240395D02*
X118304762Y-91216585D01*
X118304762Y-91216585D02*
X118280952Y-91192776D01*
X118280952Y-91192776D02*
X118257143Y-91145157D01*
X118257143Y-91145157D02*
X118257143Y-91121347D01*
X118257143Y-91121347D02*
X118280952Y-91073728D01*
X118280952Y-91073728D02*
X118304762Y-91049919D01*
X118304762Y-91049919D02*
X118352381Y-91026109D01*
X118352381Y-91026109D02*
X118447619Y-91026109D01*
X118447619Y-91026109D02*
X118495238Y-91049919D01*
X118495238Y-91049919D02*
X118519047Y-91073728D01*
X118519047Y-91073728D02*
X118542857Y-91121347D01*
X118542857Y-91121347D02*
X118542857Y-91145157D01*
X118542857Y-91145157D02*
X118519047Y-91192776D01*
X118519047Y-91192776D02*
X118495238Y-91216585D01*
X118495238Y-91216585D02*
X118447619Y-91240395D01*
X118447619Y-91240395D02*
X118352381Y-91240395D01*
X118352381Y-91240395D02*
X118304762Y-91264204D01*
X118304762Y-91264204D02*
X118280952Y-91288014D01*
X118280952Y-91288014D02*
X118257143Y-91335633D01*
X118257143Y-91335633D02*
X118257143Y-91430871D01*
X118257143Y-91430871D02*
X118280952Y-91478490D01*
X118280952Y-91478490D02*
X118304762Y-91502300D01*
X118304762Y-91502300D02*
X118352381Y-91526109D01*
X118352381Y-91526109D02*
X118447619Y-91526109D01*
X118447619Y-91526109D02*
X118495238Y-91502300D01*
X118495238Y-91502300D02*
X118519047Y-91478490D01*
X118519047Y-91478490D02*
X118542857Y-91430871D01*
X118542857Y-91430871D02*
X118542857Y-91335633D01*
X118542857Y-91335633D02*
X118519047Y-91288014D01*
X118519047Y-91288014D02*
X118495238Y-91264204D01*
X118495238Y-91264204D02*
X118447619Y-91240395D01*
X138471071Y-87376109D02*
X138304405Y-87138014D01*
X138185357Y-87376109D02*
X138185357Y-86876109D01*
X138185357Y-86876109D02*
X138375833Y-86876109D01*
X138375833Y-86876109D02*
X138423452Y-86899919D01*
X138423452Y-86899919D02*
X138447262Y-86923728D01*
X138447262Y-86923728D02*
X138471071Y-86971347D01*
X138471071Y-86971347D02*
X138471071Y-87042776D01*
X138471071Y-87042776D02*
X138447262Y-87090395D01*
X138447262Y-87090395D02*
X138423452Y-87114204D01*
X138423452Y-87114204D02*
X138375833Y-87138014D01*
X138375833Y-87138014D02*
X138185357Y-87138014D01*
X138661548Y-86923728D02*
X138685357Y-86899919D01*
X138685357Y-86899919D02*
X138732976Y-86876109D01*
X138732976Y-86876109D02*
X138852024Y-86876109D01*
X138852024Y-86876109D02*
X138899643Y-86899919D01*
X138899643Y-86899919D02*
X138923452Y-86923728D01*
X138923452Y-86923728D02*
X138947262Y-86971347D01*
X138947262Y-86971347D02*
X138947262Y-87018966D01*
X138947262Y-87018966D02*
X138923452Y-87090395D01*
X138923452Y-87090395D02*
X138637738Y-87376109D01*
X138637738Y-87376109D02*
X138947262Y-87376109D01*
X139256785Y-86876109D02*
X139304404Y-86876109D01*
X139304404Y-86876109D02*
X139352023Y-86899919D01*
X139352023Y-86899919D02*
X139375833Y-86923728D01*
X139375833Y-86923728D02*
X139399642Y-86971347D01*
X139399642Y-86971347D02*
X139423452Y-87066585D01*
X139423452Y-87066585D02*
X139423452Y-87185633D01*
X139423452Y-87185633D02*
X139399642Y-87280871D01*
X139399642Y-87280871D02*
X139375833Y-87328490D01*
X139375833Y-87328490D02*
X139352023Y-87352300D01*
X139352023Y-87352300D02*
X139304404Y-87376109D01*
X139304404Y-87376109D02*
X139256785Y-87376109D01*
X139256785Y-87376109D02*
X139209166Y-87352300D01*
X139209166Y-87352300D02*
X139185357Y-87328490D01*
X139185357Y-87328490D02*
X139161547Y-87280871D01*
X139161547Y-87280871D02*
X139137738Y-87185633D01*
X139137738Y-87185633D02*
X139137738Y-87066585D01*
X139137738Y-87066585D02*
X139161547Y-86971347D01*
X139161547Y-86971347D02*
X139185357Y-86923728D01*
X139185357Y-86923728D02*
X139209166Y-86899919D01*
X139209166Y-86899919D02*
X139256785Y-86876109D01*
X123049043Y-92788609D02*
X123049043Y-93193371D01*
X123049043Y-93193371D02*
X123072853Y-93240990D01*
X123072853Y-93240990D02*
X123096662Y-93264800D01*
X123096662Y-93264800D02*
X123144281Y-93288609D01*
X123144281Y-93288609D02*
X123239519Y-93288609D01*
X123239519Y-93288609D02*
X123287138Y-93264800D01*
X123287138Y-93264800D02*
X123310948Y-93240990D01*
X123310948Y-93240990D02*
X123334757Y-93193371D01*
X123334757Y-93193371D02*
X123334757Y-92788609D01*
X123834758Y-93288609D02*
X123549044Y-93288609D01*
X123691901Y-93288609D02*
X123691901Y-92788609D01*
X123691901Y-92788609D02*
X123644282Y-92860038D01*
X123644282Y-92860038D02*
X123596663Y-92907657D01*
X123596663Y-92907657D02*
X123549044Y-92931466D01*
X134398571Y-71778490D02*
X134374762Y-71802300D01*
X134374762Y-71802300D02*
X134303333Y-71826109D01*
X134303333Y-71826109D02*
X134255714Y-71826109D01*
X134255714Y-71826109D02*
X134184286Y-71802300D01*
X134184286Y-71802300D02*
X134136667Y-71754680D01*
X134136667Y-71754680D02*
X134112857Y-71707061D01*
X134112857Y-71707061D02*
X134089048Y-71611823D01*
X134089048Y-71611823D02*
X134089048Y-71540395D01*
X134089048Y-71540395D02*
X134112857Y-71445157D01*
X134112857Y-71445157D02*
X134136667Y-71397538D01*
X134136667Y-71397538D02*
X134184286Y-71349919D01*
X134184286Y-71349919D02*
X134255714Y-71326109D01*
X134255714Y-71326109D02*
X134303333Y-71326109D01*
X134303333Y-71326109D02*
X134374762Y-71349919D01*
X134374762Y-71349919D02*
X134398571Y-71373728D01*
X134589048Y-71373728D02*
X134612857Y-71349919D01*
X134612857Y-71349919D02*
X134660476Y-71326109D01*
X134660476Y-71326109D02*
X134779524Y-71326109D01*
X134779524Y-71326109D02*
X134827143Y-71349919D01*
X134827143Y-71349919D02*
X134850952Y-71373728D01*
X134850952Y-71373728D02*
X134874762Y-71421347D01*
X134874762Y-71421347D02*
X134874762Y-71468966D01*
X134874762Y-71468966D02*
X134850952Y-71540395D01*
X134850952Y-71540395D02*
X134565238Y-71826109D01*
X134565238Y-71826109D02*
X134874762Y-71826109D01*
X135041428Y-71326109D02*
X135374761Y-71326109D01*
X135374761Y-71326109D02*
X135160476Y-71826109D01*
X148079880Y-84023728D02*
X148032261Y-83999919D01*
X148032261Y-83999919D02*
X147984642Y-83952300D01*
X147984642Y-83952300D02*
X147913214Y-83880871D01*
X147913214Y-83880871D02*
X147865595Y-83857061D01*
X147865595Y-83857061D02*
X147817976Y-83857061D01*
X147841785Y-83976109D02*
X147794166Y-83952300D01*
X147794166Y-83952300D02*
X147746547Y-83904680D01*
X147746547Y-83904680D02*
X147722738Y-83809442D01*
X147722738Y-83809442D02*
X147722738Y-83642776D01*
X147722738Y-83642776D02*
X147746547Y-83547538D01*
X147746547Y-83547538D02*
X147794166Y-83499919D01*
X147794166Y-83499919D02*
X147841785Y-83476109D01*
X147841785Y-83476109D02*
X147937023Y-83476109D01*
X147937023Y-83476109D02*
X147984642Y-83499919D01*
X147984642Y-83499919D02*
X148032261Y-83547538D01*
X148032261Y-83547538D02*
X148056071Y-83642776D01*
X148056071Y-83642776D02*
X148056071Y-83809442D01*
X148056071Y-83809442D02*
X148032261Y-83904680D01*
X148032261Y-83904680D02*
X147984642Y-83952300D01*
X147984642Y-83952300D02*
X147937023Y-83976109D01*
X147937023Y-83976109D02*
X147841785Y-83976109D01*
X148532262Y-83976109D02*
X148246548Y-83976109D01*
X148389405Y-83976109D02*
X148389405Y-83476109D01*
X148389405Y-83476109D02*
X148341786Y-83547538D01*
X148341786Y-83547538D02*
X148294167Y-83595157D01*
X148294167Y-83595157D02*
X148246548Y-83618966D01*
X121511905Y-99638014D02*
X121511905Y-99876109D01*
X121345239Y-99376109D02*
X121511905Y-99638014D01*
X121511905Y-99638014D02*
X121678572Y-99376109D01*
X122107143Y-99876109D02*
X121821429Y-99876109D01*
X121964286Y-99876109D02*
X121964286Y-99376109D01*
X121964286Y-99376109D02*
X121916667Y-99447538D01*
X121916667Y-99447538D02*
X121869048Y-99495157D01*
X121869048Y-99495157D02*
X121821429Y-99518966D01*
X123126109Y-85083333D02*
X122888014Y-85249999D01*
X123126109Y-85369047D02*
X122626109Y-85369047D01*
X122626109Y-85369047D02*
X122626109Y-85178571D01*
X122626109Y-85178571D02*
X122649919Y-85130952D01*
X122649919Y-85130952D02*
X122673728Y-85107142D01*
X122673728Y-85107142D02*
X122721347Y-85083333D01*
X122721347Y-85083333D02*
X122792776Y-85083333D01*
X122792776Y-85083333D02*
X122840395Y-85107142D01*
X122840395Y-85107142D02*
X122864204Y-85130952D01*
X122864204Y-85130952D02*
X122888014Y-85178571D01*
X122888014Y-85178571D02*
X122888014Y-85369047D01*
X122626109Y-84916666D02*
X122626109Y-84583333D01*
X122626109Y-84583333D02*
X123126109Y-84797618D01*
X123658565Y-74321428D02*
X123420470Y-74488094D01*
X123658565Y-74607142D02*
X123158565Y-74607142D01*
X123158565Y-74607142D02*
X123158565Y-74416666D01*
X123158565Y-74416666D02*
X123182375Y-74369047D01*
X123182375Y-74369047D02*
X123206184Y-74345237D01*
X123206184Y-74345237D02*
X123253803Y-74321428D01*
X123253803Y-74321428D02*
X123325232Y-74321428D01*
X123325232Y-74321428D02*
X123372851Y-74345237D01*
X123372851Y-74345237D02*
X123396660Y-74369047D01*
X123396660Y-74369047D02*
X123420470Y-74416666D01*
X123420470Y-74416666D02*
X123420470Y-74607142D01*
X123658565Y-73845237D02*
X123658565Y-74130951D01*
X123658565Y-73988094D02*
X123158565Y-73988094D01*
X123158565Y-73988094D02*
X123229994Y-74035713D01*
X123229994Y-74035713D02*
X123277613Y-74083332D01*
X123277613Y-74083332D02*
X123301422Y-74130951D01*
X123206184Y-73654761D02*
X123182375Y-73630952D01*
X123182375Y-73630952D02*
X123158565Y-73583333D01*
X123158565Y-73583333D02*
X123158565Y-73464285D01*
X123158565Y-73464285D02*
X123182375Y-73416666D01*
X123182375Y-73416666D02*
X123206184Y-73392857D01*
X123206184Y-73392857D02*
X123253803Y-73369047D01*
X123253803Y-73369047D02*
X123301422Y-73369047D01*
X123301422Y-73369047D02*
X123372851Y-73392857D01*
X123372851Y-73392857D02*
X123658565Y-73678571D01*
X123658565Y-73678571D02*
X123658565Y-73369047D01*
X147769048Y-73926109D02*
X148054762Y-73926109D01*
X147911905Y-74426109D02*
X147911905Y-73926109D01*
X148221428Y-74426109D02*
X148221428Y-73926109D01*
X148221428Y-73926109D02*
X148411904Y-73926109D01*
X148411904Y-73926109D02*
X148459523Y-73949919D01*
X148459523Y-73949919D02*
X148483333Y-73973728D01*
X148483333Y-73973728D02*
X148507142Y-74021347D01*
X148507142Y-74021347D02*
X148507142Y-74092776D01*
X148507142Y-74092776D02*
X148483333Y-74140395D01*
X148483333Y-74140395D02*
X148459523Y-74164204D01*
X148459523Y-74164204D02*
X148411904Y-74188014D01*
X148411904Y-74188014D02*
X148221428Y-74188014D01*
X148959523Y-73926109D02*
X148721428Y-73926109D01*
X148721428Y-73926109D02*
X148697619Y-74164204D01*
X148697619Y-74164204D02*
X148721428Y-74140395D01*
X148721428Y-74140395D02*
X148769047Y-74116585D01*
X148769047Y-74116585D02*
X148888095Y-74116585D01*
X148888095Y-74116585D02*
X148935714Y-74140395D01*
X148935714Y-74140395D02*
X148959523Y-74164204D01*
X148959523Y-74164204D02*
X148983333Y-74211823D01*
X148983333Y-74211823D02*
X148983333Y-74330871D01*
X148983333Y-74330871D02*
X148959523Y-74378490D01*
X148959523Y-74378490D02*
X148935714Y-74402300D01*
X148935714Y-74402300D02*
X148888095Y-74426109D01*
X148888095Y-74426109D02*
X148769047Y-74426109D01*
X148769047Y-74426109D02*
X148721428Y-74402300D01*
X148721428Y-74402300D02*
X148697619Y-74378490D01*
X138226109Y-88531547D02*
X137726109Y-88531547D01*
X137726109Y-88531547D02*
X137726109Y-88412499D01*
X137726109Y-88412499D02*
X137749919Y-88341071D01*
X137749919Y-88341071D02*
X137797538Y-88293452D01*
X137797538Y-88293452D02*
X137845157Y-88269642D01*
X137845157Y-88269642D02*
X137940395Y-88245833D01*
X137940395Y-88245833D02*
X138011823Y-88245833D01*
X138011823Y-88245833D02*
X138107061Y-88269642D01*
X138107061Y-88269642D02*
X138154680Y-88293452D01*
X138154680Y-88293452D02*
X138202300Y-88341071D01*
X138202300Y-88341071D02*
X138226109Y-88412499D01*
X138226109Y-88412499D02*
X138226109Y-88531547D01*
X137773728Y-88055356D02*
X137749919Y-88031547D01*
X137749919Y-88031547D02*
X137726109Y-87983928D01*
X137726109Y-87983928D02*
X137726109Y-87864880D01*
X137726109Y-87864880D02*
X137749919Y-87817261D01*
X137749919Y-87817261D02*
X137773728Y-87793452D01*
X137773728Y-87793452D02*
X137821347Y-87769642D01*
X137821347Y-87769642D02*
X137868966Y-87769642D01*
X137868966Y-87769642D02*
X137940395Y-87793452D01*
X137940395Y-87793452D02*
X138226109Y-88079166D01*
X138226109Y-88079166D02*
X138226109Y-87769642D01*
X113369048Y-111078109D02*
X113654762Y-111078109D01*
X113511905Y-111578109D02*
X113511905Y-111078109D01*
X113821428Y-111578109D02*
X113821428Y-111078109D01*
X113821428Y-111078109D02*
X114011904Y-111078109D01*
X114011904Y-111078109D02*
X114059523Y-111101919D01*
X114059523Y-111101919D02*
X114083333Y-111125728D01*
X114083333Y-111125728D02*
X114107142Y-111173347D01*
X114107142Y-111173347D02*
X114107142Y-111244776D01*
X114107142Y-111244776D02*
X114083333Y-111292395D01*
X114083333Y-111292395D02*
X114059523Y-111316204D01*
X114059523Y-111316204D02*
X114011904Y-111340014D01*
X114011904Y-111340014D02*
X113821428Y-111340014D01*
X114392857Y-111292395D02*
X114345238Y-111268585D01*
X114345238Y-111268585D02*
X114321428Y-111244776D01*
X114321428Y-111244776D02*
X114297619Y-111197157D01*
X114297619Y-111197157D02*
X114297619Y-111173347D01*
X114297619Y-111173347D02*
X114321428Y-111125728D01*
X114321428Y-111125728D02*
X114345238Y-111101919D01*
X114345238Y-111101919D02*
X114392857Y-111078109D01*
X114392857Y-111078109D02*
X114488095Y-111078109D01*
X114488095Y-111078109D02*
X114535714Y-111101919D01*
X114535714Y-111101919D02*
X114559523Y-111125728D01*
X114559523Y-111125728D02*
X114583333Y-111173347D01*
X114583333Y-111173347D02*
X114583333Y-111197157D01*
X114583333Y-111197157D02*
X114559523Y-111244776D01*
X114559523Y-111244776D02*
X114535714Y-111268585D01*
X114535714Y-111268585D02*
X114488095Y-111292395D01*
X114488095Y-111292395D02*
X114392857Y-111292395D01*
X114392857Y-111292395D02*
X114345238Y-111316204D01*
X114345238Y-111316204D02*
X114321428Y-111340014D01*
X114321428Y-111340014D02*
X114297619Y-111387633D01*
X114297619Y-111387633D02*
X114297619Y-111482871D01*
X114297619Y-111482871D02*
X114321428Y-111530490D01*
X114321428Y-111530490D02*
X114345238Y-111554300D01*
X114345238Y-111554300D02*
X114392857Y-111578109D01*
X114392857Y-111578109D02*
X114488095Y-111578109D01*
X114488095Y-111578109D02*
X114535714Y-111554300D01*
X114535714Y-111554300D02*
X114559523Y-111530490D01*
X114559523Y-111530490D02*
X114583333Y-111482871D01*
X114583333Y-111482871D02*
X114583333Y-111387633D01*
X114583333Y-111387633D02*
X114559523Y-111340014D01*
X114559523Y-111340014D02*
X114535714Y-111316204D01*
X114535714Y-111316204D02*
X114488095Y-111292395D01*
X129093653Y-74221428D02*
X128855558Y-74388094D01*
X129093653Y-74507142D02*
X128593653Y-74507142D01*
X128593653Y-74507142D02*
X128593653Y-74316666D01*
X128593653Y-74316666D02*
X128617463Y-74269047D01*
X128617463Y-74269047D02*
X128641272Y-74245237D01*
X128641272Y-74245237D02*
X128688891Y-74221428D01*
X128688891Y-74221428D02*
X128760320Y-74221428D01*
X128760320Y-74221428D02*
X128807939Y-74245237D01*
X128807939Y-74245237D02*
X128831748Y-74269047D01*
X128831748Y-74269047D02*
X128855558Y-74316666D01*
X128855558Y-74316666D02*
X128855558Y-74507142D01*
X129093653Y-73745237D02*
X129093653Y-74030951D01*
X129093653Y-73888094D02*
X128593653Y-73888094D01*
X128593653Y-73888094D02*
X128665082Y-73935713D01*
X128665082Y-73935713D02*
X128712701Y-73983332D01*
X128712701Y-73983332D02*
X128736510Y-74030951D01*
X129093653Y-73269047D02*
X129093653Y-73554761D01*
X129093653Y-73411904D02*
X128593653Y-73411904D01*
X128593653Y-73411904D02*
X128665082Y-73459523D01*
X128665082Y-73459523D02*
X128712701Y-73507142D01*
X128712701Y-73507142D02*
X128736510Y-73554761D01*
X63819047Y-117826109D02*
X63819047Y-117326109D01*
X63819047Y-117564204D02*
X64104761Y-117564204D01*
X64104761Y-117826109D02*
X64104761Y-117326109D01*
X64295238Y-117326109D02*
X64604762Y-117326109D01*
X64604762Y-117326109D02*
X64438095Y-117516585D01*
X64438095Y-117516585D02*
X64509524Y-117516585D01*
X64509524Y-117516585D02*
X64557143Y-117540395D01*
X64557143Y-117540395D02*
X64580952Y-117564204D01*
X64580952Y-117564204D02*
X64604762Y-117611823D01*
X64604762Y-117611823D02*
X64604762Y-117730871D01*
X64604762Y-117730871D02*
X64580952Y-117778490D01*
X64580952Y-117778490D02*
X64557143Y-117802300D01*
X64557143Y-117802300D02*
X64509524Y-117826109D01*
X64509524Y-117826109D02*
X64366667Y-117826109D01*
X64366667Y-117826109D02*
X64319048Y-117802300D01*
X64319048Y-117802300D02*
X64295238Y-117778490D01*
X139228571Y-99486109D02*
X139061905Y-99248014D01*
X138942857Y-99486109D02*
X138942857Y-98986109D01*
X138942857Y-98986109D02*
X139133333Y-98986109D01*
X139133333Y-98986109D02*
X139180952Y-99009919D01*
X139180952Y-99009919D02*
X139204762Y-99033728D01*
X139204762Y-99033728D02*
X139228571Y-99081347D01*
X139228571Y-99081347D02*
X139228571Y-99152776D01*
X139228571Y-99152776D02*
X139204762Y-99200395D01*
X139204762Y-99200395D02*
X139180952Y-99224204D01*
X139180952Y-99224204D02*
X139133333Y-99248014D01*
X139133333Y-99248014D02*
X138942857Y-99248014D01*
X139704762Y-99486109D02*
X139419048Y-99486109D01*
X139561905Y-99486109D02*
X139561905Y-98986109D01*
X139561905Y-98986109D02*
X139514286Y-99057538D01*
X139514286Y-99057538D02*
X139466667Y-99105157D01*
X139466667Y-99105157D02*
X139419048Y-99128966D01*
X140133333Y-99152776D02*
X140133333Y-99486109D01*
X140014285Y-98962300D02*
X139895238Y-99319442D01*
X139895238Y-99319442D02*
X140204761Y-99319442D01*
X151369048Y-66576109D02*
X151654762Y-66576109D01*
X151511905Y-67076109D02*
X151511905Y-66576109D01*
X151821428Y-67076109D02*
X151821428Y-66576109D01*
X151821428Y-66576109D02*
X152011904Y-66576109D01*
X152011904Y-66576109D02*
X152059523Y-66599919D01*
X152059523Y-66599919D02*
X152083333Y-66623728D01*
X152083333Y-66623728D02*
X152107142Y-66671347D01*
X152107142Y-66671347D02*
X152107142Y-66742776D01*
X152107142Y-66742776D02*
X152083333Y-66790395D01*
X152083333Y-66790395D02*
X152059523Y-66814204D01*
X152059523Y-66814204D02*
X152011904Y-66838014D01*
X152011904Y-66838014D02*
X151821428Y-66838014D01*
X152535714Y-66576109D02*
X152440476Y-66576109D01*
X152440476Y-66576109D02*
X152392857Y-66599919D01*
X152392857Y-66599919D02*
X152369047Y-66623728D01*
X152369047Y-66623728D02*
X152321428Y-66695157D01*
X152321428Y-66695157D02*
X152297619Y-66790395D01*
X152297619Y-66790395D02*
X152297619Y-66980871D01*
X152297619Y-66980871D02*
X152321428Y-67028490D01*
X152321428Y-67028490D02*
X152345238Y-67052300D01*
X152345238Y-67052300D02*
X152392857Y-67076109D01*
X152392857Y-67076109D02*
X152488095Y-67076109D01*
X152488095Y-67076109D02*
X152535714Y-67052300D01*
X152535714Y-67052300D02*
X152559523Y-67028490D01*
X152559523Y-67028490D02*
X152583333Y-66980871D01*
X152583333Y-66980871D02*
X152583333Y-66861823D01*
X152583333Y-66861823D02*
X152559523Y-66814204D01*
X152559523Y-66814204D02*
X152535714Y-66790395D01*
X152535714Y-66790395D02*
X152488095Y-66766585D01*
X152488095Y-66766585D02*
X152392857Y-66766585D01*
X152392857Y-66766585D02*
X152345238Y-66790395D01*
X152345238Y-66790395D02*
X152321428Y-66814204D01*
X152321428Y-66814204D02*
X152297619Y-66861823D01*
X139128571Y-66278490D02*
X139104762Y-66302300D01*
X139104762Y-66302300D02*
X139033333Y-66326109D01*
X139033333Y-66326109D02*
X138985714Y-66326109D01*
X138985714Y-66326109D02*
X138914286Y-66302300D01*
X138914286Y-66302300D02*
X138866667Y-66254680D01*
X138866667Y-66254680D02*
X138842857Y-66207061D01*
X138842857Y-66207061D02*
X138819048Y-66111823D01*
X138819048Y-66111823D02*
X138819048Y-66040395D01*
X138819048Y-66040395D02*
X138842857Y-65945157D01*
X138842857Y-65945157D02*
X138866667Y-65897538D01*
X138866667Y-65897538D02*
X138914286Y-65849919D01*
X138914286Y-65849919D02*
X138985714Y-65826109D01*
X138985714Y-65826109D02*
X139033333Y-65826109D01*
X139033333Y-65826109D02*
X139104762Y-65849919D01*
X139104762Y-65849919D02*
X139128571Y-65873728D01*
X139319048Y-65873728D02*
X139342857Y-65849919D01*
X139342857Y-65849919D02*
X139390476Y-65826109D01*
X139390476Y-65826109D02*
X139509524Y-65826109D01*
X139509524Y-65826109D02*
X139557143Y-65849919D01*
X139557143Y-65849919D02*
X139580952Y-65873728D01*
X139580952Y-65873728D02*
X139604762Y-65921347D01*
X139604762Y-65921347D02*
X139604762Y-65968966D01*
X139604762Y-65968966D02*
X139580952Y-66040395D01*
X139580952Y-66040395D02*
X139295238Y-66326109D01*
X139295238Y-66326109D02*
X139604762Y-66326109D01*
X140033333Y-65826109D02*
X139938095Y-65826109D01*
X139938095Y-65826109D02*
X139890476Y-65849919D01*
X139890476Y-65849919D02*
X139866666Y-65873728D01*
X139866666Y-65873728D02*
X139819047Y-65945157D01*
X139819047Y-65945157D02*
X139795238Y-66040395D01*
X139795238Y-66040395D02*
X139795238Y-66230871D01*
X139795238Y-66230871D02*
X139819047Y-66278490D01*
X139819047Y-66278490D02*
X139842857Y-66302300D01*
X139842857Y-66302300D02*
X139890476Y-66326109D01*
X139890476Y-66326109D02*
X139985714Y-66326109D01*
X139985714Y-66326109D02*
X140033333Y-66302300D01*
X140033333Y-66302300D02*
X140057142Y-66278490D01*
X140057142Y-66278490D02*
X140080952Y-66230871D01*
X140080952Y-66230871D02*
X140080952Y-66111823D01*
X140080952Y-66111823D02*
X140057142Y-66064204D01*
X140057142Y-66064204D02*
X140033333Y-66040395D01*
X140033333Y-66040395D02*
X139985714Y-66016585D01*
X139985714Y-66016585D02*
X139890476Y-66016585D01*
X139890476Y-66016585D02*
X139842857Y-66040395D01*
X139842857Y-66040395D02*
X139819047Y-66064204D01*
X139819047Y-66064204D02*
X139795238Y-66111823D01*
X69569048Y-73078109D02*
X69854762Y-73078109D01*
X69711905Y-73578109D02*
X69711905Y-73078109D01*
X70021428Y-73578109D02*
X70021428Y-73078109D01*
X70021428Y-73078109D02*
X70211904Y-73078109D01*
X70211904Y-73078109D02*
X70259523Y-73101919D01*
X70259523Y-73101919D02*
X70283333Y-73125728D01*
X70283333Y-73125728D02*
X70307142Y-73173347D01*
X70307142Y-73173347D02*
X70307142Y-73244776D01*
X70307142Y-73244776D02*
X70283333Y-73292395D01*
X70283333Y-73292395D02*
X70259523Y-73316204D01*
X70259523Y-73316204D02*
X70211904Y-73340014D01*
X70211904Y-73340014D02*
X70021428Y-73340014D01*
X70473809Y-73078109D02*
X70807142Y-73078109D01*
X70807142Y-73078109D02*
X70592857Y-73578109D01*
X147976109Y-91294047D02*
X147476109Y-91294047D01*
X147476109Y-91294047D02*
X147476109Y-91174999D01*
X147476109Y-91174999D02*
X147499919Y-91103571D01*
X147499919Y-91103571D02*
X147547538Y-91055952D01*
X147547538Y-91055952D02*
X147595157Y-91032142D01*
X147595157Y-91032142D02*
X147690395Y-91008333D01*
X147690395Y-91008333D02*
X147761823Y-91008333D01*
X147761823Y-91008333D02*
X147857061Y-91032142D01*
X147857061Y-91032142D02*
X147904680Y-91055952D01*
X147904680Y-91055952D02*
X147952300Y-91103571D01*
X147952300Y-91103571D02*
X147976109Y-91174999D01*
X147976109Y-91174999D02*
X147976109Y-91294047D01*
X147476109Y-90555952D02*
X147476109Y-90794047D01*
X147476109Y-90794047D02*
X147714204Y-90817856D01*
X147714204Y-90817856D02*
X147690395Y-90794047D01*
X147690395Y-90794047D02*
X147666585Y-90746428D01*
X147666585Y-90746428D02*
X147666585Y-90627380D01*
X147666585Y-90627380D02*
X147690395Y-90579761D01*
X147690395Y-90579761D02*
X147714204Y-90555952D01*
X147714204Y-90555952D02*
X147761823Y-90532142D01*
X147761823Y-90532142D02*
X147880871Y-90532142D01*
X147880871Y-90532142D02*
X147928490Y-90555952D01*
X147928490Y-90555952D02*
X147952300Y-90579761D01*
X147952300Y-90579761D02*
X147976109Y-90627380D01*
X147976109Y-90627380D02*
X147976109Y-90746428D01*
X147976109Y-90746428D02*
X147952300Y-90794047D01*
X147952300Y-90794047D02*
X147928490Y-90817856D01*
X106056071Y-116316109D02*
X105889405Y-116078014D01*
X105770357Y-116316109D02*
X105770357Y-115816109D01*
X105770357Y-115816109D02*
X105960833Y-115816109D01*
X105960833Y-115816109D02*
X106008452Y-115839919D01*
X106008452Y-115839919D02*
X106032262Y-115863728D01*
X106032262Y-115863728D02*
X106056071Y-115911347D01*
X106056071Y-115911347D02*
X106056071Y-115982776D01*
X106056071Y-115982776D02*
X106032262Y-116030395D01*
X106032262Y-116030395D02*
X106008452Y-116054204D01*
X106008452Y-116054204D02*
X105960833Y-116078014D01*
X105960833Y-116078014D02*
X105770357Y-116078014D01*
X106222738Y-115816109D02*
X106532262Y-115816109D01*
X106532262Y-115816109D02*
X106365595Y-116006585D01*
X106365595Y-116006585D02*
X106437024Y-116006585D01*
X106437024Y-116006585D02*
X106484643Y-116030395D01*
X106484643Y-116030395D02*
X106508452Y-116054204D01*
X106508452Y-116054204D02*
X106532262Y-116101823D01*
X106532262Y-116101823D02*
X106532262Y-116220871D01*
X106532262Y-116220871D02*
X106508452Y-116268490D01*
X106508452Y-116268490D02*
X106484643Y-116292300D01*
X106484643Y-116292300D02*
X106437024Y-116316109D01*
X106437024Y-116316109D02*
X106294167Y-116316109D01*
X106294167Y-116316109D02*
X106246548Y-116292300D01*
X106246548Y-116292300D02*
X106222738Y-116268490D01*
X106698928Y-115816109D02*
X107032261Y-115816109D01*
X107032261Y-115816109D02*
X106817976Y-116316109D01*
X138226109Y-92869047D02*
X137726109Y-92869047D01*
X137726109Y-92869047D02*
X137726109Y-92749999D01*
X137726109Y-92749999D02*
X137749919Y-92678571D01*
X137749919Y-92678571D02*
X137797538Y-92630952D01*
X137797538Y-92630952D02*
X137845157Y-92607142D01*
X137845157Y-92607142D02*
X137940395Y-92583333D01*
X137940395Y-92583333D02*
X138011823Y-92583333D01*
X138011823Y-92583333D02*
X138107061Y-92607142D01*
X138107061Y-92607142D02*
X138154680Y-92630952D01*
X138154680Y-92630952D02*
X138202300Y-92678571D01*
X138202300Y-92678571D02*
X138226109Y-92749999D01*
X138226109Y-92749999D02*
X138226109Y-92869047D01*
X138226109Y-92107142D02*
X138226109Y-92392856D01*
X138226109Y-92249999D02*
X137726109Y-92249999D01*
X137726109Y-92249999D02*
X137797538Y-92297618D01*
X137797538Y-92297618D02*
X137845157Y-92345237D01*
X137845157Y-92345237D02*
X137868966Y-92392856D01*
X140281071Y-82676109D02*
X140114405Y-82438014D01*
X139995357Y-82676109D02*
X139995357Y-82176109D01*
X139995357Y-82176109D02*
X140185833Y-82176109D01*
X140185833Y-82176109D02*
X140233452Y-82199919D01*
X140233452Y-82199919D02*
X140257262Y-82223728D01*
X140257262Y-82223728D02*
X140281071Y-82271347D01*
X140281071Y-82271347D02*
X140281071Y-82342776D01*
X140281071Y-82342776D02*
X140257262Y-82390395D01*
X140257262Y-82390395D02*
X140233452Y-82414204D01*
X140233452Y-82414204D02*
X140185833Y-82438014D01*
X140185833Y-82438014D02*
X139995357Y-82438014D01*
X140447738Y-82176109D02*
X140757262Y-82176109D01*
X140757262Y-82176109D02*
X140590595Y-82366585D01*
X140590595Y-82366585D02*
X140662024Y-82366585D01*
X140662024Y-82366585D02*
X140709643Y-82390395D01*
X140709643Y-82390395D02*
X140733452Y-82414204D01*
X140733452Y-82414204D02*
X140757262Y-82461823D01*
X140757262Y-82461823D02*
X140757262Y-82580871D01*
X140757262Y-82580871D02*
X140733452Y-82628490D01*
X140733452Y-82628490D02*
X140709643Y-82652300D01*
X140709643Y-82652300D02*
X140662024Y-82676109D01*
X140662024Y-82676109D02*
X140519167Y-82676109D01*
X140519167Y-82676109D02*
X140471548Y-82652300D01*
X140471548Y-82652300D02*
X140447738Y-82628490D01*
X140995357Y-82676109D02*
X141090595Y-82676109D01*
X141090595Y-82676109D02*
X141138214Y-82652300D01*
X141138214Y-82652300D02*
X141162023Y-82628490D01*
X141162023Y-82628490D02*
X141209642Y-82557061D01*
X141209642Y-82557061D02*
X141233452Y-82461823D01*
X141233452Y-82461823D02*
X141233452Y-82271347D01*
X141233452Y-82271347D02*
X141209642Y-82223728D01*
X141209642Y-82223728D02*
X141185833Y-82199919D01*
X141185833Y-82199919D02*
X141138214Y-82176109D01*
X141138214Y-82176109D02*
X141042976Y-82176109D01*
X141042976Y-82176109D02*
X140995357Y-82199919D01*
X140995357Y-82199919D02*
X140971547Y-82223728D01*
X140971547Y-82223728D02*
X140947738Y-82271347D01*
X140947738Y-82271347D02*
X140947738Y-82390395D01*
X140947738Y-82390395D02*
X140971547Y-82438014D01*
X140971547Y-82438014D02*
X140995357Y-82461823D01*
X140995357Y-82461823D02*
X141042976Y-82485633D01*
X141042976Y-82485633D02*
X141138214Y-82485633D01*
X141138214Y-82485633D02*
X141185833Y-82461823D01*
X141185833Y-82461823D02*
X141209642Y-82438014D01*
X141209642Y-82438014D02*
X141233452Y-82390395D01*
X124716666Y-99728490D02*
X124692857Y-99752300D01*
X124692857Y-99752300D02*
X124621428Y-99776109D01*
X124621428Y-99776109D02*
X124573809Y-99776109D01*
X124573809Y-99776109D02*
X124502381Y-99752300D01*
X124502381Y-99752300D02*
X124454762Y-99704680D01*
X124454762Y-99704680D02*
X124430952Y-99657061D01*
X124430952Y-99657061D02*
X124407143Y-99561823D01*
X124407143Y-99561823D02*
X124407143Y-99490395D01*
X124407143Y-99490395D02*
X124430952Y-99395157D01*
X124430952Y-99395157D02*
X124454762Y-99347538D01*
X124454762Y-99347538D02*
X124502381Y-99299919D01*
X124502381Y-99299919D02*
X124573809Y-99276109D01*
X124573809Y-99276109D02*
X124621428Y-99276109D01*
X124621428Y-99276109D02*
X124692857Y-99299919D01*
X124692857Y-99299919D02*
X124716666Y-99323728D01*
X125145238Y-99442776D02*
X125145238Y-99776109D01*
X125026190Y-99252300D02*
X124907143Y-99609442D01*
X124907143Y-99609442D02*
X125216666Y-99609442D01*
X144968571Y-90176109D02*
X144801905Y-89938014D01*
X144682857Y-90176109D02*
X144682857Y-89676109D01*
X144682857Y-89676109D02*
X144873333Y-89676109D01*
X144873333Y-89676109D02*
X144920952Y-89699919D01*
X144920952Y-89699919D02*
X144944762Y-89723728D01*
X144944762Y-89723728D02*
X144968571Y-89771347D01*
X144968571Y-89771347D02*
X144968571Y-89842776D01*
X144968571Y-89842776D02*
X144944762Y-89890395D01*
X144944762Y-89890395D02*
X144920952Y-89914204D01*
X144920952Y-89914204D02*
X144873333Y-89938014D01*
X144873333Y-89938014D02*
X144682857Y-89938014D01*
X145159048Y-89723728D02*
X145182857Y-89699919D01*
X145182857Y-89699919D02*
X145230476Y-89676109D01*
X145230476Y-89676109D02*
X145349524Y-89676109D01*
X145349524Y-89676109D02*
X145397143Y-89699919D01*
X145397143Y-89699919D02*
X145420952Y-89723728D01*
X145420952Y-89723728D02*
X145444762Y-89771347D01*
X145444762Y-89771347D02*
X145444762Y-89818966D01*
X145444762Y-89818966D02*
X145420952Y-89890395D01*
X145420952Y-89890395D02*
X145135238Y-90176109D01*
X145135238Y-90176109D02*
X145444762Y-90176109D01*
X145920952Y-90176109D02*
X145635238Y-90176109D01*
X145778095Y-90176109D02*
X145778095Y-89676109D01*
X145778095Y-89676109D02*
X145730476Y-89747538D01*
X145730476Y-89747538D02*
X145682857Y-89795157D01*
X145682857Y-89795157D02*
X145635238Y-89818966D01*
X156919047Y-132426109D02*
X156919047Y-131926109D01*
X156919047Y-132164204D02*
X157204761Y-132164204D01*
X157204761Y-132426109D02*
X157204761Y-131926109D01*
X157657143Y-132092776D02*
X157657143Y-132426109D01*
X157538095Y-131902300D02*
X157419048Y-132259442D01*
X157419048Y-132259442D02*
X157728571Y-132259442D01*
X152433252Y-102471427D02*
X152433252Y-102233332D01*
X152576109Y-102519046D02*
X152076109Y-102352380D01*
X152076109Y-102352380D02*
X152576109Y-102185713D01*
X152076109Y-102090475D02*
X152576109Y-101923809D01*
X152576109Y-101923809D02*
X152076109Y-101757142D01*
X152576109Y-101328571D02*
X152576109Y-101614285D01*
X152576109Y-101471428D02*
X152076109Y-101471428D01*
X152076109Y-101471428D02*
X152147538Y-101519047D01*
X152147538Y-101519047D02*
X152195157Y-101566666D01*
X152195157Y-101566666D02*
X152218966Y-101614285D01*
X140331071Y-89726109D02*
X140164405Y-89488014D01*
X140045357Y-89726109D02*
X140045357Y-89226109D01*
X140045357Y-89226109D02*
X140235833Y-89226109D01*
X140235833Y-89226109D02*
X140283452Y-89249919D01*
X140283452Y-89249919D02*
X140307262Y-89273728D01*
X140307262Y-89273728D02*
X140331071Y-89321347D01*
X140331071Y-89321347D02*
X140331071Y-89392776D01*
X140331071Y-89392776D02*
X140307262Y-89440395D01*
X140307262Y-89440395D02*
X140283452Y-89464204D01*
X140283452Y-89464204D02*
X140235833Y-89488014D01*
X140235833Y-89488014D02*
X140045357Y-89488014D01*
X140497738Y-89226109D02*
X140807262Y-89226109D01*
X140807262Y-89226109D02*
X140640595Y-89416585D01*
X140640595Y-89416585D02*
X140712024Y-89416585D01*
X140712024Y-89416585D02*
X140759643Y-89440395D01*
X140759643Y-89440395D02*
X140783452Y-89464204D01*
X140783452Y-89464204D02*
X140807262Y-89511823D01*
X140807262Y-89511823D02*
X140807262Y-89630871D01*
X140807262Y-89630871D02*
X140783452Y-89678490D01*
X140783452Y-89678490D02*
X140759643Y-89702300D01*
X140759643Y-89702300D02*
X140712024Y-89726109D01*
X140712024Y-89726109D02*
X140569167Y-89726109D01*
X140569167Y-89726109D02*
X140521548Y-89702300D01*
X140521548Y-89702300D02*
X140497738Y-89678490D01*
X141092976Y-89440395D02*
X141045357Y-89416585D01*
X141045357Y-89416585D02*
X141021547Y-89392776D01*
X141021547Y-89392776D02*
X140997738Y-89345157D01*
X140997738Y-89345157D02*
X140997738Y-89321347D01*
X140997738Y-89321347D02*
X141021547Y-89273728D01*
X141021547Y-89273728D02*
X141045357Y-89249919D01*
X141045357Y-89249919D02*
X141092976Y-89226109D01*
X141092976Y-89226109D02*
X141188214Y-89226109D01*
X141188214Y-89226109D02*
X141235833Y-89249919D01*
X141235833Y-89249919D02*
X141259642Y-89273728D01*
X141259642Y-89273728D02*
X141283452Y-89321347D01*
X141283452Y-89321347D02*
X141283452Y-89345157D01*
X141283452Y-89345157D02*
X141259642Y-89392776D01*
X141259642Y-89392776D02*
X141235833Y-89416585D01*
X141235833Y-89416585D02*
X141188214Y-89440395D01*
X141188214Y-89440395D02*
X141092976Y-89440395D01*
X141092976Y-89440395D02*
X141045357Y-89464204D01*
X141045357Y-89464204D02*
X141021547Y-89488014D01*
X141021547Y-89488014D02*
X140997738Y-89535633D01*
X140997738Y-89535633D02*
X140997738Y-89630871D01*
X140997738Y-89630871D02*
X141021547Y-89678490D01*
X141021547Y-89678490D02*
X141045357Y-89702300D01*
X141045357Y-89702300D02*
X141092976Y-89726109D01*
X141092976Y-89726109D02*
X141188214Y-89726109D01*
X141188214Y-89726109D02*
X141235833Y-89702300D01*
X141235833Y-89702300D02*
X141259642Y-89678490D01*
X141259642Y-89678490D02*
X141283452Y-89630871D01*
X141283452Y-89630871D02*
X141283452Y-89535633D01*
X141283452Y-89535633D02*
X141259642Y-89488014D01*
X141259642Y-89488014D02*
X141235833Y-89464204D01*
X141235833Y-89464204D02*
X141188214Y-89440395D01*
X112452300Y-92316665D02*
X112476109Y-92245237D01*
X112476109Y-92245237D02*
X112476109Y-92126189D01*
X112476109Y-92126189D02*
X112452300Y-92078570D01*
X112452300Y-92078570D02*
X112428490Y-92054761D01*
X112428490Y-92054761D02*
X112380871Y-92030951D01*
X112380871Y-92030951D02*
X112333252Y-92030951D01*
X112333252Y-92030951D02*
X112285633Y-92054761D01*
X112285633Y-92054761D02*
X112261823Y-92078570D01*
X112261823Y-92078570D02*
X112238014Y-92126189D01*
X112238014Y-92126189D02*
X112214204Y-92221427D01*
X112214204Y-92221427D02*
X112190395Y-92269046D01*
X112190395Y-92269046D02*
X112166585Y-92292856D01*
X112166585Y-92292856D02*
X112118966Y-92316665D01*
X112118966Y-92316665D02*
X112071347Y-92316665D01*
X112071347Y-92316665D02*
X112023728Y-92292856D01*
X112023728Y-92292856D02*
X111999919Y-92269046D01*
X111999919Y-92269046D02*
X111976109Y-92221427D01*
X111976109Y-92221427D02*
X111976109Y-92102380D01*
X111976109Y-92102380D02*
X111999919Y-92030951D01*
X111976109Y-91864285D02*
X112476109Y-91745237D01*
X112476109Y-91745237D02*
X112118966Y-91649999D01*
X112118966Y-91649999D02*
X112476109Y-91554761D01*
X112476109Y-91554761D02*
X111976109Y-91435714D01*
X111976109Y-91292856D02*
X111976109Y-90983332D01*
X111976109Y-90983332D02*
X112166585Y-91149999D01*
X112166585Y-91149999D02*
X112166585Y-91078570D01*
X112166585Y-91078570D02*
X112190395Y-91030951D01*
X112190395Y-91030951D02*
X112214204Y-91007142D01*
X112214204Y-91007142D02*
X112261823Y-90983332D01*
X112261823Y-90983332D02*
X112380871Y-90983332D01*
X112380871Y-90983332D02*
X112428490Y-91007142D01*
X112428490Y-91007142D02*
X112452300Y-91030951D01*
X112452300Y-91030951D02*
X112476109Y-91078570D01*
X112476109Y-91078570D02*
X112476109Y-91221427D01*
X112476109Y-91221427D02*
X112452300Y-91269046D01*
X112452300Y-91269046D02*
X112428490Y-91292856D01*
X122826109Y-99183333D02*
X122588014Y-99349999D01*
X122826109Y-99469047D02*
X122326109Y-99469047D01*
X122326109Y-99469047D02*
X122326109Y-99278571D01*
X122326109Y-99278571D02*
X122349919Y-99230952D01*
X122349919Y-99230952D02*
X122373728Y-99207142D01*
X122373728Y-99207142D02*
X122421347Y-99183333D01*
X122421347Y-99183333D02*
X122492776Y-99183333D01*
X122492776Y-99183333D02*
X122540395Y-99207142D01*
X122540395Y-99207142D02*
X122564204Y-99230952D01*
X122564204Y-99230952D02*
X122588014Y-99278571D01*
X122588014Y-99278571D02*
X122588014Y-99469047D01*
X122373728Y-98992856D02*
X122349919Y-98969047D01*
X122349919Y-98969047D02*
X122326109Y-98921428D01*
X122326109Y-98921428D02*
X122326109Y-98802380D01*
X122326109Y-98802380D02*
X122349919Y-98754761D01*
X122349919Y-98754761D02*
X122373728Y-98730952D01*
X122373728Y-98730952D02*
X122421347Y-98707142D01*
X122421347Y-98707142D02*
X122468966Y-98707142D01*
X122468966Y-98707142D02*
X122540395Y-98730952D01*
X122540395Y-98730952D02*
X122826109Y-99016666D01*
X122826109Y-99016666D02*
X122826109Y-98707142D01*
X126233333Y-72876109D02*
X126233333Y-73233252D01*
X126233333Y-73233252D02*
X126209524Y-73304680D01*
X126209524Y-73304680D02*
X126161905Y-73352300D01*
X126161905Y-73352300D02*
X126090476Y-73376109D01*
X126090476Y-73376109D02*
X126042857Y-73376109D01*
X126733333Y-73376109D02*
X126447619Y-73376109D01*
X126590476Y-73376109D02*
X126590476Y-72876109D01*
X126590476Y-72876109D02*
X126542857Y-72947538D01*
X126542857Y-72947538D02*
X126495238Y-72995157D01*
X126495238Y-72995157D02*
X126447619Y-73018966D01*
X144968571Y-87476109D02*
X144801905Y-87238014D01*
X144682857Y-87476109D02*
X144682857Y-86976109D01*
X144682857Y-86976109D02*
X144873333Y-86976109D01*
X144873333Y-86976109D02*
X144920952Y-86999919D01*
X144920952Y-86999919D02*
X144944762Y-87023728D01*
X144944762Y-87023728D02*
X144968571Y-87071347D01*
X144968571Y-87071347D02*
X144968571Y-87142776D01*
X144968571Y-87142776D02*
X144944762Y-87190395D01*
X144944762Y-87190395D02*
X144920952Y-87214204D01*
X144920952Y-87214204D02*
X144873333Y-87238014D01*
X144873333Y-87238014D02*
X144682857Y-87238014D01*
X145444762Y-87476109D02*
X145159048Y-87476109D01*
X145301905Y-87476109D02*
X145301905Y-86976109D01*
X145301905Y-86976109D02*
X145254286Y-87047538D01*
X145254286Y-87047538D02*
X145206667Y-87095157D01*
X145206667Y-87095157D02*
X145159048Y-87118966D01*
X145611428Y-86976109D02*
X145944761Y-86976109D01*
X145944761Y-86976109D02*
X145730476Y-87476109D01*
X99603571Y-85091109D02*
X99436905Y-84853014D01*
X99317857Y-85091109D02*
X99317857Y-84591109D01*
X99317857Y-84591109D02*
X99508333Y-84591109D01*
X99508333Y-84591109D02*
X99555952Y-84614919D01*
X99555952Y-84614919D02*
X99579762Y-84638728D01*
X99579762Y-84638728D02*
X99603571Y-84686347D01*
X99603571Y-84686347D02*
X99603571Y-84757776D01*
X99603571Y-84757776D02*
X99579762Y-84805395D01*
X99579762Y-84805395D02*
X99555952Y-84829204D01*
X99555952Y-84829204D02*
X99508333Y-84853014D01*
X99508333Y-84853014D02*
X99317857Y-84853014D01*
X99770238Y-84591109D02*
X100079762Y-84591109D01*
X100079762Y-84591109D02*
X99913095Y-84781585D01*
X99913095Y-84781585D02*
X99984524Y-84781585D01*
X99984524Y-84781585D02*
X100032143Y-84805395D01*
X100032143Y-84805395D02*
X100055952Y-84829204D01*
X100055952Y-84829204D02*
X100079762Y-84876823D01*
X100079762Y-84876823D02*
X100079762Y-84995871D01*
X100079762Y-84995871D02*
X100055952Y-85043490D01*
X100055952Y-85043490D02*
X100032143Y-85067300D01*
X100032143Y-85067300D02*
X99984524Y-85091109D01*
X99984524Y-85091109D02*
X99841667Y-85091109D01*
X99841667Y-85091109D02*
X99794048Y-85067300D01*
X99794048Y-85067300D02*
X99770238Y-85043490D01*
X100389285Y-84591109D02*
X100436904Y-84591109D01*
X100436904Y-84591109D02*
X100484523Y-84614919D01*
X100484523Y-84614919D02*
X100508333Y-84638728D01*
X100508333Y-84638728D02*
X100532142Y-84686347D01*
X100532142Y-84686347D02*
X100555952Y-84781585D01*
X100555952Y-84781585D02*
X100555952Y-84900633D01*
X100555952Y-84900633D02*
X100532142Y-84995871D01*
X100532142Y-84995871D02*
X100508333Y-85043490D01*
X100508333Y-85043490D02*
X100484523Y-85067300D01*
X100484523Y-85067300D02*
X100436904Y-85091109D01*
X100436904Y-85091109D02*
X100389285Y-85091109D01*
X100389285Y-85091109D02*
X100341666Y-85067300D01*
X100341666Y-85067300D02*
X100317857Y-85043490D01*
X100317857Y-85043490D02*
X100294047Y-84995871D01*
X100294047Y-84995871D02*
X100270238Y-84900633D01*
X100270238Y-84900633D02*
X100270238Y-84781585D01*
X100270238Y-84781585D02*
X100294047Y-84686347D01*
X100294047Y-84686347D02*
X100317857Y-84638728D01*
X100317857Y-84638728D02*
X100341666Y-84614919D01*
X100341666Y-84614919D02*
X100389285Y-84591109D01*
X152283252Y-83271427D02*
X152283252Y-83033332D01*
X152426109Y-83319046D02*
X151926109Y-83152380D01*
X151926109Y-83152380D02*
X152426109Y-82985713D01*
X151926109Y-82890475D02*
X152426109Y-82723809D01*
X152426109Y-82723809D02*
X151926109Y-82557142D01*
X151973728Y-82414285D02*
X151949919Y-82390476D01*
X151949919Y-82390476D02*
X151926109Y-82342857D01*
X151926109Y-82342857D02*
X151926109Y-82223809D01*
X151926109Y-82223809D02*
X151949919Y-82176190D01*
X151949919Y-82176190D02*
X151973728Y-82152381D01*
X151973728Y-82152381D02*
X152021347Y-82128571D01*
X152021347Y-82128571D02*
X152068966Y-82128571D01*
X152068966Y-82128571D02*
X152140395Y-82152381D01*
X152140395Y-82152381D02*
X152426109Y-82438095D01*
X152426109Y-82438095D02*
X152426109Y-82128571D01*
X106116071Y-112175990D02*
X106092262Y-112199800D01*
X106092262Y-112199800D02*
X106020833Y-112223609D01*
X106020833Y-112223609D02*
X105973214Y-112223609D01*
X105973214Y-112223609D02*
X105901786Y-112199800D01*
X105901786Y-112199800D02*
X105854167Y-112152180D01*
X105854167Y-112152180D02*
X105830357Y-112104561D01*
X105830357Y-112104561D02*
X105806548Y-112009323D01*
X105806548Y-112009323D02*
X105806548Y-111937895D01*
X105806548Y-111937895D02*
X105830357Y-111842657D01*
X105830357Y-111842657D02*
X105854167Y-111795038D01*
X105854167Y-111795038D02*
X105901786Y-111747419D01*
X105901786Y-111747419D02*
X105973214Y-111723609D01*
X105973214Y-111723609D02*
X106020833Y-111723609D01*
X106020833Y-111723609D02*
X106092262Y-111747419D01*
X106092262Y-111747419D02*
X106116071Y-111771228D01*
X106306548Y-111771228D02*
X106330357Y-111747419D01*
X106330357Y-111747419D02*
X106377976Y-111723609D01*
X106377976Y-111723609D02*
X106497024Y-111723609D01*
X106497024Y-111723609D02*
X106544643Y-111747419D01*
X106544643Y-111747419D02*
X106568452Y-111771228D01*
X106568452Y-111771228D02*
X106592262Y-111818847D01*
X106592262Y-111818847D02*
X106592262Y-111866466D01*
X106592262Y-111866466D02*
X106568452Y-111937895D01*
X106568452Y-111937895D02*
X106282738Y-112223609D01*
X106282738Y-112223609D02*
X106592262Y-112223609D01*
X106830357Y-112223609D02*
X106925595Y-112223609D01*
X106925595Y-112223609D02*
X106973214Y-112199800D01*
X106973214Y-112199800D02*
X106997023Y-112175990D01*
X106997023Y-112175990D02*
X107044642Y-112104561D01*
X107044642Y-112104561D02*
X107068452Y-112009323D01*
X107068452Y-112009323D02*
X107068452Y-111818847D01*
X107068452Y-111818847D02*
X107044642Y-111771228D01*
X107044642Y-111771228D02*
X107020833Y-111747419D01*
X107020833Y-111747419D02*
X106973214Y-111723609D01*
X106973214Y-111723609D02*
X106877976Y-111723609D01*
X106877976Y-111723609D02*
X106830357Y-111747419D01*
X106830357Y-111747419D02*
X106806547Y-111771228D01*
X106806547Y-111771228D02*
X106782738Y-111818847D01*
X106782738Y-111818847D02*
X106782738Y-111937895D01*
X106782738Y-111937895D02*
X106806547Y-111985514D01*
X106806547Y-111985514D02*
X106830357Y-112009323D01*
X106830357Y-112009323D02*
X106877976Y-112033133D01*
X106877976Y-112033133D02*
X106973214Y-112033133D01*
X106973214Y-112033133D02*
X107020833Y-112009323D01*
X107020833Y-112009323D02*
X107044642Y-111985514D01*
X107044642Y-111985514D02*
X107068452Y-111937895D01*
X106136071Y-109635990D02*
X106112262Y-109659800D01*
X106112262Y-109659800D02*
X106040833Y-109683609D01*
X106040833Y-109683609D02*
X105993214Y-109683609D01*
X105993214Y-109683609D02*
X105921786Y-109659800D01*
X105921786Y-109659800D02*
X105874167Y-109612180D01*
X105874167Y-109612180D02*
X105850357Y-109564561D01*
X105850357Y-109564561D02*
X105826548Y-109469323D01*
X105826548Y-109469323D02*
X105826548Y-109397895D01*
X105826548Y-109397895D02*
X105850357Y-109302657D01*
X105850357Y-109302657D02*
X105874167Y-109255038D01*
X105874167Y-109255038D02*
X105921786Y-109207419D01*
X105921786Y-109207419D02*
X105993214Y-109183609D01*
X105993214Y-109183609D02*
X106040833Y-109183609D01*
X106040833Y-109183609D02*
X106112262Y-109207419D01*
X106112262Y-109207419D02*
X106136071Y-109231228D01*
X106302738Y-109183609D02*
X106612262Y-109183609D01*
X106612262Y-109183609D02*
X106445595Y-109374085D01*
X106445595Y-109374085D02*
X106517024Y-109374085D01*
X106517024Y-109374085D02*
X106564643Y-109397895D01*
X106564643Y-109397895D02*
X106588452Y-109421704D01*
X106588452Y-109421704D02*
X106612262Y-109469323D01*
X106612262Y-109469323D02*
X106612262Y-109588371D01*
X106612262Y-109588371D02*
X106588452Y-109635990D01*
X106588452Y-109635990D02*
X106564643Y-109659800D01*
X106564643Y-109659800D02*
X106517024Y-109683609D01*
X106517024Y-109683609D02*
X106374167Y-109683609D01*
X106374167Y-109683609D02*
X106326548Y-109659800D01*
X106326548Y-109659800D02*
X106302738Y-109635990D01*
X106921785Y-109183609D02*
X106969404Y-109183609D01*
X106969404Y-109183609D02*
X107017023Y-109207419D01*
X107017023Y-109207419D02*
X107040833Y-109231228D01*
X107040833Y-109231228D02*
X107064642Y-109278847D01*
X107064642Y-109278847D02*
X107088452Y-109374085D01*
X107088452Y-109374085D02*
X107088452Y-109493133D01*
X107088452Y-109493133D02*
X107064642Y-109588371D01*
X107064642Y-109588371D02*
X107040833Y-109635990D01*
X107040833Y-109635990D02*
X107017023Y-109659800D01*
X107017023Y-109659800D02*
X106969404Y-109683609D01*
X106969404Y-109683609D02*
X106921785Y-109683609D01*
X106921785Y-109683609D02*
X106874166Y-109659800D01*
X106874166Y-109659800D02*
X106850357Y-109635990D01*
X106850357Y-109635990D02*
X106826547Y-109588371D01*
X106826547Y-109588371D02*
X106802738Y-109493133D01*
X106802738Y-109493133D02*
X106802738Y-109374085D01*
X106802738Y-109374085D02*
X106826547Y-109278847D01*
X106826547Y-109278847D02*
X106850357Y-109231228D01*
X106850357Y-109231228D02*
X106874166Y-109207419D01*
X106874166Y-109207419D02*
X106921785Y-109183609D01*
X115614051Y-86978609D02*
X115614051Y-87383371D01*
X115614051Y-87383371D02*
X115637861Y-87430990D01*
X115637861Y-87430990D02*
X115661670Y-87454800D01*
X115661670Y-87454800D02*
X115709289Y-87478609D01*
X115709289Y-87478609D02*
X115804527Y-87478609D01*
X115804527Y-87478609D02*
X115852146Y-87454800D01*
X115852146Y-87454800D02*
X115875956Y-87430990D01*
X115875956Y-87430990D02*
X115899765Y-87383371D01*
X115899765Y-87383371D02*
X115899765Y-86978609D01*
X116090242Y-86978609D02*
X116399766Y-86978609D01*
X116399766Y-86978609D02*
X116233099Y-87169085D01*
X116233099Y-87169085D02*
X116304528Y-87169085D01*
X116304528Y-87169085D02*
X116352147Y-87192895D01*
X116352147Y-87192895D02*
X116375956Y-87216704D01*
X116375956Y-87216704D02*
X116399766Y-87264323D01*
X116399766Y-87264323D02*
X116399766Y-87383371D01*
X116399766Y-87383371D02*
X116375956Y-87430990D01*
X116375956Y-87430990D02*
X116352147Y-87454800D01*
X116352147Y-87454800D02*
X116304528Y-87478609D01*
X116304528Y-87478609D02*
X116161671Y-87478609D01*
X116161671Y-87478609D02*
X116114052Y-87454800D01*
X116114052Y-87454800D02*
X116090242Y-87430990D01*
X72769048Y-72976109D02*
X73054762Y-72976109D01*
X72911905Y-73476109D02*
X72911905Y-72976109D01*
X73221428Y-73476109D02*
X73221428Y-72976109D01*
X73221428Y-72976109D02*
X73411904Y-72976109D01*
X73411904Y-72976109D02*
X73459523Y-72999919D01*
X73459523Y-72999919D02*
X73483333Y-73023728D01*
X73483333Y-73023728D02*
X73507142Y-73071347D01*
X73507142Y-73071347D02*
X73507142Y-73142776D01*
X73507142Y-73142776D02*
X73483333Y-73190395D01*
X73483333Y-73190395D02*
X73459523Y-73214204D01*
X73459523Y-73214204D02*
X73411904Y-73238014D01*
X73411904Y-73238014D02*
X73221428Y-73238014D01*
X73673809Y-72976109D02*
X73983333Y-72976109D01*
X73983333Y-72976109D02*
X73816666Y-73166585D01*
X73816666Y-73166585D02*
X73888095Y-73166585D01*
X73888095Y-73166585D02*
X73935714Y-73190395D01*
X73935714Y-73190395D02*
X73959523Y-73214204D01*
X73959523Y-73214204D02*
X73983333Y-73261823D01*
X73983333Y-73261823D02*
X73983333Y-73380871D01*
X73983333Y-73380871D02*
X73959523Y-73428490D01*
X73959523Y-73428490D02*
X73935714Y-73452300D01*
X73935714Y-73452300D02*
X73888095Y-73476109D01*
X73888095Y-73476109D02*
X73745238Y-73476109D01*
X73745238Y-73476109D02*
X73697619Y-73452300D01*
X73697619Y-73452300D02*
X73673809Y-73428490D01*
X116169048Y-110478109D02*
X116454762Y-110478109D01*
X116311905Y-110978109D02*
X116311905Y-110478109D01*
X116621428Y-110978109D02*
X116621428Y-110478109D01*
X116621428Y-110478109D02*
X116811904Y-110478109D01*
X116811904Y-110478109D02*
X116859523Y-110501919D01*
X116859523Y-110501919D02*
X116883333Y-110525728D01*
X116883333Y-110525728D02*
X116907142Y-110573347D01*
X116907142Y-110573347D02*
X116907142Y-110644776D01*
X116907142Y-110644776D02*
X116883333Y-110692395D01*
X116883333Y-110692395D02*
X116859523Y-110716204D01*
X116859523Y-110716204D02*
X116811904Y-110740014D01*
X116811904Y-110740014D02*
X116621428Y-110740014D01*
X117145238Y-110978109D02*
X117240476Y-110978109D01*
X117240476Y-110978109D02*
X117288095Y-110954300D01*
X117288095Y-110954300D02*
X117311904Y-110930490D01*
X117311904Y-110930490D02*
X117359523Y-110859061D01*
X117359523Y-110859061D02*
X117383333Y-110763823D01*
X117383333Y-110763823D02*
X117383333Y-110573347D01*
X117383333Y-110573347D02*
X117359523Y-110525728D01*
X117359523Y-110525728D02*
X117335714Y-110501919D01*
X117335714Y-110501919D02*
X117288095Y-110478109D01*
X117288095Y-110478109D02*
X117192857Y-110478109D01*
X117192857Y-110478109D02*
X117145238Y-110501919D01*
X117145238Y-110501919D02*
X117121428Y-110525728D01*
X117121428Y-110525728D02*
X117097619Y-110573347D01*
X117097619Y-110573347D02*
X117097619Y-110692395D01*
X117097619Y-110692395D02*
X117121428Y-110740014D01*
X117121428Y-110740014D02*
X117145238Y-110763823D01*
X117145238Y-110763823D02*
X117192857Y-110787633D01*
X117192857Y-110787633D02*
X117288095Y-110787633D01*
X117288095Y-110787633D02*
X117335714Y-110763823D01*
X117335714Y-110763823D02*
X117359523Y-110740014D01*
X117359523Y-110740014D02*
X117383333Y-110692395D01*
X133913609Y-84406547D02*
X133413609Y-84406547D01*
X133413609Y-84406547D02*
X133413609Y-84287499D01*
X133413609Y-84287499D02*
X133437419Y-84216071D01*
X133437419Y-84216071D02*
X133485038Y-84168452D01*
X133485038Y-84168452D02*
X133532657Y-84144642D01*
X133532657Y-84144642D02*
X133627895Y-84120833D01*
X133627895Y-84120833D02*
X133699323Y-84120833D01*
X133699323Y-84120833D02*
X133794561Y-84144642D01*
X133794561Y-84144642D02*
X133842180Y-84168452D01*
X133842180Y-84168452D02*
X133889800Y-84216071D01*
X133889800Y-84216071D02*
X133913609Y-84287499D01*
X133913609Y-84287499D02*
X133913609Y-84406547D01*
X133413609Y-83954166D02*
X133413609Y-83644642D01*
X133413609Y-83644642D02*
X133604085Y-83811309D01*
X133604085Y-83811309D02*
X133604085Y-83739880D01*
X133604085Y-83739880D02*
X133627895Y-83692261D01*
X133627895Y-83692261D02*
X133651704Y-83668452D01*
X133651704Y-83668452D02*
X133699323Y-83644642D01*
X133699323Y-83644642D02*
X133818371Y-83644642D01*
X133818371Y-83644642D02*
X133865990Y-83668452D01*
X133865990Y-83668452D02*
X133889800Y-83692261D01*
X133889800Y-83692261D02*
X133913609Y-83739880D01*
X133913609Y-83739880D02*
X133913609Y-83882737D01*
X133913609Y-83882737D02*
X133889800Y-83930356D01*
X133889800Y-83930356D02*
X133865990Y-83954166D01*
X132876109Y-107266666D02*
X133233252Y-107266666D01*
X133233252Y-107266666D02*
X133304680Y-107290475D01*
X133304680Y-107290475D02*
X133352300Y-107338094D01*
X133352300Y-107338094D02*
X133376109Y-107409523D01*
X133376109Y-107409523D02*
X133376109Y-107457142D01*
X133042776Y-106814285D02*
X133376109Y-106814285D01*
X132852300Y-106933333D02*
X133209442Y-107052380D01*
X133209442Y-107052380D02*
X133209442Y-106742857D01*
X147278571Y-96338490D02*
X147254762Y-96362300D01*
X147254762Y-96362300D02*
X147183333Y-96386109D01*
X147183333Y-96386109D02*
X147135714Y-96386109D01*
X147135714Y-96386109D02*
X147064286Y-96362300D01*
X147064286Y-96362300D02*
X147016667Y-96314680D01*
X147016667Y-96314680D02*
X146992857Y-96267061D01*
X146992857Y-96267061D02*
X146969048Y-96171823D01*
X146969048Y-96171823D02*
X146969048Y-96100395D01*
X146969048Y-96100395D02*
X146992857Y-96005157D01*
X146992857Y-96005157D02*
X147016667Y-95957538D01*
X147016667Y-95957538D02*
X147064286Y-95909919D01*
X147064286Y-95909919D02*
X147135714Y-95886109D01*
X147135714Y-95886109D02*
X147183333Y-95886109D01*
X147183333Y-95886109D02*
X147254762Y-95909919D01*
X147254762Y-95909919D02*
X147278571Y-95933728D01*
X147469048Y-95933728D02*
X147492857Y-95909919D01*
X147492857Y-95909919D02*
X147540476Y-95886109D01*
X147540476Y-95886109D02*
X147659524Y-95886109D01*
X147659524Y-95886109D02*
X147707143Y-95909919D01*
X147707143Y-95909919D02*
X147730952Y-95933728D01*
X147730952Y-95933728D02*
X147754762Y-95981347D01*
X147754762Y-95981347D02*
X147754762Y-96028966D01*
X147754762Y-96028966D02*
X147730952Y-96100395D01*
X147730952Y-96100395D02*
X147445238Y-96386109D01*
X147445238Y-96386109D02*
X147754762Y-96386109D01*
X147921428Y-95886109D02*
X148230952Y-95886109D01*
X148230952Y-95886109D02*
X148064285Y-96076585D01*
X148064285Y-96076585D02*
X148135714Y-96076585D01*
X148135714Y-96076585D02*
X148183333Y-96100395D01*
X148183333Y-96100395D02*
X148207142Y-96124204D01*
X148207142Y-96124204D02*
X148230952Y-96171823D01*
X148230952Y-96171823D02*
X148230952Y-96290871D01*
X148230952Y-96290871D02*
X148207142Y-96338490D01*
X148207142Y-96338490D02*
X148183333Y-96362300D01*
X148183333Y-96362300D02*
X148135714Y-96386109D01*
X148135714Y-96386109D02*
X147992857Y-96386109D01*
X147992857Y-96386109D02*
X147945238Y-96362300D01*
X147945238Y-96362300D02*
X147921428Y-96338490D01*
X91703571Y-85091109D02*
X91536905Y-84853014D01*
X91417857Y-85091109D02*
X91417857Y-84591109D01*
X91417857Y-84591109D02*
X91608333Y-84591109D01*
X91608333Y-84591109D02*
X91655952Y-84614919D01*
X91655952Y-84614919D02*
X91679762Y-84638728D01*
X91679762Y-84638728D02*
X91703571Y-84686347D01*
X91703571Y-84686347D02*
X91703571Y-84757776D01*
X91703571Y-84757776D02*
X91679762Y-84805395D01*
X91679762Y-84805395D02*
X91655952Y-84829204D01*
X91655952Y-84829204D02*
X91608333Y-84853014D01*
X91608333Y-84853014D02*
X91417857Y-84853014D01*
X92179762Y-85091109D02*
X91894048Y-85091109D01*
X92036905Y-85091109D02*
X92036905Y-84591109D01*
X92036905Y-84591109D02*
X91989286Y-84662538D01*
X91989286Y-84662538D02*
X91941667Y-84710157D01*
X91941667Y-84710157D02*
X91894048Y-84733966D01*
X92489285Y-84591109D02*
X92536904Y-84591109D01*
X92536904Y-84591109D02*
X92584523Y-84614919D01*
X92584523Y-84614919D02*
X92608333Y-84638728D01*
X92608333Y-84638728D02*
X92632142Y-84686347D01*
X92632142Y-84686347D02*
X92655952Y-84781585D01*
X92655952Y-84781585D02*
X92655952Y-84900633D01*
X92655952Y-84900633D02*
X92632142Y-84995871D01*
X92632142Y-84995871D02*
X92608333Y-85043490D01*
X92608333Y-85043490D02*
X92584523Y-85067300D01*
X92584523Y-85067300D02*
X92536904Y-85091109D01*
X92536904Y-85091109D02*
X92489285Y-85091109D01*
X92489285Y-85091109D02*
X92441666Y-85067300D01*
X92441666Y-85067300D02*
X92417857Y-85043490D01*
X92417857Y-85043490D02*
X92394047Y-84995871D01*
X92394047Y-84995871D02*
X92370238Y-84900633D01*
X92370238Y-84900633D02*
X92370238Y-84781585D01*
X92370238Y-84781585D02*
X92394047Y-84686347D01*
X92394047Y-84686347D02*
X92417857Y-84638728D01*
X92417857Y-84638728D02*
X92441666Y-84614919D01*
X92441666Y-84614919D02*
X92489285Y-84591109D01*
D11*
X63638095Y-90904819D02*
X63638095Y-89904819D01*
X63638095Y-90381009D02*
X64209523Y-90381009D01*
X64209523Y-90904819D02*
X64209523Y-89904819D01*
X64638095Y-90000057D02*
X64685714Y-89952438D01*
X64685714Y-89952438D02*
X64780952Y-89904819D01*
X64780952Y-89904819D02*
X65019047Y-89904819D01*
X65019047Y-89904819D02*
X65114285Y-89952438D01*
X65114285Y-89952438D02*
X65161904Y-90000057D01*
X65161904Y-90000057D02*
X65209523Y-90095295D01*
X65209523Y-90095295D02*
X65209523Y-90190533D01*
X65209523Y-90190533D02*
X65161904Y-90333390D01*
X65161904Y-90333390D02*
X64590476Y-90904819D01*
X64590476Y-90904819D02*
X65209523Y-90904819D01*
D10*
X143178571Y-91778490D02*
X143154762Y-91802300D01*
X143154762Y-91802300D02*
X143083333Y-91826109D01*
X143083333Y-91826109D02*
X143035714Y-91826109D01*
X143035714Y-91826109D02*
X142964286Y-91802300D01*
X142964286Y-91802300D02*
X142916667Y-91754680D01*
X142916667Y-91754680D02*
X142892857Y-91707061D01*
X142892857Y-91707061D02*
X142869048Y-91611823D01*
X142869048Y-91611823D02*
X142869048Y-91540395D01*
X142869048Y-91540395D02*
X142892857Y-91445157D01*
X142892857Y-91445157D02*
X142916667Y-91397538D01*
X142916667Y-91397538D02*
X142964286Y-91349919D01*
X142964286Y-91349919D02*
X143035714Y-91326109D01*
X143035714Y-91326109D02*
X143083333Y-91326109D01*
X143083333Y-91326109D02*
X143154762Y-91349919D01*
X143154762Y-91349919D02*
X143178571Y-91373728D01*
X143369048Y-91373728D02*
X143392857Y-91349919D01*
X143392857Y-91349919D02*
X143440476Y-91326109D01*
X143440476Y-91326109D02*
X143559524Y-91326109D01*
X143559524Y-91326109D02*
X143607143Y-91349919D01*
X143607143Y-91349919D02*
X143630952Y-91373728D01*
X143630952Y-91373728D02*
X143654762Y-91421347D01*
X143654762Y-91421347D02*
X143654762Y-91468966D01*
X143654762Y-91468966D02*
X143630952Y-91540395D01*
X143630952Y-91540395D02*
X143345238Y-91826109D01*
X143345238Y-91826109D02*
X143654762Y-91826109D01*
X144130952Y-91826109D02*
X143845238Y-91826109D01*
X143988095Y-91826109D02*
X143988095Y-91326109D01*
X143988095Y-91326109D02*
X143940476Y-91397538D01*
X143940476Y-91397538D02*
X143892857Y-91445157D01*
X143892857Y-91445157D02*
X143845238Y-91468966D01*
X131428490Y-73121428D02*
X131452300Y-73145237D01*
X131452300Y-73145237D02*
X131476109Y-73216666D01*
X131476109Y-73216666D02*
X131476109Y-73264285D01*
X131476109Y-73264285D02*
X131452300Y-73335713D01*
X131452300Y-73335713D02*
X131404680Y-73383332D01*
X131404680Y-73383332D02*
X131357061Y-73407142D01*
X131357061Y-73407142D02*
X131261823Y-73430951D01*
X131261823Y-73430951D02*
X131190395Y-73430951D01*
X131190395Y-73430951D02*
X131095157Y-73407142D01*
X131095157Y-73407142D02*
X131047538Y-73383332D01*
X131047538Y-73383332D02*
X130999919Y-73335713D01*
X130999919Y-73335713D02*
X130976109Y-73264285D01*
X130976109Y-73264285D02*
X130976109Y-73216666D01*
X130976109Y-73216666D02*
X130999919Y-73145237D01*
X130999919Y-73145237D02*
X131023728Y-73121428D01*
X131023728Y-72930951D02*
X130999919Y-72907142D01*
X130999919Y-72907142D02*
X130976109Y-72859523D01*
X130976109Y-72859523D02*
X130976109Y-72740475D01*
X130976109Y-72740475D02*
X130999919Y-72692856D01*
X130999919Y-72692856D02*
X131023728Y-72669047D01*
X131023728Y-72669047D02*
X131071347Y-72645237D01*
X131071347Y-72645237D02*
X131118966Y-72645237D01*
X131118966Y-72645237D02*
X131190395Y-72669047D01*
X131190395Y-72669047D02*
X131476109Y-72954761D01*
X131476109Y-72954761D02*
X131476109Y-72645237D01*
X131190395Y-72359523D02*
X131166585Y-72407142D01*
X131166585Y-72407142D02*
X131142776Y-72430952D01*
X131142776Y-72430952D02*
X131095157Y-72454761D01*
X131095157Y-72454761D02*
X131071347Y-72454761D01*
X131071347Y-72454761D02*
X131023728Y-72430952D01*
X131023728Y-72430952D02*
X130999919Y-72407142D01*
X130999919Y-72407142D02*
X130976109Y-72359523D01*
X130976109Y-72359523D02*
X130976109Y-72264285D01*
X130976109Y-72264285D02*
X130999919Y-72216666D01*
X130999919Y-72216666D02*
X131023728Y-72192857D01*
X131023728Y-72192857D02*
X131071347Y-72169047D01*
X131071347Y-72169047D02*
X131095157Y-72169047D01*
X131095157Y-72169047D02*
X131142776Y-72192857D01*
X131142776Y-72192857D02*
X131166585Y-72216666D01*
X131166585Y-72216666D02*
X131190395Y-72264285D01*
X131190395Y-72264285D02*
X131190395Y-72359523D01*
X131190395Y-72359523D02*
X131214204Y-72407142D01*
X131214204Y-72407142D02*
X131238014Y-72430952D01*
X131238014Y-72430952D02*
X131285633Y-72454761D01*
X131285633Y-72454761D02*
X131380871Y-72454761D01*
X131380871Y-72454761D02*
X131428490Y-72430952D01*
X131428490Y-72430952D02*
X131452300Y-72407142D01*
X131452300Y-72407142D02*
X131476109Y-72359523D01*
X131476109Y-72359523D02*
X131476109Y-72264285D01*
X131476109Y-72264285D02*
X131452300Y-72216666D01*
X131452300Y-72216666D02*
X131428490Y-72192857D01*
X131428490Y-72192857D02*
X131380871Y-72169047D01*
X131380871Y-72169047D02*
X131285633Y-72169047D01*
X131285633Y-72169047D02*
X131238014Y-72192857D01*
X131238014Y-72192857D02*
X131214204Y-72216666D01*
X131214204Y-72216666D02*
X131190395Y-72264285D01*
X153026109Y-98221428D02*
X152788014Y-98388094D01*
X153026109Y-98507142D02*
X152526109Y-98507142D01*
X152526109Y-98507142D02*
X152526109Y-98316666D01*
X152526109Y-98316666D02*
X152549919Y-98269047D01*
X152549919Y-98269047D02*
X152573728Y-98245237D01*
X152573728Y-98245237D02*
X152621347Y-98221428D01*
X152621347Y-98221428D02*
X152692776Y-98221428D01*
X152692776Y-98221428D02*
X152740395Y-98245237D01*
X152740395Y-98245237D02*
X152764204Y-98269047D01*
X152764204Y-98269047D02*
X152788014Y-98316666D01*
X152788014Y-98316666D02*
X152788014Y-98507142D01*
X153026109Y-97745237D02*
X153026109Y-98030951D01*
X153026109Y-97888094D02*
X152526109Y-97888094D01*
X152526109Y-97888094D02*
X152597538Y-97935713D01*
X152597538Y-97935713D02*
X152645157Y-97983332D01*
X152645157Y-97983332D02*
X152668966Y-98030951D01*
X152526109Y-97292857D02*
X152526109Y-97530952D01*
X152526109Y-97530952D02*
X152764204Y-97554761D01*
X152764204Y-97554761D02*
X152740395Y-97530952D01*
X152740395Y-97530952D02*
X152716585Y-97483333D01*
X152716585Y-97483333D02*
X152716585Y-97364285D01*
X152716585Y-97364285D02*
X152740395Y-97316666D01*
X152740395Y-97316666D02*
X152764204Y-97292857D01*
X152764204Y-97292857D02*
X152811823Y-97269047D01*
X152811823Y-97269047D02*
X152930871Y-97269047D01*
X152930871Y-97269047D02*
X152978490Y-97292857D01*
X152978490Y-97292857D02*
X153002300Y-97316666D01*
X153002300Y-97316666D02*
X153026109Y-97364285D01*
X153026109Y-97364285D02*
X153026109Y-97483333D01*
X153026109Y-97483333D02*
X153002300Y-97530952D01*
X153002300Y-97530952D02*
X152978490Y-97554761D01*
X134866666Y-69746034D02*
X134842857Y-69769844D01*
X134842857Y-69769844D02*
X134771428Y-69793653D01*
X134771428Y-69793653D02*
X134723809Y-69793653D01*
X134723809Y-69793653D02*
X134652381Y-69769844D01*
X134652381Y-69769844D02*
X134604762Y-69722224D01*
X134604762Y-69722224D02*
X134580952Y-69674605D01*
X134580952Y-69674605D02*
X134557143Y-69579367D01*
X134557143Y-69579367D02*
X134557143Y-69507939D01*
X134557143Y-69507939D02*
X134580952Y-69412701D01*
X134580952Y-69412701D02*
X134604762Y-69365082D01*
X134604762Y-69365082D02*
X134652381Y-69317463D01*
X134652381Y-69317463D02*
X134723809Y-69293653D01*
X134723809Y-69293653D02*
X134771428Y-69293653D01*
X134771428Y-69293653D02*
X134842857Y-69317463D01*
X134842857Y-69317463D02*
X134866666Y-69341272D01*
X135342857Y-69793653D02*
X135057143Y-69793653D01*
X135200000Y-69793653D02*
X135200000Y-69293653D01*
X135200000Y-69293653D02*
X135152381Y-69365082D01*
X135152381Y-69365082D02*
X135104762Y-69412701D01*
X135104762Y-69412701D02*
X135057143Y-69436510D01*
X140281071Y-85076109D02*
X140114405Y-84838014D01*
X139995357Y-85076109D02*
X139995357Y-84576109D01*
X139995357Y-84576109D02*
X140185833Y-84576109D01*
X140185833Y-84576109D02*
X140233452Y-84599919D01*
X140233452Y-84599919D02*
X140257262Y-84623728D01*
X140257262Y-84623728D02*
X140281071Y-84671347D01*
X140281071Y-84671347D02*
X140281071Y-84742776D01*
X140281071Y-84742776D02*
X140257262Y-84790395D01*
X140257262Y-84790395D02*
X140233452Y-84814204D01*
X140233452Y-84814204D02*
X140185833Y-84838014D01*
X140185833Y-84838014D02*
X139995357Y-84838014D01*
X140471548Y-84623728D02*
X140495357Y-84599919D01*
X140495357Y-84599919D02*
X140542976Y-84576109D01*
X140542976Y-84576109D02*
X140662024Y-84576109D01*
X140662024Y-84576109D02*
X140709643Y-84599919D01*
X140709643Y-84599919D02*
X140733452Y-84623728D01*
X140733452Y-84623728D02*
X140757262Y-84671347D01*
X140757262Y-84671347D02*
X140757262Y-84718966D01*
X140757262Y-84718966D02*
X140733452Y-84790395D01*
X140733452Y-84790395D02*
X140447738Y-85076109D01*
X140447738Y-85076109D02*
X140757262Y-85076109D01*
X140947738Y-84623728D02*
X140971547Y-84599919D01*
X140971547Y-84599919D02*
X141019166Y-84576109D01*
X141019166Y-84576109D02*
X141138214Y-84576109D01*
X141138214Y-84576109D02*
X141185833Y-84599919D01*
X141185833Y-84599919D02*
X141209642Y-84623728D01*
X141209642Y-84623728D02*
X141233452Y-84671347D01*
X141233452Y-84671347D02*
X141233452Y-84718966D01*
X141233452Y-84718966D02*
X141209642Y-84790395D01*
X141209642Y-84790395D02*
X140923928Y-85076109D01*
X140923928Y-85076109D02*
X141233452Y-85076109D01*
X141178571Y-101186109D02*
X141011905Y-100948014D01*
X140892857Y-101186109D02*
X140892857Y-100686109D01*
X140892857Y-100686109D02*
X141083333Y-100686109D01*
X141083333Y-100686109D02*
X141130952Y-100709919D01*
X141130952Y-100709919D02*
X141154762Y-100733728D01*
X141154762Y-100733728D02*
X141178571Y-100781347D01*
X141178571Y-100781347D02*
X141178571Y-100852776D01*
X141178571Y-100852776D02*
X141154762Y-100900395D01*
X141154762Y-100900395D02*
X141130952Y-100924204D01*
X141130952Y-100924204D02*
X141083333Y-100948014D01*
X141083333Y-100948014D02*
X140892857Y-100948014D01*
X141654762Y-101186109D02*
X141369048Y-101186109D01*
X141511905Y-101186109D02*
X141511905Y-100686109D01*
X141511905Y-100686109D02*
X141464286Y-100757538D01*
X141464286Y-100757538D02*
X141416667Y-100805157D01*
X141416667Y-100805157D02*
X141369048Y-100828966D01*
X142083333Y-100686109D02*
X141988095Y-100686109D01*
X141988095Y-100686109D02*
X141940476Y-100709919D01*
X141940476Y-100709919D02*
X141916666Y-100733728D01*
X141916666Y-100733728D02*
X141869047Y-100805157D01*
X141869047Y-100805157D02*
X141845238Y-100900395D01*
X141845238Y-100900395D02*
X141845238Y-101090871D01*
X141845238Y-101090871D02*
X141869047Y-101138490D01*
X141869047Y-101138490D02*
X141892857Y-101162300D01*
X141892857Y-101162300D02*
X141940476Y-101186109D01*
X141940476Y-101186109D02*
X142035714Y-101186109D01*
X142035714Y-101186109D02*
X142083333Y-101162300D01*
X142083333Y-101162300D02*
X142107142Y-101138490D01*
X142107142Y-101138490D02*
X142130952Y-101090871D01*
X142130952Y-101090871D02*
X142130952Y-100971823D01*
X142130952Y-100971823D02*
X142107142Y-100924204D01*
X142107142Y-100924204D02*
X142083333Y-100900395D01*
X142083333Y-100900395D02*
X142035714Y-100876585D01*
X142035714Y-100876585D02*
X141940476Y-100876585D01*
X141940476Y-100876585D02*
X141892857Y-100900395D01*
X141892857Y-100900395D02*
X141869047Y-100924204D01*
X141869047Y-100924204D02*
X141845238Y-100971823D01*
X156619047Y-70126109D02*
X156619047Y-69626109D01*
X156619047Y-69864204D02*
X156904761Y-69864204D01*
X156904761Y-70126109D02*
X156904761Y-69626109D01*
X157404762Y-70126109D02*
X157119048Y-70126109D01*
X157261905Y-70126109D02*
X157261905Y-69626109D01*
X157261905Y-69626109D02*
X157214286Y-69697538D01*
X157214286Y-69697538D02*
X157166667Y-69745157D01*
X157166667Y-69745157D02*
X157119048Y-69768966D01*
X118416666Y-76278490D02*
X118392857Y-76302300D01*
X118392857Y-76302300D02*
X118321428Y-76326109D01*
X118321428Y-76326109D02*
X118273809Y-76326109D01*
X118273809Y-76326109D02*
X118202381Y-76302300D01*
X118202381Y-76302300D02*
X118154762Y-76254680D01*
X118154762Y-76254680D02*
X118130952Y-76207061D01*
X118130952Y-76207061D02*
X118107143Y-76111823D01*
X118107143Y-76111823D02*
X118107143Y-76040395D01*
X118107143Y-76040395D02*
X118130952Y-75945157D01*
X118130952Y-75945157D02*
X118154762Y-75897538D01*
X118154762Y-75897538D02*
X118202381Y-75849919D01*
X118202381Y-75849919D02*
X118273809Y-75826109D01*
X118273809Y-75826109D02*
X118321428Y-75826109D01*
X118321428Y-75826109D02*
X118392857Y-75849919D01*
X118392857Y-75849919D02*
X118416666Y-75873728D01*
X118869047Y-75826109D02*
X118630952Y-75826109D01*
X118630952Y-75826109D02*
X118607143Y-76064204D01*
X118607143Y-76064204D02*
X118630952Y-76040395D01*
X118630952Y-76040395D02*
X118678571Y-76016585D01*
X118678571Y-76016585D02*
X118797619Y-76016585D01*
X118797619Y-76016585D02*
X118845238Y-76040395D01*
X118845238Y-76040395D02*
X118869047Y-76064204D01*
X118869047Y-76064204D02*
X118892857Y-76111823D01*
X118892857Y-76111823D02*
X118892857Y-76230871D01*
X118892857Y-76230871D02*
X118869047Y-76278490D01*
X118869047Y-76278490D02*
X118845238Y-76302300D01*
X118845238Y-76302300D02*
X118797619Y-76326109D01*
X118797619Y-76326109D02*
X118678571Y-76326109D01*
X118678571Y-76326109D02*
X118630952Y-76302300D01*
X118630952Y-76302300D02*
X118607143Y-76278490D01*
X102803571Y-85041109D02*
X102636905Y-84803014D01*
X102517857Y-85041109D02*
X102517857Y-84541109D01*
X102517857Y-84541109D02*
X102708333Y-84541109D01*
X102708333Y-84541109D02*
X102755952Y-84564919D01*
X102755952Y-84564919D02*
X102779762Y-84588728D01*
X102779762Y-84588728D02*
X102803571Y-84636347D01*
X102803571Y-84636347D02*
X102803571Y-84707776D01*
X102803571Y-84707776D02*
X102779762Y-84755395D01*
X102779762Y-84755395D02*
X102755952Y-84779204D01*
X102755952Y-84779204D02*
X102708333Y-84803014D01*
X102708333Y-84803014D02*
X102517857Y-84803014D01*
X102970238Y-84541109D02*
X103279762Y-84541109D01*
X103279762Y-84541109D02*
X103113095Y-84731585D01*
X103113095Y-84731585D02*
X103184524Y-84731585D01*
X103184524Y-84731585D02*
X103232143Y-84755395D01*
X103232143Y-84755395D02*
X103255952Y-84779204D01*
X103255952Y-84779204D02*
X103279762Y-84826823D01*
X103279762Y-84826823D02*
X103279762Y-84945871D01*
X103279762Y-84945871D02*
X103255952Y-84993490D01*
X103255952Y-84993490D02*
X103232143Y-85017300D01*
X103232143Y-85017300D02*
X103184524Y-85041109D01*
X103184524Y-85041109D02*
X103041667Y-85041109D01*
X103041667Y-85041109D02*
X102994048Y-85017300D01*
X102994048Y-85017300D02*
X102970238Y-84993490D01*
X103470238Y-84588728D02*
X103494047Y-84564919D01*
X103494047Y-84564919D02*
X103541666Y-84541109D01*
X103541666Y-84541109D02*
X103660714Y-84541109D01*
X103660714Y-84541109D02*
X103708333Y-84564919D01*
X103708333Y-84564919D02*
X103732142Y-84588728D01*
X103732142Y-84588728D02*
X103755952Y-84636347D01*
X103755952Y-84636347D02*
X103755952Y-84683966D01*
X103755952Y-84683966D02*
X103732142Y-84755395D01*
X103732142Y-84755395D02*
X103446428Y-85041109D01*
X103446428Y-85041109D02*
X103755952Y-85041109D01*
D11*
X124654819Y-84356666D02*
X124654819Y-84832856D01*
X124654819Y-84832856D02*
X123654819Y-84832856D01*
X124654819Y-83499523D02*
X124654819Y-84070951D01*
X124654819Y-83785237D02*
X123654819Y-83785237D01*
X123654819Y-83785237D02*
X123797676Y-83880475D01*
X123797676Y-83880475D02*
X123892914Y-83975713D01*
X123892914Y-83975713D02*
X123940533Y-84070951D01*
D10*
X138719166Y-89726109D02*
X138552500Y-89488014D01*
X138433452Y-89726109D02*
X138433452Y-89226109D01*
X138433452Y-89226109D02*
X138623928Y-89226109D01*
X138623928Y-89226109D02*
X138671547Y-89249919D01*
X138671547Y-89249919D02*
X138695357Y-89273728D01*
X138695357Y-89273728D02*
X138719166Y-89321347D01*
X138719166Y-89321347D02*
X138719166Y-89392776D01*
X138719166Y-89392776D02*
X138695357Y-89440395D01*
X138695357Y-89440395D02*
X138671547Y-89464204D01*
X138671547Y-89464204D02*
X138623928Y-89488014D01*
X138623928Y-89488014D02*
X138433452Y-89488014D01*
X138885833Y-89226109D02*
X139195357Y-89226109D01*
X139195357Y-89226109D02*
X139028690Y-89416585D01*
X139028690Y-89416585D02*
X139100119Y-89416585D01*
X139100119Y-89416585D02*
X139147738Y-89440395D01*
X139147738Y-89440395D02*
X139171547Y-89464204D01*
X139171547Y-89464204D02*
X139195357Y-89511823D01*
X139195357Y-89511823D02*
X139195357Y-89630871D01*
X139195357Y-89630871D02*
X139171547Y-89678490D01*
X139171547Y-89678490D02*
X139147738Y-89702300D01*
X139147738Y-89702300D02*
X139100119Y-89726109D01*
X139100119Y-89726109D02*
X138957262Y-89726109D01*
X138957262Y-89726109D02*
X138909643Y-89702300D01*
X138909643Y-89702300D02*
X138885833Y-89678490D01*
X100628490Y-104390476D02*
X100652300Y-104414285D01*
X100652300Y-104414285D02*
X100676109Y-104485714D01*
X100676109Y-104485714D02*
X100676109Y-104533333D01*
X100676109Y-104533333D02*
X100652300Y-104604761D01*
X100652300Y-104604761D02*
X100604680Y-104652380D01*
X100604680Y-104652380D02*
X100557061Y-104676190D01*
X100557061Y-104676190D02*
X100461823Y-104699999D01*
X100461823Y-104699999D02*
X100390395Y-104699999D01*
X100390395Y-104699999D02*
X100295157Y-104676190D01*
X100295157Y-104676190D02*
X100247538Y-104652380D01*
X100247538Y-104652380D02*
X100199919Y-104604761D01*
X100199919Y-104604761D02*
X100176109Y-104533333D01*
X100176109Y-104533333D02*
X100176109Y-104485714D01*
X100176109Y-104485714D02*
X100199919Y-104414285D01*
X100199919Y-104414285D02*
X100223728Y-104390476D01*
X100676109Y-103961904D02*
X100414204Y-103961904D01*
X100414204Y-103961904D02*
X100366585Y-103985714D01*
X100366585Y-103985714D02*
X100342776Y-104033333D01*
X100342776Y-104033333D02*
X100342776Y-104128571D01*
X100342776Y-104128571D02*
X100366585Y-104176190D01*
X100652300Y-103961904D02*
X100676109Y-104009523D01*
X100676109Y-104009523D02*
X100676109Y-104128571D01*
X100676109Y-104128571D02*
X100652300Y-104176190D01*
X100652300Y-104176190D02*
X100604680Y-104199999D01*
X100604680Y-104199999D02*
X100557061Y-104199999D01*
X100557061Y-104199999D02*
X100509442Y-104176190D01*
X100509442Y-104176190D02*
X100485633Y-104128571D01*
X100485633Y-104128571D02*
X100485633Y-104009523D01*
X100485633Y-104009523D02*
X100461823Y-103961904D01*
X100676109Y-103723809D02*
X100342776Y-103723809D01*
X100438014Y-103723809D02*
X100390395Y-103699999D01*
X100390395Y-103699999D02*
X100366585Y-103676190D01*
X100366585Y-103676190D02*
X100342776Y-103628571D01*
X100342776Y-103628571D02*
X100342776Y-103580952D01*
X100676109Y-103199999D02*
X100176109Y-103199999D01*
X100652300Y-103199999D02*
X100676109Y-103247618D01*
X100676109Y-103247618D02*
X100676109Y-103342856D01*
X100676109Y-103342856D02*
X100652300Y-103390475D01*
X100652300Y-103390475D02*
X100628490Y-103414285D01*
X100628490Y-103414285D02*
X100580871Y-103438094D01*
X100580871Y-103438094D02*
X100438014Y-103438094D01*
X100438014Y-103438094D02*
X100390395Y-103414285D01*
X100390395Y-103414285D02*
X100366585Y-103390475D01*
X100366585Y-103390475D02*
X100342776Y-103342856D01*
X100342776Y-103342856D02*
X100342776Y-103247618D01*
X100342776Y-103247618D02*
X100366585Y-103199999D01*
X100676109Y-102699999D02*
X100676109Y-102985713D01*
X100676109Y-102842856D02*
X100176109Y-102842856D01*
X100176109Y-102842856D02*
X100247538Y-102890475D01*
X100247538Y-102890475D02*
X100295157Y-102938094D01*
X100295157Y-102938094D02*
X100318966Y-102985713D01*
X138431071Y-85076109D02*
X138264405Y-84838014D01*
X138145357Y-85076109D02*
X138145357Y-84576109D01*
X138145357Y-84576109D02*
X138335833Y-84576109D01*
X138335833Y-84576109D02*
X138383452Y-84599919D01*
X138383452Y-84599919D02*
X138407262Y-84623728D01*
X138407262Y-84623728D02*
X138431071Y-84671347D01*
X138431071Y-84671347D02*
X138431071Y-84742776D01*
X138431071Y-84742776D02*
X138407262Y-84790395D01*
X138407262Y-84790395D02*
X138383452Y-84814204D01*
X138383452Y-84814204D02*
X138335833Y-84838014D01*
X138335833Y-84838014D02*
X138145357Y-84838014D01*
X138621548Y-84623728D02*
X138645357Y-84599919D01*
X138645357Y-84599919D02*
X138692976Y-84576109D01*
X138692976Y-84576109D02*
X138812024Y-84576109D01*
X138812024Y-84576109D02*
X138859643Y-84599919D01*
X138859643Y-84599919D02*
X138883452Y-84623728D01*
X138883452Y-84623728D02*
X138907262Y-84671347D01*
X138907262Y-84671347D02*
X138907262Y-84718966D01*
X138907262Y-84718966D02*
X138883452Y-84790395D01*
X138883452Y-84790395D02*
X138597738Y-85076109D01*
X138597738Y-85076109D02*
X138907262Y-85076109D01*
X139073928Y-84576109D02*
X139383452Y-84576109D01*
X139383452Y-84576109D02*
X139216785Y-84766585D01*
X139216785Y-84766585D02*
X139288214Y-84766585D01*
X139288214Y-84766585D02*
X139335833Y-84790395D01*
X139335833Y-84790395D02*
X139359642Y-84814204D01*
X139359642Y-84814204D02*
X139383452Y-84861823D01*
X139383452Y-84861823D02*
X139383452Y-84980871D01*
X139383452Y-84980871D02*
X139359642Y-85028490D01*
X139359642Y-85028490D02*
X139335833Y-85052300D01*
X139335833Y-85052300D02*
X139288214Y-85076109D01*
X139288214Y-85076109D02*
X139145357Y-85076109D01*
X139145357Y-85076109D02*
X139097738Y-85052300D01*
X139097738Y-85052300D02*
X139073928Y-85028490D01*
X107126109Y-80771428D02*
X106888014Y-80938094D01*
X107126109Y-81057142D02*
X106626109Y-81057142D01*
X106626109Y-81057142D02*
X106626109Y-80866666D01*
X106626109Y-80866666D02*
X106649919Y-80819047D01*
X106649919Y-80819047D02*
X106673728Y-80795237D01*
X106673728Y-80795237D02*
X106721347Y-80771428D01*
X106721347Y-80771428D02*
X106792776Y-80771428D01*
X106792776Y-80771428D02*
X106840395Y-80795237D01*
X106840395Y-80795237D02*
X106864204Y-80819047D01*
X106864204Y-80819047D02*
X106888014Y-80866666D01*
X106888014Y-80866666D02*
X106888014Y-81057142D01*
X106626109Y-80604761D02*
X106626109Y-80295237D01*
X106626109Y-80295237D02*
X106816585Y-80461904D01*
X106816585Y-80461904D02*
X106816585Y-80390475D01*
X106816585Y-80390475D02*
X106840395Y-80342856D01*
X106840395Y-80342856D02*
X106864204Y-80319047D01*
X106864204Y-80319047D02*
X106911823Y-80295237D01*
X106911823Y-80295237D02*
X107030871Y-80295237D01*
X107030871Y-80295237D02*
X107078490Y-80319047D01*
X107078490Y-80319047D02*
X107102300Y-80342856D01*
X107102300Y-80342856D02*
X107126109Y-80390475D01*
X107126109Y-80390475D02*
X107126109Y-80533332D01*
X107126109Y-80533332D02*
X107102300Y-80580951D01*
X107102300Y-80580951D02*
X107078490Y-80604761D01*
X106792776Y-79866666D02*
X107126109Y-79866666D01*
X106602300Y-79985714D02*
X106959442Y-80104761D01*
X106959442Y-80104761D02*
X106959442Y-79795238D01*
X124376109Y-85233333D02*
X124138014Y-85399999D01*
X124376109Y-85519047D02*
X123876109Y-85519047D01*
X123876109Y-85519047D02*
X123876109Y-85328571D01*
X123876109Y-85328571D02*
X123899919Y-85280952D01*
X123899919Y-85280952D02*
X123923728Y-85257142D01*
X123923728Y-85257142D02*
X123971347Y-85233333D01*
X123971347Y-85233333D02*
X124042776Y-85233333D01*
X124042776Y-85233333D02*
X124090395Y-85257142D01*
X124090395Y-85257142D02*
X124114204Y-85280952D01*
X124114204Y-85280952D02*
X124138014Y-85328571D01*
X124138014Y-85328571D02*
X124138014Y-85519047D01*
X124090395Y-84947618D02*
X124066585Y-84995237D01*
X124066585Y-84995237D02*
X124042776Y-85019047D01*
X124042776Y-85019047D02*
X123995157Y-85042856D01*
X123995157Y-85042856D02*
X123971347Y-85042856D01*
X123971347Y-85042856D02*
X123923728Y-85019047D01*
X123923728Y-85019047D02*
X123899919Y-84995237D01*
X123899919Y-84995237D02*
X123876109Y-84947618D01*
X123876109Y-84947618D02*
X123876109Y-84852380D01*
X123876109Y-84852380D02*
X123899919Y-84804761D01*
X123899919Y-84804761D02*
X123923728Y-84780952D01*
X123923728Y-84780952D02*
X123971347Y-84757142D01*
X123971347Y-84757142D02*
X123995157Y-84757142D01*
X123995157Y-84757142D02*
X124042776Y-84780952D01*
X124042776Y-84780952D02*
X124066585Y-84804761D01*
X124066585Y-84804761D02*
X124090395Y-84852380D01*
X124090395Y-84852380D02*
X124090395Y-84947618D01*
X124090395Y-84947618D02*
X124114204Y-84995237D01*
X124114204Y-84995237D02*
X124138014Y-85019047D01*
X124138014Y-85019047D02*
X124185633Y-85042856D01*
X124185633Y-85042856D02*
X124280871Y-85042856D01*
X124280871Y-85042856D02*
X124328490Y-85019047D01*
X124328490Y-85019047D02*
X124352300Y-84995237D01*
X124352300Y-84995237D02*
X124376109Y-84947618D01*
X124376109Y-84947618D02*
X124376109Y-84852380D01*
X124376109Y-84852380D02*
X124352300Y-84804761D01*
X124352300Y-84804761D02*
X124328490Y-84780952D01*
X124328490Y-84780952D02*
X124280871Y-84757142D01*
X124280871Y-84757142D02*
X124185633Y-84757142D01*
X124185633Y-84757142D02*
X124138014Y-84780952D01*
X124138014Y-84780952D02*
X124114204Y-84804761D01*
X124114204Y-84804761D02*
X124090395Y-84852380D01*
X140371071Y-87376109D02*
X140204405Y-87138014D01*
X140085357Y-87376109D02*
X140085357Y-86876109D01*
X140085357Y-86876109D02*
X140275833Y-86876109D01*
X140275833Y-86876109D02*
X140323452Y-86899919D01*
X140323452Y-86899919D02*
X140347262Y-86923728D01*
X140347262Y-86923728D02*
X140371071Y-86971347D01*
X140371071Y-86971347D02*
X140371071Y-87042776D01*
X140371071Y-87042776D02*
X140347262Y-87090395D01*
X140347262Y-87090395D02*
X140323452Y-87114204D01*
X140323452Y-87114204D02*
X140275833Y-87138014D01*
X140275833Y-87138014D02*
X140085357Y-87138014D01*
X140847262Y-87376109D02*
X140561548Y-87376109D01*
X140704405Y-87376109D02*
X140704405Y-86876109D01*
X140704405Y-86876109D02*
X140656786Y-86947538D01*
X140656786Y-86947538D02*
X140609167Y-86995157D01*
X140609167Y-86995157D02*
X140561548Y-87018966D01*
X141085357Y-87376109D02*
X141180595Y-87376109D01*
X141180595Y-87376109D02*
X141228214Y-87352300D01*
X141228214Y-87352300D02*
X141252023Y-87328490D01*
X141252023Y-87328490D02*
X141299642Y-87257061D01*
X141299642Y-87257061D02*
X141323452Y-87161823D01*
X141323452Y-87161823D02*
X141323452Y-86971347D01*
X141323452Y-86971347D02*
X141299642Y-86923728D01*
X141299642Y-86923728D02*
X141275833Y-86899919D01*
X141275833Y-86899919D02*
X141228214Y-86876109D01*
X141228214Y-86876109D02*
X141132976Y-86876109D01*
X141132976Y-86876109D02*
X141085357Y-86899919D01*
X141085357Y-86899919D02*
X141061547Y-86923728D01*
X141061547Y-86923728D02*
X141037738Y-86971347D01*
X141037738Y-86971347D02*
X141037738Y-87090395D01*
X141037738Y-87090395D02*
X141061547Y-87138014D01*
X141061547Y-87138014D02*
X141085357Y-87161823D01*
X141085357Y-87161823D02*
X141132976Y-87185633D01*
X141132976Y-87185633D02*
X141228214Y-87185633D01*
X141228214Y-87185633D02*
X141275833Y-87161823D01*
X141275833Y-87161823D02*
X141299642Y-87138014D01*
X141299642Y-87138014D02*
X141323452Y-87090395D01*
X101203571Y-85066109D02*
X101036905Y-84828014D01*
X100917857Y-85066109D02*
X100917857Y-84566109D01*
X100917857Y-84566109D02*
X101108333Y-84566109D01*
X101108333Y-84566109D02*
X101155952Y-84589919D01*
X101155952Y-84589919D02*
X101179762Y-84613728D01*
X101179762Y-84613728D02*
X101203571Y-84661347D01*
X101203571Y-84661347D02*
X101203571Y-84732776D01*
X101203571Y-84732776D02*
X101179762Y-84780395D01*
X101179762Y-84780395D02*
X101155952Y-84804204D01*
X101155952Y-84804204D02*
X101108333Y-84828014D01*
X101108333Y-84828014D02*
X100917857Y-84828014D01*
X101370238Y-84566109D02*
X101679762Y-84566109D01*
X101679762Y-84566109D02*
X101513095Y-84756585D01*
X101513095Y-84756585D02*
X101584524Y-84756585D01*
X101584524Y-84756585D02*
X101632143Y-84780395D01*
X101632143Y-84780395D02*
X101655952Y-84804204D01*
X101655952Y-84804204D02*
X101679762Y-84851823D01*
X101679762Y-84851823D02*
X101679762Y-84970871D01*
X101679762Y-84970871D02*
X101655952Y-85018490D01*
X101655952Y-85018490D02*
X101632143Y-85042300D01*
X101632143Y-85042300D02*
X101584524Y-85066109D01*
X101584524Y-85066109D02*
X101441667Y-85066109D01*
X101441667Y-85066109D02*
X101394048Y-85042300D01*
X101394048Y-85042300D02*
X101370238Y-85018490D01*
X102155952Y-85066109D02*
X101870238Y-85066109D01*
X102013095Y-85066109D02*
X102013095Y-84566109D01*
X102013095Y-84566109D02*
X101965476Y-84637538D01*
X101965476Y-84637538D02*
X101917857Y-84685157D01*
X101917857Y-84685157D02*
X101870238Y-84708966D01*
X96453571Y-85091109D02*
X96286905Y-84853014D01*
X96167857Y-85091109D02*
X96167857Y-84591109D01*
X96167857Y-84591109D02*
X96358333Y-84591109D01*
X96358333Y-84591109D02*
X96405952Y-84614919D01*
X96405952Y-84614919D02*
X96429762Y-84638728D01*
X96429762Y-84638728D02*
X96453571Y-84686347D01*
X96453571Y-84686347D02*
X96453571Y-84757776D01*
X96453571Y-84757776D02*
X96429762Y-84805395D01*
X96429762Y-84805395D02*
X96405952Y-84829204D01*
X96405952Y-84829204D02*
X96358333Y-84853014D01*
X96358333Y-84853014D02*
X96167857Y-84853014D01*
X96644048Y-84638728D02*
X96667857Y-84614919D01*
X96667857Y-84614919D02*
X96715476Y-84591109D01*
X96715476Y-84591109D02*
X96834524Y-84591109D01*
X96834524Y-84591109D02*
X96882143Y-84614919D01*
X96882143Y-84614919D02*
X96905952Y-84638728D01*
X96905952Y-84638728D02*
X96929762Y-84686347D01*
X96929762Y-84686347D02*
X96929762Y-84733966D01*
X96929762Y-84733966D02*
X96905952Y-84805395D01*
X96905952Y-84805395D02*
X96620238Y-85091109D01*
X96620238Y-85091109D02*
X96929762Y-85091109D01*
X97215476Y-84805395D02*
X97167857Y-84781585D01*
X97167857Y-84781585D02*
X97144047Y-84757776D01*
X97144047Y-84757776D02*
X97120238Y-84710157D01*
X97120238Y-84710157D02*
X97120238Y-84686347D01*
X97120238Y-84686347D02*
X97144047Y-84638728D01*
X97144047Y-84638728D02*
X97167857Y-84614919D01*
X97167857Y-84614919D02*
X97215476Y-84591109D01*
X97215476Y-84591109D02*
X97310714Y-84591109D01*
X97310714Y-84591109D02*
X97358333Y-84614919D01*
X97358333Y-84614919D02*
X97382142Y-84638728D01*
X97382142Y-84638728D02*
X97405952Y-84686347D01*
X97405952Y-84686347D02*
X97405952Y-84710157D01*
X97405952Y-84710157D02*
X97382142Y-84757776D01*
X97382142Y-84757776D02*
X97358333Y-84781585D01*
X97358333Y-84781585D02*
X97310714Y-84805395D01*
X97310714Y-84805395D02*
X97215476Y-84805395D01*
X97215476Y-84805395D02*
X97167857Y-84829204D01*
X97167857Y-84829204D02*
X97144047Y-84853014D01*
X97144047Y-84853014D02*
X97120238Y-84900633D01*
X97120238Y-84900633D02*
X97120238Y-84995871D01*
X97120238Y-84995871D02*
X97144047Y-85043490D01*
X97144047Y-85043490D02*
X97167857Y-85067300D01*
X97167857Y-85067300D02*
X97215476Y-85091109D01*
X97215476Y-85091109D02*
X97310714Y-85091109D01*
X97310714Y-85091109D02*
X97358333Y-85067300D01*
X97358333Y-85067300D02*
X97382142Y-85043490D01*
X97382142Y-85043490D02*
X97405952Y-84995871D01*
X97405952Y-84995871D02*
X97405952Y-84900633D01*
X97405952Y-84900633D02*
X97382142Y-84853014D01*
X97382142Y-84853014D02*
X97358333Y-84829204D01*
X97358333Y-84829204D02*
X97310714Y-84805395D01*
X143078571Y-89176109D02*
X142911905Y-88938014D01*
X142792857Y-89176109D02*
X142792857Y-88676109D01*
X142792857Y-88676109D02*
X142983333Y-88676109D01*
X142983333Y-88676109D02*
X143030952Y-88699919D01*
X143030952Y-88699919D02*
X143054762Y-88723728D01*
X143054762Y-88723728D02*
X143078571Y-88771347D01*
X143078571Y-88771347D02*
X143078571Y-88842776D01*
X143078571Y-88842776D02*
X143054762Y-88890395D01*
X143054762Y-88890395D02*
X143030952Y-88914204D01*
X143030952Y-88914204D02*
X142983333Y-88938014D01*
X142983333Y-88938014D02*
X142792857Y-88938014D01*
X143554762Y-89176109D02*
X143269048Y-89176109D01*
X143411905Y-89176109D02*
X143411905Y-88676109D01*
X143411905Y-88676109D02*
X143364286Y-88747538D01*
X143364286Y-88747538D02*
X143316667Y-88795157D01*
X143316667Y-88795157D02*
X143269048Y-88818966D01*
X143840476Y-88890395D02*
X143792857Y-88866585D01*
X143792857Y-88866585D02*
X143769047Y-88842776D01*
X143769047Y-88842776D02*
X143745238Y-88795157D01*
X143745238Y-88795157D02*
X143745238Y-88771347D01*
X143745238Y-88771347D02*
X143769047Y-88723728D01*
X143769047Y-88723728D02*
X143792857Y-88699919D01*
X143792857Y-88699919D02*
X143840476Y-88676109D01*
X143840476Y-88676109D02*
X143935714Y-88676109D01*
X143935714Y-88676109D02*
X143983333Y-88699919D01*
X143983333Y-88699919D02*
X144007142Y-88723728D01*
X144007142Y-88723728D02*
X144030952Y-88771347D01*
X144030952Y-88771347D02*
X144030952Y-88795157D01*
X144030952Y-88795157D02*
X144007142Y-88842776D01*
X144007142Y-88842776D02*
X143983333Y-88866585D01*
X143983333Y-88866585D02*
X143935714Y-88890395D01*
X143935714Y-88890395D02*
X143840476Y-88890395D01*
X143840476Y-88890395D02*
X143792857Y-88914204D01*
X143792857Y-88914204D02*
X143769047Y-88938014D01*
X143769047Y-88938014D02*
X143745238Y-88985633D01*
X143745238Y-88985633D02*
X143745238Y-89080871D01*
X143745238Y-89080871D02*
X143769047Y-89128490D01*
X143769047Y-89128490D02*
X143792857Y-89152300D01*
X143792857Y-89152300D02*
X143840476Y-89176109D01*
X143840476Y-89176109D02*
X143935714Y-89176109D01*
X143935714Y-89176109D02*
X143983333Y-89152300D01*
X143983333Y-89152300D02*
X144007142Y-89128490D01*
X144007142Y-89128490D02*
X144030952Y-89080871D01*
X144030952Y-89080871D02*
X144030952Y-88985633D01*
X144030952Y-88985633D02*
X144007142Y-88938014D01*
X144007142Y-88938014D02*
X143983333Y-88914204D01*
X143983333Y-88914204D02*
X143935714Y-88890395D01*
X128516666Y-87928490D02*
X128492857Y-87952300D01*
X128492857Y-87952300D02*
X128421428Y-87976109D01*
X128421428Y-87976109D02*
X128373809Y-87976109D01*
X128373809Y-87976109D02*
X128302381Y-87952300D01*
X128302381Y-87952300D02*
X128254762Y-87904680D01*
X128254762Y-87904680D02*
X128230952Y-87857061D01*
X128230952Y-87857061D02*
X128207143Y-87761823D01*
X128207143Y-87761823D02*
X128207143Y-87690395D01*
X128207143Y-87690395D02*
X128230952Y-87595157D01*
X128230952Y-87595157D02*
X128254762Y-87547538D01*
X128254762Y-87547538D02*
X128302381Y-87499919D01*
X128302381Y-87499919D02*
X128373809Y-87476109D01*
X128373809Y-87476109D02*
X128421428Y-87476109D01*
X128421428Y-87476109D02*
X128492857Y-87499919D01*
X128492857Y-87499919D02*
X128516666Y-87523728D01*
X128754762Y-87976109D02*
X128850000Y-87976109D01*
X128850000Y-87976109D02*
X128897619Y-87952300D01*
X128897619Y-87952300D02*
X128921428Y-87928490D01*
X128921428Y-87928490D02*
X128969047Y-87857061D01*
X128969047Y-87857061D02*
X128992857Y-87761823D01*
X128992857Y-87761823D02*
X128992857Y-87571347D01*
X128992857Y-87571347D02*
X128969047Y-87523728D01*
X128969047Y-87523728D02*
X128945238Y-87499919D01*
X128945238Y-87499919D02*
X128897619Y-87476109D01*
X128897619Y-87476109D02*
X128802381Y-87476109D01*
X128802381Y-87476109D02*
X128754762Y-87499919D01*
X128754762Y-87499919D02*
X128730952Y-87523728D01*
X128730952Y-87523728D02*
X128707143Y-87571347D01*
X128707143Y-87571347D02*
X128707143Y-87690395D01*
X128707143Y-87690395D02*
X128730952Y-87738014D01*
X128730952Y-87738014D02*
X128754762Y-87761823D01*
X128754762Y-87761823D02*
X128802381Y-87785633D01*
X128802381Y-87785633D02*
X128897619Y-87785633D01*
X128897619Y-87785633D02*
X128945238Y-87761823D01*
X128945238Y-87761823D02*
X128969047Y-87738014D01*
X128969047Y-87738014D02*
X128992857Y-87690395D01*
X106266071Y-118898609D02*
X106099405Y-118660514D01*
X105980357Y-118898609D02*
X105980357Y-118398609D01*
X105980357Y-118398609D02*
X106170833Y-118398609D01*
X106170833Y-118398609D02*
X106218452Y-118422419D01*
X106218452Y-118422419D02*
X106242262Y-118446228D01*
X106242262Y-118446228D02*
X106266071Y-118493847D01*
X106266071Y-118493847D02*
X106266071Y-118565276D01*
X106266071Y-118565276D02*
X106242262Y-118612895D01*
X106242262Y-118612895D02*
X106218452Y-118636704D01*
X106218452Y-118636704D02*
X106170833Y-118660514D01*
X106170833Y-118660514D02*
X105980357Y-118660514D01*
X106432738Y-118398609D02*
X106742262Y-118398609D01*
X106742262Y-118398609D02*
X106575595Y-118589085D01*
X106575595Y-118589085D02*
X106647024Y-118589085D01*
X106647024Y-118589085D02*
X106694643Y-118612895D01*
X106694643Y-118612895D02*
X106718452Y-118636704D01*
X106718452Y-118636704D02*
X106742262Y-118684323D01*
X106742262Y-118684323D02*
X106742262Y-118803371D01*
X106742262Y-118803371D02*
X106718452Y-118850990D01*
X106718452Y-118850990D02*
X106694643Y-118874800D01*
X106694643Y-118874800D02*
X106647024Y-118898609D01*
X106647024Y-118898609D02*
X106504167Y-118898609D01*
X106504167Y-118898609D02*
X106456548Y-118874800D01*
X106456548Y-118874800D02*
X106432738Y-118850990D01*
X107194642Y-118398609D02*
X106956547Y-118398609D01*
X106956547Y-118398609D02*
X106932738Y-118636704D01*
X106932738Y-118636704D02*
X106956547Y-118612895D01*
X106956547Y-118612895D02*
X107004166Y-118589085D01*
X107004166Y-118589085D02*
X107123214Y-118589085D01*
X107123214Y-118589085D02*
X107170833Y-118612895D01*
X107170833Y-118612895D02*
X107194642Y-118636704D01*
X107194642Y-118636704D02*
X107218452Y-118684323D01*
X107218452Y-118684323D02*
X107218452Y-118803371D01*
X107218452Y-118803371D02*
X107194642Y-118850990D01*
X107194642Y-118850990D02*
X107170833Y-118874800D01*
X107170833Y-118874800D02*
X107123214Y-118898609D01*
X107123214Y-118898609D02*
X107004166Y-118898609D01*
X107004166Y-118898609D02*
X106956547Y-118874800D01*
X106956547Y-118874800D02*
X106932738Y-118850990D01*
X117728571Y-71778490D02*
X117704762Y-71802300D01*
X117704762Y-71802300D02*
X117633333Y-71826109D01*
X117633333Y-71826109D02*
X117585714Y-71826109D01*
X117585714Y-71826109D02*
X117514286Y-71802300D01*
X117514286Y-71802300D02*
X117466667Y-71754680D01*
X117466667Y-71754680D02*
X117442857Y-71707061D01*
X117442857Y-71707061D02*
X117419048Y-71611823D01*
X117419048Y-71611823D02*
X117419048Y-71540395D01*
X117419048Y-71540395D02*
X117442857Y-71445157D01*
X117442857Y-71445157D02*
X117466667Y-71397538D01*
X117466667Y-71397538D02*
X117514286Y-71349919D01*
X117514286Y-71349919D02*
X117585714Y-71326109D01*
X117585714Y-71326109D02*
X117633333Y-71326109D01*
X117633333Y-71326109D02*
X117704762Y-71349919D01*
X117704762Y-71349919D02*
X117728571Y-71373728D01*
X117919048Y-71373728D02*
X117942857Y-71349919D01*
X117942857Y-71349919D02*
X117990476Y-71326109D01*
X117990476Y-71326109D02*
X118109524Y-71326109D01*
X118109524Y-71326109D02*
X118157143Y-71349919D01*
X118157143Y-71349919D02*
X118180952Y-71373728D01*
X118180952Y-71373728D02*
X118204762Y-71421347D01*
X118204762Y-71421347D02*
X118204762Y-71468966D01*
X118204762Y-71468966D02*
X118180952Y-71540395D01*
X118180952Y-71540395D02*
X117895238Y-71826109D01*
X117895238Y-71826109D02*
X118204762Y-71826109D01*
X118514285Y-71326109D02*
X118561904Y-71326109D01*
X118561904Y-71326109D02*
X118609523Y-71349919D01*
X118609523Y-71349919D02*
X118633333Y-71373728D01*
X118633333Y-71373728D02*
X118657142Y-71421347D01*
X118657142Y-71421347D02*
X118680952Y-71516585D01*
X118680952Y-71516585D02*
X118680952Y-71635633D01*
X118680952Y-71635633D02*
X118657142Y-71730871D01*
X118657142Y-71730871D02*
X118633333Y-71778490D01*
X118633333Y-71778490D02*
X118609523Y-71802300D01*
X118609523Y-71802300D02*
X118561904Y-71826109D01*
X118561904Y-71826109D02*
X118514285Y-71826109D01*
X118514285Y-71826109D02*
X118466666Y-71802300D01*
X118466666Y-71802300D02*
X118442857Y-71778490D01*
X118442857Y-71778490D02*
X118419047Y-71730871D01*
X118419047Y-71730871D02*
X118395238Y-71635633D01*
X118395238Y-71635633D02*
X118395238Y-71516585D01*
X118395238Y-71516585D02*
X118419047Y-71421347D01*
X118419047Y-71421347D02*
X118442857Y-71373728D01*
X118442857Y-71373728D02*
X118466666Y-71349919D01*
X118466666Y-71349919D02*
X118514285Y-71326109D01*
X141378490Y-98781428D02*
X141402300Y-98805237D01*
X141402300Y-98805237D02*
X141426109Y-98876666D01*
X141426109Y-98876666D02*
X141426109Y-98924285D01*
X141426109Y-98924285D02*
X141402300Y-98995713D01*
X141402300Y-98995713D02*
X141354680Y-99043332D01*
X141354680Y-99043332D02*
X141307061Y-99067142D01*
X141307061Y-99067142D02*
X141211823Y-99090951D01*
X141211823Y-99090951D02*
X141140395Y-99090951D01*
X141140395Y-99090951D02*
X141045157Y-99067142D01*
X141045157Y-99067142D02*
X140997538Y-99043332D01*
X140997538Y-99043332D02*
X140949919Y-98995713D01*
X140949919Y-98995713D02*
X140926109Y-98924285D01*
X140926109Y-98924285D02*
X140926109Y-98876666D01*
X140926109Y-98876666D02*
X140949919Y-98805237D01*
X140949919Y-98805237D02*
X140973728Y-98781428D01*
X140973728Y-98590951D02*
X140949919Y-98567142D01*
X140949919Y-98567142D02*
X140926109Y-98519523D01*
X140926109Y-98519523D02*
X140926109Y-98400475D01*
X140926109Y-98400475D02*
X140949919Y-98352856D01*
X140949919Y-98352856D02*
X140973728Y-98329047D01*
X140973728Y-98329047D02*
X141021347Y-98305237D01*
X141021347Y-98305237D02*
X141068966Y-98305237D01*
X141068966Y-98305237D02*
X141140395Y-98329047D01*
X141140395Y-98329047D02*
X141426109Y-98614761D01*
X141426109Y-98614761D02*
X141426109Y-98305237D01*
X140926109Y-97852857D02*
X140926109Y-98090952D01*
X140926109Y-98090952D02*
X141164204Y-98114761D01*
X141164204Y-98114761D02*
X141140395Y-98090952D01*
X141140395Y-98090952D02*
X141116585Y-98043333D01*
X141116585Y-98043333D02*
X141116585Y-97924285D01*
X141116585Y-97924285D02*
X141140395Y-97876666D01*
X141140395Y-97876666D02*
X141164204Y-97852857D01*
X141164204Y-97852857D02*
X141211823Y-97829047D01*
X141211823Y-97829047D02*
X141330871Y-97829047D01*
X141330871Y-97829047D02*
X141378490Y-97852857D01*
X141378490Y-97852857D02*
X141402300Y-97876666D01*
X141402300Y-97876666D02*
X141426109Y-97924285D01*
X141426109Y-97924285D02*
X141426109Y-98043333D01*
X141426109Y-98043333D02*
X141402300Y-98090952D01*
X141402300Y-98090952D02*
X141378490Y-98114761D01*
X134026109Y-80519047D02*
X133526109Y-80519047D01*
X133526109Y-80519047D02*
X133526109Y-80399999D01*
X133526109Y-80399999D02*
X133549919Y-80328571D01*
X133549919Y-80328571D02*
X133597538Y-80280952D01*
X133597538Y-80280952D02*
X133645157Y-80257142D01*
X133645157Y-80257142D02*
X133740395Y-80233333D01*
X133740395Y-80233333D02*
X133811823Y-80233333D01*
X133811823Y-80233333D02*
X133907061Y-80257142D01*
X133907061Y-80257142D02*
X133954680Y-80280952D01*
X133954680Y-80280952D02*
X134002300Y-80328571D01*
X134002300Y-80328571D02*
X134026109Y-80399999D01*
X134026109Y-80399999D02*
X134026109Y-80519047D01*
X133692776Y-79804761D02*
X134026109Y-79804761D01*
X133502300Y-79923809D02*
X133859442Y-80042856D01*
X133859442Y-80042856D02*
X133859442Y-79733333D01*
D12*
%TO.C,REF\u002A\u002A*%
G36*
X75314175Y-122429955D02*
G01*
X75363568Y-122429955D01*
X75511747Y-122578132D01*
X75536442Y-122627525D01*
X75536442Y-122676916D01*
X75561141Y-122701611D01*
X75561141Y-122849790D01*
X75536442Y-122874486D01*
X75536442Y-122923879D01*
X75511747Y-122973270D01*
X75363568Y-123121451D01*
X75314175Y-123146147D01*
X75264782Y-123146147D01*
X75240086Y-123170844D01*
X75091910Y-123170844D01*
X74943730Y-123096755D01*
X74425106Y-123516593D01*
X72548179Y-123541288D01*
X72227129Y-123837644D01*
X72227129Y-124158699D01*
X72202433Y-124183394D01*
X72004858Y-124183394D01*
X72004858Y-123714160D01*
X72474091Y-123294327D01*
X74326322Y-123294327D01*
X74597979Y-123047359D01*
X74622677Y-123047359D01*
X74795550Y-122899182D01*
X74795550Y-122849790D01*
X75017817Y-122849790D01*
X75116606Y-122948578D01*
X75215391Y-122948578D01*
X75314175Y-122874486D01*
X75338870Y-122825094D01*
X75338870Y-122751005D01*
X75240086Y-122627525D01*
X75116606Y-122627525D01*
X75017817Y-122726309D01*
X75017817Y-122849790D01*
X74795550Y-122849790D01*
X74795550Y-122726309D01*
X74795550Y-122676916D01*
X74894337Y-122504042D01*
X74993121Y-122429955D01*
X75042517Y-122429955D01*
X75067211Y-122405256D01*
X75289480Y-122405256D01*
X75314175Y-122429955D01*
G37*
G36*
X69337649Y-122479346D02*
G01*
X69461131Y-122652220D01*
X69461131Y-122899182D01*
X69411742Y-122997967D01*
X69905667Y-123541288D01*
X69930365Y-123590683D01*
X69930365Y-124109306D01*
X69905667Y-124134003D01*
X69905667Y-124183394D01*
X69708096Y-124183394D01*
X69683397Y-124158699D01*
X69708096Y-123689467D01*
X69411742Y-123368414D01*
X69411742Y-123343717D01*
X69214168Y-123146147D01*
X69189473Y-123170844D01*
X68967202Y-123170844D01*
X68868418Y-123121451D01*
X68744939Y-122997967D01*
X68720240Y-122899182D01*
X68695544Y-122874486D01*
X68695544Y-122825094D01*
X68917810Y-122825094D01*
X69016597Y-122948578D01*
X69164778Y-122948578D01*
X69238867Y-122874486D01*
X69238867Y-122726309D01*
X69140079Y-122627525D01*
X69041295Y-122627525D01*
X68942507Y-122701611D01*
X68917810Y-122751005D01*
X68917810Y-122825094D01*
X68695544Y-122825094D01*
X68695544Y-122751005D01*
X68695544Y-122701611D01*
X68720240Y-122676916D01*
X68744939Y-122578132D01*
X68868418Y-122454646D01*
X68967202Y-122429955D01*
X68991900Y-122405256D01*
X69189473Y-122405256D01*
X69337649Y-122479346D01*
G37*
G36*
X75758710Y-123911736D02*
G01*
X75882192Y-124059915D01*
X75882192Y-124134003D01*
X75906890Y-124158699D01*
X75906890Y-124282181D01*
X75832797Y-124455055D01*
X75684622Y-124578538D01*
X75635227Y-124578538D01*
X75610533Y-124603231D01*
X75437657Y-124603231D01*
X75412961Y-124578538D01*
X75314175Y-124553840D01*
X75141301Y-124356269D01*
X74499194Y-124331575D01*
X74375713Y-124430358D01*
X74375713Y-124455055D01*
X74326322Y-124455055D01*
X74326322Y-124430358D01*
X74202835Y-124282181D01*
X75363568Y-124282181D01*
X75412961Y-124356269D01*
X75462352Y-124380964D01*
X75585836Y-124380964D01*
X75684622Y-124282181D01*
X75684622Y-124183394D01*
X75610533Y-124084609D01*
X75561141Y-124059915D01*
X75487051Y-124059915D01*
X75363568Y-124158699D01*
X75363568Y-124282181D01*
X74202835Y-124282181D01*
X74202835Y-124257484D01*
X74301625Y-124158699D01*
X74351017Y-124109306D01*
X75141301Y-124109306D01*
X75215391Y-123985824D01*
X75289480Y-123911736D01*
X75462352Y-123837644D01*
X75585836Y-123837644D01*
X75758710Y-123911736D01*
G37*
G36*
X67361941Y-122232378D02*
G01*
X67436026Y-122232378D01*
X67485418Y-122257076D01*
X67633600Y-122405256D01*
X67658297Y-122504042D01*
X67682993Y-122528739D01*
X67682993Y-122676916D01*
X67633600Y-122775702D01*
X68621455Y-123763555D01*
X68621455Y-123788249D01*
X68670848Y-123837644D01*
X68695544Y-123837644D01*
X68769633Y-123911736D01*
X68843723Y-124059915D01*
X68843723Y-124109306D01*
X68917810Y-124232787D01*
X68917810Y-124282181D01*
X69041295Y-124504447D01*
X69362347Y-124504447D01*
X69387042Y-124529143D01*
X69387042Y-124726715D01*
X69288254Y-124726715D01*
X69263563Y-124751413D01*
X68942507Y-124751413D01*
X68893114Y-124726715D01*
X68843723Y-124677325D01*
X68794330Y-124578538D01*
X68794330Y-124529143D01*
X68695544Y-124356269D01*
X68695544Y-124306876D01*
X68596754Y-124134003D01*
X68596754Y-124084609D01*
X67460724Y-122948578D01*
X67436026Y-122973270D01*
X67337242Y-122973270D01*
X67312546Y-122997967D01*
X67263153Y-122973270D01*
X67164367Y-122973270D01*
X67065578Y-122923879D01*
X66966798Y-122825094D01*
X66917405Y-122726309D01*
X66917405Y-122676916D01*
X67139673Y-122676916D01*
X67213760Y-122751005D01*
X67312546Y-122775702D01*
X67460724Y-122652220D01*
X67460724Y-122578132D01*
X67361941Y-122454646D01*
X67263153Y-122429955D01*
X67164367Y-122504042D01*
X67139673Y-122553435D01*
X67139673Y-122676916D01*
X66917405Y-122676916D01*
X66917405Y-122553435D01*
X66917405Y-122504042D01*
X66942102Y-122479346D01*
X66966798Y-122380557D01*
X67065578Y-122281770D01*
X67164367Y-122232378D01*
X67337242Y-122207685D01*
X67361941Y-122232378D01*
G37*
G36*
X81315398Y-124850197D02*
G01*
X81315398Y-125171250D01*
X81290701Y-125195947D01*
X80944951Y-125195947D01*
X80944951Y-124825501D01*
X81290701Y-124825501D01*
X81315398Y-124850197D01*
G37*
G36*
X85612567Y-125442912D02*
G01*
X85736051Y-125591090D01*
X85736051Y-126554247D01*
X85711354Y-126603639D01*
X85612567Y-126702427D01*
X85513781Y-126751818D01*
X84550623Y-126751818D01*
X84501231Y-126727121D01*
X84353054Y-126578945D01*
X84353054Y-126529550D01*
X84328356Y-126504857D01*
X84328356Y-126356675D01*
X84723499Y-126356675D01*
X84748195Y-126381372D01*
X85340912Y-126381372D01*
X85365603Y-126356675D01*
X85365603Y-125788660D01*
X85316213Y-125739267D01*
X84748195Y-125739267D01*
X84723499Y-125763963D01*
X84723499Y-126356675D01*
X84328356Y-126356675D01*
X84328356Y-125763963D01*
X84328356Y-125615784D01*
X84427141Y-125467608D01*
X84550623Y-125393518D01*
X85513781Y-125393518D01*
X85612567Y-125442912D01*
G37*
G36*
X84204875Y-125739267D02*
G01*
X83612164Y-125739267D01*
X83562765Y-125788660D01*
X83562765Y-126751818D01*
X83217018Y-126751818D01*
X83217018Y-125566394D01*
X83365196Y-125418212D01*
X83414591Y-125393518D01*
X84204875Y-125393518D01*
X84204875Y-125739267D01*
G37*
G36*
X82747787Y-125418212D02*
G01*
X82797180Y-125418212D01*
X82920662Y-125541696D01*
X82945356Y-125591090D01*
X82945356Y-125862749D01*
X82574915Y-125862749D01*
X82574915Y-125788660D01*
X82525520Y-125739267D01*
X81982201Y-125739267D01*
X81932810Y-125788660D01*
X81932810Y-126356675D01*
X81957504Y-126381372D01*
X82550216Y-126381372D01*
X82574915Y-126356675D01*
X82945356Y-126356675D01*
X82945356Y-126554247D01*
X82797180Y-126727121D01*
X82747787Y-126751818D01*
X81784627Y-126751818D01*
X81685842Y-126702427D01*
X81636448Y-126653032D01*
X81562360Y-126529550D01*
X81562360Y-125591090D01*
X81710537Y-125418212D01*
X81759934Y-125418212D01*
X81784627Y-125393518D01*
X82723091Y-125393518D01*
X82747787Y-125418212D01*
G37*
G36*
X81315398Y-126751818D02*
G01*
X80944951Y-126751818D01*
X80944951Y-125393518D01*
X81315398Y-125393518D01*
X81315398Y-126751818D01*
G37*
G36*
X80525113Y-125442912D02*
G01*
X80549809Y-125442912D01*
X80623897Y-125517001D01*
X80673293Y-125615784D01*
X80673293Y-126751818D01*
X80302844Y-126751818D01*
X80302844Y-125788660D01*
X80253452Y-125739267D01*
X80031187Y-125739267D01*
X79981793Y-125788660D01*
X79981793Y-126751818D01*
X79611348Y-126751818D01*
X79611348Y-125763963D01*
X79586649Y-125739267D01*
X79339686Y-125739267D01*
X79290296Y-125788660D01*
X79290296Y-126751818D01*
X78919849Y-126751818D01*
X78919849Y-125393518D01*
X80475721Y-125393518D01*
X80525113Y-125442912D01*
G37*
G36*
X86254677Y-128110121D02*
G01*
X86032412Y-128110121D01*
X86032412Y-127838460D01*
X86254677Y-127838460D01*
X86254677Y-128110121D01*
G37*
G36*
X91119862Y-128233602D02*
G01*
X91144558Y-128258299D01*
X91391523Y-128258299D01*
X91391523Y-128554657D01*
X91144558Y-128554657D01*
X91119862Y-128579353D01*
X91119862Y-129073281D01*
X91169254Y-129122669D01*
X91391523Y-129122669D01*
X91391523Y-129419030D01*
X91045776Y-129419030D01*
X90922291Y-129320243D01*
X90897595Y-129270851D01*
X90897595Y-129221458D01*
X90872901Y-129196763D01*
X90872901Y-127887853D01*
X91119862Y-127887853D01*
X91119862Y-128233602D01*
G37*
G36*
X90527147Y-128282992D02*
G01*
X90576541Y-128282992D01*
X90650632Y-128357082D01*
X90675328Y-128455871D01*
X90700024Y-128480568D01*
X90700024Y-129394331D01*
X90675328Y-129419030D01*
X90453058Y-129419030D01*
X90453058Y-128579353D01*
X90428364Y-128554657D01*
X90107309Y-128554657D01*
X90082614Y-128579353D01*
X90082614Y-128925102D01*
X90057916Y-128949798D01*
X90057916Y-129419030D01*
X89835647Y-129419030D01*
X89835647Y-128381782D01*
X89909738Y-128282992D01*
X89959130Y-128258299D01*
X90502454Y-128258299D01*
X90527147Y-128282992D01*
G37*
G36*
X89638079Y-128381782D02*
G01*
X89638079Y-128851011D01*
X89613379Y-128900405D01*
X89539294Y-128949798D01*
X89045364Y-128949798D01*
X89020670Y-128974494D01*
X89020670Y-129097975D01*
X89045364Y-129122669D01*
X89638079Y-129122669D01*
X89638079Y-129419030D01*
X88946582Y-129419030D01*
X88823100Y-129320243D01*
X88798403Y-129221458D01*
X88773708Y-129196763D01*
X88773708Y-128702833D01*
X89020670Y-128702833D01*
X89045364Y-128727530D01*
X89391113Y-128727530D01*
X89415810Y-128702833D01*
X89415810Y-128579353D01*
X89391113Y-128554657D01*
X89045364Y-128554657D01*
X89020670Y-128579353D01*
X89020670Y-128702833D01*
X88773708Y-128702833D01*
X88773708Y-128579353D01*
X88773708Y-128455871D01*
X88798403Y-128431175D01*
X88798403Y-128381782D01*
X88897188Y-128282992D01*
X88946582Y-128258299D01*
X89489902Y-128258299D01*
X89638079Y-128381782D01*
G37*
G36*
X88576137Y-128381782D02*
G01*
X88576137Y-128431175D01*
X88600830Y-128455871D01*
X88600830Y-129419030D01*
X88378567Y-129419030D01*
X88378567Y-128604047D01*
X88329169Y-128554657D01*
X88180994Y-128554657D01*
X88131598Y-128604047D01*
X88131598Y-129419030D01*
X87909334Y-129419030D01*
X87909334Y-128579353D01*
X87884638Y-128554657D01*
X87736459Y-128554657D01*
X87711763Y-128579353D01*
X87711763Y-129394331D01*
X87687063Y-129419030D01*
X87489493Y-129419030D01*
X87464799Y-129394331D01*
X87464799Y-128282992D01*
X87489493Y-128258299D01*
X88427955Y-128258299D01*
X88576137Y-128381782D01*
G37*
G36*
X87267225Y-128381782D02*
G01*
X87291924Y-128431175D01*
X87291924Y-129419030D01*
X87069656Y-129419030D01*
X87069656Y-128579353D01*
X87044957Y-128554657D01*
X86699206Y-128554657D01*
X86674512Y-128579353D01*
X86674512Y-129419030D01*
X86452246Y-129419030D01*
X86452246Y-128258299D01*
X87119047Y-128258299D01*
X87267225Y-128381782D01*
G37*
G36*
X86254677Y-129419030D02*
G01*
X86032412Y-129419030D01*
X86032412Y-128258299D01*
X86254677Y-128258299D01*
X86254677Y-129419030D01*
G37*
G36*
X85760747Y-128307689D02*
G01*
X85810140Y-128357082D01*
X85834836Y-128406478D01*
X85834836Y-129419030D01*
X85143337Y-129419030D01*
X85019852Y-129320243D01*
X85019852Y-129270851D01*
X84995159Y-129246155D01*
X84995159Y-129097975D01*
X85242124Y-129097975D01*
X85266819Y-129122669D01*
X85587869Y-129122669D01*
X85612567Y-129097975D01*
X85612567Y-128974494D01*
X85587869Y-128949798D01*
X85266819Y-128949798D01*
X85242124Y-128974494D01*
X85242124Y-129097975D01*
X84995159Y-129097975D01*
X84995159Y-128974494D01*
X84995159Y-128851011D01*
X85019852Y-128801619D01*
X85118642Y-128727530D01*
X85587869Y-128727530D01*
X85612567Y-128702833D01*
X85612567Y-128579353D01*
X85587869Y-128554657D01*
X85019852Y-128554657D01*
X85019852Y-128258299D01*
X85661964Y-128258299D01*
X85760747Y-128307689D01*
G37*
G36*
X84550623Y-128233602D02*
G01*
X84575320Y-128258299D01*
X84822283Y-128258299D01*
X84822283Y-128307689D01*
X84846979Y-128332387D01*
X84846979Y-128529959D01*
X84822283Y-128554657D01*
X84575320Y-128554657D01*
X84550623Y-128579353D01*
X84550623Y-129073281D01*
X84600017Y-129122669D01*
X84822283Y-129122669D01*
X84846979Y-129147369D01*
X84846979Y-129394331D01*
X84822283Y-129419030D01*
X84476533Y-129419030D01*
X84353054Y-129320243D01*
X84303657Y-129221458D01*
X84303657Y-127887853D01*
X84550623Y-127887853D01*
X84550623Y-128233602D01*
G37*
G36*
X84155483Y-128282992D02*
G01*
X84155483Y-128554657D01*
X83859124Y-128554657D01*
X83834429Y-128579353D01*
X83834429Y-129394331D01*
X83809732Y-129419030D01*
X83587463Y-129419030D01*
X83587463Y-128406478D01*
X83661554Y-128307689D01*
X83760338Y-128258299D01*
X84130786Y-128258299D01*
X84155483Y-128282992D01*
G37*
G36*
X83241717Y-128282992D02*
G01*
X83291108Y-128282992D01*
X83365196Y-128357082D01*
X83389896Y-128406478D01*
X83389896Y-128851011D01*
X83291108Y-128949798D01*
X82797180Y-128949798D01*
X82772485Y-128974494D01*
X82772485Y-129097975D01*
X82797180Y-129122669D01*
X83389896Y-129122669D01*
X83389896Y-129419030D01*
X82698398Y-129419030D01*
X82574915Y-129344940D01*
X82525520Y-129246155D01*
X82525520Y-128702833D01*
X82772485Y-128702833D01*
X82797180Y-128727530D01*
X83142930Y-128727530D01*
X83167624Y-128702833D01*
X83167624Y-128579353D01*
X83142930Y-128554657D01*
X82797180Y-128554657D01*
X82772485Y-128579353D01*
X82772485Y-128702833D01*
X82525520Y-128702833D01*
X82525520Y-128579353D01*
X82525520Y-128431175D01*
X82649004Y-128282992D01*
X82698398Y-128258299D01*
X83217018Y-128258299D01*
X83241717Y-128282992D01*
G37*
G36*
X82080987Y-128233602D02*
G01*
X82105680Y-128258299D01*
X82352644Y-128258299D01*
X82377339Y-128282992D01*
X82377339Y-128554657D01*
X82105680Y-128554657D01*
X82080987Y-128579353D01*
X82080987Y-129073281D01*
X82130379Y-129122669D01*
X82352644Y-129122669D01*
X82377339Y-129147369D01*
X82377339Y-129394331D01*
X82352644Y-129419030D01*
X82006895Y-129419030D01*
X81883415Y-129320243D01*
X81858721Y-129270851D01*
X81858721Y-129221458D01*
X81834023Y-129196763D01*
X81834023Y-127887853D01*
X82080987Y-127887853D01*
X82080987Y-128233602D01*
G37*
G36*
X81562360Y-128307689D02*
G01*
X81611753Y-128357082D01*
X81661145Y-128455871D01*
X81661145Y-129394331D01*
X81636448Y-129419030D01*
X81414183Y-129419030D01*
X81414183Y-128579353D01*
X81389486Y-128554657D01*
X81068432Y-128554657D01*
X81019039Y-128604047D01*
X81019039Y-129419030D01*
X80796775Y-129419030D01*
X80796775Y-128258299D01*
X81463575Y-128258299D01*
X81562360Y-128307689D01*
G37*
G36*
X80525113Y-127863157D02*
G01*
X79339686Y-127863157D01*
X79290296Y-127912547D01*
X79290296Y-128184210D01*
X79339686Y-128233602D01*
X80352236Y-128233602D01*
X80352236Y-128307689D01*
X80302844Y-128406478D01*
X80302844Y-128480568D01*
X80278149Y-128505263D01*
X80278149Y-128579353D01*
X80253452Y-128628745D01*
X79339686Y-128628745D01*
X79290296Y-128678137D01*
X79290296Y-128949798D01*
X79314990Y-128974494D01*
X80525113Y-128974494D01*
X80525113Y-129419030D01*
X79166814Y-129419030D01*
X79068025Y-129369637D01*
X78944543Y-129246155D01*
X78895154Y-129147369D01*
X78895154Y-127690280D01*
X78944543Y-127591496D01*
X79068025Y-127468012D01*
X79166814Y-127418622D01*
X80525113Y-127418622D01*
X80525113Y-127863157D01*
G37*
G36*
X86625120Y-130999597D02*
G01*
X86748602Y-131147774D01*
X86748602Y-132160329D01*
X86476944Y-132160329D01*
X86476944Y-131320648D01*
X86452246Y-131295953D01*
X86229975Y-131295953D01*
X86205281Y-131320648D01*
X86205281Y-132160329D01*
X85933620Y-132160329D01*
X85933620Y-131320648D01*
X85884230Y-131271256D01*
X85736051Y-131295953D01*
X85711354Y-131271256D01*
X85661964Y-131320648D01*
X85661964Y-132160329D01*
X85390299Y-132160329D01*
X85390299Y-130999597D01*
X85414997Y-130974900D01*
X86575729Y-130974900D01*
X86625120Y-130999597D01*
G37*
G36*
X85143337Y-131098384D02*
G01*
X85168034Y-131147774D01*
X85168034Y-131567616D01*
X85093944Y-131666401D01*
X85044552Y-131691095D01*
X84451836Y-131691095D01*
X84402443Y-131740489D01*
X84402443Y-131839276D01*
X84427141Y-131863970D01*
X85168034Y-131863970D01*
X85168034Y-132160329D01*
X84303657Y-132160329D01*
X84204875Y-132110934D01*
X84130786Y-131987450D01*
X84130786Y-131419437D01*
X84402443Y-131419437D01*
X84427141Y-131444135D01*
X84846979Y-131444135D01*
X84896374Y-131394738D01*
X84871678Y-131345348D01*
X84896374Y-131320648D01*
X84846979Y-131271256D01*
X84451836Y-131271256D01*
X84402443Y-131320648D01*
X84402443Y-131419437D01*
X84130786Y-131419437D01*
X84130786Y-131320648D01*
X84130786Y-131147774D01*
X84254266Y-130999597D01*
X84303657Y-130999597D01*
X84328356Y-130974900D01*
X84995159Y-130974900D01*
X85143337Y-131098384D01*
G37*
G36*
X83587463Y-130950205D02*
G01*
X83612164Y-130974900D01*
X83908518Y-130974900D01*
X83933213Y-130999597D01*
X83933213Y-131271256D01*
X83636857Y-131271256D01*
X83587463Y-131320648D01*
X83587463Y-131814577D01*
X83636857Y-131863970D01*
X83933213Y-131863970D01*
X83933213Y-132160329D01*
X83463985Y-132160329D01*
X83315806Y-132036844D01*
X83315806Y-131987450D01*
X83291108Y-131962755D01*
X83291108Y-130604453D01*
X83587463Y-130604453D01*
X83587463Y-130950205D01*
G37*
G36*
X83044143Y-131271256D02*
G01*
X82920662Y-131271256D01*
X82895967Y-131295953D01*
X82352644Y-131295953D01*
X82327947Y-131320648D01*
X82327947Y-131419437D01*
X82352644Y-131444135D01*
X82895967Y-131444135D01*
X83019447Y-131518224D01*
X83068843Y-131617007D01*
X83068843Y-131987450D01*
X83019447Y-132086238D01*
X82970055Y-132135633D01*
X82920662Y-132160329D01*
X82056290Y-132160329D01*
X82056290Y-131863970D01*
X82772485Y-131863970D01*
X82797180Y-131839276D01*
X82797180Y-131740489D01*
X82747787Y-131691095D01*
X82327947Y-131715793D01*
X82303253Y-131691095D01*
X82179770Y-131691095D01*
X82080987Y-131617007D01*
X82031593Y-131518224D01*
X82031593Y-131172471D01*
X82080987Y-131073685D01*
X82130379Y-131024293D01*
X82229163Y-130974900D01*
X83044143Y-130974900D01*
X83044143Y-131271256D01*
G37*
G36*
X80525113Y-130579758D02*
G01*
X79339686Y-130579758D01*
X79290296Y-130629150D01*
X79290296Y-130925508D01*
X79314990Y-130950205D01*
X80302844Y-130950205D01*
X80352236Y-130974900D01*
X80500420Y-131123079D01*
X80500420Y-131172471D01*
X80525113Y-131197167D01*
X80525113Y-131913361D01*
X80500420Y-131938060D01*
X80500420Y-131987450D01*
X80401633Y-132110934D01*
X80302844Y-132160329D01*
X78895154Y-132160329D01*
X78895154Y-131740489D01*
X78944543Y-131740489D01*
X78969242Y-131715793D01*
X79364384Y-131715793D01*
X79389078Y-131740489D01*
X79487864Y-131740489D01*
X79512559Y-131715793D01*
X80105274Y-131715793D01*
X80154665Y-131617007D01*
X80129971Y-131592310D01*
X80129971Y-131394738D01*
X80105274Y-131370041D01*
X79166814Y-131370041D01*
X79142114Y-131345348D01*
X79092723Y-131345348D01*
X78944543Y-131197167D01*
X78895154Y-131098384D01*
X78895154Y-130382191D01*
X78969242Y-130258707D01*
X79043330Y-130184619D01*
X79142114Y-130135223D01*
X80525113Y-130135223D01*
X80525113Y-130579758D01*
G37*
G36*
X70695953Y-121195133D02*
G01*
X70794737Y-121219830D01*
X70918219Y-121343309D01*
X70942912Y-121442095D01*
X70967611Y-121466793D01*
X70967611Y-121664364D01*
X70893523Y-121812544D01*
X70695953Y-121960720D01*
X70695953Y-122232378D01*
X70671257Y-122257076D01*
X70671257Y-123763555D01*
X70646560Y-123788249D01*
X70646560Y-124405662D01*
X70671257Y-124430358D01*
X71189879Y-124430358D01*
X71239268Y-124380964D01*
X71239268Y-123590683D01*
X71263970Y-123565982D01*
X71263970Y-122973270D01*
X71288663Y-122923879D01*
X71535628Y-122751005D01*
X71683810Y-122676916D01*
X71733198Y-122627525D01*
X71807289Y-122602827D01*
X72054251Y-122429955D01*
X72128342Y-122405256D01*
X72177736Y-122355859D01*
X72325913Y-122281770D01*
X72375304Y-122232378D01*
X72597573Y-122232378D01*
X72721055Y-122331165D01*
X72795143Y-122331165D01*
X72893932Y-122257076D01*
X72918627Y-122207685D01*
X72918627Y-122108900D01*
X72819842Y-122010112D01*
X72671662Y-122010112D01*
X72597573Y-122108900D01*
X72597573Y-122232378D01*
X72375304Y-122232378D01*
X72375304Y-122108900D01*
X72375304Y-122059505D01*
X72400002Y-122034810D01*
X72400002Y-121985417D01*
X72498787Y-121861934D01*
X72646964Y-121787848D01*
X72869232Y-121787848D01*
X72968020Y-121837241D01*
X73091502Y-121960720D01*
X73116197Y-122059505D01*
X73140895Y-122084201D01*
X73140895Y-122232378D01*
X73116197Y-122257076D01*
X73116197Y-122306469D01*
X73066806Y-122405256D01*
X73017413Y-122454646D01*
X72819842Y-122553435D01*
X72696356Y-122553435D01*
X72498787Y-122454646D01*
X72350610Y-122528739D01*
X72301220Y-122578132D01*
X72227129Y-122602827D01*
X71980162Y-122775702D01*
X71906073Y-122800397D01*
X71856680Y-122849790D01*
X71782593Y-122874486D01*
X71659109Y-122973270D01*
X71585020Y-122997967D01*
X71510932Y-123072056D01*
X71510932Y-123195541D01*
X71486236Y-123220237D01*
X71486236Y-124134003D01*
X71461542Y-124158699D01*
X71461542Y-124405662D01*
X71486236Y-124430358D01*
X72054251Y-124430358D01*
X72177736Y-124529143D01*
X72227129Y-124627931D01*
X72227129Y-124776107D01*
X72202433Y-124800805D01*
X72202433Y-125245337D01*
X72227129Y-125270035D01*
X73264375Y-125270035D01*
X73881784Y-124627931D01*
X73857088Y-124578538D01*
X73066806Y-124578538D01*
X72918627Y-124726715D01*
X72869232Y-124751413D01*
X72597573Y-124751413D01*
X72572876Y-124726715D01*
X72474091Y-124726715D01*
X72449395Y-124529143D01*
X72474091Y-124504447D01*
X72795143Y-124504447D01*
X72943324Y-124356269D01*
X73980568Y-124356269D01*
X74153445Y-124578538D01*
X74153445Y-124677325D01*
X73387856Y-125492305D01*
X72227129Y-125492305D01*
X72202433Y-125517001D01*
X72202433Y-126208499D01*
X72227129Y-126233194D01*
X72770445Y-126233194D01*
X72795143Y-126257891D01*
X77092314Y-126257891D01*
X77117010Y-126282587D01*
X77215796Y-126282587D01*
X77289884Y-126331982D01*
X77339281Y-126331982D01*
X77438067Y-126381372D01*
X77635634Y-126554247D01*
X77783815Y-126801212D01*
X77808511Y-126924695D01*
X77833208Y-126949392D01*
X77833208Y-131740489D01*
X77808511Y-131765185D01*
X77783815Y-131913361D01*
X77635634Y-132160329D01*
X77536851Y-132259115D01*
X77265188Y-132407291D01*
X77215796Y-132407291D01*
X77191098Y-132431988D01*
X77092314Y-132431988D01*
X77067618Y-132456685D01*
X64027927Y-132456685D01*
X64003230Y-132431988D01*
X63904448Y-132431988D01*
X63879751Y-132407291D01*
X63830357Y-132407291D01*
X63608088Y-132283812D01*
X63410517Y-132086238D01*
X63311732Y-131913361D01*
X63287036Y-131789882D01*
X63262340Y-131765185D01*
X63262340Y-131691095D01*
X63237643Y-131666401D01*
X63237643Y-131592310D01*
X63706875Y-131592310D01*
X63731568Y-131617007D01*
X63731568Y-131666401D01*
X63756265Y-131715793D01*
X63904448Y-131863970D01*
X64052624Y-131938060D01*
X77042923Y-131938060D01*
X77067618Y-131913361D01*
X77117010Y-131913361D01*
X77166404Y-131888667D01*
X77314582Y-131740489D01*
X77388673Y-131567616D01*
X77388673Y-127122265D01*
X77363978Y-127097568D01*
X77363978Y-127048178D01*
X77289884Y-126924695D01*
X77215796Y-126850602D01*
X77018223Y-126751818D01*
X72968020Y-126751818D01*
X72943324Y-126776515D01*
X72943324Y-127566800D01*
X72893932Y-127665586D01*
X72795143Y-127764372D01*
X72696356Y-127813767D01*
X72202433Y-127813767D01*
X72177736Y-127838460D01*
X72177736Y-129023885D01*
X72153039Y-129048581D01*
X72153039Y-129542511D01*
X72103646Y-129591903D01*
X71980162Y-129591903D01*
X71930768Y-129542511D01*
X71930768Y-129468421D01*
X71906073Y-129443726D01*
X71906073Y-129369637D01*
X71930768Y-129344940D01*
X71930768Y-128159512D01*
X71955464Y-128134816D01*
X71955464Y-127616192D01*
X72004858Y-127566800D01*
X72400002Y-127566800D01*
X72424698Y-127542104D01*
X72474091Y-127542104D01*
X72548179Y-127468012D01*
X72597573Y-127369229D01*
X72597573Y-126529550D01*
X72572876Y-126504857D01*
X72276520Y-126504857D01*
X72227129Y-126480158D01*
X72177736Y-126554247D01*
X72177736Y-126899995D01*
X72078948Y-127023481D01*
X72029556Y-127048178D01*
X71436843Y-127048178D01*
X71412148Y-127072873D01*
X71412148Y-127270444D01*
X71387449Y-127295137D01*
X71362754Y-129517814D01*
X71288663Y-129591903D01*
X71165180Y-129591903D01*
X71115789Y-129517814D01*
X71115789Y-128851011D01*
X71140487Y-128826315D01*
X71140487Y-127640888D01*
X71165180Y-127616192D01*
X71165180Y-127072873D01*
X71140487Y-127048178D01*
X70597165Y-127048178D01*
X70572471Y-127072873D01*
X70572471Y-128085424D01*
X70547776Y-128110121D01*
X70547776Y-129493118D01*
X70473683Y-129591903D01*
X70350202Y-129591903D01*
X70300810Y-129542511D01*
X70325507Y-127072873D01*
X70300810Y-127048178D01*
X69732792Y-127048178D01*
X69609310Y-126949392D01*
X69584611Y-126899995D01*
X69584611Y-126529550D01*
X69559920Y-126504857D01*
X70078543Y-126504857D01*
X70152632Y-126578945D01*
X71634414Y-126578945D01*
X71708502Y-126504857D01*
X71708502Y-125912142D01*
X71733198Y-125887447D01*
X71733198Y-124998375D01*
X71659109Y-124924285D01*
X70177330Y-124924285D01*
X70078543Y-125023073D01*
X70078543Y-126504857D01*
X69559920Y-126504857D01*
X69164778Y-126504857D01*
X69140079Y-126529550D01*
X69140079Y-127393925D01*
X69164778Y-127443321D01*
X69238867Y-127517407D01*
X69337649Y-127566800D01*
X69683397Y-127566800D01*
X69732792Y-127616192D01*
X69732792Y-129468421D01*
X69708096Y-129493118D01*
X69708096Y-129542511D01*
X69658702Y-129591903D01*
X69535221Y-129591903D01*
X69485829Y-129542511D01*
X69485829Y-128134816D01*
X69510522Y-128110121D01*
X69510522Y-127838460D01*
X69485829Y-127813767D01*
X69016597Y-127813767D01*
X68917810Y-127764372D01*
X68819026Y-127665586D01*
X68769633Y-127566800D01*
X68769633Y-126776515D01*
X68744939Y-126751818D01*
X64102018Y-126751818D01*
X64077320Y-126776515D01*
X64027927Y-126776515D01*
X63855052Y-126875300D01*
X63805659Y-126924695D01*
X63706875Y-127122265D01*
X63706875Y-131592310D01*
X63237643Y-131592310D01*
X63237643Y-127122265D01*
X63237643Y-127048178D01*
X63262340Y-127023481D01*
X63262340Y-126924695D01*
X63287036Y-126899995D01*
X63287036Y-126850602D01*
X63410517Y-126628337D01*
X63632785Y-126406069D01*
X63780961Y-126331982D01*
X63904448Y-126307284D01*
X63929140Y-126282587D01*
X64003230Y-126282587D01*
X64027927Y-126257891D01*
X68942507Y-126257891D01*
X68967202Y-126233194D01*
X69559920Y-126233194D01*
X69584611Y-126208499D01*
X69584611Y-125517001D01*
X69559920Y-125492305D01*
X68448578Y-125492305D01*
X68399191Y-125467608D01*
X67855867Y-124578538D01*
X66744528Y-124578538D01*
X66695135Y-124677325D01*
X66621047Y-124751413D01*
X66472868Y-124825501D01*
X66250599Y-124825501D01*
X66151815Y-124776107D01*
X66003636Y-124603231D01*
X66003636Y-124529143D01*
X65978943Y-124504447D01*
X65978943Y-124479752D01*
X66201211Y-124479752D01*
X66275299Y-124578538D01*
X66324691Y-124603231D01*
X66423476Y-124603231D01*
X66497567Y-124553840D01*
X66522263Y-124504447D01*
X66522263Y-124380964D01*
X66398780Y-124282181D01*
X66324691Y-124282181D01*
X66225905Y-124380964D01*
X66201211Y-124479752D01*
X65978943Y-124479752D01*
X65978943Y-124380964D01*
X66053029Y-124208091D01*
X66176515Y-124109306D01*
X66275299Y-124059915D01*
X66448172Y-124059915D01*
X66472868Y-124084609D01*
X66571655Y-124109306D01*
X66695135Y-124232787D01*
X66719833Y-124306876D01*
X66769226Y-124356269D01*
X67979350Y-124356269D01*
X68078134Y-124479752D01*
X68251008Y-124800805D01*
X68300400Y-124850197D01*
X68325098Y-124924285D01*
X68423885Y-125047767D01*
X68448578Y-125121857D01*
X68572063Y-125270035D01*
X69559920Y-125270035D01*
X69584611Y-125245337D01*
X69584611Y-125097161D01*
X69609310Y-125072465D01*
X69609310Y-125023073D01*
X69609310Y-124603231D01*
X69634007Y-124553840D01*
X69782185Y-124430358D01*
X70374898Y-124430358D01*
X70399594Y-124405662D01*
X70399594Y-124282181D01*
X70424289Y-124257484D01*
X70448986Y-121936024D01*
X70350202Y-121886635D01*
X70276111Y-121812544D01*
X70202025Y-121664364D01*
X70202025Y-121614970D01*
X70424289Y-121614970D01*
X70498380Y-121713756D01*
X70547776Y-121738454D01*
X70621863Y-121738454D01*
X70720648Y-121664364D01*
X70745345Y-121614970D01*
X70745345Y-121516183D01*
X70671257Y-121417401D01*
X70572471Y-121392703D01*
X70547776Y-121417401D01*
X70498380Y-121417401D01*
X70448986Y-121466793D01*
X70424289Y-121516183D01*
X70424289Y-121614970D01*
X70202025Y-121614970D01*
X70202025Y-121516183D01*
X70202025Y-121466793D01*
X70226722Y-121442095D01*
X70251415Y-121343309D01*
X70350202Y-121244526D01*
X70448986Y-121195133D01*
X70498380Y-121195133D01*
X70523075Y-121170438D01*
X70671257Y-121170438D01*
X70695953Y-121195133D01*
G37*
G36*
X71486236Y-125245337D02*
G01*
X71461542Y-125294731D01*
X71461542Y-126282587D01*
X71387449Y-126331982D01*
X70399594Y-126331982D01*
X70325507Y-126282587D01*
X70330675Y-126060320D01*
X70572471Y-126060320D01*
X70597165Y-126085016D01*
X71189879Y-126085016D01*
X71214574Y-126060320D01*
X71214574Y-125492305D01*
X71239268Y-125467608D01*
X71165180Y-125418212D01*
X70621863Y-125418212D01*
X70572471Y-125467608D01*
X70572471Y-126060320D01*
X70330675Y-126060320D01*
X70344456Y-125467608D01*
X70350202Y-125220642D01*
X70374898Y-125195947D01*
X71436843Y-125195947D01*
X71486236Y-125245337D01*
G37*
G36*
X72103646Y-130308100D02*
G01*
X72153039Y-130308100D01*
X72276520Y-130406884D01*
X72325913Y-130505667D01*
X72325913Y-130678545D01*
X72301220Y-130703241D01*
X72301220Y-130752635D01*
X72177736Y-130876115D01*
X72078948Y-130925508D01*
X71165180Y-130925508D01*
X71140487Y-130900812D01*
X71041702Y-130876115D01*
X70942912Y-130777330D01*
X70918219Y-130727938D01*
X70918219Y-130480973D01*
X71041702Y-130332795D01*
X71140487Y-130308100D01*
X71165180Y-130283402D01*
X72078948Y-130283402D01*
X72103646Y-130308100D01*
G37*
G36*
X70103238Y-130332795D02*
G01*
X70202025Y-130431580D01*
X70226722Y-130530365D01*
X70251415Y-130555062D01*
X70251415Y-130653847D01*
X70177330Y-130802027D01*
X70103238Y-130876115D01*
X70004453Y-130900812D01*
X69979756Y-130925508D01*
X69065991Y-130925508D01*
X69041295Y-130900812D01*
X68942507Y-130876115D01*
X68868418Y-130802027D01*
X68819026Y-130703241D01*
X68819026Y-130629150D01*
X68794330Y-130579758D01*
X68819026Y-130555062D01*
X68819026Y-130480973D01*
X68843723Y-130431580D01*
X68942507Y-130332795D01*
X69041295Y-130283402D01*
X70004453Y-130283402D01*
X70103238Y-130332795D01*
G37*
G36*
X76820655Y-129073281D02*
G01*
X76870046Y-129073281D01*
X76919443Y-129122669D01*
X76968833Y-129221458D01*
X76968833Y-131024293D01*
X76944136Y-131048990D01*
X76944136Y-131098384D01*
X76820655Y-131197167D01*
X72968020Y-131197167D01*
X72869232Y-131098384D01*
X72869232Y-130283402D01*
X73091502Y-130283402D01*
X73116197Y-130308100D01*
X73140895Y-130456277D01*
X73214983Y-130604453D01*
X73387856Y-130802027D01*
X73412553Y-130802027D01*
X73486642Y-130876115D01*
X73708912Y-130974900D01*
X73807696Y-130974900D01*
X73832391Y-130999597D01*
X74029962Y-130999597D01*
X74054659Y-130974900D01*
X74153445Y-130974900D01*
X74178141Y-130950205D01*
X74351017Y-130900812D01*
X74400410Y-130851419D01*
X74425106Y-130851419D01*
X74647372Y-130629150D01*
X74746159Y-130456277D01*
X74770855Y-130332795D01*
X74795550Y-130308100D01*
X74795550Y-130234012D01*
X75017817Y-130234012D01*
X75042517Y-130258707D01*
X75042517Y-130357492D01*
X75067211Y-130382191D01*
X75067211Y-130431580D01*
X75141301Y-130579758D01*
X75363568Y-130826724D01*
X75585836Y-130950205D01*
X75783408Y-130974900D01*
X75808102Y-130999597D01*
X75980975Y-130999597D01*
X76005675Y-130974900D01*
X76104459Y-130974900D01*
X76129157Y-130950205D01*
X76178547Y-130950205D01*
X76326728Y-130876115D01*
X76573692Y-130653847D01*
X76721869Y-130357492D01*
X76721869Y-130283402D01*
X76746568Y-130258707D01*
X76746568Y-129987047D01*
X76721869Y-129962350D01*
X76721869Y-129888258D01*
X76672477Y-129814171D01*
X76647780Y-129715386D01*
X76598389Y-129665991D01*
X76598389Y-129641297D01*
X76376120Y-129419030D01*
X76203245Y-129320243D01*
X76055068Y-129295548D01*
X76030370Y-129270851D01*
X75758710Y-129270851D01*
X75734011Y-129295548D01*
X75659923Y-129295548D01*
X75561141Y-129344940D01*
X75511747Y-129344940D01*
X75388265Y-129443726D01*
X75363568Y-129443726D01*
X75190693Y-129616601D01*
X75091910Y-129789474D01*
X75067211Y-129912957D01*
X75042517Y-129937654D01*
X75042517Y-130036439D01*
X75017817Y-130061135D01*
X75017817Y-130234012D01*
X74795550Y-130234012D01*
X74795550Y-130061135D01*
X74795550Y-129962350D01*
X74770855Y-129937654D01*
X74770855Y-129863563D01*
X74622677Y-129591903D01*
X74400410Y-129394331D01*
X74252229Y-129320243D01*
X74104053Y-129295548D01*
X74079357Y-129270851D01*
X73807696Y-129270851D01*
X73783000Y-129295548D01*
X73708912Y-129295548D01*
X73536037Y-129369637D01*
X73486642Y-129419030D01*
X73461945Y-129419030D01*
X73239680Y-129641297D01*
X73140895Y-129814171D01*
X73116197Y-129962350D01*
X73091502Y-129987047D01*
X73091502Y-130283402D01*
X72869232Y-130283402D01*
X72869232Y-129987047D01*
X72869232Y-129172063D01*
X73017413Y-129048581D01*
X76795958Y-129048581D01*
X76820655Y-129073281D01*
G37*
G36*
X76079763Y-129517814D02*
G01*
X76302033Y-129641297D01*
X76425511Y-129789474D01*
X76499602Y-129962350D01*
X76499602Y-130036439D01*
X76524301Y-130061135D01*
X76524301Y-130209313D01*
X76499602Y-130234012D01*
X76499602Y-130308100D01*
X76425511Y-130480973D01*
X76227945Y-130678545D01*
X76055068Y-130752635D01*
X75956282Y-130752635D01*
X75931587Y-130777330D01*
X75857498Y-130777330D01*
X75832797Y-130752635D01*
X75709317Y-130752635D01*
X75511747Y-130653847D01*
X75363568Y-130505667D01*
X75264782Y-130283402D01*
X75264782Y-129987047D01*
X75363568Y-129764778D01*
X75585836Y-129567208D01*
X75684622Y-129542511D01*
X75709317Y-129517814D01*
X75808102Y-129517814D01*
X75832797Y-129493118D01*
X76079763Y-129517814D01*
G37*
G36*
X74005268Y-129517814D02*
G01*
X74128746Y-129517814D01*
X74276929Y-129591903D01*
X74400410Y-129690688D01*
X74548589Y-129937654D01*
X74548589Y-130011745D01*
X74573285Y-130036439D01*
X74573285Y-130234012D01*
X74548589Y-130258707D01*
X74548589Y-130332795D01*
X74474501Y-130480973D01*
X74375713Y-130604453D01*
X74351017Y-130604453D01*
X74276929Y-130678545D01*
X74104053Y-130752635D01*
X73783000Y-130752635D01*
X73610127Y-130678545D01*
X73437249Y-130530365D01*
X73338465Y-130332795D01*
X73338465Y-130258707D01*
X73313768Y-130234012D01*
X73313768Y-130036439D01*
X73338465Y-130011745D01*
X73338465Y-129937654D01*
X73412553Y-129789474D01*
X73536037Y-129641297D01*
X73783000Y-129517814D01*
X73980568Y-129493118D01*
X74005268Y-129517814D01*
G37*
G36*
X67164367Y-127887853D02*
G01*
X67164367Y-128678137D01*
X67213760Y-128727530D01*
X67361941Y-128727530D01*
X67386634Y-128752227D01*
X67436026Y-128752227D01*
X67460724Y-128727530D01*
X67954654Y-128727530D01*
X68078134Y-128801619D01*
X68127527Y-128900405D01*
X68127527Y-130283402D01*
X68028743Y-130406884D01*
X67979350Y-130406884D01*
X67954654Y-130431580D01*
X67213760Y-130431580D01*
X67164367Y-130505667D01*
X67164367Y-131271256D01*
X67065578Y-131370041D01*
X67016187Y-131370041D01*
X66991493Y-131394738D01*
X65633191Y-131394738D01*
X65608496Y-131370041D01*
X65559101Y-131370041D01*
X65460320Y-131271256D01*
X65460320Y-131221864D01*
X65435622Y-131197167D01*
X65435622Y-130456277D01*
X65410921Y-130431580D01*
X64645339Y-130431580D01*
X64497158Y-130308100D01*
X64497158Y-130258707D01*
X64472463Y-130234012D01*
X64472463Y-130184619D01*
X64497158Y-130159921D01*
X64472463Y-130135223D01*
X64472463Y-130110527D01*
X64768819Y-130110527D01*
X64842907Y-130159921D01*
X65682584Y-130159921D01*
X65731978Y-130234012D01*
X65731978Y-131073685D01*
X65781368Y-131123079D01*
X66843313Y-131123079D01*
X66917405Y-131024293D01*
X66917405Y-130209313D01*
X66966798Y-130159921D01*
X67781779Y-130159921D01*
X67855867Y-130085834D01*
X67855867Y-129073281D01*
X67806474Y-129023885D01*
X66991493Y-129023885D01*
X66917405Y-128949798D01*
X66917405Y-128134816D01*
X66868010Y-128060728D01*
X65781368Y-128060728D01*
X65731978Y-128110121D01*
X65731978Y-128949798D01*
X65682584Y-128999190D01*
X65633191Y-129023885D01*
X64818210Y-129023885D01*
X64768819Y-129073281D01*
X64768819Y-130110527D01*
X64472463Y-130110527D01*
X64472463Y-129987047D01*
X64497158Y-129962350D01*
X64497158Y-129073281D01*
X64497158Y-128851011D01*
X64595945Y-128752227D01*
X64670034Y-128752227D01*
X64694731Y-128727530D01*
X64966389Y-128727530D01*
X64991085Y-128752227D01*
X65040477Y-128752227D01*
X65065175Y-128727530D01*
X65410921Y-128727530D01*
X65435622Y-128702833D01*
X65435622Y-127961944D01*
X65460320Y-127937247D01*
X65460320Y-127887853D01*
X65608496Y-127764372D01*
X67016187Y-127764372D01*
X67164367Y-127887853D01*
G37*
G36*
X66596352Y-129270851D02*
G01*
X66596352Y-129295548D01*
X66670440Y-129369637D01*
X66695135Y-129468421D01*
X66719833Y-129493118D01*
X66719833Y-129690688D01*
X66670440Y-129789474D01*
X66522263Y-129937654D01*
X66423476Y-129962350D01*
X66398780Y-129987047D01*
X66250599Y-129987047D01*
X66225905Y-129962350D01*
X66151815Y-129962350D01*
X66102423Y-129937654D01*
X65929548Y-129740080D01*
X65929548Y-129665991D01*
X65904851Y-129641297D01*
X65904851Y-129493118D01*
X65929548Y-129468421D01*
X65954246Y-129369637D01*
X66102423Y-129221458D01*
X66151815Y-129196763D01*
X66225905Y-129196763D01*
X66250599Y-129172063D01*
X66398780Y-129172063D01*
X66596352Y-129270851D01*
G37*
G36*
X81068432Y-131839276D02*
G01*
X81093129Y-131863970D01*
X81488271Y-131863970D01*
X81537664Y-131814577D01*
X81537664Y-130974900D01*
X81809324Y-130974900D01*
X81809324Y-132481383D01*
X81735234Y-132580167D01*
X81710537Y-132580167D01*
X81661145Y-132629557D01*
X80920253Y-132629557D01*
X80920253Y-132333203D01*
X81512968Y-132333203D01*
X81537664Y-132308507D01*
X81537664Y-132209722D01*
X81488271Y-132160329D01*
X80944951Y-132160329D01*
X80821470Y-132061541D01*
X80796775Y-132012147D01*
X80796775Y-130974900D01*
X81068432Y-130974900D01*
X81068432Y-131839276D01*
G37*
%TO.C,R29*%
D13*
X97802500Y-83177258D02*
X97802500Y-82702742D01*
X98847500Y-83177258D02*
X98847500Y-82702742D01*
%TO.C,C3*%
X121990000Y-98942164D02*
X121990000Y-99157836D01*
X122710000Y-98942164D02*
X122710000Y-99157836D01*
%TO.C,R13*%
X140822500Y-91453641D02*
X140822500Y-91146359D01*
X141582500Y-91453641D02*
X141582500Y-91146359D01*
%TO.C,C24*%
X139690000Y-101482164D02*
X139690000Y-101697836D01*
X140410000Y-101482164D02*
X140410000Y-101697836D01*
%TO.C,TP11*%
X130250000Y-111650000D02*
X132150000Y-111650000D01*
X130250000Y-113550000D02*
X130250000Y-111650000D01*
X132150000Y-111650000D02*
X132150000Y-113550000D01*
X132150000Y-113550000D02*
X130250000Y-113550000D01*
%TO.C,TP10*%
X121050000Y-111650000D02*
X122950000Y-111650000D01*
X121050000Y-113550000D02*
X121050000Y-111650000D01*
X122950000Y-111650000D02*
X122950000Y-113550000D01*
X122950000Y-113550000D02*
X121050000Y-113550000D01*
%TO.C,R27*%
X94652500Y-83177258D02*
X94652500Y-82702742D01*
X95697500Y-83177258D02*
X95697500Y-82702742D01*
%TO.C,C2*%
X117124996Y-80105336D02*
X117124996Y-79889664D01*
X117844996Y-80105336D02*
X117844996Y-79889664D01*
%TO.C,U6*%
D10*
X111925000Y-114920000D02*
X127675000Y-114920000D01*
X127675000Y-122580000D01*
X111925000Y-122580000D01*
X111925000Y-114920000D01*
%TO.C,R25*%
D13*
X138866141Y-81270000D02*
X138558859Y-81270000D01*
X138866141Y-82030000D02*
X138558859Y-82030000D01*
%TO.C,U4*%
X128677500Y-75090000D02*
X130497500Y-75090000D01*
X128677500Y-75140000D02*
X128677500Y-75090000D01*
X128677500Y-78210000D02*
X128677500Y-78160000D01*
X130497500Y-75090000D02*
X130497500Y-75140000D01*
X130497500Y-78160000D02*
X130497500Y-78210000D01*
X130497500Y-78210000D02*
X128677500Y-78210000D01*
X128137500Y-75140000D02*
X127897500Y-74810000D01*
X128377500Y-74810000D01*
X128137500Y-75140000D01*
G36*
X128137500Y-75140000D02*
G01*
X127897500Y-74810000D01*
X128377500Y-74810000D01*
X128137500Y-75140000D01*
G37*
%TO.C,U7*%
D10*
X129575000Y-114720000D02*
X145325000Y-114720000D01*
X145325000Y-122380000D01*
X129575000Y-122380000D01*
X129575000Y-114720000D01*
%TO.C,R40*%
D13*
X65946359Y-71720000D02*
X66253641Y-71720000D01*
X65946359Y-72480000D02*
X66253641Y-72480000D01*
%TO.C,U5*%
X136990000Y-70370000D02*
X136990000Y-74130000D01*
X136990000Y-74130000D02*
X138250000Y-74130000D01*
X143810000Y-70370000D02*
X143810000Y-74130000D01*
X143810000Y-74130000D02*
X142550000Y-74130000D01*
X144040000Y-69330000D02*
X143710000Y-69090000D01*
X144040000Y-68850000D01*
X144040000Y-69330000D01*
G36*
X144040000Y-69330000D02*
G01*
X143710000Y-69090000D01*
X144040000Y-68850000D01*
X144040000Y-69330000D01*
G37*
%TO.C,U2*%
X110440000Y-71440000D02*
X110440000Y-72700000D01*
X110440000Y-78260000D02*
X110440000Y-77000000D01*
X114200000Y-71440000D02*
X110440000Y-71440000D01*
X114200000Y-78260000D02*
X110440000Y-78260000D01*
X115720000Y-78490000D02*
X115240000Y-78490000D01*
X115480000Y-78160000D01*
X115720000Y-78490000D01*
G36*
X115720000Y-78490000D02*
G01*
X115240000Y-78490000D01*
X115480000Y-78160000D01*
X115720000Y-78490000D01*
G37*
%TO.C,J3*%
X91340000Y-67820000D02*
X91340000Y-65720000D01*
X91340000Y-73320000D02*
X91340000Y-70520000D01*
X94050000Y-76870000D02*
X92250000Y-76870000D01*
X94050000Y-77620000D02*
X94050000Y-76870000D01*
X105650000Y-76870000D02*
X103850000Y-76870000D01*
X106560000Y-67820000D02*
X106560000Y-65720000D01*
X106560000Y-73320000D02*
X106560000Y-70520000D01*
%TO.C,R26*%
X93052500Y-83177258D02*
X93052500Y-82702742D01*
X94097500Y-83177258D02*
X94097500Y-82702742D01*
%TO.C,TP4*%
X151050000Y-71250000D02*
X152950000Y-71250000D01*
X151050000Y-73150000D02*
X151050000Y-71250000D01*
X152950000Y-71250000D02*
X152950000Y-73150000D01*
X152950000Y-73150000D02*
X151050000Y-73150000D01*
%TO.C,R6*%
X118153641Y-89120000D02*
X117846359Y-89120000D01*
X118153641Y-89880000D02*
X117846359Y-89880000D01*
%TO.C,SW4*%
D14*
X131150000Y-99310000D02*
X131150000Y-100390000D01*
X131970000Y-101400000D02*
X134730000Y-101400000D01*
X132840000Y-98830000D02*
X133860000Y-98830000D01*
X132840000Y-100870000D02*
X133860000Y-100870000D01*
X134720000Y-98330000D02*
X131980000Y-98330000D01*
X135550000Y-99310000D02*
X135550000Y-100390000D01*
X132840000Y-100870000D02*
G75*
G02*
X132840000Y-98830000I0J1020000D01*
G01*
X133860000Y-98830000D02*
G75*
G02*
X133860000Y-100870000I0J-1020000D01*
G01*
D15*
X131080000Y-98250000D02*
G75*
G02*
X131020000Y-98250000I-30000J0D01*
G01*
X131020000Y-98250000D02*
G75*
G02*
X131080000Y-98250000I30000J0D01*
G01*
%TO.C,R33*%
D13*
X103920000Y-80246359D02*
X103920000Y-80553641D01*
X104680000Y-80246359D02*
X104680000Y-80553641D01*
%TO.C,C22*%
X143347836Y-86490000D02*
X143132164Y-86490000D01*
X143347836Y-87210000D02*
X143132164Y-87210000D01*
%TO.C,TP2*%
X139000000Y-78900000D02*
X140900000Y-78900000D01*
X139000000Y-80800000D02*
X139000000Y-78900000D01*
X140900000Y-78900000D02*
X140900000Y-80800000D01*
X140900000Y-80800000D02*
X139000000Y-80800000D01*
%TO.C,R5*%
X128653641Y-85370000D02*
X128346359Y-85370000D01*
X128653641Y-86130000D02*
X128346359Y-86130000D01*
%TO.C,R36*%
X106291141Y-107210000D02*
X105983859Y-107210000D01*
X106291141Y-107970000D02*
X105983859Y-107970000D01*
%TO.C,R4*%
X129120000Y-100703641D02*
X129120000Y-100396359D01*
X129880000Y-100703641D02*
X129880000Y-100396359D01*
%TO.C,R24*%
X144106141Y-84770000D02*
X143798859Y-84770000D01*
X144106141Y-85530000D02*
X143798859Y-85530000D01*
%TO.C,TP1*%
X148700000Y-80400000D02*
X150600000Y-80400000D01*
X148700000Y-82300000D02*
X148700000Y-80400000D01*
X150600000Y-80400000D02*
X150600000Y-82300000D01*
X150600000Y-82300000D02*
X148700000Y-82300000D01*
%TO.C,D6*%
X144490000Y-82002500D02*
X144540000Y-82002500D01*
X144490000Y-83522500D02*
X144490000Y-82002500D01*
X145490000Y-83522500D02*
X144490000Y-83522500D01*
X145660000Y-82002500D02*
X146440000Y-82002500D01*
X147560000Y-82002500D02*
X147610000Y-82002500D01*
X147610000Y-82002500D02*
X147610000Y-83522500D01*
X147610000Y-83522500D02*
X146610000Y-83522500D01*
X146430000Y-81462500D02*
X146100000Y-81702500D01*
X146100000Y-81222500D01*
X146430000Y-81462500D01*
G36*
X146430000Y-81462500D02*
G01*
X146100000Y-81702500D01*
X146100000Y-81222500D01*
X146430000Y-81462500D01*
G37*
%TO.C,C8*%
X117857836Y-91740000D02*
X117642164Y-91740000D01*
X117857836Y-92460000D02*
X117642164Y-92460000D01*
%TO.C,R20*%
X138946141Y-85970000D02*
X138638859Y-85970000D01*
X138946141Y-86730000D02*
X138638859Y-86730000D01*
%TO.C,U1*%
X119819996Y-96672500D02*
X119819996Y-96222500D01*
X120269996Y-89452500D02*
X119819996Y-89452500D01*
X120269996Y-96672500D02*
X119819996Y-96672500D01*
X126589996Y-89452500D02*
X127039996Y-89452500D01*
X126589996Y-96672500D02*
X127039996Y-96672500D01*
X127039996Y-89452500D02*
X127039996Y-89902500D01*
X127039996Y-96672500D02*
X127039996Y-96222500D01*
%TO.C,C27*%
X134762164Y-70290000D02*
X134977836Y-70290000D01*
X134762164Y-71010000D02*
X134977836Y-71010000D01*
%TO.C,Q1*%
X147342500Y-84340000D02*
X148862500Y-84340000D01*
X147342500Y-85340000D02*
X147342500Y-84340000D01*
X147342500Y-87460000D02*
X147342500Y-86460000D01*
X148862500Y-84340000D02*
X148862500Y-84390000D01*
X148862500Y-85510000D02*
X148862500Y-86290000D01*
X148862500Y-87410000D02*
X148862500Y-87460000D01*
X148862500Y-87460000D02*
X147342500Y-87460000D01*
X149402500Y-86280000D02*
X149162500Y-85950000D01*
X149642500Y-85950000D01*
X149402500Y-86280000D01*
G36*
X149402500Y-86280000D02*
G01*
X149162500Y-85950000D01*
X149642500Y-85950000D01*
X149402500Y-86280000D01*
G37*
%TO.C,Y1*%
X119640000Y-100090000D02*
X119640000Y-103510000D01*
X119640000Y-103510000D02*
X123760000Y-103510000D01*
%TO.C,R7*%
X123170000Y-86496359D02*
X123170000Y-86803641D01*
X123930000Y-86496359D02*
X123930000Y-86803641D01*
%TO.C,R12*%
X123970000Y-73846359D02*
X123970000Y-74153641D01*
X124730000Y-73846359D02*
X124730000Y-74153641D01*
%TO.C,TP5*%
X147900000Y-74900000D02*
X150300000Y-74900000D01*
X147900000Y-77300000D02*
X147900000Y-74900000D01*
X150300000Y-74900000D02*
X150300000Y-77300000D01*
X150300000Y-77300000D02*
X147900000Y-77300000D01*
%TO.C,D2*%
X134290000Y-87390000D02*
X134340000Y-87390000D01*
X134290000Y-88910000D02*
X134290000Y-87390000D01*
X135290000Y-88910000D02*
X134290000Y-88910000D01*
X135460000Y-87390000D02*
X136240000Y-87390000D01*
X137360000Y-87390000D02*
X137410000Y-87390000D01*
X137410000Y-87390000D02*
X137410000Y-88910000D01*
X137410000Y-88910000D02*
X136410000Y-88910000D01*
X136230000Y-86850000D02*
X135900000Y-87090000D01*
X135900000Y-86610000D01*
X136230000Y-86850000D01*
G36*
X136230000Y-86850000D02*
G01*
X135900000Y-87090000D01*
X135900000Y-86610000D01*
X136230000Y-86850000D01*
G37*
%TO.C,TP8*%
X113050000Y-112050000D02*
X114950000Y-112050000D01*
X113050000Y-113950000D02*
X113050000Y-112050000D01*
X114950000Y-112050000D02*
X114950000Y-113950000D01*
X114950000Y-113950000D02*
X113050000Y-113950000D01*
%TO.C,R11*%
X127570000Y-74103641D02*
X127570000Y-73796359D01*
X128330000Y-74103641D02*
X128330000Y-73796359D01*
%TO.C,R14*%
X139396359Y-99780000D02*
X139703641Y-99780000D01*
X139396359Y-100540000D02*
X139703641Y-100540000D01*
%TO.C,TP6*%
X151050000Y-67650000D02*
X152950000Y-67650000D01*
X151050000Y-69550000D02*
X151050000Y-67650000D01*
X152950000Y-67650000D02*
X152950000Y-69550000D01*
X152950000Y-69550000D02*
X151050000Y-69550000D01*
%TO.C,C26*%
X141709420Y-66240000D02*
X141990580Y-66240000D01*
X141709420Y-67260000D02*
X141990580Y-67260000D01*
%TO.C,TP7*%
X69250000Y-74050000D02*
X71150000Y-74050000D01*
X69250000Y-75950000D02*
X69250000Y-74050000D01*
X71150000Y-74050000D02*
X71150000Y-75950000D01*
X71150000Y-75950000D02*
X69250000Y-75950000D01*
%TO.C,D5*%
X148290000Y-90127500D02*
X149290000Y-90127500D01*
X148290000Y-91647500D02*
X148290000Y-90127500D01*
X148340000Y-91647500D02*
X148290000Y-91647500D01*
X150240000Y-91647500D02*
X149460000Y-91647500D01*
X150410000Y-90127500D02*
X151410000Y-90127500D01*
X151410000Y-90127500D02*
X151410000Y-91647500D01*
X151410000Y-91647500D02*
X151360000Y-91647500D01*
X149800000Y-92427500D02*
X149470000Y-92187500D01*
X149800000Y-91947500D01*
X149800000Y-92427500D01*
G36*
X149800000Y-92427500D02*
G01*
X149470000Y-92187500D01*
X149800000Y-91947500D01*
X149800000Y-92427500D01*
G37*
%TO.C,R37*%
X106581141Y-114860000D02*
X106273859Y-114860000D01*
X106581141Y-115620000D02*
X106273859Y-115620000D01*
%TO.C,D1*%
X134290000Y-91690000D02*
X134340000Y-91690000D01*
X134290000Y-93210000D02*
X134290000Y-91690000D01*
X135290000Y-93210000D02*
X134290000Y-93210000D01*
X135460000Y-91690000D02*
X136240000Y-91690000D01*
X137360000Y-91690000D02*
X137410000Y-91690000D01*
X137410000Y-91690000D02*
X137410000Y-93210000D01*
X137410000Y-93210000D02*
X136410000Y-93210000D01*
X136230000Y-91150000D02*
X135900000Y-91390000D01*
X135900000Y-90910000D01*
X136230000Y-91150000D01*
G36*
X136230000Y-91150000D02*
G01*
X135900000Y-91390000D01*
X135900000Y-90910000D01*
X136230000Y-91150000D01*
G37*
%TO.C,R39*%
X140456359Y-81270000D02*
X140763641Y-81270000D01*
X140456359Y-82030000D02*
X140763641Y-82030000D01*
%TO.C,C4*%
X124692164Y-100040000D02*
X124907836Y-100040000D01*
X124692164Y-100760000D02*
X124907836Y-100760000D01*
%TO.C,R21*%
X145136359Y-88720000D02*
X145443641Y-88720000D01*
X145136359Y-89480000D02*
X145443641Y-89480000D01*
%TO.C,AV1*%
D14*
X153150000Y-96800000D02*
X163150000Y-96800000D01*
X153150000Y-100740000D02*
X153150000Y-96800000D01*
X153150000Y-106800000D02*
X153150000Y-102860000D01*
X163150000Y-97600000D02*
X172450000Y-97600000D01*
X163150000Y-106000000D02*
X172450000Y-106000000D01*
X163150000Y-106800000D02*
X153150000Y-106800000D01*
X163150000Y-106800000D02*
X163150000Y-96800000D01*
X172450000Y-106000000D02*
X172450000Y-97600000D01*
D15*
X172480000Y-96800000D02*
G75*
G02*
X172420000Y-96800000I-30000J0D01*
G01*
X172420000Y-96800000D02*
G75*
G02*
X172480000Y-96800000I30000J0D01*
G01*
%TO.C,R38*%
D13*
X140498859Y-88320000D02*
X140806141Y-88320000D01*
X140498859Y-89080000D02*
X140806141Y-89080000D01*
%TO.C,SW3*%
D14*
X112880000Y-90270000D02*
X112880000Y-93030000D01*
X113410000Y-91140000D02*
X113410000Y-92160000D01*
X114970000Y-89450000D02*
X113890000Y-89450000D01*
X114970000Y-93850000D02*
X113890000Y-93850000D01*
X115450000Y-91140000D02*
X115450000Y-92160000D01*
X115950000Y-93020000D02*
X115950000Y-90280000D01*
X113410000Y-91140000D02*
G75*
G02*
X115450000Y-91140000I1020000J0D01*
G01*
X115450000Y-92160000D02*
G75*
G02*
X113410000Y-92160000I-1020000J0D01*
G01*
D15*
X116060000Y-89350000D02*
G75*
G02*
X116000000Y-89350000I-30000J0D01*
G01*
X116000000Y-89350000D02*
G75*
G02*
X116060000Y-89350000I30000J0D01*
G01*
%TO.C,R2*%
D13*
X122970000Y-98946359D02*
X122970000Y-99253641D01*
X123730000Y-98946359D02*
X123730000Y-99253641D01*
%TO.C,J1*%
D14*
X122030000Y-64432456D02*
X122030000Y-65912456D01*
X122030000Y-64432456D02*
X130970000Y-64432456D01*
X122030000Y-68142456D02*
X122030000Y-70012456D01*
X130970000Y-64432456D02*
X130970000Y-65912456D01*
X130970000Y-68142456D02*
X130970000Y-70012456D01*
D15*
X122050000Y-72282456D02*
G75*
G02*
X121990000Y-72282456I-30000J0D01*
G01*
X121990000Y-72282456D02*
G75*
G02*
X122050000Y-72282456I30000J0D01*
G01*
%TO.C,R17*%
D13*
X145443641Y-87720000D02*
X145136359Y-87720000D01*
X145443641Y-88480000D02*
X145136359Y-88480000D01*
%TO.C,R30*%
X99402500Y-83152258D02*
X99402500Y-82677742D01*
X100447500Y-83152258D02*
X100447500Y-82677742D01*
%TO.C,AV2*%
D14*
X153150000Y-77750000D02*
X163150000Y-77750000D01*
X153150000Y-81690000D02*
X153150000Y-77750000D01*
X153150000Y-87750000D02*
X153150000Y-83810000D01*
X163150000Y-78550000D02*
X172450000Y-78550000D01*
X163150000Y-86950000D02*
X172450000Y-86950000D01*
X163150000Y-87750000D02*
X153150000Y-87750000D01*
X163150000Y-87750000D02*
X163150000Y-77750000D01*
X172450000Y-86950000D02*
X172450000Y-78550000D01*
D15*
X172480000Y-77750000D02*
G75*
G02*
X172420000Y-77750000I-30000J0D01*
G01*
X172420000Y-77750000D02*
G75*
G02*
X172480000Y-77750000I30000J0D01*
G01*
%TO.C,C29*%
D13*
X106296920Y-112680000D02*
X106578080Y-112680000D01*
X106296920Y-113700000D02*
X106578080Y-113700000D01*
%TO.C,C30*%
X106349664Y-109930000D02*
X106565336Y-109930000D01*
X106349664Y-110650000D02*
X106565336Y-110650000D01*
%TO.C,U3*%
X113740000Y-81140000D02*
X119260000Y-81140000D01*
X113740000Y-81410000D02*
X113740000Y-81140000D01*
X113740000Y-86660000D02*
X113740000Y-86390000D01*
X119260000Y-81140000D02*
X119260000Y-81410000D01*
X119260000Y-86390000D02*
X119260000Y-86660000D01*
X119260000Y-86660000D02*
X113740000Y-86660000D01*
X112910000Y-81400000D02*
X112570000Y-80930000D01*
X113250000Y-80930000D01*
X112910000Y-81400000D01*
G36*
X112910000Y-81400000D02*
G01*
X112570000Y-80930000D01*
X113250000Y-80930000D01*
X112910000Y-81400000D01*
G37*
%TO.C,TP3*%
X72450000Y-74050000D02*
X74350000Y-74050000D01*
X72450000Y-75950000D02*
X72450000Y-74050000D01*
X74350000Y-74050000D02*
X74350000Y-75950000D01*
X74350000Y-75950000D02*
X72450000Y-75950000D01*
%TO.C,TP9*%
X115850000Y-111450000D02*
X117750000Y-111450000D01*
X115850000Y-113350000D02*
X115850000Y-111450000D01*
X117750000Y-111450000D02*
X117750000Y-113350000D01*
X117750000Y-113350000D02*
X115850000Y-113350000D01*
%TO.C,D3*%
X134290000Y-83340000D02*
X134340000Y-83340000D01*
X134290000Y-84860000D02*
X134290000Y-83340000D01*
X135290000Y-84860000D02*
X134290000Y-84860000D01*
X135460000Y-83340000D02*
X136240000Y-83340000D01*
X137360000Y-83340000D02*
X137410000Y-83340000D01*
X137410000Y-83340000D02*
X137410000Y-84860000D01*
X137410000Y-84860000D02*
X136410000Y-84860000D01*
X136230000Y-82800000D02*
X135900000Y-83040000D01*
X135900000Y-82560000D01*
X136230000Y-82800000D01*
G36*
X136230000Y-82800000D02*
G01*
X135900000Y-83040000D01*
X135900000Y-82560000D01*
X136230000Y-82800000D01*
G37*
%TO.C,J4*%
X134065000Y-105760000D02*
X134065000Y-108640000D01*
X136035000Y-104590000D02*
X138535000Y-104590000D01*
X136035000Y-109810000D02*
X138535000Y-109810000D01*
X138535000Y-104590000D02*
X138535000Y-105640000D01*
X138535000Y-105640000D02*
X139525000Y-105640000D01*
X138535000Y-109810000D02*
X138535000Y-108760000D01*
%TO.C,C23*%
X143212500Y-98212500D02*
X144000000Y-98212500D01*
X143606250Y-97818750D02*
X143606250Y-98606250D01*
X144240000Y-97714437D02*
X144240000Y-99000000D01*
X144240000Y-97714437D02*
X145304437Y-96650000D01*
X144240000Y-102405563D02*
X144240000Y-101120000D01*
X144240000Y-102405563D02*
X145304437Y-103470000D01*
X145304437Y-96650000D02*
X151060000Y-96650000D01*
X145304437Y-103470000D02*
X151060000Y-103470000D01*
X151060000Y-96650000D02*
X151060000Y-99000000D01*
X151060000Y-103470000D02*
X151060000Y-101120000D01*
%TO.C,R10*%
X91452500Y-83177258D02*
X91452500Y-82702742D01*
X92497500Y-83177258D02*
X92497500Y-82702742D01*
%TO.C,C21*%
X143238748Y-92265000D02*
X143761252Y-92265000D01*
X143238748Y-93735000D02*
X143761252Y-93735000D01*
%TO.C,C28*%
X131710000Y-72394620D02*
X131710000Y-72610292D01*
X132430000Y-72394620D02*
X132430000Y-72610292D01*
%TO.C,R15*%
X151520000Y-98053641D02*
X151520000Y-97746359D01*
X152280000Y-98053641D02*
X152280000Y-97746359D01*
%TO.C,C1*%
X134759420Y-67840000D02*
X135040580Y-67840000D01*
X134759420Y-68860000D02*
X135040580Y-68860000D01*
%TO.C,R22*%
X140766141Y-83670000D02*
X140458859Y-83670000D01*
X140766141Y-84430000D02*
X140458859Y-84430000D01*
%TO.C,R16*%
X141346359Y-99780000D02*
X141653641Y-99780000D01*
X141346359Y-100540000D02*
X141653641Y-100540000D01*
%TO.C,C5*%
X118309420Y-74390000D02*
X118590580Y-74390000D01*
X118309420Y-75410000D02*
X118590580Y-75410000D01*
%TO.C,R32*%
X102552500Y-83152258D02*
X102552500Y-82677742D01*
X103597500Y-83152258D02*
X103597500Y-82677742D01*
%TO.C,L1*%
D14*
X125150000Y-84470000D02*
X125150000Y-83930000D01*
X126750000Y-84470000D02*
X126750000Y-83930000D01*
X124980000Y-83300000D02*
G75*
G02*
X124720000Y-83300000I-130000J0D01*
G01*
X124720000Y-83300000D02*
G75*
G02*
X124980000Y-83300000I130000J0D01*
G01*
D15*
X126780000Y-85200000D02*
G75*
G02*
X126720000Y-85200000I-30000J0D01*
G01*
X126720000Y-85200000D02*
G75*
G02*
X126780000Y-85200000I30000J0D01*
G01*
%TO.C,R3*%
D13*
X138916141Y-88320000D02*
X138608859Y-88320000D01*
X138916141Y-89080000D02*
X138608859Y-89080000D01*
%TO.C,Card1*%
D14*
X88750000Y-107460000D02*
X88750000Y-122700000D01*
X88750000Y-107460000D02*
X91690000Y-107460000D01*
X88750000Y-122700000D02*
X91740000Y-122700000D01*
X94480000Y-122680000D02*
X101650000Y-122680000D01*
X101650000Y-120190000D02*
X101650000Y-120200000D01*
X101650000Y-122680000D02*
X101650000Y-120190000D01*
X101700000Y-107440000D02*
X94540000Y-107440000D01*
X103750000Y-119400000D02*
X103750000Y-117550000D01*
X103750000Y-119400000D02*
X103750000Y-120190000D01*
X103750000Y-120190000D02*
X101650000Y-120190000D01*
X103050000Y-117790000D02*
G75*
G02*
X102950000Y-117790000I-50000J0D01*
G01*
X102950000Y-117790000D02*
G75*
G02*
X103050000Y-117790000I50000J0D01*
G01*
D15*
X103990000Y-122770000D02*
G75*
G02*
X103930000Y-122770000I-30000J0D01*
G01*
X103930000Y-122770000D02*
G75*
G02*
X103990000Y-122770000I30000J0D01*
G01*
%TO.C,R23*%
D13*
X138856141Y-83670000D02*
X138548859Y-83670000D01*
X138856141Y-84430000D02*
X138548859Y-84430000D01*
%TO.C,R34*%
X105670000Y-80296359D02*
X105670000Y-80603641D01*
X106430000Y-80296359D02*
X106430000Y-80603641D01*
%TO.C,R8*%
X124220000Y-86496359D02*
X124220000Y-86803641D01*
X124980000Y-86496359D02*
X124980000Y-86803641D01*
%TO.C,R19*%
X140846141Y-85970000D02*
X140538859Y-85970000D01*
X140846141Y-86730000D02*
X140538859Y-86730000D01*
%TO.C,R31*%
X101002500Y-83152258D02*
X101002500Y-82677742D01*
X102047500Y-83152258D02*
X102047500Y-82677742D01*
%TO.C,R28*%
X96252500Y-83177258D02*
X96252500Y-82702742D01*
X97297500Y-83177258D02*
X97297500Y-82702742D01*
%TO.C,R18*%
X143553641Y-87720000D02*
X143246359Y-87720000D01*
X143553641Y-88480000D02*
X143246359Y-88480000D01*
%TO.C,C9*%
X128442164Y-86590000D02*
X128657836Y-86590000D01*
X128442164Y-87310000D02*
X128657836Y-87310000D01*
%TO.C,R35*%
X106741141Y-117360000D02*
X106433859Y-117360000D01*
X106741141Y-118120000D02*
X106433859Y-118120000D01*
%TO.C,C20*%
X118207836Y-72190000D02*
X117992164Y-72190000D01*
X118207836Y-72910000D02*
X117992164Y-72910000D01*
%TO.C,C25*%
X141740000Y-98597836D02*
X141740000Y-98382164D01*
X142460000Y-98597836D02*
X142460000Y-98382164D01*
%TO.C,D4*%
X134390000Y-79440000D02*
X134440000Y-79440000D01*
X134390000Y-80960000D02*
X134390000Y-79440000D01*
X135390000Y-80960000D02*
X134390000Y-80960000D01*
X135560000Y-79440000D02*
X136340000Y-79440000D01*
X137460000Y-79440000D02*
X137510000Y-79440000D01*
X137510000Y-79440000D02*
X137510000Y-80960000D01*
X137510000Y-80960000D02*
X136510000Y-80960000D01*
X136330000Y-78900000D02*
X136000000Y-79140000D01*
X136000000Y-78660000D01*
X136330000Y-78900000D01*
G36*
X136330000Y-78900000D02*
G01*
X136000000Y-79140000D01*
X136000000Y-78660000D01*
X136330000Y-78900000D01*
G37*
%TD*%
M02*
