%TF.GenerationSoftware,KiCad,Pcbnew,10.0.0*%
%TF.CreationDate,2026-05-22T19:45:14-07:00*%
%TF.ProjectId,microNES_pcb_v0.1,6d696372-6f4e-4455-935f-7063625f7630,rev?*%
%TF.SameCoordinates,Original*%
%TF.FileFunction,Paste,Top*%
%TF.FilePolarity,Positive*%
%FSLAX46Y46*%
G04 Gerber Fmt 4.6, Leading zero omitted, Abs format (unit mm)*
G04 Created by KiCad (PCBNEW 10.0.0) date 2026-05-22 19:45:14*
%MOMM*%
%LPD*%
G01*
G04 APERTURE LIST*
G04 Aperture macros list*
%AMRoundRect*
0 Rectangle with rounded corners*
0 $1 Rounding radius*
0 $2 $3 $4 $5 $6 $7 $8 $9 X,Y pos of 4 corners*
0 Add a 4 corners polygon primitive as box body*
4,1,4,$2,$3,$4,$5,$6,$7,$8,$9,$2,$3,0*
0 Add four circle primitives for the rounded corners*
1,1,$1+$1,$2,$3*
1,1,$1+$1,$4,$5*
1,1,$1+$1,$6,$7*
1,1,$1+$1,$8,$9*
0 Add four rect primitives between the rounded corners*
20,1,$1+$1,$2,$3,$4,$5,0*
20,1,$1+$1,$4,$5,$6,$7,0*
20,1,$1+$1,$6,$7,$8,$9,0*
20,1,$1+$1,$8,$9,$2,$3,0*%
%AMFreePoly0*
4,1,18,-0.437500,0.050000,-0.433694,0.069134,-0.422855,0.085355,-0.406634,0.096194,-0.387500,0.100000,0.387500,0.100000,0.437500,0.050000,0.437500,-0.050000,0.433694,-0.069134,0.422855,-0.085355,0.406634,-0.096194,0.387500,-0.100000,-0.387500,-0.100000,-0.406634,-0.096194,-0.422855,-0.085355,-0.433694,-0.069134,-0.437500,-0.050000,-0.437500,0.050000,-0.437500,0.050000,$1*%
%AMFreePoly1*
4,1,18,-0.437500,0.050000,-0.433694,0.069134,-0.422855,0.085355,-0.406634,0.096194,-0.387500,0.100000,0.387500,0.100000,0.406634,0.096194,0.422855,0.085355,0.433694,0.069134,0.437500,0.050000,0.437500,-0.050000,0.387500,-0.100000,-0.387500,-0.100000,-0.406634,-0.096194,-0.422855,-0.085355,-0.433694,-0.069134,-0.437500,-0.050000,-0.437500,0.050000,-0.437500,0.050000,$1*%
%AMFreePoly2*
4,1,18,-0.100000,0.387500,-0.050000,0.437500,0.050000,0.437500,0.069134,0.433694,0.085355,0.422855,0.096194,0.406634,0.100000,0.387500,0.100000,-0.387500,0.096194,-0.406634,0.085355,-0.422855,0.069134,-0.433694,0.050000,-0.437500,-0.050000,-0.437500,-0.069134,-0.433694,-0.085355,-0.422855,-0.096194,-0.406634,-0.100000,-0.387500,-0.100000,0.387500,-0.100000,0.387500,$1*%
%AMFreePoly3*
4,1,18,-0.100000,0.387500,-0.096194,0.406634,-0.085355,0.422855,-0.069134,0.433694,-0.050000,0.437500,0.050000,0.437500,0.100000,0.387500,0.100000,-0.387500,0.096194,-0.406634,0.085355,-0.422855,0.069134,-0.433694,0.050000,-0.437500,-0.050000,-0.437500,-0.069134,-0.433694,-0.085355,-0.422855,-0.096194,-0.406634,-0.100000,-0.387500,-0.100000,0.387500,-0.100000,0.387500,$1*%
%AMFreePoly4*
4,1,18,-0.437500,0.050000,-0.433694,0.069134,-0.422855,0.085355,-0.406634,0.096194,-0.387500,0.100000,0.387500,0.100000,0.406634,0.096194,0.422855,0.085355,0.433694,0.069134,0.437500,0.050000,0.437500,-0.050000,0.433694,-0.069134,0.422855,-0.085355,0.406634,-0.096194,0.387500,-0.100000,-0.387500,-0.100000,-0.437500,-0.050000,-0.437500,0.050000,-0.437500,0.050000,$1*%
%AMFreePoly5*
4,1,18,-0.437500,0.050000,-0.387500,0.100000,0.387500,0.100000,0.406634,0.096194,0.422855,0.085355,0.433694,0.069134,0.437500,0.050000,0.437500,-0.050000,0.433694,-0.069134,0.422855,-0.085355,0.406634,-0.096194,0.387500,-0.100000,-0.387500,-0.100000,-0.406634,-0.096194,-0.422855,-0.085355,-0.433694,-0.069134,-0.437500,-0.050000,-0.437500,0.050000,-0.437500,0.050000,$1*%
%AMFreePoly6*
4,1,18,-0.100000,0.387500,-0.096194,0.406634,-0.085355,0.422855,-0.069134,0.433694,-0.050000,0.437500,0.050000,0.437500,0.069134,0.433694,0.085355,0.422855,0.096194,0.406634,0.100000,0.387500,0.100000,-0.387500,0.050000,-0.437500,-0.050000,-0.437500,-0.069134,-0.433694,-0.085355,-0.422855,-0.096194,-0.406634,-0.100000,-0.387500,-0.100000,0.387500,-0.100000,0.387500,$1*%
%AMFreePoly7*
4,1,18,-0.100000,0.387500,-0.096194,0.406634,-0.085355,0.422855,-0.069134,0.433694,-0.050000,0.437500,0.050000,0.437500,0.069134,0.433694,0.085355,0.422855,0.096194,0.406634,0.100000,0.387500,0.100000,-0.387500,0.096194,-0.406634,0.085355,-0.422855,0.069134,-0.433694,0.050000,-0.437500,-0.050000,-0.437500,-0.100000,-0.387500,-0.100000,0.387500,-0.100000,0.387500,$1*%
%AMFreePoly8*
4,1,17,0.335278,0.685443,0.349923,0.650088,0.349923,-0.649935,0.335278,-0.685290,0.299923,-0.699935,0.000318,-0.699935,-0.000051,-0.700088,-0.300050,-0.700088,-0.335405,-0.685443,-0.350050,-0.650088,-0.350050,0.649935,-0.335405,0.685290,-0.300050,0.699935,-0.000445,0.699935,-0.000076,0.700088,0.299923,0.700088,0.335278,0.685443,0.335278,0.685443,$1*%
%AMFreePoly9*
4,1,17,0.335431,0.685290,0.350076,0.649935,0.350076,-0.650037,0.335431,-0.685392,0.300076,-0.700037,0.000187,-0.700037,0.000127,-0.700062,-0.299898,-0.700062,-0.335253,-0.685417,-0.349898,-0.650062,-0.349898,0.649910,-0.335253,0.685265,-0.299898,0.699910,-0.000009,0.699910,0.000051,0.699935,0.300076,0.699935,0.335431,0.685290,0.335431,0.685290,$1*%
%AMFreePoly10*
4,1,13,0.335227,0.685443,0.349872,0.650088,0.349872,-0.649884,0.335227,-0.685239,0.299872,-0.699884,-0.300152,-0.699884,-0.335507,-0.685239,-0.350152,-0.649884,-0.350152,0.650088,-0.335507,0.685443,-0.300152,0.700088,0.299872,0.700088,0.335227,0.685443,0.335227,0.685443,$1*%
G04 Aperture macros list end*
%ADD10RoundRect,0.200000X0.275000X-0.200000X0.275000X0.200000X-0.275000X0.200000X-0.275000X-0.200000X0*%
%ADD11RoundRect,0.140000X-0.170000X0.140000X-0.170000X-0.140000X0.170000X-0.140000X0.170000X0.140000X0*%
%ADD12RoundRect,0.135000X0.185000X-0.135000X0.185000X0.135000X-0.185000X0.135000X-0.185000X-0.135000X0*%
%ADD13RoundRect,0.140000X0.170000X-0.140000X0.170000X0.140000X-0.170000X0.140000X-0.170000X-0.140000X0*%
%ADD14RoundRect,0.135000X0.135000X0.185000X-0.135000X0.185000X-0.135000X-0.185000X0.135000X-0.185000X0*%
%ADD15RoundRect,0.150000X-0.512500X-0.150000X0.512500X-0.150000X0.512500X0.150000X-0.512500X0.150000X0*%
%ADD16RoundRect,0.135000X-0.135000X-0.185000X0.135000X-0.185000X0.135000X0.185000X-0.135000X0.185000X0*%
%ADD17RoundRect,0.375000X-0.375000X0.625000X-0.375000X-0.625000X0.375000X-0.625000X0.375000X0.625000X0*%
%ADD18RoundRect,0.500000X-1.400000X0.500000X-1.400000X-0.500000X1.400000X-0.500000X1.400000X0.500000X0*%
%ADD19RoundRect,0.375000X0.625000X0.375000X-0.625000X0.375000X-0.625000X-0.375000X0.625000X-0.375000X0*%
%ADD20RoundRect,0.500000X0.500000X1.400000X-0.500000X1.400000X-0.500000X-1.400000X0.500000X-1.400000X0*%
%ADD21R,0.300000X2.600000*%
%ADD22R,1.050000X0.700000*%
%ADD23RoundRect,0.135000X-0.185000X0.135000X-0.185000X-0.135000X0.185000X-0.135000X0.185000X0.135000X0*%
%ADD24RoundRect,0.140000X0.140000X0.170000X-0.140000X0.170000X-0.140000X-0.170000X0.140000X-0.170000X0*%
%ADD25RoundRect,0.150000X-0.150000X0.587500X-0.150000X-0.587500X0.150000X-0.587500X0.150000X0.587500X0*%
%ADD26RoundRect,0.250000X-0.350000X-0.350000X0.350000X-0.350000X0.350000X0.350000X-0.350000X0.350000X0*%
%ADD27FreePoly0,0.000000*%
%ADD28RoundRect,0.050000X-0.387500X-0.050000X0.387500X-0.050000X0.387500X0.050000X-0.387500X0.050000X0*%
%ADD29FreePoly1,0.000000*%
%ADD30FreePoly2,0.000000*%
%ADD31RoundRect,0.050000X-0.050000X-0.387500X0.050000X-0.387500X0.050000X0.387500X-0.050000X0.387500X0*%
%ADD32FreePoly3,0.000000*%
%ADD33FreePoly4,0.000000*%
%ADD34FreePoly5,0.000000*%
%ADD35FreePoly6,0.000000*%
%ADD36FreePoly7,0.000000*%
%ADD37RoundRect,0.140000X-0.140000X-0.170000X0.140000X-0.170000X0.140000X0.170000X-0.140000X0.170000X0*%
%ADD38RoundRect,0.150000X0.587500X0.150000X-0.587500X0.150000X-0.587500X-0.150000X0.587500X-0.150000X0*%
%ADD39RoundRect,0.250000X-0.450000X-0.350000X0.450000X-0.350000X0.450000X0.350000X-0.450000X0.350000X0*%
%ADD40RoundRect,0.225000X-0.225000X-0.250000X0.225000X-0.250000X0.225000X0.250000X-0.225000X0.250000X0*%
%ADD41RoundRect,0.150000X0.150000X-0.587500X0.150000X0.587500X-0.150000X0.587500X-0.150000X-0.587500X0*%
%ADD42R,0.700000X1.050000*%
%ADD43FreePoly8,180.000000*%
%ADD44FreePoly9,180.000000*%
%ADD45R,0.300000X1.300000*%
%ADD46FreePoly10,180.000000*%
%ADD47RoundRect,0.162500X-0.650000X-0.162500X0.650000X-0.162500X0.650000X0.162500X-0.650000X0.162500X0*%
%ADD48RoundRect,0.150000X-0.625000X0.150000X-0.625000X-0.150000X0.625000X-0.150000X0.625000X0.150000X0*%
%ADD49RoundRect,0.250000X-0.650000X0.350000X-0.650000X-0.350000X0.650000X-0.350000X0.650000X0.350000X0*%
%ADD50RoundRect,0.250000X-1.500000X-0.550000X1.500000X-0.550000X1.500000X0.550000X-1.500000X0.550000X0*%
%ADD51RoundRect,0.250000X-0.250000X-0.475000X0.250000X-0.475000X0.250000X0.475000X-0.250000X0.475000X0*%
%ADD52R,1.600000X1.000000*%
%ADD53R,1.600000X0.700000*%
%ADD54R,1.500000X1.200000*%
%ADD55R,2.200000X1.200000*%
%ADD56R,1.500000X1.600000*%
G04 APERTURE END LIST*
D10*
%TO.C,R29*%
X98325000Y-83765000D03*
X98325000Y-82115000D03*
%TD*%
D11*
%TO.C,C3*%
X122350000Y-98570000D03*
X122350000Y-99530000D03*
%TD*%
D12*
%TO.C,R13*%
X141202500Y-91810000D03*
X141202500Y-90790000D03*
%TD*%
D11*
%TO.C,C24*%
X140050000Y-101110000D03*
X140050000Y-102070000D03*
%TD*%
D10*
%TO.C,R27*%
X95175000Y-83765000D03*
X95175000Y-82115000D03*
%TD*%
D13*
%TO.C,C2*%
X117484996Y-80477500D03*
X117484996Y-79517500D03*
%TD*%
D14*
%TO.C,R25*%
X139222500Y-81650000D03*
X138202500Y-81650000D03*
%TD*%
D15*
%TO.C,U4*%
X128450000Y-75700000D03*
X128450000Y-76650000D03*
X128450000Y-77600000D03*
X130725000Y-77600000D03*
X130725000Y-76650000D03*
X130725000Y-75700000D03*
%TD*%
D16*
%TO.C,R40*%
X65590000Y-72100000D03*
X66610000Y-72100000D03*
%TD*%
D17*
%TO.C,U5*%
X142700000Y-69070000D03*
X140400000Y-69070000D03*
D18*
X140400000Y-75370000D03*
D17*
X138100000Y-69070000D03*
%TD*%
D19*
%TO.C,U2*%
X115500000Y-77150000D03*
X115500000Y-74850000D03*
D20*
X109200000Y-74850000D03*
D19*
X115500000Y-72550000D03*
%TD*%
D21*
%TO.C,J3*%
X94450000Y-75920000D03*
X94950000Y-75920000D03*
X95450000Y-75920000D03*
X95950000Y-75920000D03*
X96450000Y-75920000D03*
X96950000Y-75920000D03*
X97450000Y-75920000D03*
X97950000Y-75920000D03*
X98450000Y-75920000D03*
X98950000Y-75920000D03*
X99450000Y-75920000D03*
X99950000Y-75920000D03*
X100450000Y-75920000D03*
X100950000Y-75920000D03*
X101450000Y-75920000D03*
X101950000Y-75920000D03*
X102450000Y-75920000D03*
X102950000Y-75920000D03*
X103450000Y-75920000D03*
%TD*%
D10*
%TO.C,R26*%
X93575000Y-83765000D03*
X93575000Y-82115000D03*
%TD*%
D14*
%TO.C,R6*%
X118510000Y-89500000D03*
X117490000Y-89500000D03*
%TD*%
D22*
%TO.C,SW4*%
X131250000Y-98780000D03*
X135450000Y-98780000D03*
X131250000Y-100920000D03*
X135450000Y-100920000D03*
%TD*%
D23*
%TO.C,R33*%
X104300000Y-79890000D03*
X104300000Y-80910000D03*
%TD*%
D24*
%TO.C,C22*%
X143720000Y-86850000D03*
X142760000Y-86850000D03*
%TD*%
D14*
%TO.C,R5*%
X129010000Y-85750000D03*
X127990000Y-85750000D03*
%TD*%
%TO.C,R36*%
X106647500Y-107590000D03*
X105627500Y-107590000D03*
%TD*%
D12*
%TO.C,R4*%
X129500000Y-101060000D03*
X129500000Y-100040000D03*
%TD*%
D14*
%TO.C,R24*%
X144462500Y-85150000D03*
X143442500Y-85150000D03*
%TD*%
D25*
%TO.C,D6*%
X147000000Y-81825000D03*
X145100000Y-81825000D03*
X146050000Y-83700000D03*
%TD*%
D24*
%TO.C,C8*%
X118230000Y-92100000D03*
X117270000Y-92100000D03*
%TD*%
D14*
%TO.C,R20*%
X139302500Y-86350000D03*
X138282500Y-86350000D03*
%TD*%
D26*
%TO.C,U1*%
X122729996Y-92362500D03*
X122729996Y-93762500D03*
X124129996Y-92362500D03*
X124129996Y-93762500D03*
D27*
X119992496Y-90262500D03*
D28*
X119992496Y-90662500D03*
X119992496Y-91062500D03*
X119992496Y-91462500D03*
X119992496Y-91862500D03*
X119992496Y-92262500D03*
X119992496Y-92662500D03*
X119992496Y-93062500D03*
X119992496Y-93462500D03*
X119992496Y-93862500D03*
X119992496Y-94262500D03*
X119992496Y-94662500D03*
X119992496Y-95062500D03*
X119992496Y-95462500D03*
D29*
X119992496Y-95862500D03*
D30*
X120629996Y-96500000D03*
D31*
X121029996Y-96500000D03*
X121429996Y-96500000D03*
X121829996Y-96500000D03*
X122229996Y-96500000D03*
X122629996Y-96500000D03*
X123029996Y-96500000D03*
X123429996Y-96500000D03*
X123829996Y-96500000D03*
X124229996Y-96500000D03*
X124629996Y-96500000D03*
X125029996Y-96500000D03*
X125429996Y-96500000D03*
X125829996Y-96500000D03*
D32*
X126229996Y-96500000D03*
D33*
X126867496Y-95862500D03*
D28*
X126867496Y-95462500D03*
X126867496Y-95062500D03*
X126867496Y-94662500D03*
X126867496Y-94262500D03*
X126867496Y-93862500D03*
X126867496Y-93462500D03*
X126867496Y-93062500D03*
X126867496Y-92662500D03*
X126867496Y-92262500D03*
X126867496Y-91862500D03*
X126867496Y-91462500D03*
X126867496Y-91062500D03*
X126867496Y-90662500D03*
D34*
X126867496Y-90262500D03*
D35*
X126229996Y-89625000D03*
D31*
X125829996Y-89625000D03*
X125429996Y-89625000D03*
X125029996Y-89625000D03*
X124629996Y-89625000D03*
X124229996Y-89625000D03*
X123829996Y-89625000D03*
X123429996Y-89625000D03*
X123029996Y-89625000D03*
X122629996Y-89625000D03*
X122229996Y-89625000D03*
X121829996Y-89625000D03*
X121429996Y-89625000D03*
X121029996Y-89625000D03*
D36*
X120629996Y-89625000D03*
%TD*%
D37*
%TO.C,C27*%
X134390000Y-70650000D03*
X135350000Y-70650000D03*
%TD*%
D38*
%TO.C,Q1*%
X149040000Y-86850000D03*
X149040000Y-84950000D03*
X147165000Y-85900000D03*
%TD*%
D39*
%TO.C,Y1*%
X120600000Y-102650000D03*
X122800000Y-102650000D03*
X122800000Y-100950000D03*
X120600000Y-100950000D03*
%TD*%
D23*
%TO.C,R7*%
X123550000Y-86140000D03*
X123550000Y-87160000D03*
%TD*%
%TO.C,R12*%
X124350000Y-73490000D03*
X124350000Y-74510000D03*
%TD*%
D25*
%TO.C,D2*%
X136800000Y-87212500D03*
X134900000Y-87212500D03*
X135850000Y-89087500D03*
%TD*%
D12*
%TO.C,R11*%
X127950000Y-74460000D03*
X127950000Y-73440000D03*
%TD*%
D16*
%TO.C,R14*%
X139040000Y-100160000D03*
X140060000Y-100160000D03*
%TD*%
D40*
%TO.C,C26*%
X141075000Y-66750000D03*
X142625000Y-66750000D03*
%TD*%
D41*
%TO.C,D5*%
X148900000Y-91825000D03*
X150800000Y-91825000D03*
X149850000Y-89950000D03*
%TD*%
D14*
%TO.C,R37*%
X106937500Y-115240000D03*
X105917500Y-115240000D03*
%TD*%
D25*
%TO.C,D1*%
X136800000Y-91512500D03*
X134900000Y-91512500D03*
X135850000Y-93387500D03*
%TD*%
D16*
%TO.C,R39*%
X140100000Y-81650000D03*
X141120000Y-81650000D03*
%TD*%
D37*
%TO.C,C4*%
X124320000Y-100400000D03*
X125280000Y-100400000D03*
%TD*%
D16*
%TO.C,R21*%
X144780000Y-89100000D03*
X145800000Y-89100000D03*
%TD*%
%TO.C,R38*%
X140142500Y-88700000D03*
X141162500Y-88700000D03*
%TD*%
D42*
%TO.C,SW3*%
X115500000Y-89550000D03*
X115500000Y-93750000D03*
X113360000Y-89550000D03*
X113360000Y-93750000D03*
%TD*%
D23*
%TO.C,R2*%
X123350000Y-98590000D03*
X123350000Y-99610000D03*
%TD*%
D43*
%TO.C,J1*%
X129700000Y-71992456D03*
D44*
X128900000Y-71992456D03*
D45*
X127750000Y-71992456D03*
X126750000Y-71992456D03*
X126250000Y-71992456D03*
X125250000Y-71992456D03*
D46*
X123300000Y-71992456D03*
X124100000Y-71992456D03*
D45*
X124750000Y-71992456D03*
X125750000Y-71992456D03*
X127250000Y-71992456D03*
X128250000Y-71992456D03*
%TD*%
D14*
%TO.C,R17*%
X145800000Y-88100000D03*
X144780000Y-88100000D03*
%TD*%
D10*
%TO.C,R30*%
X99925000Y-83740000D03*
X99925000Y-82090000D03*
%TD*%
D40*
%TO.C,C29*%
X105662500Y-113190000D03*
X107212500Y-113190000D03*
%TD*%
D37*
%TO.C,C30*%
X105977500Y-110290000D03*
X106937500Y-110290000D03*
%TD*%
D47*
%TO.C,U3*%
X112912500Y-81995000D03*
X112912500Y-83265000D03*
X112912500Y-84535000D03*
X112912500Y-85805000D03*
X120087500Y-85805000D03*
X120087500Y-84535000D03*
X120087500Y-83265000D03*
X120087500Y-81995000D03*
%TD*%
D25*
%TO.C,D3*%
X136800000Y-83162500D03*
X134900000Y-83162500D03*
X135850000Y-85037500D03*
%TD*%
D48*
%TO.C,J4*%
X138750000Y-106200000D03*
X138750000Y-107200000D03*
X138750000Y-108200000D03*
D49*
X134875000Y-104900000D03*
X134875000Y-109500000D03*
%TD*%
D50*
%TO.C,C23*%
X144850000Y-100060000D03*
X150450000Y-100060000D03*
%TD*%
D10*
%TO.C,R10*%
X91975000Y-83765000D03*
X91975000Y-82115000D03*
%TD*%
D51*
%TO.C,C21*%
X142550000Y-93000000D03*
X144450000Y-93000000D03*
%TD*%
D11*
%TO.C,C28*%
X132070000Y-72022456D03*
X132070000Y-72982456D03*
%TD*%
D12*
%TO.C,R15*%
X151900000Y-98410000D03*
X151900000Y-97390000D03*
%TD*%
D40*
%TO.C,C1*%
X134125000Y-68350000D03*
X135675000Y-68350000D03*
%TD*%
D14*
%TO.C,R22*%
X141122500Y-84050000D03*
X140102500Y-84050000D03*
%TD*%
D16*
%TO.C,R16*%
X140990000Y-100160000D03*
X142010000Y-100160000D03*
%TD*%
D40*
%TO.C,C5*%
X117675000Y-74900000D03*
X119225000Y-74900000D03*
%TD*%
D10*
%TO.C,R32*%
X103075000Y-83740000D03*
X103075000Y-82090000D03*
%TD*%
D52*
%TO.C,L1*%
X125950000Y-85200000D03*
X125950000Y-83200000D03*
%TD*%
D14*
%TO.C,R3*%
X139272500Y-88700000D03*
X138252500Y-88700000D03*
%TD*%
D53*
%TO.C,Card1*%
X103750000Y-116950000D03*
X103750000Y-115850000D03*
X103750000Y-114750000D03*
X103750000Y-113650000D03*
X103750000Y-112550000D03*
X103750000Y-111450000D03*
X103750000Y-110350000D03*
X103750000Y-109250000D03*
D54*
X102750000Y-106950000D03*
D55*
X93150000Y-106950000D03*
X93150000Y-122450000D03*
D56*
X102750000Y-121550000D03*
D53*
X103750000Y-108150000D03*
%TD*%
D14*
%TO.C,R23*%
X139212500Y-84050000D03*
X138192500Y-84050000D03*
%TD*%
D23*
%TO.C,R34*%
X106050000Y-79940000D03*
X106050000Y-80960000D03*
%TD*%
%TO.C,R8*%
X124600000Y-86140000D03*
X124600000Y-87160000D03*
%TD*%
D14*
%TO.C,R19*%
X141202500Y-86350000D03*
X140182500Y-86350000D03*
%TD*%
D10*
%TO.C,R31*%
X101525000Y-83740000D03*
X101525000Y-82090000D03*
%TD*%
%TO.C,R28*%
X96775000Y-83765000D03*
X96775000Y-82115000D03*
%TD*%
D14*
%TO.C,R18*%
X143910000Y-88100000D03*
X142890000Y-88100000D03*
%TD*%
D37*
%TO.C,C9*%
X128070000Y-86950000D03*
X129030000Y-86950000D03*
%TD*%
D14*
%TO.C,R35*%
X107097500Y-117740000D03*
X106077500Y-117740000D03*
%TD*%
D24*
%TO.C,C20*%
X118580000Y-72550000D03*
X117620000Y-72550000D03*
%TD*%
D13*
%TO.C,C25*%
X142100000Y-98970000D03*
X142100000Y-98010000D03*
%TD*%
D25*
%TO.C,D4*%
X136900000Y-79262500D03*
X135000000Y-79262500D03*
X135950000Y-81137500D03*
%TD*%
M02*
