M48
; DRILL file KiCad 10.0.0 date 2026-05-22T19:45:41
; FORMAT={-:-/ absolute / metric / decimal}
; #@! TF.CreationDate,2026-05-22T19:45:41-07:00
; #@! TF.GenerationSoftware,Kicad,Pcbnew,10.0.0
; #@! TF.FileFunction,Plated,1,4,PTH
FMAT,2
METRIC
; #@! TA.AperFunction,Plated,PTH,ViaDrill
T1C0.200
; #@! TA.AperFunction,Plated,PTH,ComponentDrill
T2C0.250
; #@! TA.AperFunction,Plated,PTH,ViaDrill
T3C0.300
; #@! TA.AperFunction,Plated,PTH,ComponentDrill
T4C0.750
; #@! TA.AperFunction,Plated,PTH,ComponentDrill
T5C0.800
; #@! TA.AperFunction,Plated,PTH,ComponentDrill
T6C0.850
; #@! TA.AperFunction,Plated,PTH,ComponentDrill
T7C0.900
; #@! TA.AperFunction,Plated,PTH,ComponentDrill
T8C1.000
; #@! TA.AperFunction,Plated,PTH,ComponentDrill
T9C1.200
; #@! TA.AperFunction,Plated,PTH,ComponentDrill
T10C1.500
; #@! TA.AperFunction,Plated,PTH,ComponentDrill
T11C1.700
%
G90
G05
T1
X67.8Y-72.1
X69.4Y-77.1
X70.4Y-71.4
X76.2Y-75.0
X77.3Y-74.6
X93.1Y-74.0
X93.4Y-69.2
X94.6Y-78.1
X95.05Y-121.1
X95.25Y-107.05
X96.4Y-78.0
X97.9Y-78.0
X99.475Y-78.0
X100.95Y-107.0
X101.85Y-113.85
X102.0Y-72.5
X102.1Y-111.4
X102.5Y-78.4
X103.9Y-121.15
X104.15Y-107.35
X104.5Y-70.0
X104.7Y-75.7
X104.73Y-112.1
X104.8Y-114.75
X104.85Y-109.78
X105.1Y-115.6
X105.2Y-110.6
X105.6Y-114.3
X106.75Y-81.6
X107.4Y-107.6
X107.65Y-114.8
X107.73Y-110.28
X107.95Y-117.75
X108.25Y-113.2
X112.6Y-93.35
X112.65Y-89.45
X113.75Y-118.2
X114.3Y-85.65
X115.75Y-114.5
X116.65Y-90.5
X116.65Y-92.65
X116.75Y-90.0
X116.915Y-93.112
X116.934Y-91.984
X116.97Y-90.954
X117.19Y-94.5
X117.693Y-95.303
X117.8Y-114.45
X118.0Y-118.45
X118.15Y-95.1
X118.3Y-91.404
X118.6Y-94.85
X118.95Y-73.4
X119.15Y-94.312
X119.4Y-89.95
X119.4Y-114.55
X120.779Y-98.55
X120.8Y-95.15
X121.201Y-99.401
X121.35Y-86.8
X121.6Y-81.85
X121.6Y-99.75
X121.6Y-101.85
X122.18Y-97.65
X122.25Y-118.1
X122.6Y-86.0
X123.032Y-88.227
X123.38Y-88.55
X123.4Y-95.75
X124.15Y-99.3
X124.2Y-102.45
X124.4Y-75.3
X124.4Y-101.1
X124.65Y-99.35
X124.68Y-88.473
X125.1Y-90.3
X125.267Y-99.369
X125.85Y-90.35
X126.0Y-93.45
X126.05Y-86.15
X126.1Y-95.45
X126.15Y-99.5
X126.25Y-70.65
X126.6Y-96.9
X126.75Y-99.25
X127.05Y-97.0
X127.45Y-89.65
X127.65Y-76.35
X127.65Y-90.5
X127.9Y-90.9
X127.95Y-92.7
X127.95Y-95.35
X128.1Y-84.95
X128.3Y-88.25
X128.35Y-94.712
X129.45Y-93.412
X129.55Y-75.7
X129.6Y-86.9
X129.607Y-89.957
X130.1Y-88.25
X130.25Y-98.8
X130.267Y-73.617
X130.35Y-99.8
X130.45Y-92.75
X130.9Y-105.65
X131.6Y-118.1
X132.35Y-73.95
X132.7Y-71.45
X133.7Y-69.9
X133.75Y-87.2
X133.85Y-91.35
X133.9Y-79.3
X133.95Y-83.05
X135.5Y-118.2
X135.65Y-103.55
X136.1Y-67.25
X136.25Y-111.2
X137.45Y-86.45
X137.6Y-82.75
X137.702Y-90.45
X137.95Y-67.15
X138.15Y-78.95
X139.8Y-109.05
X139.8Y-118.3
X140.2Y-107.2
X140.9Y-102.65
X141.2Y-93.05
X141.35Y-97.45
X142.0Y-91.65
X142.6Y-86.1
X144.3Y-89.55
X144.85Y-91.65
X145.1Y-80.15
X146.95Y-80.15
X148.8Y-93.2
X149.4Y-83.55
X150.1Y-68.5
X150.3Y-71.9
X150.7Y-93.3
X151.95Y-96.55
X157.0Y-104.8
X158.7Y-85.5
T2
X122.055Y-91.688
X122.055Y-93.062
X122.055Y-94.438
X123.43Y-91.688
X123.43Y-93.062
X123.43Y-94.438
X124.805Y-91.688
X124.805Y-93.062
X124.805Y-94.438
T3
X107.6Y-74.5
X116.95Y-71.7
X117.15Y-76.2
X117.45Y-76.95
X118.05Y-75.85
X118.284Y-79.59
X118.3Y-80.55
X120.15Y-75.55
X120.77Y-67.352
X120.77Y-70.852
X122.45Y-72.8
X123.2Y-73.203
X129.621Y-73.203
X130.5Y-72.8
X131.97Y-67.002
X132.194Y-70.516
X132.8Y-72.95
X133.8Y-67.25
X136.25Y-70.55
X140.0Y-66.7
X143.0Y-75.65
X143.6Y-66.55
X143.75Y-67.35
T4
X123.6Y-70.732
X129.4Y-70.732
T6
X113.8Y-116.25
X115.8Y-116.25
X117.8Y-116.25
X119.8Y-116.25
X121.8Y-116.25
X123.8Y-116.25
X125.8Y-116.25
X131.45Y-116.05
X133.45Y-116.05
X135.45Y-116.05
X137.45Y-116.05
X139.45Y-116.05
X141.45Y-116.05
X143.45Y-116.05
T9
X92.75Y-109.75
X92.75Y-117.75
T11
X63.75Y-69.65
X68.75Y-69.65
X73.75Y-69.65
X78.75Y-69.65
X86.25Y-69.65
T5
G00X122.17Y-67.352
M15
G01X122.17Y-66.752
M16
G05
G00X122.17Y-71.632
M15
G01X122.17Y-70.832
M16
G05
G00X130.83Y-67.352
M15
G01X130.83Y-66.752
M16
G05
G00X130.83Y-71.632
M15
G01X130.83Y-70.832
M16
G05
T7
G00X91.7Y-69.6
M15
G01X91.7Y-68.8
M16
G05
G00X91.7Y-76.06
M15
G01X91.7Y-74.26
M16
G05
G00X106.2Y-69.6
M15
G01X106.2Y-68.8
M16
G05
G00X106.2Y-76.06
M15
G01X106.2Y-74.26
M16
G05
T8
G00X155.45Y-82.75
M15
G01X154.25Y-82.75
M16
G05
G00X155.45Y-101.8
M15
G01X154.25Y-101.8
M16
G05
T10
G00X158.75Y-83.25
M15
G01X158.75Y-82.25
M16
G05
G00X158.75Y-102.3
M15
G01X158.75Y-101.3
M16
G05
M30
