%TF.GenerationSoftware,KiCad,Pcbnew,10.0.0*%
%TF.CreationDate,2026-05-22T19:45:14-07:00*%
%TF.ProjectId,microNES_pcb_v0.1,6d696372-6f4e-4455-935f-7063625f7630,rev?*%
%TF.SameCoordinates,Original*%
%TF.FileFunction,Copper,L1,Top*%
%TF.FilePolarity,Positive*%
%FSLAX46Y46*%
G04 Gerber Fmt 4.6, Leading zero omitted, Abs format (unit mm)*
G04 Created by KiCad (PCBNEW 10.0.0) date 2026-05-22 19:45:14*
%MOMM*%
%LPD*%
G01*
G04 APERTURE LIST*
G04 Aperture macros list*
%AMRoundRect*
0 Rectangle with rounded corners*
0 $1 Rounding radius*
0 $2 $3 $4 $5 $6 $7 $8 $9 X,Y pos of 4 corners*
0 Add a 4 corners polygon primitive as box body*
4,1,4,$2,$3,$4,$5,$6,$7,$8,$9,$2,$3,0*
0 Add four circle primitives for the rounded corners*
1,1,$1+$1,$2,$3*
1,1,$1+$1,$4,$5*
1,1,$1+$1,$6,$7*
1,1,$1+$1,$8,$9*
0 Add four rect primitives between the rounded corners*
20,1,$1+$1,$2,$3,$4,$5,0*
20,1,$1+$1,$4,$5,$6,$7,0*
20,1,$1+$1,$6,$7,$8,$9,0*
20,1,$1+$1,$8,$9,$2,$3,0*%
%AMFreePoly0*
4,1,18,-0.437500,0.050000,-0.433694,0.069134,-0.422855,0.085355,-0.406634,0.096194,-0.387500,0.100000,0.387500,0.100000,0.437500,0.050000,0.437500,-0.050000,0.433694,-0.069134,0.422855,-0.085355,0.406634,-0.096194,0.387500,-0.100000,-0.387500,-0.100000,-0.406634,-0.096194,-0.422855,-0.085355,-0.433694,-0.069134,-0.437500,-0.050000,-0.437500,0.050000,-0.437500,0.050000,$1*%
%AMFreePoly1*
4,1,18,-0.437500,0.050000,-0.433694,0.069134,-0.422855,0.085355,-0.406634,0.096194,-0.387500,0.100000,0.387500,0.100000,0.406634,0.096194,0.422855,0.085355,0.433694,0.069134,0.437500,0.050000,0.437500,-0.050000,0.387500,-0.100000,-0.387500,-0.100000,-0.406634,-0.096194,-0.422855,-0.085355,-0.433694,-0.069134,-0.437500,-0.050000,-0.437500,0.050000,-0.437500,0.050000,$1*%
%AMFreePoly2*
4,1,18,-0.100000,0.387500,-0.050000,0.437500,0.050000,0.437500,0.069134,0.433694,0.085355,0.422855,0.096194,0.406634,0.100000,0.387500,0.100000,-0.387500,0.096194,-0.406634,0.085355,-0.422855,0.069134,-0.433694,0.050000,-0.437500,-0.050000,-0.437500,-0.069134,-0.433694,-0.085355,-0.422855,-0.096194,-0.406634,-0.100000,-0.387500,-0.100000,0.387500,-0.100000,0.387500,$1*%
%AMFreePoly3*
4,1,18,-0.100000,0.387500,-0.096194,0.406634,-0.085355,0.422855,-0.069134,0.433694,-0.050000,0.437500,0.050000,0.437500,0.100000,0.387500,0.100000,-0.387500,0.096194,-0.406634,0.085355,-0.422855,0.069134,-0.433694,0.050000,-0.437500,-0.050000,-0.437500,-0.069134,-0.433694,-0.085355,-0.422855,-0.096194,-0.406634,-0.100000,-0.387500,-0.100000,0.387500,-0.100000,0.387500,$1*%
%AMFreePoly4*
4,1,18,-0.437500,0.050000,-0.433694,0.069134,-0.422855,0.085355,-0.406634,0.096194,-0.387500,0.100000,0.387500,0.100000,0.406634,0.096194,0.422855,0.085355,0.433694,0.069134,0.437500,0.050000,0.437500,-0.050000,0.433694,-0.069134,0.422855,-0.085355,0.406634,-0.096194,0.387500,-0.100000,-0.387500,-0.100000,-0.437500,-0.050000,-0.437500,0.050000,-0.437500,0.050000,$1*%
%AMFreePoly5*
4,1,18,-0.437500,0.050000,-0.387500,0.100000,0.387500,0.100000,0.406634,0.096194,0.422855,0.085355,0.433694,0.069134,0.437500,0.050000,0.437500,-0.050000,0.433694,-0.069134,0.422855,-0.085355,0.406634,-0.096194,0.387500,-0.100000,-0.387500,-0.100000,-0.406634,-0.096194,-0.422855,-0.085355,-0.433694,-0.069134,-0.437500,-0.050000,-0.437500,0.050000,-0.437500,0.050000,$1*%
%AMFreePoly6*
4,1,18,-0.100000,0.387500,-0.096194,0.406634,-0.085355,0.422855,-0.069134,0.433694,-0.050000,0.437500,0.050000,0.437500,0.069134,0.433694,0.085355,0.422855,0.096194,0.406634,0.100000,0.387500,0.100000,-0.387500,0.050000,-0.437500,-0.050000,-0.437500,-0.069134,-0.433694,-0.085355,-0.422855,-0.096194,-0.406634,-0.100000,-0.387500,-0.100000,0.387500,-0.100000,0.387500,$1*%
%AMFreePoly7*
4,1,18,-0.100000,0.387500,-0.096194,0.406634,-0.085355,0.422855,-0.069134,0.433694,-0.050000,0.437500,0.050000,0.437500,0.069134,0.433694,0.085355,0.422855,0.096194,0.406634,0.100000,0.387500,0.100000,-0.387500,0.096194,-0.406634,0.085355,-0.422855,0.069134,-0.433694,0.050000,-0.437500,-0.050000,-0.437500,-0.100000,-0.387500,-0.100000,0.387500,-0.100000,0.387500,$1*%
%AMFreePoly8*
4,1,17,0.335278,0.685443,0.349923,0.650088,0.349923,-0.649935,0.335278,-0.685290,0.299923,-0.699935,0.000318,-0.699935,-0.000051,-0.700088,-0.300050,-0.700088,-0.335405,-0.685443,-0.350050,-0.650088,-0.350050,0.649935,-0.335405,0.685290,-0.300050,0.699935,-0.000445,0.699935,-0.000076,0.700088,0.299923,0.700088,0.335278,0.685443,0.335278,0.685443,$1*%
%AMFreePoly9*
4,1,17,0.335431,0.685290,0.350076,0.649935,0.350076,-0.650037,0.335431,-0.685392,0.300076,-0.700037,0.000187,-0.700037,0.000127,-0.700062,-0.299898,-0.700062,-0.335253,-0.685417,-0.349898,-0.650062,-0.349898,0.649910,-0.335253,0.685265,-0.299898,0.699910,-0.000009,0.699910,0.000051,0.699935,0.300076,0.699935,0.335431,0.685290,0.335431,0.685290,$1*%
%AMFreePoly10*
4,1,13,0.335227,0.685443,0.349872,0.650088,0.349872,-0.649884,0.335227,-0.685239,0.299872,-0.699884,-0.300152,-0.699884,-0.335507,-0.685239,-0.350152,-0.649884,-0.350152,0.650088,-0.335507,0.685443,-0.300152,0.700088,0.299872,0.700088,0.335227,0.685443,0.335227,0.685443,$1*%
G04 Aperture macros list end*
%TA.AperFunction,SMDPad,CuDef*%
%ADD10RoundRect,0.200000X0.275000X-0.200000X0.275000X0.200000X-0.275000X0.200000X-0.275000X-0.200000X0*%
%TD*%
%TA.AperFunction,SMDPad,CuDef*%
%ADD11RoundRect,0.140000X-0.170000X0.140000X-0.170000X-0.140000X0.170000X-0.140000X0.170000X0.140000X0*%
%TD*%
%TA.AperFunction,SMDPad,CuDef*%
%ADD12RoundRect,0.135000X0.185000X-0.135000X0.185000X0.135000X-0.185000X0.135000X-0.185000X-0.135000X0*%
%TD*%
%TA.AperFunction,SMDPad,CuDef*%
%ADD13R,1.500000X1.500000*%
%TD*%
%TA.AperFunction,SMDPad,CuDef*%
%ADD14RoundRect,0.140000X0.170000X-0.140000X0.170000X0.140000X-0.170000X0.140000X-0.170000X-0.140000X0*%
%TD*%
%TA.AperFunction,ComponentPad*%
%ADD15R,1.800000X1.800000*%
%TD*%
%TA.AperFunction,ComponentPad*%
%ADD16C,1.800000*%
%TD*%
%TA.AperFunction,SMDPad,CuDef*%
%ADD17RoundRect,0.135000X0.135000X0.185000X-0.135000X0.185000X-0.135000X-0.185000X0.135000X-0.185000X0*%
%TD*%
%TA.AperFunction,SMDPad,CuDef*%
%ADD18RoundRect,0.150000X-0.512500X-0.150000X0.512500X-0.150000X0.512500X0.150000X-0.512500X0.150000X0*%
%TD*%
%TA.AperFunction,SMDPad,CuDef*%
%ADD19RoundRect,0.135000X-0.135000X-0.185000X0.135000X-0.185000X0.135000X0.185000X-0.135000X0.185000X0*%
%TD*%
%TA.AperFunction,SMDPad,CuDef*%
%ADD20RoundRect,0.375000X-0.375000X0.625000X-0.375000X-0.625000X0.375000X-0.625000X0.375000X0.625000X0*%
%TD*%
%TA.AperFunction,SMDPad,CuDef*%
%ADD21RoundRect,0.500000X-1.400000X0.500000X-1.400000X-0.500000X1.400000X-0.500000X1.400000X0.500000X0*%
%TD*%
%TA.AperFunction,SMDPad,CuDef*%
%ADD22RoundRect,0.375000X0.625000X0.375000X-0.625000X0.375000X-0.625000X-0.375000X0.625000X-0.375000X0*%
%TD*%
%TA.AperFunction,SMDPad,CuDef*%
%ADD23RoundRect,0.500000X0.500000X1.400000X-0.500000X1.400000X-0.500000X-1.400000X0.500000X-1.400000X0*%
%TD*%
%TA.AperFunction,SMDPad,CuDef*%
%ADD24R,0.300000X2.600000*%
%TD*%
%TA.AperFunction,ComponentPad*%
%ADD25O,1.500000X3.300000*%
%TD*%
%TA.AperFunction,ComponentPad*%
%ADD26O,1.500000X2.300000*%
%TD*%
%TA.AperFunction,SMDPad,CuDef*%
%ADD27R,1.050000X0.700000*%
%TD*%
%TA.AperFunction,SMDPad,CuDef*%
%ADD28RoundRect,0.135000X-0.185000X0.135000X-0.185000X-0.135000X0.185000X-0.135000X0.185000X0.135000X0*%
%TD*%
%TA.AperFunction,SMDPad,CuDef*%
%ADD29RoundRect,0.140000X0.140000X0.170000X-0.140000X0.170000X-0.140000X-0.170000X0.140000X-0.170000X0*%
%TD*%
%TA.AperFunction,SMDPad,CuDef*%
%ADD30RoundRect,0.150000X-0.150000X0.587500X-0.150000X-0.587500X0.150000X-0.587500X0.150000X0.587500X0*%
%TD*%
%TA.AperFunction,SMDPad,CuDef*%
%ADD31FreePoly0,0.000000*%
%TD*%
%TA.AperFunction,SMDPad,CuDef*%
%ADD32RoundRect,0.050000X-0.387500X-0.050000X0.387500X-0.050000X0.387500X0.050000X-0.387500X0.050000X0*%
%TD*%
%TA.AperFunction,SMDPad,CuDef*%
%ADD33FreePoly1,0.000000*%
%TD*%
%TA.AperFunction,SMDPad,CuDef*%
%ADD34FreePoly2,0.000000*%
%TD*%
%TA.AperFunction,SMDPad,CuDef*%
%ADD35RoundRect,0.050000X-0.050000X-0.387500X0.050000X-0.387500X0.050000X0.387500X-0.050000X0.387500X0*%
%TD*%
%TA.AperFunction,SMDPad,CuDef*%
%ADD36FreePoly3,0.000000*%
%TD*%
%TA.AperFunction,SMDPad,CuDef*%
%ADD37FreePoly4,0.000000*%
%TD*%
%TA.AperFunction,SMDPad,CuDef*%
%ADD38FreePoly5,0.000000*%
%TD*%
%TA.AperFunction,SMDPad,CuDef*%
%ADD39FreePoly6,0.000000*%
%TD*%
%TA.AperFunction,SMDPad,CuDef*%
%ADD40FreePoly7,0.000000*%
%TD*%
%TA.AperFunction,ComponentPad*%
%ADD41C,0.600000*%
%TD*%
%TA.AperFunction,SMDPad,CuDef*%
%ADD42RoundRect,0.153000X1.547000X-1.547000X1.547000X1.547000X-1.547000X1.547000X-1.547000X-1.547000X0*%
%TD*%
%TA.AperFunction,SMDPad,CuDef*%
%ADD43RoundRect,0.140000X-0.140000X-0.170000X0.140000X-0.170000X0.140000X0.170000X-0.140000X0.170000X0*%
%TD*%
%TA.AperFunction,SMDPad,CuDef*%
%ADD44RoundRect,0.150000X0.587500X0.150000X-0.587500X0.150000X-0.587500X-0.150000X0.587500X-0.150000X0*%
%TD*%
%TA.AperFunction,SMDPad,CuDef*%
%ADD45RoundRect,0.250000X-0.450000X-0.350000X0.450000X-0.350000X0.450000X0.350000X-0.450000X0.350000X0*%
%TD*%
%TA.AperFunction,SMDPad,CuDef*%
%ADD46R,2.000000X2.000000*%
%TD*%
%TA.AperFunction,SMDPad,CuDef*%
%ADD47RoundRect,0.225000X-0.225000X-0.250000X0.225000X-0.250000X0.225000X0.250000X-0.225000X0.250000X0*%
%TD*%
%TA.AperFunction,SMDPad,CuDef*%
%ADD48RoundRect,0.150000X0.150000X-0.587500X0.150000X0.587500X-0.150000X0.587500X-0.150000X-0.587500X0*%
%TD*%
%TA.AperFunction,ComponentPad*%
%ADD49O,2.400000X3.600000*%
%TD*%
%TA.AperFunction,ComponentPad*%
%ADD50O,3.200000X1.800000*%
%TD*%
%TA.AperFunction,SMDPad,CuDef*%
%ADD51R,0.700000X1.050000*%
%TD*%
%TA.AperFunction,ComponentPad*%
%ADD52C,0.750000*%
%TD*%
%TA.AperFunction,ComponentPad*%
%ADD53O,1.200000X2.000000*%
%TD*%
%TA.AperFunction,ComponentPad*%
%ADD54O,1.200000X1.800000*%
%TD*%
%TA.AperFunction,SMDPad,CuDef*%
%ADD55FreePoly8,180.000000*%
%TD*%
%TA.AperFunction,SMDPad,CuDef*%
%ADD56FreePoly9,180.000000*%
%TD*%
%TA.AperFunction,SMDPad,CuDef*%
%ADD57R,0.300000X1.300000*%
%TD*%
%TA.AperFunction,SMDPad,CuDef*%
%ADD58FreePoly10,180.000000*%
%TD*%
%TA.AperFunction,SMDPad,CuDef*%
%ADD59RoundRect,0.162500X-0.650000X-0.162500X0.650000X-0.162500X0.650000X0.162500X-0.650000X0.162500X0*%
%TD*%
%TA.AperFunction,SMDPad,CuDef*%
%ADD60RoundRect,0.150000X-0.625000X0.150000X-0.625000X-0.150000X0.625000X-0.150000X0.625000X0.150000X0*%
%TD*%
%TA.AperFunction,SMDPad,CuDef*%
%ADD61RoundRect,0.250000X-0.650000X0.350000X-0.650000X-0.350000X0.650000X-0.350000X0.650000X0.350000X0*%
%TD*%
%TA.AperFunction,SMDPad,CuDef*%
%ADD62RoundRect,0.250000X-1.500000X-0.550000X1.500000X-0.550000X1.500000X0.550000X-1.500000X0.550000X0*%
%TD*%
%TA.AperFunction,SMDPad,CuDef*%
%ADD63RoundRect,0.250000X-0.250000X-0.475000X0.250000X-0.475000X0.250000X0.475000X-0.250000X0.475000X0*%
%TD*%
%TA.AperFunction,SMDPad,CuDef*%
%ADD64R,1.600000X1.000000*%
%TD*%
%TA.AperFunction,ComponentPad*%
%ADD65C,1.200000*%
%TD*%
%TA.AperFunction,SMDPad,CuDef*%
%ADD66R,1.600000X0.700000*%
%TD*%
%TA.AperFunction,SMDPad,CuDef*%
%ADD67R,1.500000X1.200000*%
%TD*%
%TA.AperFunction,SMDPad,CuDef*%
%ADD68R,2.200000X1.200000*%
%TD*%
%TA.AperFunction,SMDPad,CuDef*%
%ADD69R,1.500000X1.600000*%
%TD*%
%TA.AperFunction,ComponentPad*%
%ADD70R,2.800000X2.800000*%
%TD*%
%TA.AperFunction,ComponentPad*%
%ADD71C,2.800000*%
%TD*%
%TA.AperFunction,ViaPad*%
%ADD72C,0.300000*%
%TD*%
%TA.AperFunction,ViaPad*%
%ADD73C,1.000000*%
%TD*%
%TA.AperFunction,ViaPad*%
%ADD74C,0.600000*%
%TD*%
%TA.AperFunction,Conductor*%
%ADD75C,0.500000*%
%TD*%
%TA.AperFunction,Conductor*%
%ADD76C,0.200000*%
%TD*%
G04 APERTURE END LIST*
D10*
%TO.P,R29,1*%
%TO.N,/GPIO15*%
X98325000Y-83765000D03*
%TO.P,R29,2*%
%TO.N,Net-(J3-D0+)*%
X98325000Y-82115000D03*
%TD*%
D11*
%TO.P,C3,1*%
%TO.N,/XIN*%
X122350000Y-98570000D03*
%TO.P,C3,2*%
%TO.N,GND*%
X122350000Y-99530000D03*
%TD*%
D12*
%TO.P,R13,1*%
%TO.N,+3.3VDAC*%
X141202500Y-91810000D03*
%TO.P,R13,2*%
%TO.N,/SUM_NODE*%
X141202500Y-90790000D03*
%TD*%
D11*
%TO.P,C24,1*%
%TO.N,/AUD_A*%
X140050000Y-101110000D03*
%TO.P,C24,2*%
%TO.N,GND*%
X140050000Y-102070000D03*
%TD*%
D13*
%TO.P,TP11,1,1_1*%
%TO.N,/NES_DATA_2*%
X131200000Y-112600000D03*
%TD*%
%TO.P,TP10,1,1_1*%
%TO.N,/NES_DATA_1*%
X122000000Y-112600000D03*
%TD*%
D10*
%TO.P,R27,1*%
%TO.N,/GPIO17*%
X95175000Y-83765000D03*
%TO.P,R27,2*%
%TO.N,Net-(J3-D1+)*%
X95175000Y-82115000D03*
%TD*%
D14*
%TO.P,C2,1*%
%TO.N,+3V3*%
X117484996Y-80477500D03*
%TO.P,C2,2*%
%TO.N,GND*%
X117484996Y-79517500D03*
%TD*%
D15*
%TO.P,U6,1,GND_1*%
%TO.N,GND*%
X113800000Y-116250000D03*
D16*
%TO.P,U6,2,CLOCK_2*%
%TO.N,/NES_CLOCK*%
X115800000Y-116250000D03*
%TO.P,U6,3,LATCH_3*%
%TO.N,/NES_LATCH*%
X117800000Y-116250000D03*
%TO.P,U6,4,DATA_4*%
%TO.N,/NES_DATA_1*%
X119800000Y-116250000D03*
%TO.P,U6,5,VCC_5*%
%TO.N,+3V3*%
X121800000Y-116250000D03*
%TO.P,U6,6,NC_6*%
%TO.N,unconnected-(U6-NC-Pad6)*%
X123800000Y-116250000D03*
%TO.P,U6,7,NC_7*%
%TO.N,unconnected-(U6-NC-Pad7)*%
X125800000Y-116250000D03*
%TD*%
D17*
%TO.P,R25,1*%
%TO.N,Net-(R25-Pad1)*%
X139222500Y-81650000D03*
%TO.P,R25,2*%
%TO.N,/GP_VDAC_SUM3*%
X138202500Y-81650000D03*
%TD*%
D18*
%TO.P,U4,1,IO1_1*%
%TO.N,/USB_D+*%
X128450000Y-75700000D03*
%TO.P,U4,2,GND_2*%
%TO.N,GND*%
X128450000Y-76650000D03*
%TO.P,U4,3,IO2_3*%
%TO.N,/USB_D-*%
X128450000Y-77600000D03*
%TO.P,U4,4,NC_4*%
%TO.N,unconnected-(U4-NC-Pad4)*%
X130725000Y-77600000D03*
%TO.P,U4,5,VBUS_5*%
%TO.N,VBUS*%
X130725000Y-76650000D03*
%TO.P,U4,6,NC_6*%
%TO.N,unconnected-(U4-NC-Pad6)*%
X130725000Y-75700000D03*
%TD*%
D15*
%TO.P,U7,1,GND_1*%
%TO.N,GND*%
X131450000Y-116050000D03*
D16*
%TO.P,U7,2,CLOCK_2*%
%TO.N,/NES_CLOCK*%
X133450000Y-116050000D03*
%TO.P,U7,3,LATCH_3*%
%TO.N,/NES_LATCH*%
X135450000Y-116050000D03*
%TO.P,U7,4,DATA_4*%
%TO.N,/NES_DATA_2*%
X137450000Y-116050000D03*
%TO.P,U7,5,VCC_5*%
%TO.N,+3V3*%
X139450000Y-116050000D03*
%TO.P,U7,6,NC_6*%
%TO.N,unconnected-(U7-NC-Pad6)*%
X141450000Y-116050000D03*
%TO.P,U7,7,NC_7*%
%TO.N,unconnected-(U7-NC-Pad7)*%
X143450000Y-116050000D03*
%TD*%
D19*
%TO.P,R40,1*%
%TO.N,Net-(U8-LED_K)*%
X65590000Y-72100000D03*
%TO.P,R40,2*%
%TO.N,/PWR_LED*%
X66610000Y-72100000D03*
%TD*%
D20*
%TO.P,U5,1,GND_1*%
%TO.N,GND*%
X142700000Y-69070000D03*
%TO.P,U5,2,VO_2*%
%TO.N,+3.3VDAC*%
X140400000Y-69070000D03*
D21*
X140400000Y-75370000D03*
D20*
%TO.P,U5,3,VI_3*%
%TO.N,VBUS*%
X138100000Y-69070000D03*
%TD*%
D22*
%TO.P,U2,1,GND_1*%
%TO.N,GND*%
X115500000Y-77150000D03*
%TO.P,U2,2,VO_2*%
%TO.N,+3V3*%
X115500000Y-74850000D03*
D23*
X109200000Y-74850000D03*
D22*
%TO.P,U2,3,VI_3*%
%TO.N,VBUS*%
X115500000Y-72550000D03*
%TD*%
D24*
%TO.P,J3,1,D2+_1*%
%TO.N,Net-(J3-D2+)*%
X94450000Y-75920000D03*
%TO.P,J3,2,D2S_2*%
%TO.N,GND*%
X94950000Y-75920000D03*
%TO.P,J3,3,D2-_3*%
%TO.N,Net-(J3-D2-)*%
X95450000Y-75920000D03*
%TO.P,J3,4,D1+_4*%
%TO.N,Net-(J3-D1+)*%
X95950000Y-75920000D03*
%TO.P,J3,5,D1S_5*%
%TO.N,GND*%
X96450000Y-75920000D03*
%TO.P,J3,6,D1-_6*%
%TO.N,Net-(J3-D1-)*%
X96950000Y-75920000D03*
%TO.P,J3,7,D0+_7*%
%TO.N,Net-(J3-D0+)*%
X97450000Y-75920000D03*
%TO.P,J3,8,D0S_8*%
%TO.N,GND*%
X97950000Y-75920000D03*
%TO.P,J3,9,D0-_9*%
%TO.N,Net-(J3-D0-)*%
X98450000Y-75920000D03*
%TO.P,J3,10,CK+_10*%
%TO.N,Net-(J3-CK+)*%
X98950000Y-75920000D03*
%TO.P,J3,11,CKS_11*%
%TO.N,GND*%
X99450000Y-75920000D03*
%TO.P,J3,12,CK-_12*%
%TO.N,Net-(J3-CK-)*%
X99950000Y-75920000D03*
%TO.P,J3,13,CEC_13*%
%TO.N,unconnected-(J3-CEC-Pad13)*%
X100450000Y-75920000D03*
%TO.P,J3,14,UTILITY_14*%
%TO.N,unconnected-(J3-UTILITY-Pad14)*%
X100950000Y-75920000D03*
%TO.P,J3,15,SCL_15*%
%TO.N,unconnected-(J3-SCL-Pad15)*%
X101450000Y-75920000D03*
%TO.P,J3,16,SDA_16*%
%TO.N,unconnected-(J3-SDA-Pad16)*%
X101950000Y-75920000D03*
%TO.P,J3,17,GND_17*%
%TO.N,GND*%
X102450000Y-75920000D03*
%TO.P,J3,18,+5V_18*%
%TO.N,VBUS*%
X102950000Y-75920000D03*
%TO.P,J3,19,HPD_19*%
%TO.N,Net-(J3-HPD)*%
X103450000Y-75920000D03*
D25*
%TO.P,J3,SH,SH_SH*%
%TO.N,GND*%
X91700000Y-75160000D03*
X106200000Y-75160000D03*
D26*
X91700000Y-69200000D03*
X106200000Y-69200000D03*
%TD*%
D10*
%TO.P,R26,1*%
%TO.N,/GPIO18*%
X93575000Y-83765000D03*
%TO.P,R26,2*%
%TO.N,Net-(J3-D2-)*%
X93575000Y-82115000D03*
%TD*%
D13*
%TO.P,TP4,1,1_1*%
%TO.N,GND*%
X152000000Y-72200000D03*
%TD*%
D17*
%TO.P,R6,1*%
%TO.N,/QSPI_SS*%
X118510000Y-89500000D03*
%TO.P,R6,2*%
%TO.N,/~{USB_BOOT}*%
X117490000Y-89500000D03*
%TD*%
D27*
%TO.P,SW4,1,1_1*%
%TO.N,/RUN*%
X131250000Y-98780000D03*
%TO.P,SW4,2,2_2*%
X135450000Y-98780000D03*
%TO.P,SW4,3,3_3*%
%TO.N,Net-(R4-Pad1)*%
X131250000Y-100920000D03*
%TO.P,SW4,4,4_4*%
X135450000Y-100920000D03*
%TD*%
D28*
%TO.P,R33,1*%
%TO.N,Net-(J3-HPD)*%
X104300000Y-79890000D03*
%TO.P,R33,2*%
%TO.N,/HDMI_HPD*%
X104300000Y-80910000D03*
%TD*%
D29*
%TO.P,C22,1*%
%TO.N,/GATE_NODE*%
X143720000Y-86850000D03*
%TO.P,C22,2*%
%TO.N,GND*%
X142760000Y-86850000D03*
%TD*%
D13*
%TO.P,TP2,1,1_1*%
%TO.N,/SUM_NODE*%
X139950000Y-79850000D03*
%TD*%
D17*
%TO.P,R5,1*%
%TO.N,+3V3*%
X129010000Y-85750000D03*
%TO.P,R5,2*%
%TO.N,/VREG_AVDD*%
X127990000Y-85750000D03*
%TD*%
%TO.P,R36,1*%
%TO.N,+3V3*%
X106647500Y-107590000D03*
%TO.P,R36,2*%
%TO.N,Net-(Card1-DAT1)*%
X105627500Y-107590000D03*
%TD*%
D12*
%TO.P,R4,1*%
%TO.N,Net-(R4-Pad1)*%
X129500000Y-101060000D03*
%TO.P,R4,2*%
%TO.N,GND*%
X129500000Y-100040000D03*
%TD*%
D17*
%TO.P,R24,1*%
%TO.N,/GATE_NODE*%
X144462500Y-85150000D03*
%TO.P,R24,2*%
%TO.N,/GP_VDAC_GATE*%
X143442500Y-85150000D03*
%TD*%
D13*
%TO.P,TP1,1,1_1*%
%TO.N,/GATE_NODE*%
X149650000Y-81350000D03*
%TD*%
D30*
%TO.P,D6,1,A_1*%
%TO.N,GND*%
X147000000Y-81825000D03*
%TO.P,D6,2,K_2*%
%TO.N,+3.3VDAC*%
X145100000Y-81825000D03*
%TO.P,D6,3,COM_3*%
%TO.N,/GATE_NODE*%
X146050000Y-83700000D03*
%TD*%
D29*
%TO.P,C8,1*%
%TO.N,+1V1*%
X118230000Y-92100000D03*
%TO.P,C8,2*%
%TO.N,GND*%
X117270000Y-92100000D03*
%TD*%
D17*
%TO.P,R20,1*%
%TO.N,Net-(R19-Pad2)*%
X139302500Y-86350000D03*
%TO.P,R20,2*%
%TO.N,/GP_VDAC_SUM1*%
X138282500Y-86350000D03*
%TD*%
D31*
%TO.P,U1,1,IOVDD_1*%
%TO.N,+3V3*%
X119992496Y-90262500D03*
D32*
%TO.P,U1,2,GPIO0_2*%
%TO.N,/GPIO0*%
X119992496Y-90662500D03*
%TO.P,U1,3,GPIO1_3*%
%TO.N,/CARD_CD*%
X119992496Y-91062500D03*
%TO.P,U1,4,GPIO2_4*%
%TO.N,/CARD_DAT0*%
X119992496Y-91462500D03*
%TO.P,U1,5,GPIO3_5*%
%TO.N,/CARD_CLX*%
X119992496Y-91862500D03*
%TO.P,U1,6,DVDD_6*%
%TO.N,+1V1*%
X119992496Y-92262500D03*
%TO.P,U1,7,GPIO4_7*%
%TO.N,/CARD_CMD*%
X119992496Y-92662500D03*
%TO.P,U1,8,GPIO5_8*%
%TO.N,/CARD_CD_DAT3*%
X119992496Y-93062500D03*
%TO.P,U1,9,GPIO6_9*%
%TO.N,/NES_CLOCK*%
X119992496Y-93462500D03*
%TO.P,U1,10,GPIO7_10*%
%TO.N,/NES_LATCH*%
X119992496Y-93862500D03*
%TO.P,U1,11,IOVDD_11*%
%TO.N,+3V3*%
X119992496Y-94262500D03*
%TO.P,U1,12,GPIO8_12*%
%TO.N,/NES_DATA_1*%
X119992496Y-94662500D03*
%TO.P,U1,13,GPIO9_13*%
%TO.N,/NES_DATA_2*%
X119992496Y-95062500D03*
%TO.P,U1,14,GPIO10_14*%
%TO.N,unconnected-(U1-GPIO10-Pad14)*%
X119992496Y-95462500D03*
D33*
%TO.P,U1,15,GPIO11_15*%
%TO.N,/HDMI_HPD*%
X119992496Y-95862500D03*
D34*
%TO.P,U1,16,GPIO12_16*%
%TO.N,/GPIO12*%
X120629996Y-96500000D03*
D35*
%TO.P,U1,17,GPIO13_17*%
%TO.N,/GPIO13*%
X121029996Y-96500000D03*
%TO.P,U1,18,GPIO14_18*%
%TO.N,/GPIO14*%
X121429996Y-96500000D03*
%TO.P,U1,19,GPIO15_19*%
%TO.N,/GPIO15*%
X121829996Y-96500000D03*
%TO.P,U1,20,IOVDD_20*%
%TO.N,+3V3*%
X122229996Y-96500000D03*
%TO.P,U1,21,XIN_21*%
%TO.N,/XIN*%
X122629996Y-96500000D03*
%TO.P,U1,22,XOUT_22*%
%TO.N,/XOUT*%
X123029996Y-96500000D03*
%TO.P,U1,23,DVDD_23*%
%TO.N,+1V1*%
X123429996Y-96500000D03*
%TO.P,U1,24,SWCLK_24*%
%TO.N,/SWCLK*%
X123829996Y-96500000D03*
%TO.P,U1,25,SWD_25*%
%TO.N,/SWD*%
X124229996Y-96500000D03*
%TO.P,U1,26,RUN_26*%
%TO.N,/RUN*%
X124629996Y-96500000D03*
%TO.P,U1,27,GPIO16_27*%
%TO.N,/GPIO16*%
X125029996Y-96500000D03*
%TO.P,U1,28,GPIO17_28*%
%TO.N,/GPIO17*%
X125429996Y-96500000D03*
%TO.P,U1,29,GPIO18_29*%
%TO.N,/GPIO18*%
X125829996Y-96500000D03*
D36*
%TO.P,U1,30,IOVDD_30*%
%TO.N,+3V3*%
X126229996Y-96500000D03*
D37*
%TO.P,U1,31,GPIO19_31*%
%TO.N,/GPIO19*%
X126867496Y-95862500D03*
D32*
%TO.P,U1,32,GPIO20_32*%
%TO.N,/RST_BTN*%
X126867496Y-95462500D03*
%TO.P,U1,33,GPIO21_33*%
%TO.N,/PWR_LED*%
X126867496Y-95062500D03*
%TO.P,U1,34,GPIO22_34*%
%TO.N,unconnected-(U1-GPIO22-Pad34)*%
X126867496Y-94662500D03*
%TO.P,U1,35,GPIO23_35*%
%TO.N,/GP_ADAC_IN*%
X126867496Y-94262500D03*
%TO.P,U1,36,GPIO24_36*%
%TO.N,/GP_VDAC_SUM0*%
X126867496Y-93862500D03*
%TO.P,U1,37,GPIO25_37*%
%TO.N,/GP_VDAC_SUM1*%
X126867496Y-93462500D03*
%TO.P,U1,38,IOVDD_38*%
%TO.N,+3V3*%
X126867496Y-93062500D03*
%TO.P,U1,39,DVDD_39*%
%TO.N,+1V1*%
X126867496Y-92662500D03*
%TO.P,U1,40,GPIO26_ADC0_40*%
%TO.N,/GP_VDAC_SUM2*%
X126867496Y-92262500D03*
%TO.P,U1,41,GPIO27_ADC1_41*%
%TO.N,/GP_VDAC_SUM3*%
X126867496Y-91862500D03*
%TO.P,U1,42,GPIO28_ADC2_42*%
%TO.N,/GP_VDAC_GATE*%
X126867496Y-91462500D03*
%TO.P,U1,43,GPIO29_ADC3_43*%
%TO.N,unconnected-(U1-GPIO29_ADC3-Pad43)*%
X126867496Y-91062500D03*
%TO.P,U1,44,ADC_AVDD_44*%
%TO.N,+3V3*%
X126867496Y-90662500D03*
D38*
%TO.P,U1,45,IOVDD_45*%
X126867496Y-90262500D03*
D39*
%TO.P,U1,46,VREG_AVDD_46*%
%TO.N,/VREG_AVDD*%
X126229996Y-89625000D03*
D35*
%TO.P,U1,47,VREG_PGND_47*%
%TO.N,GND*%
X125829996Y-89625000D03*
%TO.P,U1,48,VREG_LX_48*%
%TO.N,/VREG_LX*%
X125429996Y-89625000D03*
%TO.P,U1,49,VREG_VIN_49*%
%TO.N,+3V3*%
X125029996Y-89625000D03*
%TO.P,U1,50,VREG_FB_50*%
%TO.N,+1V1*%
X124629996Y-89625000D03*
%TO.P,U1,51,USB_DM_51*%
%TO.N,Net-(U1-USB_DM)*%
X124229996Y-89625000D03*
%TO.P,U1,52,USB_DP_52*%
%TO.N,Net-(U1-USB_DP)*%
X123829996Y-89625000D03*
%TO.P,U1,53,USB_OTP_VDD_53*%
%TO.N,+3V3*%
X123429996Y-89625000D03*
%TO.P,U1,54,QSPI_IOVDD_54*%
X123029996Y-89625000D03*
%TO.P,U1,55,QSPI_SD3_55*%
%TO.N,/QSPI_SD3*%
X122629996Y-89625000D03*
%TO.P,U1,56,QSPI_SCLK_56*%
%TO.N,/QSPI_SCLK*%
X122229996Y-89625000D03*
%TO.P,U1,57,QSPI_SD0_57*%
%TO.N,/QSPI_SD0*%
X121829996Y-89625000D03*
%TO.P,U1,58,QSPI_SD2_58*%
%TO.N,/QSPI_SD2*%
X121429996Y-89625000D03*
%TO.P,U1,59,QSPI_SD1_59*%
%TO.N,/QSPI_SD1*%
X121029996Y-89625000D03*
D40*
%TO.P,U1,60,QSPI_SS_60*%
%TO.N,/QSPI_SS*%
X120629996Y-89625000D03*
D41*
%TO.P,U1,61,GND_61*%
%TO.N,GND*%
X122054996Y-91687500D03*
X122054996Y-93062500D03*
X122054996Y-94437500D03*
X123429996Y-91687500D03*
X123429996Y-93062500D03*
D42*
X123429996Y-93062500D03*
D41*
X123429996Y-94437500D03*
X124804996Y-91687500D03*
X124804996Y-93062500D03*
X124804996Y-94437500D03*
%TD*%
D43*
%TO.P,C27,1*%
%TO.N,GND*%
X134390000Y-70650000D03*
%TO.P,C27,2*%
%TO.N,VBUS*%
X135350000Y-70650000D03*
%TD*%
D44*
%TO.P,Q1,1,G_1*%
%TO.N,/VDAC_OUT*%
X149040000Y-86850000D03*
%TO.P,Q1,2,S_2*%
%TO.N,GND*%
X149040000Y-84950000D03*
%TO.P,Q1,3,D_3*%
%TO.N,/GATE_NODE*%
X147165000Y-85900000D03*
%TD*%
D45*
%TO.P,Y1,1,1_1*%
%TO.N,/XIN*%
X120600000Y-102650000D03*
%TO.P,Y1,2,2_2*%
%TO.N,GND*%
X122800000Y-102650000D03*
%TO.P,Y1,3,3_3*%
%TO.N,Net-(C4-Pad1)*%
X122800000Y-100950000D03*
%TO.P,Y1,4,4_4*%
%TO.N,GND*%
X120600000Y-100950000D03*
%TD*%
D28*
%TO.P,R7,1*%
%TO.N,/USB_D+*%
X123550000Y-86140000D03*
%TO.P,R7,2*%
%TO.N,Net-(U1-USB_DP)*%
X123550000Y-87160000D03*
%TD*%
%TO.P,R12,1*%
%TO.N,Net-(J1-CC2)*%
X124350000Y-73490000D03*
%TO.P,R12,2*%
%TO.N,GND*%
X124350000Y-74510000D03*
%TD*%
D46*
%TO.P,TP5,1,1_1*%
%TO.N,/VDAC_OUT*%
X149100000Y-76100000D03*
%TD*%
D30*
%TO.P,D2,1,A_1*%
%TO.N,GND*%
X136800000Y-87212500D03*
%TO.P,D2,2,K_2*%
%TO.N,+3.3VDAC*%
X134900000Y-87212500D03*
%TO.P,D2,3,COM_3*%
%TO.N,/GP_VDAC_SUM1*%
X135850000Y-89087500D03*
%TD*%
D13*
%TO.P,TP8,1,1_1*%
%TO.N,/NES_CLOCK*%
X114000000Y-113000000D03*
%TD*%
D12*
%TO.P,R11,1*%
%TO.N,GND*%
X127950000Y-74460000D03*
%TO.P,R11,2*%
%TO.N,Net-(J1-CC1)*%
X127950000Y-73440000D03*
%TD*%
D19*
%TO.P,R14,1*%
%TO.N,/GP_ADAC_IN*%
X139040000Y-100160000D03*
%TO.P,R14,2*%
%TO.N,/AUD_A*%
X140060000Y-100160000D03*
%TD*%
D13*
%TO.P,TP6,1,1_1*%
%TO.N,+3.3VDAC*%
X152000000Y-68600000D03*
%TD*%
D47*
%TO.P,C26,1*%
%TO.N,+3.3VDAC*%
X141075000Y-66750000D03*
%TO.P,C26,2*%
%TO.N,GND*%
X142625000Y-66750000D03*
%TD*%
D13*
%TO.P,TP7,1,1_1*%
%TO.N,GND*%
X70200000Y-75000000D03*
%TD*%
D48*
%TO.P,D5,1,A_1*%
%TO.N,GND*%
X148900000Y-91825000D03*
%TO.P,D5,2,K_2*%
%TO.N,+3.3VDAC*%
X150800000Y-91825000D03*
%TO.P,D5,3,COM_3*%
%TO.N,/VDAC_OUT*%
X149850000Y-89950000D03*
%TD*%
D17*
%TO.P,R37,1*%
%TO.N,+3V3*%
X106937500Y-115240000D03*
%TO.P,R37,2*%
%TO.N,/CARD_CD_DAT3*%
X105917500Y-115240000D03*
%TD*%
D30*
%TO.P,D1,1,A_1*%
%TO.N,GND*%
X136800000Y-91512500D03*
%TO.P,D1,2,K_2*%
%TO.N,+3.3VDAC*%
X134900000Y-91512500D03*
%TO.P,D1,3,COM_3*%
%TO.N,/GP_VDAC_SUM0*%
X135850000Y-93387500D03*
%TD*%
D19*
%TO.P,R39,1*%
%TO.N,Net-(R25-Pad1)*%
X140100000Y-81650000D03*
%TO.P,R39,2*%
%TO.N,/SUM_NODE*%
X141120000Y-81650000D03*
%TD*%
D43*
%TO.P,C4,1*%
%TO.N,Net-(C4-Pad1)*%
X124320000Y-100400000D03*
%TO.P,C4,2*%
%TO.N,GND*%
X125280000Y-100400000D03*
%TD*%
D19*
%TO.P,R21,1*%
%TO.N,GND*%
X144780000Y-89100000D03*
%TO.P,R21,2*%
%TO.N,/VDAC_OUT*%
X145800000Y-89100000D03*
%TD*%
D49*
%TO.P,AV1,1,1_1*%
%TO.N,GND*%
X158750000Y-101800000D03*
D50*
%TO.P,AV1,2,2_2*%
%TO.N,/ADAC_OUT*%
X154850000Y-101800000D03*
%TD*%
D19*
%TO.P,R38,1*%
%TO.N,Net-(R3-Pad1)*%
X140142500Y-88700000D03*
%TO.P,R38,2*%
%TO.N,/SUM_NODE*%
X141162500Y-88700000D03*
%TD*%
D51*
%TO.P,SW3,1,1_1*%
%TO.N,/~{USB_BOOT}*%
X115500000Y-89550000D03*
%TO.P,SW3,2,2_2*%
X115500000Y-93750000D03*
%TO.P,SW3,3,3_3*%
%TO.N,GND*%
X113360000Y-89550000D03*
%TO.P,SW3,4,4_4*%
X113360000Y-93750000D03*
%TD*%
D28*
%TO.P,R2,1*%
%TO.N,/XOUT*%
X123350000Y-98590000D03*
%TO.P,R2,2*%
%TO.N,Net-(C4-Pad1)*%
X123350000Y-99610000D03*
%TD*%
D52*
%TO.P,J1,*%
%TO.N,*%
X129400000Y-70732456D03*
X123600000Y-70732456D03*
D53*
%TO.P,J1,1,EH_1*%
%TO.N,GND*%
X122170000Y-71232456D03*
D54*
%TO.P,J1,2,EH_2*%
X122170000Y-67052456D03*
%TO.P,J1,3,EH_3*%
X130830000Y-67052456D03*
D53*
%TO.P,J1,4,EH_4*%
X130830000Y-71232456D03*
D55*
%TO.P,J1,A1B12,GND_A1B12*%
X129700000Y-71992456D03*
D56*
%TO.P,J1,A4B9,VBUS_A4B9*%
%TO.N,/VBUS_RAW*%
X128900000Y-71992456D03*
D57*
%TO.P,J1,A5,CC1_A5*%
%TO.N,Net-(J1-CC1)*%
X127750000Y-71992456D03*
%TO.P,J1,A6,DP1_A6*%
%TO.N,/USB_D+*%
X126750000Y-71992456D03*
%TO.P,J1,A7,DN1_A7*%
%TO.N,/USB_D-*%
X126250000Y-71992456D03*
%TO.P,J1,A8,SBU1_A8*%
%TO.N,unconnected-(J1-SBU1-PadA8)*%
X125250000Y-71992456D03*
D58*
%TO.P,J1,B1A12,GND_B1A12*%
%TO.N,GND*%
X123300000Y-71992456D03*
%TO.P,J1,B4A9,VBUS_B4A9*%
%TO.N,/VBUS_RAW*%
X124100000Y-71992456D03*
D57*
%TO.P,J1,B5,CC2_B5*%
%TO.N,Net-(J1-CC2)*%
X124750000Y-71992456D03*
%TO.P,J1,B6,DP2_B6*%
%TO.N,/USB_D+*%
X125750000Y-71992456D03*
%TO.P,J1,B7,DN2_B7*%
%TO.N,/USB_D-*%
X127250000Y-71992456D03*
%TO.P,J1,B8,SBU2_B8*%
%TO.N,unconnected-(J1-SBU2-PadB8)*%
X128250000Y-71992456D03*
%TD*%
D17*
%TO.P,R17,1*%
%TO.N,/VDAC_OUT*%
X145800000Y-88100000D03*
%TO.P,R17,2*%
%TO.N,Net-(R17-Pad2)*%
X144780000Y-88100000D03*
%TD*%
D10*
%TO.P,R30,1*%
%TO.N,/GPIO14*%
X99925000Y-83740000D03*
%TO.P,R30,2*%
%TO.N,Net-(J3-D0-)*%
X99925000Y-82090000D03*
%TD*%
D49*
%TO.P,AV2,1,1_1*%
%TO.N,GND*%
X158750000Y-82750000D03*
D50*
%TO.P,AV2,2,2_2*%
%TO.N,/VDAC_OUT*%
X154850000Y-82750000D03*
%TD*%
D47*
%TO.P,C29,1*%
%TO.N,+3V3*%
X105662500Y-113190000D03*
%TO.P,C29,2*%
%TO.N,GND*%
X107212500Y-113190000D03*
%TD*%
D43*
%TO.P,C30,1*%
%TO.N,+3V3*%
X105977500Y-110290000D03*
%TO.P,C30,2*%
%TO.N,GND*%
X106937500Y-110290000D03*
%TD*%
D59*
%TO.P,U3,1,~{CS}_1*%
%TO.N,/QSPI_SS*%
X112912500Y-81995000D03*
%TO.P,U3,2,DO(IO1)_2*%
%TO.N,/QSPI_SD1*%
X112912500Y-83265000D03*
%TO.P,U3,3,IO2_3*%
%TO.N,/QSPI_SD2*%
X112912500Y-84535000D03*
%TO.P,U3,4,GND_4*%
%TO.N,GND*%
X112912500Y-85805000D03*
%TO.P,U3,5,DI(IO0)_5*%
%TO.N,/QSPI_SD0*%
X120087500Y-85805000D03*
%TO.P,U3,6,CLK_6*%
%TO.N,/QSPI_SCLK*%
X120087500Y-84535000D03*
%TO.P,U3,7,IO3_7*%
%TO.N,/QSPI_SD3*%
X120087500Y-83265000D03*
%TO.P,U3,8,VCC_8*%
%TO.N,+3V3*%
X120087500Y-81995000D03*
%TD*%
D13*
%TO.P,TP3,1,1_1*%
%TO.N,+3V3*%
X73400000Y-75000000D03*
%TD*%
%TO.P,TP9,1,1_1*%
%TO.N,/NES_LATCH*%
X116800000Y-112400000D03*
%TD*%
D30*
%TO.P,D3,1,A_1*%
%TO.N,GND*%
X136800000Y-83162500D03*
%TO.P,D3,2,K_2*%
%TO.N,+3.3VDAC*%
X134900000Y-83162500D03*
%TO.P,D3,3,COM_3*%
%TO.N,/GP_VDAC_SUM2*%
X135850000Y-85037500D03*
%TD*%
D60*
%TO.P,J4,1,Pin_1_1*%
%TO.N,/SWCLK*%
X138750000Y-106200000D03*
%TO.P,J4,2,Pin_2_2*%
%TO.N,GND*%
X138750000Y-107200000D03*
%TO.P,J4,3,Pin_3_3*%
%TO.N,/SWD*%
X138750000Y-108200000D03*
D61*
%TO.P,J4,MP,MountPin_MP*%
%TO.N,GND*%
X134875000Y-104900000D03*
X134875000Y-109500000D03*
%TD*%
D62*
%TO.P,C23,1*%
%TO.N,/AUD_B*%
X144850000Y-100060000D03*
%TO.P,C23,2*%
%TO.N,/ADAC_OUT*%
X150450000Y-100060000D03*
%TD*%
D10*
%TO.P,R10,1*%
%TO.N,/GPIO19*%
X91975000Y-83765000D03*
%TO.P,R10,2*%
%TO.N,Net-(J3-D2+)*%
X91975000Y-82115000D03*
%TD*%
D63*
%TO.P,C21,1*%
%TO.N,+3.3VDAC*%
X142550000Y-93000000D03*
%TO.P,C21,2*%
%TO.N,GND*%
X144450000Y-93000000D03*
%TD*%
D11*
%TO.P,C28,1*%
%TO.N,GND*%
X132070000Y-72022456D03*
%TO.P,C28,2*%
%TO.N,VBUS*%
X132070000Y-72982456D03*
%TD*%
D12*
%TO.P,R15,1*%
%TO.N,/ADAC_OUT*%
X151900000Y-98410000D03*
%TO.P,R15,2*%
%TO.N,GND*%
X151900000Y-97390000D03*
%TD*%
D47*
%TO.P,C1,1*%
%TO.N,GND*%
X134125000Y-68350000D03*
%TO.P,C1,2*%
%TO.N,VBUS*%
X135675000Y-68350000D03*
%TD*%
D17*
%TO.P,R22,1*%
%TO.N,/SUM_NODE*%
X141122500Y-84050000D03*
%TO.P,R22,2*%
%TO.N,Net-(R22-Pad2)*%
X140102500Y-84050000D03*
%TD*%
D19*
%TO.P,R16,1*%
%TO.N,/AUD_A*%
X140990000Y-100160000D03*
%TO.P,R16,2*%
%TO.N,/AUD_B*%
X142010000Y-100160000D03*
%TD*%
D47*
%TO.P,C5,1*%
%TO.N,+3V3*%
X117675000Y-74900000D03*
%TO.P,C5,2*%
%TO.N,GND*%
X119225000Y-74900000D03*
%TD*%
D10*
%TO.P,R32,1*%
%TO.N,/GPIO12*%
X103075000Y-83740000D03*
%TO.P,R32,2*%
%TO.N,Net-(J3-CK-)*%
X103075000Y-82090000D03*
%TD*%
D64*
%TO.P,L1,1,1_1*%
%TO.N,+1V1*%
X125950000Y-85200000D03*
%TO.P,L1,2,2_2*%
%TO.N,/VREG_LX*%
X125950000Y-83200000D03*
%TD*%
D17*
%TO.P,R3,1*%
%TO.N,Net-(R3-Pad1)*%
X139272500Y-88700000D03*
%TO.P,R3,2*%
%TO.N,/GP_VDAC_SUM0*%
X138252500Y-88700000D03*
%TD*%
D65*
%TO.P,Card1,*%
%TO.N,*%
X92750000Y-109750000D03*
X92750000Y-117750000D03*
D66*
%TO.P,Card1,1,DAT2_1*%
%TO.N,Net-(Card1-DAT2)*%
X103750000Y-116950000D03*
%TO.P,Card1,2,CD/DAT3_2*%
%TO.N,/CARD_CD_DAT3*%
X103750000Y-115850000D03*
%TO.P,Card1,3,CMD_3*%
%TO.N,/CARD_CMD*%
X103750000Y-114750000D03*
%TO.P,Card1,4,VDD_4*%
%TO.N,+3V3*%
X103750000Y-113650000D03*
%TO.P,Card1,5,CLX_5*%
%TO.N,/CARD_CLX*%
X103750000Y-112550000D03*
%TO.P,Card1,6,VSS_6*%
%TO.N,GND*%
X103750000Y-111450000D03*
%TO.P,Card1,7,DAT0_7*%
%TO.N,/CARD_DAT0*%
X103750000Y-110350000D03*
%TO.P,Card1,8,DAT1_8*%
%TO.N,Net-(Card1-DAT1)*%
X103750000Y-109250000D03*
D67*
%TO.P,Card1,10,10_10*%
%TO.N,GND*%
X102750000Y-106950000D03*
D68*
%TO.P,Card1,11,11_11*%
X93150000Y-106950000D03*
%TO.P,Card1,12,12_12*%
X93150000Y-122450000D03*
D69*
%TO.P,Card1,13,13_13*%
X102750000Y-121550000D03*
D66*
%TO.P,Card1,CD,CD_CD*%
%TO.N,/CARD_CD*%
X103750000Y-108150000D03*
%TD*%
D17*
%TO.P,R23,1*%
%TO.N,Net-(R22-Pad2)*%
X139212500Y-84050000D03*
%TO.P,R23,2*%
%TO.N,/GP_VDAC_SUM2*%
X138192500Y-84050000D03*
%TD*%
D28*
%TO.P,R34,1*%
%TO.N,Net-(J3-HPD)*%
X106050000Y-79940000D03*
%TO.P,R34,2*%
%TO.N,GND*%
X106050000Y-80960000D03*
%TD*%
%TO.P,R8,1*%
%TO.N,/USB_D-*%
X124600000Y-86140000D03*
%TO.P,R8,2*%
%TO.N,Net-(U1-USB_DM)*%
X124600000Y-87160000D03*
%TD*%
D17*
%TO.P,R19,1*%
%TO.N,/SUM_NODE*%
X141202500Y-86350000D03*
%TO.P,R19,2*%
%TO.N,Net-(R19-Pad2)*%
X140182500Y-86350000D03*
%TD*%
D10*
%TO.P,R31,1*%
%TO.N,/GPIO13*%
X101525000Y-83740000D03*
%TO.P,R31,2*%
%TO.N,Net-(J3-CK+)*%
X101525000Y-82090000D03*
%TD*%
%TO.P,R28,1*%
%TO.N,/GPIO16*%
X96775000Y-83765000D03*
%TO.P,R28,2*%
%TO.N,Net-(J3-D1-)*%
X96775000Y-82115000D03*
%TD*%
D17*
%TO.P,R18,1*%
%TO.N,Net-(R17-Pad2)*%
X143910000Y-88100000D03*
%TO.P,R18,2*%
%TO.N,/SUM_NODE*%
X142890000Y-88100000D03*
%TD*%
D43*
%TO.P,C9,1*%
%TO.N,/VREG_AVDD*%
X128070000Y-86950000D03*
%TO.P,C9,2*%
%TO.N,GND*%
X129030000Y-86950000D03*
%TD*%
D17*
%TO.P,R35,1*%
%TO.N,+3V3*%
X107097500Y-117740000D03*
%TO.P,R35,2*%
%TO.N,Net-(Card1-DAT2)*%
X106077500Y-117740000D03*
%TD*%
D29*
%TO.P,C20,1*%
%TO.N,GND*%
X118580000Y-72550000D03*
%TO.P,C20,2*%
%TO.N,VBUS*%
X117620000Y-72550000D03*
%TD*%
D14*
%TO.P,C25,1*%
%TO.N,/AUD_B*%
X142100000Y-98970000D03*
%TO.P,C25,2*%
%TO.N,GND*%
X142100000Y-98010000D03*
%TD*%
D30*
%TO.P,D4,1,A_1*%
%TO.N,GND*%
X136900000Y-79262500D03*
%TO.P,D4,2,K_2*%
%TO.N,+3.3VDAC*%
X135000000Y-79262500D03*
%TO.P,D4,3,COM_3*%
%TO.N,/GP_VDAC_SUM3*%
X135950000Y-81137500D03*
%TD*%
D70*
%TO.P,U8,1,PWR_SW_A_1*%
%TO.N,/VBUS_RAW*%
X86250000Y-69650000D03*
D71*
%TO.P,U8,2,PWR_SW_B_2*%
%TO.N,VBUS*%
X78750000Y-69650000D03*
%TO.P,U8,3,RST_VCC_3*%
%TO.N,+3V3*%
X73750000Y-69650000D03*
%TO.P,U8,4,RST_OUT_4*%
%TO.N,/RST_BTN*%
X68750000Y-69650000D03*
%TO.P,U8,5,LED_K_5*%
%TO.N,Net-(U8-LED_K)*%
X63750000Y-69650000D03*
%TD*%
D72*
%TO.N,GND*%
X69400000Y-77100000D03*
D73*
X120770001Y-67352456D03*
D72*
X102100000Y-111400000D03*
X106750000Y-81600000D03*
X124200000Y-102450000D03*
X142600000Y-86100000D03*
D73*
X132193685Y-70515645D03*
X131970000Y-67002456D03*
D72*
X133700000Y-69900000D03*
X129606801Y-89956801D03*
X116933885Y-91983885D03*
X146950000Y-80150000D03*
X118950000Y-73400000D03*
D74*
X120150000Y-75550000D03*
D72*
X121600000Y-99750000D03*
X138150000Y-78950000D03*
X104500000Y-70000000D03*
X121600000Y-101850000D03*
X102500000Y-78400000D03*
X136250000Y-111200000D03*
X144300000Y-89550000D03*
X103900000Y-121150000D03*
X148800000Y-93200000D03*
X124150000Y-99300000D03*
D74*
X122450000Y-72800000D03*
D72*
X141350000Y-97450000D03*
X140200000Y-107200000D03*
X137450000Y-86450000D03*
X107729720Y-110279720D03*
X100950000Y-107000000D03*
X130350000Y-99800000D03*
X96400000Y-78000000D03*
X124650000Y-99350000D03*
X93400000Y-69200000D03*
X95050000Y-121100000D03*
X151950000Y-96550000D03*
X121350000Y-86800000D03*
D73*
X120770001Y-70852456D03*
D72*
X121200827Y-99400827D03*
X130450000Y-92750000D03*
X137600000Y-82750000D03*
X126050000Y-86150000D03*
X93100000Y-74000000D03*
D74*
X133800000Y-67250000D03*
D72*
X124400000Y-101100000D03*
X131600000Y-118100000D03*
X130100000Y-88250000D03*
X94600000Y-78100000D03*
X137702500Y-90450000D03*
D74*
X118283795Y-79590443D03*
X143750000Y-67350000D03*
D72*
X127650000Y-76350000D03*
X125850000Y-90350000D03*
X129450000Y-93412500D03*
X157000000Y-104800000D03*
X140900000Y-102650000D03*
D74*
X117450000Y-76950000D03*
D72*
X132700000Y-71450000D03*
X97900000Y-78000000D03*
X112650000Y-89450000D03*
X130267019Y-73617018D03*
X114300000Y-85650000D03*
X150300000Y-71900000D03*
X149400000Y-83550000D03*
X144850000Y-91650000D03*
X122600000Y-86000000D03*
X135650000Y-103550000D03*
X113750000Y-118200000D03*
X99475000Y-78000000D03*
X117190000Y-94500000D03*
X158700000Y-85500000D03*
X108250000Y-113200000D03*
X129600000Y-86900000D03*
X116750000Y-90000000D03*
D74*
X143600000Y-66550000D03*
D72*
X124400000Y-75300000D03*
X95250000Y-107050000D03*
D74*
X130500000Y-72800000D03*
D72*
X112600000Y-93350000D03*
%TO.N,+3.3VDAC*%
X133950000Y-83050000D03*
D74*
X140000000Y-66700000D03*
D72*
X150100000Y-68500000D03*
X150700000Y-93300000D03*
X133750000Y-87200000D03*
X133850000Y-91350000D03*
X133900000Y-79300000D03*
D74*
X143000000Y-75650000D03*
D72*
X141200000Y-93050000D03*
X145100000Y-80150000D03*
X142000000Y-91650000D03*
%TO.N,+3V3*%
X123031704Y-88226975D03*
X121600000Y-81850000D03*
X123379996Y-88550000D03*
%TO.N,GND*%
X104700000Y-75700000D03*
%TO.N,+3V3*%
X128100000Y-84950000D03*
X105600000Y-114300000D03*
D74*
X118050000Y-75850000D03*
D72*
X105200000Y-110600000D03*
X127650000Y-90500000D03*
X122179996Y-97650000D03*
X127050000Y-97000000D03*
X139800000Y-118300000D03*
D74*
X117150000Y-76200000D03*
D72*
X128350000Y-94712500D03*
X122250000Y-118100000D03*
X125100000Y-90300000D03*
X126000000Y-93450000D03*
D74*
X107600000Y-74500000D03*
D72*
X76200000Y-75000000D03*
X126600000Y-96900000D03*
X107950000Y-117750000D03*
X77300000Y-74600000D03*
D74*
X118300000Y-80550000D03*
D72*
X127450000Y-89650000D03*
X101850000Y-113850000D03*
X119150000Y-94312500D03*
X120778861Y-98550000D03*
X119400000Y-89950000D03*
X128300000Y-88250000D03*
X127900000Y-90900000D03*
X107400000Y-107600000D03*
X107650000Y-114800000D03*
%TO.N,/NES_CLOCK*%
X117693092Y-95303070D03*
X115750000Y-114500000D03*
%TO.N,/NES_LATCH*%
X135500000Y-118200000D03*
X118000000Y-118450000D03*
X118150000Y-95100000D03*
X117800000Y-114450000D03*
%TO.N,/NES_DATA_1*%
X119400000Y-114550000D03*
X118600000Y-94850000D03*
%TO.N,/USB_D+*%
X126250000Y-70650000D03*
X129550000Y-75700000D03*
%TO.N,VBUS*%
X136100000Y-67250000D03*
X102000000Y-72500000D03*
D74*
X132800000Y-72950000D03*
D72*
X132350000Y-73950000D03*
D74*
X136250000Y-70550000D03*
D72*
X137950000Y-67150000D03*
D74*
X116950000Y-71700000D03*
D72*
%TO.N,/NES_DATA_2*%
X120800000Y-95150000D03*
%TO.N,/RST_BTN*%
X70400000Y-71400000D03*
X126100000Y-95450000D03*
%TO.N,/RUN*%
X126750000Y-99250000D03*
X130250000Y-98800000D03*
%TO.N,+1V1*%
X123400000Y-95750000D03*
X124679996Y-88473199D03*
X127950000Y-92700000D03*
%TO.N,/CARD_CD*%
X104150000Y-107350000D03*
X116650000Y-90500000D03*
%TO.N,/CARD_DAT0*%
X116970094Y-90953864D03*
X104850124Y-109780074D03*
%TO.N,/CARD_CLX*%
X104730074Y-112100124D03*
X118300000Y-91403864D03*
%TO.N,/CARD_CMD*%
X104800000Y-114750000D03*
X116650000Y-92650000D03*
%TO.N,/CARD_CD_DAT3*%
X116915001Y-93112500D03*
X105100000Y-115600000D03*
%TO.N,/SWCLK*%
X130900000Y-105650000D03*
X125267464Y-99369077D03*
%TO.N,/SWD*%
X126150000Y-99500000D03*
X139800000Y-109050000D03*
%TO.N,/PWR_LED*%
X67800000Y-72100000D03*
X127950000Y-95350000D03*
D74*
%TO.N,/VBUS_RAW*%
X129620832Y-73202544D03*
X123200000Y-73202544D03*
%TD*%
%TO.N,GND*%
D75*
X70200000Y-76300000D02*
X69400000Y-77100000D01*
X70200000Y-75000000D02*
X70200000Y-76300000D01*
%TO.N,/GPIO15*%
D76*
X121829996Y-97363846D02*
X121093841Y-98100000D01*
X108250000Y-98100000D02*
X103400000Y-93250000D01*
X98325000Y-86025000D02*
X98325000Y-83765000D01*
X121093841Y-98100000D02*
X108250000Y-98100000D01*
X103400000Y-91100000D02*
X98325000Y-86025000D01*
X121829996Y-96500000D02*
X121829996Y-97363846D01*
X103400000Y-93250000D02*
X103400000Y-91100000D01*
%TO.N,Net-(J3-D0+)*%
X97425000Y-77600000D02*
X97425000Y-79220000D01*
X97450000Y-77575000D02*
X97425000Y-77600000D01*
X97450000Y-75920000D02*
X97450000Y-77575000D01*
X98325000Y-80120000D02*
X98325000Y-82115000D01*
X97425000Y-77275000D02*
X97425000Y-77600000D01*
X97425000Y-79220000D02*
X98325000Y-80120000D01*
%TO.N,/XIN*%
X119450000Y-102000000D02*
X119950000Y-102000000D01*
X122350000Y-98520000D02*
X122350000Y-98570000D01*
X122629996Y-98240004D02*
X122350000Y-98520000D01*
X122300000Y-98520000D02*
X121445256Y-98520000D01*
X119950000Y-102000000D02*
X120600000Y-102650000D01*
X122350000Y-98570000D02*
X122300000Y-98520000D01*
X121445256Y-98520000D02*
X119450000Y-100515256D01*
X122629996Y-96500000D02*
X122629996Y-98240004D01*
X119450000Y-100515256D02*
X119450000Y-102000000D01*
%TO.N,GND*%
D75*
X129424037Y-74460000D02*
X130267019Y-73617018D01*
D76*
X121870000Y-99480000D02*
X121600000Y-99750000D01*
D75*
X122170000Y-71232456D02*
X121150001Y-71232456D01*
X134125000Y-68350000D02*
X134125000Y-67575000D01*
D76*
X129030000Y-86950000D02*
X129550000Y-86950000D01*
D75*
X122170000Y-67052456D02*
X121070001Y-67052456D01*
D76*
X124000000Y-102650000D02*
X124200000Y-102450000D01*
D75*
X158750000Y-85450000D02*
X158700000Y-85500000D01*
X143450000Y-66700000D02*
X143600000Y-66550000D01*
X136800000Y-83162500D02*
X137187500Y-83162500D01*
X134875000Y-109825000D02*
X136250000Y-111200000D01*
D76*
X113360000Y-93750000D02*
X113360000Y-93760000D01*
X124350000Y-74510000D02*
X124350000Y-75250000D01*
D75*
X134390000Y-70590000D02*
X133700000Y-69900000D01*
D76*
X131450000Y-117950000D02*
X131600000Y-118100000D01*
D75*
X117250000Y-77150000D02*
X117450000Y-76950000D01*
X158750000Y-82750000D02*
X158750000Y-85450000D01*
X117557939Y-79590443D02*
X118283795Y-79590443D01*
X130830000Y-71232456D02*
X130990000Y-71232456D01*
D76*
X122350000Y-99530000D02*
X122300000Y-99480000D01*
D75*
X130990000Y-71232456D02*
X131706811Y-70515645D01*
X115500000Y-77150000D02*
X117250000Y-77150000D01*
X134875000Y-104325000D02*
X135650000Y-103550000D01*
X144450000Y-93000000D02*
X144450000Y-92050000D01*
D76*
X94950000Y-77750000D02*
X94600000Y-78100000D01*
D75*
X142625000Y-66750000D02*
X142675000Y-66700000D01*
D76*
X123300000Y-71992456D02*
X123257544Y-71992456D01*
D75*
X117484996Y-79517500D02*
X117557939Y-79590443D01*
X147000000Y-80200000D02*
X146950000Y-80150000D01*
X121150001Y-71232456D02*
X120770001Y-70852456D01*
D76*
X102750000Y-106950000D02*
X101000000Y-106950000D01*
D75*
X136800000Y-91512500D02*
X136800000Y-91352500D01*
X144750000Y-89100000D02*
X144300000Y-89550000D01*
X119500000Y-74900000D02*
X120150000Y-75550000D01*
X112912500Y-85805000D02*
X114145000Y-85805000D01*
D76*
X131450000Y-116050000D02*
X131450000Y-117950000D01*
X106110000Y-80960000D02*
X106750000Y-81600000D01*
X127950000Y-76650000D02*
X127650000Y-76350000D01*
X118580000Y-73030000D02*
X118950000Y-73400000D01*
D75*
X158750000Y-101800000D02*
X158750000Y-103050000D01*
X140050000Y-102070000D02*
X140320000Y-102070000D01*
X105240000Y-75160000D02*
X104700000Y-75700000D01*
X136800000Y-91352500D02*
X137702500Y-90450000D01*
X141910000Y-98010000D02*
X141350000Y-97450000D01*
X148900000Y-93100000D02*
X148800000Y-93200000D01*
D76*
X106937500Y-110290000D02*
X107719440Y-110290000D01*
X122300000Y-99480000D02*
X121870000Y-99480000D01*
X112750000Y-89550000D02*
X112650000Y-89450000D01*
X123257544Y-71992456D02*
X122450000Y-72800000D01*
D75*
X121070001Y-67052456D02*
X120770001Y-67352456D01*
D76*
X123320000Y-71544912D02*
X123320000Y-71502456D01*
D75*
X136900000Y-79262500D02*
X137837500Y-79262500D01*
D76*
X118580000Y-72550000D02*
X118580000Y-73030000D01*
X113360000Y-89550000D02*
X112750000Y-89550000D01*
D75*
X114145000Y-85805000D02*
X114300000Y-85650000D01*
D76*
X101000000Y-106950000D02*
X100950000Y-107000000D01*
X94950000Y-75920000D02*
X94950000Y-77750000D01*
X122800000Y-102650000D02*
X124000000Y-102650000D01*
D75*
X142675000Y-66700000D02*
X143450000Y-66700000D01*
X149040000Y-83910000D02*
X149400000Y-83550000D01*
X105300000Y-69200000D02*
X104500000Y-70000000D01*
D76*
X113800000Y-118150000D02*
X113750000Y-118200000D01*
D75*
X150600000Y-72200000D02*
X150300000Y-71900000D01*
X134875000Y-104900000D02*
X134875000Y-104325000D01*
D76*
X125829996Y-89625000D02*
X125829996Y-90329996D01*
X120600000Y-100950000D02*
X120700000Y-100950000D01*
X95150000Y-106950000D02*
X95250000Y-107050000D01*
X96450000Y-77950000D02*
X96400000Y-78000000D01*
X93150000Y-106950000D02*
X95150000Y-106950000D01*
X129700000Y-72000000D02*
X130500000Y-72800000D01*
D75*
X144450000Y-92050000D02*
X144850000Y-91650000D01*
X140320000Y-102070000D02*
X140900000Y-102650000D01*
X132070000Y-72022456D02*
X132127544Y-72022456D01*
D76*
X102750000Y-121550000D02*
X103500000Y-121550000D01*
X129700000Y-71992456D02*
X129700000Y-72000000D01*
D75*
X91700000Y-75160000D02*
X91940000Y-75160000D01*
X127950000Y-74460000D02*
X129424037Y-74460000D01*
D76*
X113800000Y-116250000D02*
X113800000Y-118150000D01*
D75*
X106200000Y-69200000D02*
X105300000Y-69200000D01*
X144780000Y-89100000D02*
X144750000Y-89100000D01*
X131706811Y-70515645D02*
X132193685Y-70515645D01*
X138750000Y-107200000D02*
X140200000Y-107200000D01*
X106200000Y-75160000D02*
X105240000Y-75160000D01*
X142700000Y-69070000D02*
X142700000Y-68400000D01*
D76*
X113360000Y-93760000D02*
X112950000Y-93350000D01*
X125829996Y-90329996D02*
X125850000Y-90350000D01*
D75*
X142760000Y-86850000D02*
X142760000Y-86260000D01*
X151900000Y-97390000D02*
X151900000Y-96600000D01*
X158750000Y-103050000D02*
X157000000Y-104800000D01*
X102150000Y-111450000D02*
X102100000Y-111400000D01*
D76*
X124350000Y-75250000D02*
X124400000Y-75300000D01*
D75*
X149040000Y-84950000D02*
X149040000Y-83910000D01*
D76*
X134390000Y-70650000D02*
X134250000Y-70650000D01*
X107212500Y-113190000D02*
X108240000Y-113190000D01*
D75*
X137837500Y-79262500D02*
X138150000Y-78950000D01*
X131920000Y-67052456D02*
X131970000Y-67002456D01*
D76*
X93150000Y-122450000D02*
X94500000Y-121100000D01*
X103500000Y-121550000D02*
X103900000Y-121150000D01*
X97950000Y-75920000D02*
X97950000Y-77950000D01*
X117050000Y-92100000D02*
X116933885Y-91983885D01*
X128450000Y-76650000D02*
X127950000Y-76650000D01*
X94500000Y-121100000D02*
X95050000Y-121100000D01*
X99450000Y-77975000D02*
X99475000Y-78000000D01*
D75*
X129500000Y-100040000D02*
X130110000Y-100040000D01*
X91940000Y-75160000D02*
X93100000Y-74000000D01*
X119225000Y-74900000D02*
X119500000Y-74900000D01*
X142700000Y-68400000D02*
X143750000Y-67350000D01*
X142760000Y-86260000D02*
X142600000Y-86100000D01*
X103750000Y-111450000D02*
X102150000Y-111450000D01*
D76*
X117270000Y-92100000D02*
X117050000Y-92100000D01*
D75*
X136800000Y-87100000D02*
X137450000Y-86450000D01*
D76*
X120700000Y-100950000D02*
X121600000Y-101850000D01*
X102450000Y-78350000D02*
X102500000Y-78400000D01*
D75*
X91700000Y-69200000D02*
X93400000Y-69200000D01*
X130830000Y-67052456D02*
X131920000Y-67052456D01*
D76*
X129550000Y-86950000D02*
X129600000Y-86900000D01*
X125280000Y-100400000D02*
X124580000Y-101100000D01*
X102450000Y-75920000D02*
X102450000Y-78350000D01*
D75*
X130110000Y-100040000D02*
X130350000Y-99800000D01*
X132127544Y-72022456D02*
X132700000Y-71450000D01*
X134390000Y-70650000D02*
X134390000Y-70590000D01*
X147000000Y-81825000D02*
X147000000Y-80200000D01*
D76*
X97950000Y-77950000D02*
X97900000Y-78000000D01*
D75*
X134875000Y-109500000D02*
X134875000Y-109825000D01*
X134125000Y-67575000D02*
X133800000Y-67250000D01*
D76*
X112950000Y-93350000D02*
X112600000Y-93350000D01*
D75*
X142100000Y-98010000D02*
X141910000Y-98010000D01*
D76*
X106050000Y-80960000D02*
X106110000Y-80960000D01*
D75*
X137187500Y-83162500D02*
X137600000Y-82750000D01*
X152000000Y-72200000D02*
X150600000Y-72200000D01*
X136800000Y-87212500D02*
X136800000Y-87100000D01*
D76*
X124580000Y-101100000D02*
X124400000Y-101100000D01*
X108240000Y-113190000D02*
X108250000Y-113200000D01*
X129720000Y-71544912D02*
X129720000Y-72052456D01*
X96450000Y-75920000D02*
X96450000Y-77950000D01*
D75*
X148900000Y-91825000D02*
X148900000Y-93100000D01*
D76*
X107719440Y-110290000D02*
X107729720Y-110279720D01*
X99450000Y-75920000D02*
X99450000Y-77975000D01*
D75*
X151900000Y-96600000D02*
X151950000Y-96550000D01*
%TO.N,+3.3VDAC*%
X141075000Y-66750000D02*
X140600000Y-67225000D01*
X141250000Y-93000000D02*
X141200000Y-93050000D01*
X141202500Y-91810000D02*
X141840000Y-91810000D01*
X134900000Y-87212500D02*
X133762500Y-87212500D01*
X134900000Y-91512500D02*
X134012500Y-91512500D01*
X133762500Y-87212500D02*
X133750000Y-87200000D01*
X150200000Y-68600000D02*
X150100000Y-68500000D01*
X152000000Y-68600000D02*
X150200000Y-68600000D01*
X150800000Y-91825000D02*
X150800000Y-93200000D01*
X141025000Y-66700000D02*
X141075000Y-66750000D01*
X134062500Y-83162500D02*
X133950000Y-83050000D01*
X140400000Y-67100000D02*
X140000000Y-66700000D01*
X140050000Y-66750000D02*
X140000000Y-66700000D01*
X140600000Y-67225000D02*
X140600000Y-68870000D01*
X134012500Y-91512500D02*
X133850000Y-91350000D01*
X140600000Y-68870000D02*
X140400000Y-69070000D01*
X140400000Y-69070000D02*
X140400000Y-67100000D01*
X142550000Y-93000000D02*
X141250000Y-93000000D01*
X134900000Y-83162500D02*
X134062500Y-83162500D01*
X150800000Y-93200000D02*
X150700000Y-93300000D01*
X142720000Y-75370000D02*
X143000000Y-75650000D01*
X135000000Y-79262500D02*
X133937500Y-79262500D01*
X140400000Y-75370000D02*
X142720000Y-75370000D01*
X141075000Y-66750000D02*
X140050000Y-66750000D01*
X145100000Y-81825000D02*
X145100000Y-80150000D01*
X141840000Y-91810000D02*
X142000000Y-91650000D01*
X133937500Y-79262500D02*
X133900000Y-79300000D01*
%TO.N,/SUM_NODE*%
D76*
X142050000Y-89600000D02*
X142050000Y-87850000D01*
X141300000Y-81650000D02*
X141120000Y-81650000D01*
X142050000Y-85350000D02*
X142050000Y-82400000D01*
X142050000Y-86900000D02*
X142050000Y-87260000D01*
X142050000Y-82400000D02*
X141300000Y-81650000D01*
X142050000Y-86350000D02*
X142050000Y-85350000D01*
X141122500Y-84050000D02*
X141122500Y-84422500D01*
X142050000Y-86900000D02*
X142050000Y-86350000D01*
X141162500Y-88700000D02*
X141200000Y-88700000D01*
X141202500Y-86350000D02*
X142050000Y-86350000D01*
X142050000Y-87850000D02*
X142050000Y-86900000D01*
X141202500Y-90790000D02*
X141202500Y-90447500D01*
X142050000Y-80950000D02*
X142050000Y-82400000D01*
X141122500Y-84422500D02*
X142050000Y-85350000D01*
X141200000Y-88700000D02*
X142050000Y-87850000D01*
X139950000Y-79850000D02*
X140950000Y-79850000D01*
X140950000Y-79850000D02*
X142050000Y-80950000D01*
X141202500Y-90447500D02*
X142050000Y-89600000D01*
X142050000Y-87260000D02*
X142890000Y-88100000D01*
%TO.N,/AUD_A*%
X140060000Y-100160000D02*
X140990000Y-100160000D01*
X140060000Y-101100000D02*
X140050000Y-101110000D01*
X140060000Y-100160000D02*
X140060000Y-101100000D01*
%TO.N,/GPIO17*%
X108200000Y-100900000D02*
X113834314Y-100900000D01*
X126552083Y-97850000D02*
X127600000Y-98897918D01*
X127600000Y-98897918D02*
X127600000Y-103365686D01*
X113834314Y-100900000D02*
X117759315Y-104825000D01*
X125429996Y-96500000D02*
X125429996Y-97198160D01*
X126081837Y-97850000D02*
X126552083Y-97850000D01*
X127600000Y-103365686D02*
X126140686Y-104825000D01*
X108200000Y-100900000D02*
X95175000Y-87875000D01*
X125429996Y-97198160D02*
X126081837Y-97850000D01*
X117759315Y-104825000D02*
X126140686Y-104825000D01*
X95175000Y-87875000D02*
X95175000Y-83765000D01*
%TO.N,Net-(J3-D1+)*%
X95925000Y-81365000D02*
X95925000Y-77400000D01*
X95950000Y-75920000D02*
X95950000Y-77375000D01*
X95175000Y-82115000D02*
X95925000Y-81365000D01*
X95925000Y-77275000D02*
X95925000Y-77400000D01*
X95950000Y-77375000D02*
X95925000Y-77400000D01*
%TO.N,+3V3*%
X105510000Y-110290000D02*
X105200000Y-110600000D01*
D75*
X120087500Y-81995000D02*
X121455000Y-81995000D01*
D76*
X123029996Y-89625000D02*
X123029996Y-88228683D01*
D75*
X106937500Y-115240000D02*
X107210000Y-115240000D01*
D76*
X125029996Y-90229996D02*
X125100000Y-90300000D01*
X126333636Y-93062500D02*
X126000000Y-93396136D01*
D75*
X118227500Y-80477500D02*
X118300000Y-80550000D01*
D76*
X123029996Y-88228683D02*
X123031704Y-88226975D01*
X139450000Y-116050000D02*
X139450000Y-117950000D01*
X139450000Y-117950000D02*
X139800000Y-118300000D01*
X105662500Y-114237500D02*
X105600000Y-114300000D01*
D75*
X73400000Y-75000000D02*
X76200000Y-75000000D01*
D76*
X121800000Y-117650000D02*
X122250000Y-118100000D01*
X126867496Y-90662500D02*
X127417397Y-90662500D01*
X126229996Y-96500000D02*
X126229996Y-96529996D01*
D75*
X117675000Y-75475000D02*
X118050000Y-75850000D01*
D76*
X119992496Y-94262500D02*
X119200000Y-94262500D01*
D75*
X121455000Y-81995000D02*
X121600000Y-81850000D01*
X109200000Y-74850000D02*
X107950000Y-74850000D01*
D76*
X126229996Y-96529996D02*
X126600000Y-96900000D01*
D75*
X107210000Y-115240000D02*
X107650000Y-114800000D01*
D76*
X126867496Y-90182504D02*
X127400000Y-89650000D01*
X127417397Y-90662500D02*
X127579897Y-90500000D01*
X127579897Y-90500000D02*
X127650000Y-90500000D01*
X119200000Y-94262500D02*
X119150000Y-94312500D01*
X105977500Y-110290000D02*
X105510000Y-110290000D01*
X105662500Y-113190000D02*
X105662500Y-114237500D01*
D75*
X117675000Y-74900000D02*
X115550000Y-74900000D01*
X115550000Y-74900000D02*
X115500000Y-74850000D01*
D76*
X126600000Y-96900000D02*
X126650000Y-96900000D01*
D75*
X115500000Y-74850000D02*
X115800000Y-74850000D01*
D76*
X121800000Y-116250000D02*
X121800000Y-117650000D01*
D75*
X73750000Y-69650000D02*
X77300000Y-73200000D01*
D76*
X127400000Y-89650000D02*
X127450000Y-89650000D01*
X107390000Y-107590000D02*
X107400000Y-107600000D01*
X122229996Y-97600000D02*
X122179996Y-97650000D01*
X128210000Y-84950000D02*
X128100000Y-84950000D01*
X122229996Y-96500000D02*
X122229996Y-97600000D01*
X126867496Y-90262500D02*
X126867496Y-90182504D01*
X123429996Y-88600000D02*
X123379996Y-88550000D01*
X126000000Y-93396136D02*
X126000000Y-93450000D01*
X119712500Y-90262500D02*
X119400000Y-89950000D01*
X123429996Y-89625000D02*
X123429996Y-88600000D01*
X129010000Y-85750000D02*
X128210000Y-84950000D01*
D75*
X115800000Y-74850000D02*
X117150000Y-76200000D01*
D76*
X125029996Y-89625000D02*
X125029996Y-90229996D01*
X119992496Y-90262500D02*
X119712500Y-90262500D01*
D75*
X103750000Y-113650000D02*
X102050000Y-113650000D01*
X117675000Y-74900000D02*
X117675000Y-75475000D01*
D76*
X125029996Y-89625000D02*
X125029996Y-89091140D01*
D75*
X102050000Y-113650000D02*
X101850000Y-113850000D01*
X117484996Y-80477500D02*
X118227500Y-80477500D01*
D76*
X107940000Y-117740000D02*
X107950000Y-117750000D01*
X126867496Y-93062500D02*
X126333636Y-93062500D01*
X107097500Y-117740000D02*
X107940000Y-117740000D01*
D75*
X77300000Y-73200000D02*
X77300000Y-74600000D01*
D76*
X106647500Y-107590000D02*
X107390000Y-107590000D01*
D75*
X107950000Y-74850000D02*
X107600000Y-74500000D01*
%TO.N,/NES_CLOCK*%
D76*
X115500000Y-114500000D02*
X114000000Y-113000000D01*
X115750000Y-116200000D02*
X115800000Y-116250000D01*
X133450000Y-116050000D02*
X133450000Y-118800000D01*
X116800000Y-119600000D02*
X132650000Y-119600000D01*
X115800000Y-116250000D02*
X115800000Y-118600000D01*
X115800000Y-118600000D02*
X116800000Y-119600000D01*
X132650000Y-119600000D02*
X133450000Y-118800000D01*
X119992496Y-93462500D02*
X117987500Y-93462500D01*
X117700000Y-95296162D02*
X117693092Y-95303070D01*
X115750000Y-114500000D02*
X115500000Y-114500000D01*
X117700000Y-93750000D02*
X117700000Y-95296162D01*
X115800000Y-116250000D02*
X115800000Y-114550000D01*
X115800000Y-114550000D02*
X115750000Y-114500000D01*
X117987500Y-93462500D02*
X117700000Y-93750000D01*
%TO.N,/NES_LATCH*%
X117800000Y-118250000D02*
X117800000Y-116250000D01*
X119992496Y-93862500D02*
X118287500Y-93862500D01*
X135450000Y-118150000D02*
X135450000Y-116050000D01*
X118000000Y-118450000D02*
X117800000Y-118250000D01*
X117800000Y-114450000D02*
X116800000Y-113450000D01*
X118100000Y-95100000D02*
X118150000Y-95100000D01*
X116800000Y-113450000D02*
X116800000Y-112400000D01*
X118287500Y-93862500D02*
X118100000Y-94050000D01*
X118100000Y-94050000D02*
X118100000Y-95100000D01*
X117800000Y-116250000D02*
X117800000Y-114450000D01*
X135500000Y-118200000D02*
X135450000Y-118150000D01*
%TO.N,/NES_DATA_1*%
X121350000Y-112600000D02*
X122000000Y-112600000D01*
X119992496Y-94662500D02*
X119436397Y-94662500D01*
X119436397Y-94662500D02*
X119248897Y-94850000D01*
X119400000Y-114550000D02*
X119400000Y-114500000D01*
X119400000Y-114550000D02*
X119400000Y-115850000D01*
X119400000Y-114550000D02*
X121350000Y-112600000D01*
X119400000Y-115850000D02*
X119800000Y-116250000D01*
X119248897Y-94850000D02*
X118600000Y-94850000D01*
%TO.N,Net-(R25-Pad1)*%
X139222500Y-81650000D02*
X140100000Y-81650000D01*
%TO.N,/GP_VDAC_SUM3*%
X128934314Y-91850000D02*
X131700000Y-89084314D01*
X133150000Y-82050000D02*
X133962500Y-81237500D01*
X135850000Y-81237500D02*
X135950000Y-81137500D01*
X133150000Y-82050000D02*
X136450000Y-82050000D01*
X136450000Y-82050000D02*
X136850000Y-81650000D01*
X131700000Y-83500000D02*
X133150000Y-82050000D01*
X131700000Y-89084314D02*
X131700000Y-83500000D01*
X127585417Y-91862500D02*
X127597918Y-91850000D01*
X133962500Y-81237500D02*
X135850000Y-81237500D01*
X136850000Y-81650000D02*
X138202500Y-81650000D01*
X126867496Y-91862500D02*
X127585417Y-91862500D01*
X127597918Y-91850000D02*
X128934314Y-91850000D01*
%TO.N,/USB_D+*%
X125750000Y-71092456D02*
X125800000Y-71042456D01*
X128450000Y-75700000D02*
X129550000Y-75700000D01*
D75*
X125750000Y-80400000D02*
X123550000Y-82600000D01*
D76*
X126750000Y-71100000D02*
X126750000Y-71992456D01*
X126692456Y-71042456D02*
X126750000Y-71100000D01*
D75*
X125750000Y-73450000D02*
X125750000Y-80400000D01*
X123550000Y-82600000D02*
X123550000Y-86140000D01*
D76*
X126250000Y-71042456D02*
X126250000Y-70650000D01*
X126250000Y-71042456D02*
X126692456Y-71042456D01*
X125800000Y-71042456D02*
X126250000Y-71042456D01*
X125750000Y-71992456D02*
X125750000Y-73450000D01*
X125750000Y-71992456D02*
X125750000Y-71092456D01*
%TO.N,/USB_D-*%
X126300000Y-73150000D02*
X126450000Y-73300000D01*
X127250000Y-72892456D02*
X127250000Y-71992456D01*
X128600000Y-77900000D02*
X128050000Y-77900000D01*
X127787501Y-77600000D02*
X127200000Y-77012499D01*
D75*
X124600000Y-82600000D02*
X126450000Y-80750000D01*
D76*
X127270000Y-72012456D02*
X127250000Y-71992456D01*
X126300000Y-72942456D02*
X127200000Y-72942456D01*
D75*
X124600000Y-86140000D02*
X124600000Y-82600000D01*
D76*
X127200000Y-72942456D02*
X127250000Y-72892456D01*
X126300000Y-72942456D02*
X126300000Y-73150000D01*
X127200000Y-77012499D02*
X127200000Y-72942456D01*
X126250000Y-72892456D02*
X126300000Y-72942456D01*
X128450000Y-77600000D02*
X127787501Y-77600000D01*
D75*
X126450000Y-80750000D02*
X126450000Y-73300000D01*
D76*
X126250000Y-71992456D02*
X126250000Y-72892456D01*
%TO.N,VBUS*%
D75*
X115500000Y-72550000D02*
X116950000Y-72550000D01*
X136150000Y-70650000D02*
X136250000Y-70550000D01*
X132767544Y-72982456D02*
X132800000Y-72950000D01*
X132350000Y-75687499D02*
X132350000Y-73950000D01*
X130725000Y-76650000D02*
X131387499Y-76650000D01*
X116950000Y-72550000D02*
X117620000Y-72550000D01*
X135350000Y-70650000D02*
X136150000Y-70650000D01*
X132070000Y-72982456D02*
X132767544Y-72982456D01*
D76*
X102950000Y-75920000D02*
X102950000Y-73450000D01*
D75*
X138100000Y-69070000D02*
X138100000Y-67300000D01*
X138100000Y-67300000D02*
X137950000Y-67150000D01*
X137380000Y-68350000D02*
X138100000Y-69070000D01*
X135675000Y-68350000D02*
X137380000Y-68350000D01*
X116950000Y-72550000D02*
X116950000Y-71700000D01*
X135675000Y-68350000D02*
X135675000Y-67675000D01*
X135675000Y-67675000D02*
X136100000Y-67250000D01*
X131387499Y-76650000D02*
X132350000Y-75687499D01*
D76*
X102950000Y-73450000D02*
X102000000Y-72500000D01*
%TO.N,/NES_DATA_2*%
X119992496Y-95062500D02*
X120712500Y-95062500D01*
X134000000Y-112600000D02*
X137450000Y-116050000D01*
X120712500Y-95062500D02*
X120800000Y-95150000D01*
X131200000Y-112600000D02*
X134000000Y-112600000D01*
%TO.N,/RST_BTN*%
X126100000Y-95450000D02*
X126112500Y-95462500D01*
X70200000Y-71100000D02*
X68750000Y-69650000D01*
X70400000Y-71400000D02*
X70200000Y-71200000D01*
X70200000Y-71200000D02*
X70200000Y-71100000D01*
X126112500Y-95462500D02*
X126867496Y-95462500D01*
%TO.N,Net-(J3-D2+)*%
X94450000Y-75920000D02*
X94450000Y-77250000D01*
X91975000Y-79725000D02*
X91975000Y-82115000D01*
X94450000Y-77250000D02*
X91975000Y-79725000D01*
%TO.N,Net-(J3-D2-)*%
X95450000Y-75920000D02*
X95450000Y-77250000D01*
X95425000Y-77275000D02*
X95425000Y-78670000D01*
X95425000Y-78670000D02*
X93575000Y-80520000D01*
X95450000Y-77250000D02*
X95425000Y-77275000D01*
X93575000Y-80520000D02*
X93575000Y-82115000D01*
%TO.N,Net-(J3-D1-)*%
X96950000Y-77375000D02*
X96925000Y-77400000D01*
X96950000Y-75920000D02*
X96950000Y-77375000D01*
X96925000Y-81965000D02*
X96775000Y-82115000D01*
X96925000Y-77400000D02*
X96925000Y-81965000D01*
X96925000Y-77275000D02*
X96925000Y-77400000D01*
%TO.N,Net-(J3-D0-)*%
X98425000Y-77275000D02*
X98425000Y-77500000D01*
X98425000Y-77500000D02*
X98425000Y-79320000D01*
X98450000Y-75920000D02*
X98450000Y-77475000D01*
X99925000Y-80820000D02*
X99925000Y-82090000D01*
X98450000Y-77475000D02*
X98425000Y-77500000D01*
X98425000Y-79320000D02*
X99925000Y-80820000D01*
%TO.N,Net-(J3-CK+)*%
X98925000Y-78825000D02*
X101525000Y-81425000D01*
X98925000Y-77900000D02*
X98925000Y-78825000D01*
X98950000Y-75920000D02*
X98950000Y-77875000D01*
X98950000Y-77875000D02*
X98925000Y-77900000D01*
X98925000Y-77275000D02*
X98925000Y-77900000D01*
X101525000Y-81425000D02*
X101525000Y-82090000D01*
%TO.N,Net-(J3-CK-)*%
X99925000Y-77500000D02*
X99925000Y-78940000D01*
X99950000Y-75920000D02*
X99950000Y-77475000D01*
X99925000Y-77275000D02*
X99925000Y-77500000D01*
X99950000Y-77475000D02*
X99925000Y-77500000D01*
X99925000Y-78940000D02*
X103075000Y-82090000D01*
%TO.N,Net-(J3-HPD)*%
X103450000Y-77205000D02*
X104300000Y-78055000D01*
X106050000Y-79850000D02*
X106050000Y-79940000D01*
X105300000Y-79100000D02*
X106050000Y-79850000D01*
X103450000Y-75920000D02*
X103450000Y-77205000D01*
X104300000Y-78055000D02*
X104300000Y-79100000D01*
X104300000Y-79100000D02*
X104300000Y-79890000D01*
X104300000Y-79100000D02*
X105300000Y-79100000D01*
%TO.N,/GPIO18*%
X98056096Y-92156096D02*
X97964172Y-92064172D01*
X99159186Y-93259185D02*
X99159185Y-93259185D01*
X98635928Y-93782446D02*
X98975338Y-93443033D01*
X128000000Y-103531372D02*
X126198529Y-105332843D01*
X128000000Y-98732233D02*
X128000000Y-103531372D01*
X125829996Y-97032474D02*
X126247522Y-97450000D01*
X126198529Y-105332843D02*
X117667157Y-105332843D01*
X97716685Y-92863203D02*
X98056095Y-92523790D01*
X97964172Y-92064172D02*
X97773800Y-91873800D01*
X117667157Y-105332843D02*
X114784314Y-102450000D01*
X126247522Y-97450000D02*
X126717769Y-97450000D01*
X98515715Y-92983410D02*
X98176303Y-93322822D01*
X93575000Y-87675000D02*
X93575000Y-83765000D01*
X99364245Y-92686428D02*
X99272321Y-92594504D01*
X98727852Y-94242066D02*
X98635928Y-94150142D01*
X97808609Y-93322823D02*
X97716685Y-93230899D01*
X98975338Y-93443033D02*
X99159186Y-93259185D01*
X125829996Y-96500000D02*
X125829996Y-97032474D01*
X99159185Y-93259185D02*
X99364245Y-93054124D01*
X108350000Y-102450000D02*
X99802655Y-93902655D01*
X98904625Y-92594504D02*
X98699564Y-92799564D01*
X114784314Y-102450000D02*
X108350000Y-102450000D01*
X99434959Y-93902655D02*
X99095546Y-94242065D01*
X126717769Y-97450000D02*
X128000000Y-98732233D01*
X98699564Y-92799564D02*
X98515715Y-92983410D01*
X97773800Y-91873800D02*
X93575000Y-87675000D01*
X99364245Y-93054124D02*
G75*
G03*
X99364221Y-92686452I-183845J183824D01*
G01*
X99272321Y-92594504D02*
G75*
G03*
X98904625Y-92594504I-183848J-183849D01*
G01*
X98056095Y-92523790D02*
G75*
G03*
X98056139Y-92156054I-183895J183890D01*
G01*
X99095546Y-94242065D02*
G75*
G02*
X98727853Y-94242064I-183846J183865D01*
G01*
X97716685Y-93230899D02*
G75*
G02*
X97716734Y-92863252I183815J183799D01*
G01*
X98635928Y-94150142D02*
G75*
G02*
X98635934Y-93782452I183872J183842D01*
G01*
X98176303Y-93322822D02*
G75*
G02*
X97808654Y-93322779I-183803J183822D01*
G01*
X99802655Y-93902655D02*
G75*
G03*
X99434959Y-93902655I-183848J-183849D01*
G01*
%TO.N,/QSPI_SS*%
X118510000Y-89500000D02*
X118510000Y-88760000D01*
X120629996Y-89625000D02*
X119754996Y-88750000D01*
X113030000Y-86830000D02*
X111900738Y-86830000D01*
X118500000Y-88750000D02*
X114950000Y-88750000D01*
X111400000Y-86329261D02*
X111400000Y-82695001D01*
X112100001Y-81995000D02*
X112912500Y-81995000D01*
X114950000Y-88750000D02*
X113030000Y-86830000D01*
X111900738Y-86830000D02*
X111400000Y-86329261D01*
X119754996Y-88750000D02*
X118500000Y-88750000D01*
X111400000Y-82695001D02*
X112100001Y-81995000D01*
X118510000Y-88760000D02*
X118500000Y-88750000D01*
%TO.N,/~{USB_BOOT}*%
X117440000Y-89550000D02*
X117490000Y-89500000D01*
X115500000Y-89550000D02*
X117440000Y-89550000D01*
X115500000Y-89550000D02*
X115500000Y-93750000D01*
%TO.N,/RUN*%
X124629996Y-97400000D02*
X124629997Y-97529533D01*
X131250000Y-98780000D02*
X135450000Y-98780000D01*
X124629997Y-97529533D02*
X125750467Y-98650000D01*
X125750467Y-98650000D02*
X126150000Y-98650000D01*
X130250000Y-98800000D02*
X131230000Y-98800000D01*
X126150000Y-98650000D02*
X126750000Y-99250000D01*
X131230000Y-98800000D02*
X131250000Y-98780000D01*
X124629996Y-96500000D02*
X124629996Y-97400000D01*
%TO.N,Net-(R4-Pad1)*%
X131250000Y-100920000D02*
X135450000Y-100920000D01*
X131110000Y-101060000D02*
X131250000Y-100920000D01*
X129500000Y-101060000D02*
X131110000Y-101060000D01*
%TO.N,/HDMI_HPD*%
X108200000Y-90065000D02*
X114537498Y-96402498D01*
X104710000Y-80910000D02*
X108200000Y-84400000D01*
X104300000Y-80910000D02*
X104710000Y-80910000D01*
X119452498Y-96402498D02*
X119992496Y-95862500D01*
X114537498Y-96402498D02*
X119452498Y-96402498D01*
X108200000Y-84400000D02*
X108200000Y-90065000D01*
%TO.N,/GATE_NODE*%
X146050000Y-84785000D02*
X146307500Y-85042500D01*
X144462500Y-85150000D02*
X144600000Y-85150000D01*
X143850000Y-86850000D02*
X145550000Y-85150000D01*
X146307500Y-85042500D02*
X147165000Y-85900000D01*
X145550000Y-85150000D02*
X146415000Y-85150000D01*
X146050000Y-83700000D02*
X146050000Y-84785000D01*
X146307500Y-84692500D02*
X149650000Y-81350000D01*
X143720000Y-86850000D02*
X143850000Y-86850000D01*
X144600000Y-85150000D02*
X146050000Y-83700000D01*
X146307500Y-85042500D02*
X146307500Y-84692500D01*
X146415000Y-85150000D02*
X147165000Y-85900000D01*
X144462500Y-85150000D02*
X145550000Y-85150000D01*
%TO.N,/VREG_AVDD*%
X126229996Y-89625000D02*
X126229996Y-88790004D01*
X127450000Y-87570000D02*
X127450000Y-86450000D01*
X127435000Y-87585000D02*
X128070000Y-86950000D01*
X127990000Y-85910000D02*
X127990000Y-85750000D01*
X126229996Y-88790004D02*
X127435000Y-87585000D01*
X127435000Y-87585000D02*
X127450000Y-87570000D01*
X127450000Y-86450000D02*
X127990000Y-85910000D01*
%TO.N,Net-(Card1-DAT1)*%
X104750000Y-109250000D02*
X105627500Y-108372500D01*
X105627500Y-108372500D02*
X105627500Y-107590000D01*
X103750000Y-109250000D02*
X104750000Y-109250000D01*
%TO.N,/GP_VDAC_GATE*%
X131150000Y-79800000D02*
X131150000Y-89050000D01*
X140550000Y-78150000D02*
X132800000Y-78150000D01*
X131150000Y-89050000D02*
X128750000Y-91450000D01*
X143442500Y-81042500D02*
X140550000Y-78150000D01*
X132800000Y-78150000D02*
X131150000Y-79800000D01*
X128750000Y-91450000D02*
X127413856Y-91450000D01*
X143442500Y-85150000D02*
X143442500Y-81042500D01*
X127401356Y-91462500D02*
X126867496Y-91462500D01*
X127413856Y-91450000D02*
X127401356Y-91462500D01*
%TO.N,+1V1*%
X120729996Y-92023622D02*
X121691118Y-91062500D01*
X126000000Y-92662500D02*
X125737500Y-92662500D01*
X126500000Y-85750000D02*
X125950000Y-85200000D01*
X123726356Y-91062500D02*
X125168874Y-91062500D01*
X126867496Y-92662500D02*
X127912500Y-92662500D01*
X126500000Y-86934315D02*
X126500000Y-85750000D01*
X126000000Y-91893626D02*
X126000000Y-92662500D01*
X119992496Y-92262500D02*
X118392500Y-92262500D01*
X119992496Y-92262500D02*
X120526356Y-92262500D01*
X125168874Y-91062500D02*
X126000000Y-91893626D01*
X124629996Y-89625000D02*
X124629996Y-90158860D01*
X120729996Y-92058860D02*
X120729996Y-92023622D01*
X125450000Y-94781374D02*
X125168874Y-95062500D01*
X124629996Y-88523199D02*
X124679996Y-88473199D01*
X120526356Y-92262500D02*
X121429996Y-93166140D01*
X125737500Y-92662500D02*
X125450000Y-92950000D01*
X127912500Y-92662500D02*
X127950000Y-92700000D01*
X124629996Y-88900000D02*
X124629996Y-88523199D01*
X121429996Y-95158860D02*
X122622716Y-95158860D01*
X125450000Y-92950000D02*
X125450000Y-94781374D01*
X121429996Y-93166140D02*
X121429996Y-95158860D01*
X123429996Y-96050000D02*
X123429996Y-95779996D01*
X126867496Y-92662500D02*
X126000000Y-92662500D01*
X124629996Y-88804319D02*
X126500000Y-86934315D01*
X123429996Y-95966140D02*
X123429996Y-96050000D01*
X122622716Y-95158860D02*
X123429996Y-95966140D01*
X124629996Y-90158860D02*
X123726356Y-91062500D01*
X118392500Y-92262500D02*
X118230000Y-92100000D01*
X120526356Y-92262500D02*
X120729996Y-92058860D01*
X124629996Y-88900000D02*
X124629996Y-88804319D01*
X125168874Y-95062500D02*
X124333636Y-95062500D01*
X123429996Y-95779996D02*
X123400000Y-95750000D01*
X123429996Y-96500000D02*
X123429996Y-96050000D01*
X124629996Y-89625000D02*
X124629996Y-88900000D01*
X121691118Y-91062500D02*
X123726356Y-91062500D01*
X124333636Y-95062500D02*
X123429996Y-95966140D01*
%TO.N,Net-(R19-Pad2)*%
X139302500Y-86350000D02*
X140182500Y-86350000D01*
%TO.N,/GP_VDAC_SUM1*%
X132500000Y-89550000D02*
X133400000Y-89550000D01*
X133400000Y-89550000D02*
X133600000Y-89550000D01*
X135387500Y-89550000D02*
X135850000Y-89087500D01*
X138282500Y-86350000D02*
X138282500Y-87667500D01*
X137000000Y-90200000D02*
X136950000Y-90250000D01*
X126867496Y-93462500D02*
X128587500Y-93462500D01*
X133900000Y-90250000D02*
X133400000Y-89750000D01*
X138282500Y-87667500D02*
X137000000Y-88950000D01*
X128587500Y-93462500D02*
X132500000Y-89550000D01*
X137000000Y-88950000D02*
X137000000Y-90200000D01*
X136950000Y-90250000D02*
X133900000Y-90250000D01*
X133400000Y-89750000D02*
X133400000Y-89550000D01*
X133600000Y-89550000D02*
X135387500Y-89550000D01*
%TO.N,/CARD_CD*%
X116650000Y-90500000D02*
X116653864Y-90503864D01*
X104150000Y-107350000D02*
X104150000Y-107750000D01*
X119458636Y-91062500D02*
X118900000Y-90503864D01*
X104150000Y-107750000D02*
X103750000Y-108150000D01*
X119992496Y-91062500D02*
X119458636Y-91062500D01*
X118900000Y-90503864D02*
X116653864Y-90503864D01*
%TO.N,/CARD_DAT0*%
X119992496Y-91462500D02*
X119262500Y-91462500D01*
X104280198Y-110350000D02*
X103750000Y-110350000D01*
X118753864Y-90953864D02*
X116970094Y-90953864D01*
X119262500Y-91462500D02*
X118753864Y-90953864D01*
X104850124Y-109780074D02*
X104280198Y-110350000D01*
%TO.N,/CARD_CLX*%
X119992496Y-91862500D02*
X119096814Y-91862500D01*
X118667157Y-91432843D02*
X118328979Y-91432843D01*
X119096814Y-91862500D02*
X118667157Y-91432843D01*
X104199876Y-112100124D02*
X103750000Y-112550000D01*
X104730074Y-112100124D02*
X104199876Y-112100124D01*
X118328979Y-91432843D02*
X118300000Y-91403864D01*
%TO.N,/CARD_CMD*%
X116662500Y-92662500D02*
X116650000Y-92650000D01*
X103750000Y-114750000D02*
X104800000Y-114750000D01*
X119992496Y-92662500D02*
X116662500Y-92662500D01*
%TO.N,/CARD_CD_DAT3*%
X105100000Y-115850000D02*
X105100000Y-115600000D01*
X105100000Y-115850000D02*
X105307500Y-115850000D01*
X119992496Y-93062500D02*
X116965001Y-93062500D01*
X116965001Y-93062500D02*
X116915001Y-93112500D01*
X105307500Y-115850000D02*
X105917500Y-115240000D01*
X103750000Y-115850000D02*
X105100000Y-115850000D01*
%TO.N,/GPIO12*%
X106622790Y-88022790D02*
X106839600Y-88239600D01*
X106149028Y-87987434D02*
X106198525Y-87937936D01*
X120229996Y-96900000D02*
X120629996Y-96500000D01*
X105689412Y-86750001D02*
X106057106Y-86382304D01*
X106481370Y-86806569D02*
X106113673Y-87174263D01*
X106839600Y-88239600D02*
X106900000Y-88300000D01*
X103100000Y-84700000D02*
X105150000Y-86750000D01*
X106537936Y-87937936D02*
X106622790Y-88022790D01*
X105774262Y-87513673D02*
X105724764Y-87563171D01*
X106396518Y-86382305D02*
X106481370Y-86467157D01*
X105943967Y-87343969D02*
X105943968Y-87343968D01*
X106113673Y-87174263D02*
X105943967Y-87343969D01*
X103075000Y-83740000D02*
X103075000Y-84375000D01*
X112150000Y-96900000D02*
X120229996Y-96900000D01*
X105150000Y-86750000D02*
X105350000Y-86750000D01*
X106900000Y-91650000D02*
X112150000Y-96900000D01*
X106900000Y-88300000D02*
X106900000Y-91650000D01*
X103100000Y-84400000D02*
X103100000Y-84700000D01*
X105724764Y-87902582D02*
X105809616Y-87987434D01*
X105943968Y-87343968D02*
X105774262Y-87513673D01*
X103075000Y-84375000D02*
X103100000Y-84400000D01*
X105809616Y-87987434D02*
G75*
G03*
X106149028Y-87987434I169706J169704D01*
G01*
X105350000Y-86750000D02*
G75*
G03*
X105689405Y-86749995I169700J169700D01*
G01*
X106057106Y-86382304D02*
G75*
G02*
X106396506Y-86382316I169694J-169696D01*
G01*
X106481370Y-86467157D02*
G75*
G02*
X106481407Y-86806606I-169670J-169743D01*
G01*
X106198525Y-87937936D02*
G75*
G02*
X106537936Y-87937936I169705J-169707D01*
G01*
X105724764Y-87563171D02*
G75*
G03*
X105724740Y-87902605I169736J-169729D01*
G01*
%TO.N,/GPIO13*%
X104629886Y-87429886D02*
X106000000Y-88800000D01*
X111050000Y-97300000D02*
X120762470Y-97300000D01*
X106000000Y-92250000D02*
X111050000Y-97300000D01*
X121029996Y-97032474D02*
X121029996Y-96500000D01*
X106000000Y-88800000D02*
X106000000Y-92250000D01*
X104629886Y-87429886D02*
X104288085Y-87088085D01*
X120762470Y-97300000D02*
X121029996Y-97032474D01*
X101525000Y-84325000D02*
X101525000Y-83740000D01*
X104288085Y-87088085D02*
X101525000Y-84325000D01*
%TO.N,/GPIO14*%
X120928156Y-97700000D02*
X121429996Y-97198160D01*
X100100000Y-85000000D02*
X101400000Y-85000000D01*
X109450000Y-97700000D02*
X120928156Y-97700000D01*
X104700000Y-89665599D02*
X104700000Y-92950000D01*
X104322529Y-89122529D02*
X104700000Y-89500000D01*
X101400000Y-85000000D02*
X102900000Y-86500000D01*
X102900000Y-87700000D02*
X103474001Y-88274001D01*
X104700000Y-89500000D02*
X104700000Y-89665599D01*
X103474001Y-88613412D02*
X103106305Y-88981107D01*
X104700000Y-92950000D02*
X109450000Y-97700000D01*
X99925000Y-83740000D02*
X99925000Y-84825000D01*
X104237675Y-89037674D02*
X104322529Y-89122529D01*
X103106305Y-89320518D02*
X103191157Y-89405370D01*
X99925000Y-84825000D02*
X100100000Y-85000000D01*
X103530569Y-89405370D02*
X103898264Y-89037674D01*
X121429996Y-97198160D02*
X121429996Y-96500000D01*
X102900000Y-86500000D02*
X102900000Y-87700000D01*
X103106305Y-88981107D02*
G75*
G03*
X103106317Y-89320505I169695J-169693D01*
G01*
X103474001Y-88274001D02*
G75*
G02*
X103473995Y-88613405I-169701J-169699D01*
G01*
X103898264Y-89037674D02*
G75*
G02*
X104237675Y-89037673I169706J-169707D01*
G01*
X103191157Y-89405370D02*
G75*
G03*
X103530569Y-89405370I169706J169704D01*
G01*
%TO.N,/XOUT*%
X123029996Y-98169996D02*
X123350000Y-98490000D01*
X123029996Y-96500000D02*
X123029996Y-98169996D01*
X123350000Y-98490000D02*
X123350000Y-98590000D01*
%TO.N,/SWCLK*%
X130900000Y-105650000D02*
X131450000Y-106200000D01*
X131450000Y-106200000D02*
X138750000Y-106200000D01*
X123829996Y-96500000D02*
X123829996Y-97860902D01*
X125109549Y-99211162D02*
X125267464Y-99369077D01*
X123829996Y-97860902D02*
X125109549Y-99140452D01*
X125109549Y-99140452D02*
X125109549Y-99211162D01*
%TO.N,/SWD*%
X139600000Y-109050000D02*
X138750000Y-108200000D01*
X124229996Y-97464310D02*
X124229998Y-97695221D01*
X125700000Y-99050000D02*
X126150000Y-99500000D01*
X125584782Y-99050000D02*
X125700000Y-99050000D01*
X124229998Y-97695221D02*
X125584782Y-99050000D01*
X124229996Y-96500000D02*
X124229996Y-97464310D01*
X139800000Y-109050000D02*
X139600000Y-109050000D01*
%TO.N,/GPIO16*%
X97462306Y-88256836D02*
X97156835Y-88562306D01*
X96775000Y-87379482D02*
X96775000Y-87875000D01*
X112750000Y-99250000D02*
X108150000Y-99250000D01*
X97787577Y-87473364D02*
X97863944Y-87549731D01*
X97956238Y-89056238D02*
X99050308Y-90150308D01*
X125916152Y-98250000D02*
X126386397Y-98250000D01*
X125029996Y-97114310D02*
X125029997Y-97363846D01*
X96967331Y-89057280D02*
X97043698Y-89133647D01*
X127200000Y-99063603D02*
X127200000Y-103200000D01*
X97863944Y-87855201D02*
X97462306Y-88256836D01*
X97920511Y-89020511D02*
X97956238Y-89056238D01*
X126386397Y-98250000D02*
X127200000Y-99063603D01*
X100030072Y-91130072D02*
X108150000Y-99250000D01*
X99050308Y-90150308D02*
X100030072Y-91130072D01*
X117925000Y-104425000D02*
X125975000Y-104425000D01*
X125029997Y-97363846D02*
X125916152Y-98250000D01*
X112750000Y-99250000D02*
X117925000Y-104425000D01*
X125029996Y-96500000D02*
X125029996Y-97114310D01*
X97156835Y-88562306D02*
X96967331Y-88751810D01*
X96775000Y-83765000D02*
X96775000Y-87379482D01*
X97844142Y-88944142D02*
X97920511Y-89020511D01*
X97349168Y-89133647D02*
X97538672Y-88944142D01*
X97080470Y-87875000D02*
X97482107Y-87473364D01*
X127200000Y-103200000D02*
X125975000Y-104425000D01*
X97482107Y-87473364D02*
G75*
G02*
X97787577Y-87473364I152735J-152735D01*
G01*
X97043698Y-89133647D02*
G75*
G03*
X97349168Y-89133647I152735J152735D01*
G01*
X96775000Y-87875000D02*
G75*
G03*
X97080470Y-87875000I152735J152735D01*
G01*
X97863944Y-87549731D02*
G75*
G02*
X97863978Y-87855235I-152744J-152769D01*
G01*
X97538672Y-88944142D02*
G75*
G02*
X97844142Y-88944142I152735J-152735D01*
G01*
X96967331Y-88751810D02*
G75*
G03*
X96967376Y-89057235I152769J-152690D01*
G01*
%TO.N,/GPIO19*%
X115818628Y-104050000D02*
X117534314Y-105765686D01*
X117534314Y-105765686D02*
X126331372Y-105765686D01*
X91975000Y-90275000D02*
X105750000Y-104050000D01*
X128400000Y-103697058D02*
X128400000Y-97395004D01*
X126331372Y-105765686D02*
X128400000Y-103697058D01*
X91975000Y-83765000D02*
X91975000Y-90275000D01*
X105750000Y-104050000D02*
X115818628Y-104050000D01*
X128400000Y-97395004D02*
X126867496Y-95862500D01*
%TO.N,/PWR_LED*%
X67800000Y-72100000D02*
X66610000Y-72100000D01*
X127950000Y-95350000D02*
X127662500Y-95062500D01*
X127662500Y-95062500D02*
X126867496Y-95062500D01*
%TO.N,/GP_ADAC_IN*%
X126867496Y-94262500D02*
X133562500Y-94262500D01*
X139040000Y-96990000D02*
X139040000Y-100160000D01*
X138850000Y-96650000D02*
X138900000Y-96650000D01*
X137450000Y-95250000D02*
X138850000Y-96650000D01*
X134550000Y-95250000D02*
X137450000Y-95250000D01*
X138900000Y-96650000D02*
X138900000Y-96850000D01*
X138900000Y-96850000D02*
X139040000Y-96990000D01*
X133562500Y-94262500D02*
X134550000Y-95250000D01*
%TO.N,/GP_VDAC_SUM0*%
X136700000Y-94650000D02*
X138252500Y-93097500D01*
X134650000Y-93862500D02*
X135375000Y-93862500D01*
X135437500Y-94650000D02*
X136700000Y-94650000D01*
X138252500Y-93097500D02*
X138252500Y-88700000D01*
X134650000Y-93862500D02*
X135437500Y-94650000D01*
X126867496Y-93862500D02*
X134650000Y-93862500D01*
X135375000Y-93862500D02*
X135850000Y-93387500D01*
%TO.N,/GP_VDAC_SUM2*%
X135387500Y-85500000D02*
X135850000Y-85037500D01*
X132100000Y-89250000D02*
X132100000Y-88700000D01*
X133150000Y-85500000D02*
X135387500Y-85500000D01*
X132350000Y-88450000D02*
X132350000Y-86300000D01*
X127763603Y-92250000D02*
X129100000Y-92250000D01*
X138192500Y-84857500D02*
X138192500Y-84050000D01*
X132350000Y-86300000D02*
X132500000Y-86150000D01*
X126867496Y-92262500D02*
X127751103Y-92262500D01*
X129100000Y-92250000D02*
X132100000Y-89250000D01*
X136900000Y-86150000D02*
X138192500Y-84857500D01*
X132500000Y-86150000D02*
X136900000Y-86150000D01*
X132500000Y-86150000D02*
X133150000Y-85500000D01*
X132100000Y-88700000D02*
X132350000Y-88450000D01*
X127751103Y-92262500D02*
X127763603Y-92250000D01*
%TO.N,/VREG_LX*%
X127050000Y-87404314D02*
X127050000Y-87000000D01*
X125429996Y-89625000D02*
X125429996Y-88570004D01*
X127050000Y-84300000D02*
X125950000Y-83200000D01*
X125429996Y-88570004D02*
X125884310Y-88570004D01*
X125884310Y-88570004D02*
X127050000Y-87404314D01*
X127050000Y-86950000D02*
X127050000Y-84300000D01*
%TO.N,Net-(U1-USB_DM)*%
X124229996Y-88230004D02*
X124600000Y-87860000D01*
X124229996Y-89625000D02*
X124229996Y-88230004D01*
X124600000Y-87860000D02*
X124600000Y-87160000D01*
X124550000Y-87210000D02*
X124600000Y-87160000D01*
%TO.N,Net-(U1-USB_DP)*%
X123829996Y-89625000D02*
X123829996Y-88189996D01*
X123829996Y-88189996D02*
X123550000Y-87910000D01*
X123550000Y-87910000D02*
X123550000Y-87160000D01*
X123790000Y-87400000D02*
X123550000Y-87160000D01*
%TO.N,/QSPI_SD3*%
X122400000Y-86486397D02*
X122050000Y-86136397D01*
X122629995Y-88429783D02*
X122400000Y-88199788D01*
X122050000Y-86136397D02*
X122050000Y-84415001D01*
X122400000Y-88199788D02*
X122400000Y-86486397D01*
X122050000Y-84415001D02*
X120899999Y-83265000D01*
X122629996Y-89625000D02*
X122629995Y-88429783D01*
X120899999Y-83265000D02*
X120087500Y-83265000D01*
%TO.N,/QSPI_SCLK*%
X121400000Y-84900000D02*
X121600000Y-84900000D01*
X121400000Y-84900000D02*
X121035000Y-84535000D01*
X122229995Y-88595468D02*
X121973959Y-88339432D01*
X121600000Y-86252082D02*
X121600000Y-84900000D01*
X121973959Y-88339432D02*
X121973959Y-86626041D01*
X121035000Y-84535000D02*
X120087500Y-84535000D01*
X121973959Y-86626041D02*
X121600000Y-86252082D01*
X122229996Y-89625000D02*
X122229995Y-88595468D01*
%TO.N,/QSPI_SD0*%
X121829996Y-88761154D02*
X120087500Y-87018658D01*
X121829996Y-89625000D02*
X121829996Y-88761154D01*
X120087500Y-87018658D02*
X120087500Y-85805000D01*
%TO.N,/QSPI_SD2*%
X121429996Y-89625000D02*
X121429996Y-88926840D01*
X116035000Y-84535000D02*
X112912500Y-84535000D01*
X121429996Y-88926840D02*
X120453155Y-87950000D01*
X120453155Y-87950000D02*
X119450000Y-87950000D01*
X119450000Y-87950000D02*
X116035000Y-84535000D01*
%TO.N,/QSPI_SD1*%
X111800000Y-86163576D02*
X111800000Y-83565001D01*
X111800000Y-83565001D02*
X112100001Y-83265000D01*
X112100001Y-83265000D02*
X112912500Y-83265000D01*
X114825000Y-86430000D02*
X112066424Y-86430000D01*
X116745000Y-88350000D02*
X114825000Y-86430000D01*
X120287470Y-88350000D02*
X116745000Y-88350000D01*
X112066424Y-86430000D02*
X111800000Y-86163576D01*
X121029996Y-89625000D02*
X121029996Y-89092526D01*
X121029996Y-89092526D02*
X120287470Y-88350000D01*
%TO.N,/VDAC_OUT*%
X145800000Y-89100000D02*
X148650000Y-89100000D01*
D75*
X151400000Y-82700000D02*
X151400000Y-86850000D01*
D76*
X150800000Y-86950000D02*
X150900000Y-86850000D01*
X149650000Y-88100000D02*
X149850000Y-87900000D01*
D75*
X151450000Y-82750000D02*
X154850000Y-82750000D01*
X151400000Y-82700000D02*
X151450000Y-82750000D01*
X151400000Y-86850000D02*
X150900000Y-86850000D01*
D76*
X148650000Y-89100000D02*
X149650000Y-88100000D01*
X149040000Y-86850000D02*
X150900000Y-86850000D01*
X149850000Y-87900000D02*
X150800000Y-86950000D01*
D75*
X149100000Y-76100000D02*
X151400000Y-78400000D01*
D76*
X149850000Y-89950000D02*
X149850000Y-87900000D01*
X145800000Y-88100000D02*
X149650000Y-88100000D01*
D75*
X151400000Y-78400000D02*
X151400000Y-82700000D01*
%TO.N,Net-(C4-Pad1)*%
D76*
X123250000Y-99610000D02*
X123350000Y-99610000D01*
X122800000Y-100950000D02*
X122800000Y-100060000D01*
X122800000Y-100060000D02*
X123250000Y-99610000D01*
X123770000Y-100950000D02*
X124320000Y-100400000D01*
X122800000Y-100950000D02*
X123770000Y-100950000D01*
%TO.N,Net-(J1-CC2)*%
X124800000Y-73040000D02*
X124800000Y-72032304D01*
X124800000Y-72032304D02*
X124760152Y-71992456D01*
X124350000Y-73490000D02*
X124800000Y-73040000D01*
%TO.N,Net-(J1-CC1)*%
X127750000Y-73240000D02*
X127950000Y-73440000D01*
X127750000Y-71992456D02*
X127750000Y-73240000D01*
%TO.N,/ADAC_OUT*%
D75*
X151900000Y-98670000D02*
X153100000Y-99870000D01*
X151900000Y-98410000D02*
X151900000Y-98670000D01*
X154650000Y-101800000D02*
X154850000Y-101800000D01*
X152910000Y-100060000D02*
X154650000Y-101800000D01*
X150450000Y-100060000D02*
X152910000Y-100060000D01*
X152910000Y-100060000D02*
X153100000Y-99870000D01*
%TO.N,Net-(R3-Pad1)*%
D76*
X139272500Y-88700000D02*
X140142500Y-88700000D01*
%TO.N,/VBUS_RAW*%
X123748732Y-73002544D02*
X123550000Y-73002544D01*
X123550000Y-73002544D02*
X123350000Y-73202544D01*
X124100000Y-72651276D02*
X123748732Y-73002544D01*
X129420832Y-73002544D02*
X129620832Y-73202544D01*
X123350000Y-73202544D02*
X123200000Y-73202544D01*
X124100000Y-71992456D02*
X124100000Y-72651276D01*
X129200163Y-73002544D02*
X129420832Y-73002544D01*
X128900000Y-72702381D02*
X129200163Y-73002544D01*
X128900000Y-71992456D02*
X128900000Y-71382456D01*
X128900000Y-71992456D02*
X128900000Y-72702381D01*
%TO.N,Net-(R17-Pad2)*%
X143910000Y-88100000D02*
X144780000Y-88100000D01*
%TO.N,/AUD_B*%
X142010000Y-100160000D02*
X142010000Y-99060000D01*
X142010000Y-100160000D02*
X144750000Y-100160000D01*
X142010000Y-99060000D02*
X142100000Y-98970000D01*
X144750000Y-100160000D02*
X144850000Y-100060000D01*
%TO.N,Net-(R22-Pad2)*%
X139212500Y-84050000D02*
X140102500Y-84050000D01*
%TO.N,Net-(Card1-DAT2)*%
X103750000Y-116950000D02*
X105287500Y-116950000D01*
X105287500Y-116950000D02*
X106077500Y-117740000D01*
%TO.N,Net-(U8-LED_K)*%
X63750000Y-69650000D02*
X65590000Y-71490000D01*
X65590000Y-71490000D02*
X65590000Y-72100000D01*
%TD*%
M02*
