%TF.GenerationSoftware,KiCad,Pcbnew,10.0.0*%
%TF.CreationDate,2026-05-22T19:45:14-07:00*%
%TF.ProjectId,microNES_pcb_v0.1,6d696372-6f4e-4455-935f-7063625f7630,rev?*%
%TF.SameCoordinates,Original*%
%TF.FileFunction,Soldermask,Bot*%
%TF.FilePolarity,Negative*%
%FSLAX46Y46*%
G04 Gerber Fmt 4.6, Leading zero omitted, Abs format (unit mm)*
G04 Created by KiCad (PCBNEW 10.0.0) date 2026-05-22 19:45:14*
%MOMM*%
%LPD*%
G01*
G04 APERTURE LIST*
G04 Aperture macros list*
%AMRoundRect*
0 Rectangle with rounded corners*
0 $1 Rounding radius*
0 $2 $3 $4 $5 $6 $7 $8 $9 X,Y pos of 4 corners*
0 Add a 4 corners polygon primitive as box body*
4,1,4,$2,$3,$4,$5,$6,$7,$8,$9,$2,$3,0*
0 Add four circle primitives for the rounded corners*
1,1,$1+$1,$2,$3*
1,1,$1+$1,$4,$5*
1,1,$1+$1,$6,$7*
1,1,$1+$1,$8,$9*
0 Add four rect primitives between the rounded corners*
20,1,$1+$1,$2,$3,$4,$5,0*
20,1,$1+$1,$4,$5,$6,$7,0*
20,1,$1+$1,$6,$7,$8,$9,0*
20,1,$1+$1,$8,$9,$2,$3,0*%
G04 Aperture macros list end*
%ADD10R,1.800000X1.800000*%
%ADD11C,1.800000*%
%ADD12O,1.500000X3.300000*%
%ADD13O,1.500000X2.300000*%
%ADD14C,2.700000*%
%ADD15O,2.400000X3.600000*%
%ADD16O,3.200000X1.800000*%
%ADD17C,0.750000*%
%ADD18O,1.200000X2.000000*%
%ADD19O,1.200000X1.800000*%
%ADD20C,1.200000*%
%ADD21RoundRect,0.140000X-0.140000X-0.170000X0.140000X-0.170000X0.140000X0.170000X-0.140000X0.170000X0*%
%ADD22RoundRect,0.225000X-0.225000X-0.250000X0.225000X-0.250000X0.225000X0.250000X-0.225000X0.250000X0*%
%ADD23RoundRect,0.140000X-0.170000X0.140000X-0.170000X-0.140000X0.170000X-0.140000X0.170000X0.140000X0*%
%ADD24RoundRect,0.140000X0.140000X0.170000X-0.140000X0.170000X-0.140000X-0.170000X0.140000X-0.170000X0*%
%ADD25RoundRect,0.140000X0.170000X-0.140000X0.170000X0.140000X-0.170000X0.140000X-0.170000X-0.140000X0*%
%ADD26C,0.100000*%
%ADD27R,2.800000X2.800000*%
%ADD28C,2.800000*%
G04 APERTURE END LIST*
D10*
%TO.C,U6*%
X113800000Y-116250000D03*
D11*
X115800000Y-116250000D03*
X117800000Y-116250000D03*
X119800000Y-116250000D03*
X121800000Y-116250000D03*
X123800000Y-116250000D03*
X125800000Y-116250000D03*
%TD*%
D10*
%TO.C,U7*%
X131450000Y-116050000D03*
D11*
X133450000Y-116050000D03*
X135450000Y-116050000D03*
X137450000Y-116050000D03*
X139450000Y-116050000D03*
X141450000Y-116050000D03*
X143450000Y-116050000D03*
%TD*%
D12*
%TO.C,J3*%
X91700000Y-75160000D03*
X106200000Y-75160000D03*
D13*
X91700000Y-69200000D03*
X106200000Y-69200000D03*
%TD*%
D14*
%TO.C,H3*%
X64200000Y-117600000D03*
%TD*%
%TO.C,H4*%
X157300000Y-132200000D03*
%TD*%
D15*
%TO.C,AV1*%
X158750000Y-101800000D03*
D16*
X154850000Y-101800000D03*
%TD*%
D17*
%TO.C,J1*%
X129400000Y-70732456D03*
X123600000Y-70732456D03*
D18*
X122170000Y-71232456D03*
D19*
X122170000Y-67052456D03*
X130830000Y-67052456D03*
D18*
X130830000Y-71232456D03*
%TD*%
D15*
%TO.C,AV2*%
X158750000Y-82750000D03*
D16*
X154850000Y-82750000D03*
%TD*%
D14*
%TO.C,H2*%
X64400000Y-94100000D03*
%TD*%
%TO.C,H1*%
X157000000Y-69900000D03*
%TD*%
D20*
%TO.C,Card1*%
X92750000Y-109750000D03*
X92750000Y-117750000D03*
%TD*%
D21*
%TO.C,C11*%
X128840000Y-92500000D03*
X129800000Y-92500000D03*
%TD*%
D22*
%TO.C,C19*%
X128400000Y-89150000D03*
X129950000Y-89150000D03*
%TD*%
D23*
%TO.C,C7*%
X123400000Y-97920000D03*
X123400000Y-98880000D03*
%TD*%
D21*
%TO.C,C13*%
X128190000Y-90450000D03*
X129150000Y-90450000D03*
%TD*%
D23*
%TO.C,C15*%
X121900000Y-98070000D03*
X121900000Y-99030000D03*
%TD*%
D24*
%TO.C,C17*%
X118480000Y-93800000D03*
X117520000Y-93800000D03*
%TD*%
D25*
%TO.C,C10*%
X125400000Y-87630000D03*
X125400000Y-86670000D03*
%TD*%
%TO.C,C6*%
X123150000Y-87530000D03*
X123150000Y-86570000D03*
%TD*%
D23*
%TO.C,C18*%
X126200000Y-97700000D03*
X126200000Y-98660000D03*
%TD*%
D26*
%TO.C,U8*%
X61250000Y-78500000D03*
X88750000Y-78500000D03*
D27*
X86250000Y-69650000D03*
D28*
X78750000Y-69650000D03*
X73750000Y-69650000D03*
X68750000Y-69650000D03*
X63750000Y-69650000D03*
%TD*%
D21*
%TO.C,C12*%
X128020000Y-93450000D03*
X128980000Y-93450000D03*
%TD*%
D25*
%TO.C,C14*%
X121850000Y-87480000D03*
X121850000Y-86520000D03*
%TD*%
D24*
%TO.C,C16*%
X118530000Y-90100000D03*
X117570000Y-90100000D03*
%TD*%
M02*
