%TF.GenerationSoftware,KiCad,Pcbnew,10.0.0*%
%TF.CreationDate,2026-05-07T21:01:30-07:00*%
%TF.ProjectId,microNES_pcb_v0.1,6d696372-6f4e-4455-935f-7063625f7630,rev?*%
%TF.SameCoordinates,Original*%
%TF.FileFunction,Legend,Bot*%
%TF.FilePolarity,Positive*%
%FSLAX46Y46*%
G04 Gerber Fmt 4.6, Leading zero omitted, Abs format (unit mm)*
G04 Created by KiCad (PCBNEW 10.0.0) date 2026-05-07 21:01:30*
%MOMM*%
%LPD*%
G01*
G04 APERTURE LIST*
%ADD10C,0.100000*%
%ADD11C,0.120000*%
G04 APERTURE END LIST*
D10*
X128871428Y-94478490D02*
X128895237Y-94502300D01*
X128895237Y-94502300D02*
X128966666Y-94526109D01*
X128966666Y-94526109D02*
X129014285Y-94526109D01*
X129014285Y-94526109D02*
X129085713Y-94502300D01*
X129085713Y-94502300D02*
X129133332Y-94454680D01*
X129133332Y-94454680D02*
X129157142Y-94407061D01*
X129157142Y-94407061D02*
X129180951Y-94311823D01*
X129180951Y-94311823D02*
X129180951Y-94240395D01*
X129180951Y-94240395D02*
X129157142Y-94145157D01*
X129157142Y-94145157D02*
X129133332Y-94097538D01*
X129133332Y-94097538D02*
X129085713Y-94049919D01*
X129085713Y-94049919D02*
X129014285Y-94026109D01*
X129014285Y-94026109D02*
X128966666Y-94026109D01*
X128966666Y-94026109D02*
X128895237Y-94049919D01*
X128895237Y-94049919D02*
X128871428Y-94073728D01*
X128395237Y-94526109D02*
X128680951Y-94526109D01*
X128538094Y-94526109D02*
X128538094Y-94026109D01*
X128538094Y-94026109D02*
X128585713Y-94097538D01*
X128585713Y-94097538D02*
X128633332Y-94145157D01*
X128633332Y-94145157D02*
X128680951Y-94168966D01*
X128204761Y-94073728D02*
X128180952Y-94049919D01*
X128180952Y-94049919D02*
X128133333Y-94026109D01*
X128133333Y-94026109D02*
X128014285Y-94026109D01*
X128014285Y-94026109D02*
X127966666Y-94049919D01*
X127966666Y-94049919D02*
X127942857Y-94073728D01*
X127942857Y-94073728D02*
X127919047Y-94121347D01*
X127919047Y-94121347D02*
X127919047Y-94168966D01*
X127919047Y-94168966D02*
X127942857Y-94240395D01*
X127942857Y-94240395D02*
X128228571Y-94526109D01*
X128228571Y-94526109D02*
X127919047Y-94526109D01*
X129641428Y-93528490D02*
X129665237Y-93552300D01*
X129665237Y-93552300D02*
X129736666Y-93576109D01*
X129736666Y-93576109D02*
X129784285Y-93576109D01*
X129784285Y-93576109D02*
X129855713Y-93552300D01*
X129855713Y-93552300D02*
X129903332Y-93504680D01*
X129903332Y-93504680D02*
X129927142Y-93457061D01*
X129927142Y-93457061D02*
X129950951Y-93361823D01*
X129950951Y-93361823D02*
X129950951Y-93290395D01*
X129950951Y-93290395D02*
X129927142Y-93195157D01*
X129927142Y-93195157D02*
X129903332Y-93147538D01*
X129903332Y-93147538D02*
X129855713Y-93099919D01*
X129855713Y-93099919D02*
X129784285Y-93076109D01*
X129784285Y-93076109D02*
X129736666Y-93076109D01*
X129736666Y-93076109D02*
X129665237Y-93099919D01*
X129665237Y-93099919D02*
X129641428Y-93123728D01*
X129165237Y-93576109D02*
X129450951Y-93576109D01*
X129308094Y-93576109D02*
X129308094Y-93076109D01*
X129308094Y-93076109D02*
X129355713Y-93147538D01*
X129355713Y-93147538D02*
X129403332Y-93195157D01*
X129403332Y-93195157D02*
X129450951Y-93218966D01*
X128689047Y-93576109D02*
X128974761Y-93576109D01*
X128831904Y-93576109D02*
X128831904Y-93076109D01*
X128831904Y-93076109D02*
X128879523Y-93147538D01*
X128879523Y-93147538D02*
X128927142Y-93195157D01*
X128927142Y-93195157D02*
X128974761Y-93218966D01*
X124378490Y-98316666D02*
X124402300Y-98292857D01*
X124402300Y-98292857D02*
X124426109Y-98221428D01*
X124426109Y-98221428D02*
X124426109Y-98173809D01*
X124426109Y-98173809D02*
X124402300Y-98102381D01*
X124402300Y-98102381D02*
X124354680Y-98054762D01*
X124354680Y-98054762D02*
X124307061Y-98030952D01*
X124307061Y-98030952D02*
X124211823Y-98007143D01*
X124211823Y-98007143D02*
X124140395Y-98007143D01*
X124140395Y-98007143D02*
X124045157Y-98030952D01*
X124045157Y-98030952D02*
X123997538Y-98054762D01*
X123997538Y-98054762D02*
X123949919Y-98102381D01*
X123949919Y-98102381D02*
X123926109Y-98173809D01*
X123926109Y-98173809D02*
X123926109Y-98221428D01*
X123926109Y-98221428D02*
X123949919Y-98292857D01*
X123949919Y-98292857D02*
X123973728Y-98316666D01*
X123926109Y-98483333D02*
X123926109Y-98816666D01*
X123926109Y-98816666D02*
X124426109Y-98602381D01*
X122678490Y-86728571D02*
X122702300Y-86704762D01*
X122702300Y-86704762D02*
X122726109Y-86633333D01*
X122726109Y-86633333D02*
X122726109Y-86585714D01*
X122726109Y-86585714D02*
X122702300Y-86514286D01*
X122702300Y-86514286D02*
X122654680Y-86466667D01*
X122654680Y-86466667D02*
X122607061Y-86442857D01*
X122607061Y-86442857D02*
X122511823Y-86419048D01*
X122511823Y-86419048D02*
X122440395Y-86419048D01*
X122440395Y-86419048D02*
X122345157Y-86442857D01*
X122345157Y-86442857D02*
X122297538Y-86466667D01*
X122297538Y-86466667D02*
X122249919Y-86514286D01*
X122249919Y-86514286D02*
X122226109Y-86585714D01*
X122226109Y-86585714D02*
X122226109Y-86633333D01*
X122226109Y-86633333D02*
X122249919Y-86704762D01*
X122249919Y-86704762D02*
X122273728Y-86728571D01*
X122726109Y-87204762D02*
X122726109Y-86919048D01*
X122726109Y-87061905D02*
X122226109Y-87061905D01*
X122226109Y-87061905D02*
X122297538Y-87014286D01*
X122297538Y-87014286D02*
X122345157Y-86966667D01*
X122345157Y-86966667D02*
X122368966Y-86919048D01*
X122392776Y-87633333D02*
X122726109Y-87633333D01*
X122202300Y-87514285D02*
X122559442Y-87395238D01*
X122559442Y-87395238D02*
X122559442Y-87704761D01*
X118371428Y-89478490D02*
X118395237Y-89502300D01*
X118395237Y-89502300D02*
X118466666Y-89526109D01*
X118466666Y-89526109D02*
X118514285Y-89526109D01*
X118514285Y-89526109D02*
X118585713Y-89502300D01*
X118585713Y-89502300D02*
X118633332Y-89454680D01*
X118633332Y-89454680D02*
X118657142Y-89407061D01*
X118657142Y-89407061D02*
X118680951Y-89311823D01*
X118680951Y-89311823D02*
X118680951Y-89240395D01*
X118680951Y-89240395D02*
X118657142Y-89145157D01*
X118657142Y-89145157D02*
X118633332Y-89097538D01*
X118633332Y-89097538D02*
X118585713Y-89049919D01*
X118585713Y-89049919D02*
X118514285Y-89026109D01*
X118514285Y-89026109D02*
X118466666Y-89026109D01*
X118466666Y-89026109D02*
X118395237Y-89049919D01*
X118395237Y-89049919D02*
X118371428Y-89073728D01*
X117895237Y-89526109D02*
X118180951Y-89526109D01*
X118038094Y-89526109D02*
X118038094Y-89026109D01*
X118038094Y-89026109D02*
X118085713Y-89097538D01*
X118085713Y-89097538D02*
X118133332Y-89145157D01*
X118133332Y-89145157D02*
X118180951Y-89168966D01*
X117466666Y-89026109D02*
X117561904Y-89026109D01*
X117561904Y-89026109D02*
X117609523Y-89049919D01*
X117609523Y-89049919D02*
X117633333Y-89073728D01*
X117633333Y-89073728D02*
X117680952Y-89145157D01*
X117680952Y-89145157D02*
X117704761Y-89240395D01*
X117704761Y-89240395D02*
X117704761Y-89430871D01*
X117704761Y-89430871D02*
X117680952Y-89478490D01*
X117680952Y-89478490D02*
X117657142Y-89502300D01*
X117657142Y-89502300D02*
X117609523Y-89526109D01*
X117609523Y-89526109D02*
X117514285Y-89526109D01*
X117514285Y-89526109D02*
X117466666Y-89502300D01*
X117466666Y-89502300D02*
X117442857Y-89478490D01*
X117442857Y-89478490D02*
X117419047Y-89430871D01*
X117419047Y-89430871D02*
X117419047Y-89311823D01*
X117419047Y-89311823D02*
X117442857Y-89264204D01*
X117442857Y-89264204D02*
X117466666Y-89240395D01*
X117466666Y-89240395D02*
X117514285Y-89216585D01*
X117514285Y-89216585D02*
X117609523Y-89216585D01*
X117609523Y-89216585D02*
X117657142Y-89240395D01*
X117657142Y-89240395D02*
X117680952Y-89264204D01*
X117680952Y-89264204D02*
X117704761Y-89311823D01*
X118321428Y-93078490D02*
X118345237Y-93102300D01*
X118345237Y-93102300D02*
X118416666Y-93126109D01*
X118416666Y-93126109D02*
X118464285Y-93126109D01*
X118464285Y-93126109D02*
X118535713Y-93102300D01*
X118535713Y-93102300D02*
X118583332Y-93054680D01*
X118583332Y-93054680D02*
X118607142Y-93007061D01*
X118607142Y-93007061D02*
X118630951Y-92911823D01*
X118630951Y-92911823D02*
X118630951Y-92840395D01*
X118630951Y-92840395D02*
X118607142Y-92745157D01*
X118607142Y-92745157D02*
X118583332Y-92697538D01*
X118583332Y-92697538D02*
X118535713Y-92649919D01*
X118535713Y-92649919D02*
X118464285Y-92626109D01*
X118464285Y-92626109D02*
X118416666Y-92626109D01*
X118416666Y-92626109D02*
X118345237Y-92649919D01*
X118345237Y-92649919D02*
X118321428Y-92673728D01*
X117845237Y-93126109D02*
X118130951Y-93126109D01*
X117988094Y-93126109D02*
X117988094Y-92626109D01*
X117988094Y-92626109D02*
X118035713Y-92697538D01*
X118035713Y-92697538D02*
X118083332Y-92745157D01*
X118083332Y-92745157D02*
X118130951Y-92768966D01*
X117678571Y-92626109D02*
X117345238Y-92626109D01*
X117345238Y-92626109D02*
X117559523Y-93126109D01*
X126428490Y-86778571D02*
X126452300Y-86754762D01*
X126452300Y-86754762D02*
X126476109Y-86683333D01*
X126476109Y-86683333D02*
X126476109Y-86635714D01*
X126476109Y-86635714D02*
X126452300Y-86564286D01*
X126452300Y-86564286D02*
X126404680Y-86516667D01*
X126404680Y-86516667D02*
X126357061Y-86492857D01*
X126357061Y-86492857D02*
X126261823Y-86469048D01*
X126261823Y-86469048D02*
X126190395Y-86469048D01*
X126190395Y-86469048D02*
X126095157Y-86492857D01*
X126095157Y-86492857D02*
X126047538Y-86516667D01*
X126047538Y-86516667D02*
X125999919Y-86564286D01*
X125999919Y-86564286D02*
X125976109Y-86635714D01*
X125976109Y-86635714D02*
X125976109Y-86683333D01*
X125976109Y-86683333D02*
X125999919Y-86754762D01*
X125999919Y-86754762D02*
X126023728Y-86778571D01*
X126476109Y-87254762D02*
X126476109Y-86969048D01*
X126476109Y-87111905D02*
X125976109Y-87111905D01*
X125976109Y-87111905D02*
X126047538Y-87064286D01*
X126047538Y-87064286D02*
X126095157Y-87016667D01*
X126095157Y-87016667D02*
X126118966Y-86969048D01*
X125976109Y-87564285D02*
X125976109Y-87611904D01*
X125976109Y-87611904D02*
X125999919Y-87659523D01*
X125999919Y-87659523D02*
X126023728Y-87683333D01*
X126023728Y-87683333D02*
X126071347Y-87707142D01*
X126071347Y-87707142D02*
X126166585Y-87730952D01*
X126166585Y-87730952D02*
X126285633Y-87730952D01*
X126285633Y-87730952D02*
X126380871Y-87707142D01*
X126380871Y-87707142D02*
X126428490Y-87683333D01*
X126428490Y-87683333D02*
X126452300Y-87659523D01*
X126452300Y-87659523D02*
X126476109Y-87611904D01*
X126476109Y-87611904D02*
X126476109Y-87564285D01*
X126476109Y-87564285D02*
X126452300Y-87516666D01*
X126452300Y-87516666D02*
X126428490Y-87492857D01*
X126428490Y-87492857D02*
X126380871Y-87469047D01*
X126380871Y-87469047D02*
X126285633Y-87445238D01*
X126285633Y-87445238D02*
X126166585Y-87445238D01*
X126166585Y-87445238D02*
X126071347Y-87469047D01*
X126071347Y-87469047D02*
X126023728Y-87492857D01*
X126023728Y-87492857D02*
X125999919Y-87516666D01*
X125999919Y-87516666D02*
X125976109Y-87564285D01*
X122878490Y-98228571D02*
X122902300Y-98204762D01*
X122902300Y-98204762D02*
X122926109Y-98133333D01*
X122926109Y-98133333D02*
X122926109Y-98085714D01*
X122926109Y-98085714D02*
X122902300Y-98014286D01*
X122902300Y-98014286D02*
X122854680Y-97966667D01*
X122854680Y-97966667D02*
X122807061Y-97942857D01*
X122807061Y-97942857D02*
X122711823Y-97919048D01*
X122711823Y-97919048D02*
X122640395Y-97919048D01*
X122640395Y-97919048D02*
X122545157Y-97942857D01*
X122545157Y-97942857D02*
X122497538Y-97966667D01*
X122497538Y-97966667D02*
X122449919Y-98014286D01*
X122449919Y-98014286D02*
X122426109Y-98085714D01*
X122426109Y-98085714D02*
X122426109Y-98133333D01*
X122426109Y-98133333D02*
X122449919Y-98204762D01*
X122449919Y-98204762D02*
X122473728Y-98228571D01*
X122926109Y-98704762D02*
X122926109Y-98419048D01*
X122926109Y-98561905D02*
X122426109Y-98561905D01*
X122426109Y-98561905D02*
X122497538Y-98514286D01*
X122497538Y-98514286D02*
X122545157Y-98466667D01*
X122545157Y-98466667D02*
X122568966Y-98419048D01*
X122426109Y-99157142D02*
X122426109Y-98919047D01*
X122426109Y-98919047D02*
X122664204Y-98895238D01*
X122664204Y-98895238D02*
X122640395Y-98919047D01*
X122640395Y-98919047D02*
X122616585Y-98966666D01*
X122616585Y-98966666D02*
X122616585Y-99085714D01*
X122616585Y-99085714D02*
X122640395Y-99133333D01*
X122640395Y-99133333D02*
X122664204Y-99157142D01*
X122664204Y-99157142D02*
X122711823Y-99180952D01*
X122711823Y-99180952D02*
X122830871Y-99180952D01*
X122830871Y-99180952D02*
X122878490Y-99157142D01*
X122878490Y-99157142D02*
X122902300Y-99133333D01*
X122902300Y-99133333D02*
X122926109Y-99085714D01*
X122926109Y-99085714D02*
X122926109Y-98966666D01*
X122926109Y-98966666D02*
X122902300Y-98919047D01*
X122902300Y-98919047D02*
X122878490Y-98895238D01*
X129521428Y-88178490D02*
X129545237Y-88202300D01*
X129545237Y-88202300D02*
X129616666Y-88226109D01*
X129616666Y-88226109D02*
X129664285Y-88226109D01*
X129664285Y-88226109D02*
X129735713Y-88202300D01*
X129735713Y-88202300D02*
X129783332Y-88154680D01*
X129783332Y-88154680D02*
X129807142Y-88107061D01*
X129807142Y-88107061D02*
X129830951Y-88011823D01*
X129830951Y-88011823D02*
X129830951Y-87940395D01*
X129830951Y-87940395D02*
X129807142Y-87845157D01*
X129807142Y-87845157D02*
X129783332Y-87797538D01*
X129783332Y-87797538D02*
X129735713Y-87749919D01*
X129735713Y-87749919D02*
X129664285Y-87726109D01*
X129664285Y-87726109D02*
X129616666Y-87726109D01*
X129616666Y-87726109D02*
X129545237Y-87749919D01*
X129545237Y-87749919D02*
X129521428Y-87773728D01*
X129045237Y-88226109D02*
X129330951Y-88226109D01*
X129188094Y-88226109D02*
X129188094Y-87726109D01*
X129188094Y-87726109D02*
X129235713Y-87797538D01*
X129235713Y-87797538D02*
X129283332Y-87845157D01*
X129283332Y-87845157D02*
X129330951Y-87868966D01*
X128807142Y-88226109D02*
X128711904Y-88226109D01*
X128711904Y-88226109D02*
X128664285Y-88202300D01*
X128664285Y-88202300D02*
X128640476Y-88178490D01*
X128640476Y-88178490D02*
X128592857Y-88107061D01*
X128592857Y-88107061D02*
X128569047Y-88011823D01*
X128569047Y-88011823D02*
X128569047Y-87821347D01*
X128569047Y-87821347D02*
X128592857Y-87773728D01*
X128592857Y-87773728D02*
X128616666Y-87749919D01*
X128616666Y-87749919D02*
X128664285Y-87726109D01*
X128664285Y-87726109D02*
X128759523Y-87726109D01*
X128759523Y-87726109D02*
X128807142Y-87749919D01*
X128807142Y-87749919D02*
X128830952Y-87773728D01*
X128830952Y-87773728D02*
X128854761Y-87821347D01*
X128854761Y-87821347D02*
X128854761Y-87940395D01*
X128854761Y-87940395D02*
X128830952Y-87988014D01*
X128830952Y-87988014D02*
X128807142Y-88011823D01*
X128807142Y-88011823D02*
X128759523Y-88035633D01*
X128759523Y-88035633D02*
X128664285Y-88035633D01*
X128664285Y-88035633D02*
X128616666Y-88011823D01*
X128616666Y-88011823D02*
X128592857Y-87988014D01*
X128592857Y-87988014D02*
X128569047Y-87940395D01*
X129041428Y-91528490D02*
X129065237Y-91552300D01*
X129065237Y-91552300D02*
X129136666Y-91576109D01*
X129136666Y-91576109D02*
X129184285Y-91576109D01*
X129184285Y-91576109D02*
X129255713Y-91552300D01*
X129255713Y-91552300D02*
X129303332Y-91504680D01*
X129303332Y-91504680D02*
X129327142Y-91457061D01*
X129327142Y-91457061D02*
X129350951Y-91361823D01*
X129350951Y-91361823D02*
X129350951Y-91290395D01*
X129350951Y-91290395D02*
X129327142Y-91195157D01*
X129327142Y-91195157D02*
X129303332Y-91147538D01*
X129303332Y-91147538D02*
X129255713Y-91099919D01*
X129255713Y-91099919D02*
X129184285Y-91076109D01*
X129184285Y-91076109D02*
X129136666Y-91076109D01*
X129136666Y-91076109D02*
X129065237Y-91099919D01*
X129065237Y-91099919D02*
X129041428Y-91123728D01*
X128565237Y-91576109D02*
X128850951Y-91576109D01*
X128708094Y-91576109D02*
X128708094Y-91076109D01*
X128708094Y-91076109D02*
X128755713Y-91147538D01*
X128755713Y-91147538D02*
X128803332Y-91195157D01*
X128803332Y-91195157D02*
X128850951Y-91218966D01*
X128398571Y-91076109D02*
X128089047Y-91076109D01*
X128089047Y-91076109D02*
X128255714Y-91266585D01*
X128255714Y-91266585D02*
X128184285Y-91266585D01*
X128184285Y-91266585D02*
X128136666Y-91290395D01*
X128136666Y-91290395D02*
X128112857Y-91314204D01*
X128112857Y-91314204D02*
X128089047Y-91361823D01*
X128089047Y-91361823D02*
X128089047Y-91480871D01*
X128089047Y-91480871D02*
X128112857Y-91528490D01*
X128112857Y-91528490D02*
X128136666Y-91552300D01*
X128136666Y-91552300D02*
X128184285Y-91576109D01*
X128184285Y-91576109D02*
X128327142Y-91576109D01*
X128327142Y-91576109D02*
X128374761Y-91552300D01*
X128374761Y-91552300D02*
X128398571Y-91528490D01*
X125578490Y-97858571D02*
X125602300Y-97834762D01*
X125602300Y-97834762D02*
X125626109Y-97763333D01*
X125626109Y-97763333D02*
X125626109Y-97715714D01*
X125626109Y-97715714D02*
X125602300Y-97644286D01*
X125602300Y-97644286D02*
X125554680Y-97596667D01*
X125554680Y-97596667D02*
X125507061Y-97572857D01*
X125507061Y-97572857D02*
X125411823Y-97549048D01*
X125411823Y-97549048D02*
X125340395Y-97549048D01*
X125340395Y-97549048D02*
X125245157Y-97572857D01*
X125245157Y-97572857D02*
X125197538Y-97596667D01*
X125197538Y-97596667D02*
X125149919Y-97644286D01*
X125149919Y-97644286D02*
X125126109Y-97715714D01*
X125126109Y-97715714D02*
X125126109Y-97763333D01*
X125126109Y-97763333D02*
X125149919Y-97834762D01*
X125149919Y-97834762D02*
X125173728Y-97858571D01*
X125626109Y-98334762D02*
X125626109Y-98049048D01*
X125626109Y-98191905D02*
X125126109Y-98191905D01*
X125126109Y-98191905D02*
X125197538Y-98144286D01*
X125197538Y-98144286D02*
X125245157Y-98096667D01*
X125245157Y-98096667D02*
X125268966Y-98049048D01*
X125340395Y-98620476D02*
X125316585Y-98572857D01*
X125316585Y-98572857D02*
X125292776Y-98549047D01*
X125292776Y-98549047D02*
X125245157Y-98525238D01*
X125245157Y-98525238D02*
X125221347Y-98525238D01*
X125221347Y-98525238D02*
X125173728Y-98549047D01*
X125173728Y-98549047D02*
X125149919Y-98572857D01*
X125149919Y-98572857D02*
X125126109Y-98620476D01*
X125126109Y-98620476D02*
X125126109Y-98715714D01*
X125126109Y-98715714D02*
X125149919Y-98763333D01*
X125149919Y-98763333D02*
X125173728Y-98787142D01*
X125173728Y-98787142D02*
X125221347Y-98810952D01*
X125221347Y-98810952D02*
X125245157Y-98810952D01*
X125245157Y-98810952D02*
X125292776Y-98787142D01*
X125292776Y-98787142D02*
X125316585Y-98763333D01*
X125316585Y-98763333D02*
X125340395Y-98715714D01*
X125340395Y-98715714D02*
X125340395Y-98620476D01*
X125340395Y-98620476D02*
X125364204Y-98572857D01*
X125364204Y-98572857D02*
X125388014Y-98549047D01*
X125388014Y-98549047D02*
X125435633Y-98525238D01*
X125435633Y-98525238D02*
X125530871Y-98525238D01*
X125530871Y-98525238D02*
X125578490Y-98549047D01*
X125578490Y-98549047D02*
X125602300Y-98572857D01*
X125602300Y-98572857D02*
X125626109Y-98620476D01*
X125626109Y-98620476D02*
X125626109Y-98715714D01*
X125626109Y-98715714D02*
X125602300Y-98763333D01*
X125602300Y-98763333D02*
X125578490Y-98787142D01*
X125578490Y-98787142D02*
X125530871Y-98810952D01*
X125530871Y-98810952D02*
X125435633Y-98810952D01*
X125435633Y-98810952D02*
X125388014Y-98787142D01*
X125388014Y-98787142D02*
X125364204Y-98763333D01*
X125364204Y-98763333D02*
X125340395Y-98715714D01*
X124178490Y-87916666D02*
X124202300Y-87892857D01*
X124202300Y-87892857D02*
X124226109Y-87821428D01*
X124226109Y-87821428D02*
X124226109Y-87773809D01*
X124226109Y-87773809D02*
X124202300Y-87702381D01*
X124202300Y-87702381D02*
X124154680Y-87654762D01*
X124154680Y-87654762D02*
X124107061Y-87630952D01*
X124107061Y-87630952D02*
X124011823Y-87607143D01*
X124011823Y-87607143D02*
X123940395Y-87607143D01*
X123940395Y-87607143D02*
X123845157Y-87630952D01*
X123845157Y-87630952D02*
X123797538Y-87654762D01*
X123797538Y-87654762D02*
X123749919Y-87702381D01*
X123749919Y-87702381D02*
X123726109Y-87773809D01*
X123726109Y-87773809D02*
X123726109Y-87821428D01*
X123726109Y-87821428D02*
X123749919Y-87892857D01*
X123749919Y-87892857D02*
X123773728Y-87916666D01*
X123726109Y-88345238D02*
X123726109Y-88250000D01*
X123726109Y-88250000D02*
X123749919Y-88202381D01*
X123749919Y-88202381D02*
X123773728Y-88178571D01*
X123773728Y-88178571D02*
X123845157Y-88130952D01*
X123845157Y-88130952D02*
X123940395Y-88107143D01*
X123940395Y-88107143D02*
X124130871Y-88107143D01*
X124130871Y-88107143D02*
X124178490Y-88130952D01*
X124178490Y-88130952D02*
X124202300Y-88154762D01*
X124202300Y-88154762D02*
X124226109Y-88202381D01*
X124226109Y-88202381D02*
X124226109Y-88297619D01*
X124226109Y-88297619D02*
X124202300Y-88345238D01*
X124202300Y-88345238D02*
X124178490Y-88369047D01*
X124178490Y-88369047D02*
X124130871Y-88392857D01*
X124130871Y-88392857D02*
X124011823Y-88392857D01*
X124011823Y-88392857D02*
X123964204Y-88369047D01*
X123964204Y-88369047D02*
X123940395Y-88345238D01*
X123940395Y-88345238D02*
X123916585Y-88297619D01*
X123916585Y-88297619D02*
X123916585Y-88202381D01*
X123916585Y-88202381D02*
X123940395Y-88154762D01*
X123940395Y-88154762D02*
X123964204Y-88130952D01*
X123964204Y-88130952D02*
X124011823Y-88107143D01*
X103688095Y-76842580D02*
X103688095Y-76033057D01*
X103688095Y-76033057D02*
X103735714Y-75937819D01*
X103735714Y-75937819D02*
X103783333Y-75890200D01*
X103783333Y-75890200D02*
X103878571Y-75842580D01*
X103878571Y-75842580D02*
X104069047Y-75842580D01*
X104069047Y-75842580D02*
X104164285Y-75890200D01*
X104164285Y-75890200D02*
X104211904Y-75937819D01*
X104211904Y-75937819D02*
X104259523Y-76033057D01*
X104259523Y-76033057D02*
X104259523Y-76842580D01*
X104878571Y-76414009D02*
X104783333Y-76461628D01*
X104783333Y-76461628D02*
X104735714Y-76509247D01*
X104735714Y-76509247D02*
X104688095Y-76604485D01*
X104688095Y-76604485D02*
X104688095Y-76652104D01*
X104688095Y-76652104D02*
X104735714Y-76747342D01*
X104735714Y-76747342D02*
X104783333Y-76794961D01*
X104783333Y-76794961D02*
X104878571Y-76842580D01*
X104878571Y-76842580D02*
X105069047Y-76842580D01*
X105069047Y-76842580D02*
X105164285Y-76794961D01*
X105164285Y-76794961D02*
X105211904Y-76747342D01*
X105211904Y-76747342D02*
X105259523Y-76652104D01*
X105259523Y-76652104D02*
X105259523Y-76604485D01*
X105259523Y-76604485D02*
X105211904Y-76509247D01*
X105211904Y-76509247D02*
X105164285Y-76461628D01*
X105164285Y-76461628D02*
X105069047Y-76414009D01*
X105069047Y-76414009D02*
X104878571Y-76414009D01*
X104878571Y-76414009D02*
X104783333Y-76366390D01*
X104783333Y-76366390D02*
X104735714Y-76318771D01*
X104735714Y-76318771D02*
X104688095Y-76223533D01*
X104688095Y-76223533D02*
X104688095Y-76033057D01*
X104688095Y-76033057D02*
X104735714Y-75937819D01*
X104735714Y-75937819D02*
X104783333Y-75890200D01*
X104783333Y-75890200D02*
X104878571Y-75842580D01*
X104878571Y-75842580D02*
X105069047Y-75842580D01*
X105069047Y-75842580D02*
X105164285Y-75890200D01*
X105164285Y-75890200D02*
X105211904Y-75937819D01*
X105211904Y-75937819D02*
X105259523Y-76033057D01*
X105259523Y-76033057D02*
X105259523Y-76223533D01*
X105259523Y-76223533D02*
X105211904Y-76318771D01*
X105211904Y-76318771D02*
X105164285Y-76366390D01*
X105164285Y-76366390D02*
X105069047Y-76414009D01*
%TO.C,C12*%
D11*
X128392164Y-93810000D02*
X128607836Y-93810000D01*
X128392164Y-93090000D02*
X128607836Y-93090000D01*
%TO.C,C11*%
X129212164Y-92860000D02*
X129427836Y-92860000D01*
X129212164Y-92140000D02*
X129427836Y-92140000D01*
%TO.C,C7*%
X123040000Y-98292164D02*
X123040000Y-98507836D01*
X123760000Y-98292164D02*
X123760000Y-98507836D01*
%TO.C,C14*%
X121490000Y-87107836D02*
X121490000Y-86892164D01*
X122210000Y-87107836D02*
X122210000Y-86892164D01*
%TO.C,C16*%
X118157836Y-90460000D02*
X117942164Y-90460000D01*
X118157836Y-89740000D02*
X117942164Y-89740000D01*
%TO.C,C17*%
X118107836Y-94160000D02*
X117892164Y-94160000D01*
X118107836Y-93440000D02*
X117892164Y-93440000D01*
%TO.C,C10*%
X125040000Y-87257836D02*
X125040000Y-87042164D01*
X125760000Y-87257836D02*
X125760000Y-87042164D01*
%TO.C,C15*%
X122260000Y-98442164D02*
X122260000Y-98657836D01*
X121540000Y-98442164D02*
X121540000Y-98657836D01*
%TO.C,C19*%
X129034420Y-88640000D02*
X129315580Y-88640000D01*
X129034420Y-89660000D02*
X129315580Y-89660000D01*
%TO.C,C13*%
X128562164Y-90090000D02*
X128777836Y-90090000D01*
X128562164Y-90810000D02*
X128777836Y-90810000D01*
%TO.C,C18*%
X126560000Y-98072164D02*
X126560000Y-98287836D01*
X125840000Y-98072164D02*
X125840000Y-98287836D01*
%TO.C,C6*%
X122790000Y-87157836D02*
X122790000Y-86942164D01*
X123510000Y-87157836D02*
X123510000Y-86942164D01*
%TO.C,U8*%
D10*
X89750000Y-66100000D02*
X119650000Y-66100000D01*
X119650000Y-88000000D01*
X89750000Y-88000000D01*
X89750000Y-66100000D01*
%TD*%
M02*
