%TF.GenerationSoftware,KiCad,Pcbnew,10.0.0*%
%TF.CreationDate,2026-05-07T21:01:30-07:00*%
%TF.ProjectId,microNES_pcb_v0.1,6d696372-6f4e-4455-935f-7063625f7630,rev?*%
%TF.SameCoordinates,Original*%
%TF.FileFunction,Copper,L4,Bot*%
%TF.FilePolarity,Positive*%
%FSLAX46Y46*%
G04 Gerber Fmt 4.6, Leading zero omitted, Abs format (unit mm)*
G04 Created by KiCad (PCBNEW 10.0.0) date 2026-05-07 21:01:30*
%MOMM*%
%LPD*%
G01*
G04 APERTURE LIST*
G04 Aperture macros list*
%AMRoundRect*
0 Rectangle with rounded corners*
0 $1 Rounding radius*
0 $2 $3 $4 $5 $6 $7 $8 $9 X,Y pos of 4 corners*
0 Add a 4 corners polygon primitive as box body*
4,1,4,$2,$3,$4,$5,$6,$7,$8,$9,$2,$3,0*
0 Add four circle primitives for the rounded corners*
1,1,$1+$1,$2,$3*
1,1,$1+$1,$4,$5*
1,1,$1+$1,$6,$7*
1,1,$1+$1,$8,$9*
0 Add four rect primitives between the rounded corners*
20,1,$1+$1,$2,$3,$4,$5,0*
20,1,$1+$1,$4,$5,$6,$7,0*
20,1,$1+$1,$6,$7,$8,$9,0*
20,1,$1+$1,$8,$9,$2,$3,0*%
G04 Aperture macros list end*
%TA.AperFunction,ComponentPad*%
%ADD10O,2.400000X3.600000*%
%TD*%
%TA.AperFunction,ComponentPad*%
%ADD11O,3.200000X1.800000*%
%TD*%
%TA.AperFunction,SMDPad,CuDef*%
%ADD12RoundRect,0.140000X-0.140000X-0.170000X0.140000X-0.170000X0.140000X0.170000X-0.140000X0.170000X0*%
%TD*%
%TA.AperFunction,SMDPad,CuDef*%
%ADD13RoundRect,0.140000X-0.170000X0.140000X-0.170000X-0.140000X0.170000X-0.140000X0.170000X0.140000X0*%
%TD*%
%TA.AperFunction,SMDPad,CuDef*%
%ADD14RoundRect,0.140000X0.170000X-0.140000X0.170000X0.140000X-0.170000X0.140000X-0.170000X-0.140000X0*%
%TD*%
%TA.AperFunction,SMDPad,CuDef*%
%ADD15RoundRect,0.140000X0.140000X0.170000X-0.140000X0.170000X-0.140000X-0.170000X0.140000X-0.170000X0*%
%TD*%
%TA.AperFunction,ComponentPad*%
%ADD16C,0.600000*%
%TD*%
%TA.AperFunction,SMDPad,CuDef*%
%ADD17RoundRect,0.225000X-0.225000X-0.250000X0.225000X-0.250000X0.225000X0.250000X-0.225000X0.250000X0*%
%TD*%
%TA.AperFunction,ComponentPad*%
%ADD18C,1.800000*%
%TD*%
%TA.AperFunction,ComponentPad*%
%ADD19R,1.800000X1.800000*%
%TD*%
%TA.AperFunction,ComponentPad*%
%ADD20O,2.300000X1.500000*%
%TD*%
%TA.AperFunction,ComponentPad*%
%ADD21O,3.300000X1.500000*%
%TD*%
%TA.AperFunction,ComponentPad*%
%ADD22C,2.800000*%
%TD*%
%TA.AperFunction,ComponentPad*%
%ADD23R,2.800000X2.800000*%
%TD*%
%TA.AperFunction,ComponentPad*%
%ADD24C,1.200000*%
%TD*%
%TA.AperFunction,ComponentPad*%
%ADD25C,0.750000*%
%TD*%
%TA.AperFunction,ComponentPad*%
%ADD26O,1.200000X2.000000*%
%TD*%
%TA.AperFunction,ComponentPad*%
%ADD27O,1.200000X1.800000*%
%TD*%
%TA.AperFunction,ViaPad*%
%ADD28C,0.300000*%
%TD*%
%TA.AperFunction,ViaPad*%
%ADD29C,0.600000*%
%TD*%
%TA.AperFunction,ViaPad*%
%ADD30C,1.000000*%
%TD*%
%TA.AperFunction,Conductor*%
%ADD31C,0.200000*%
%TD*%
G04 APERTURE END LIST*
D10*
%TO.P,AV1,1,1_1*%
%TO.N,/ADAC_OUT*%
X158900000Y-94200000D03*
D11*
%TO.P,AV1,2,2_2*%
%TO.N,GND*%
X155000000Y-94200000D03*
%TD*%
D12*
%TO.P,C12,1*%
%TO.N,+3V3*%
X128020000Y-93450000D03*
%TO.P,C12,2*%
%TO.N,GND*%
X128980000Y-93450000D03*
%TD*%
%TO.P,C11,1*%
%TO.N,+1V1*%
X128840000Y-92500000D03*
%TO.P,C11,2*%
%TO.N,GND*%
X129800000Y-92500000D03*
%TD*%
D13*
%TO.P,C7,1*%
%TO.N,+1V1*%
X123400000Y-97920000D03*
%TO.P,C7,2*%
%TO.N,GND*%
X123400000Y-98880000D03*
%TD*%
D14*
%TO.P,C14,2*%
%TO.N,GND*%
X121850000Y-86520000D03*
%TO.P,C14,1*%
%TO.N,+3V3*%
X121850000Y-87480000D03*
%TD*%
D15*
%TO.P,C16,2*%
%TO.N,GND*%
X117570000Y-90100000D03*
%TO.P,C16,1*%
%TO.N,+3V3*%
X118530000Y-90100000D03*
%TD*%
D16*
%TO.P,U1,61,GND_61*%
%TO.N,GND*%
X124804996Y-94437500D03*
X124804996Y-93062500D03*
X124804996Y-91687500D03*
X123429996Y-94437500D03*
X123429996Y-93062500D03*
X123429996Y-91687500D03*
X122054996Y-94437500D03*
X122054996Y-93062500D03*
X122054996Y-91687500D03*
%TD*%
D15*
%TO.P,C17,2*%
%TO.N,GND*%
X117520000Y-93800000D03*
%TO.P,C17,1*%
%TO.N,+3V3*%
X118480000Y-93800000D03*
%TD*%
D14*
%TO.P,C10,2*%
%TO.N,GND*%
X125400000Y-86670000D03*
%TO.P,C10,1*%
%TO.N,+1V1*%
X125400000Y-87630000D03*
%TD*%
D13*
%TO.P,C15,2*%
%TO.N,GND*%
X121900000Y-99030000D03*
%TO.P,C15,1*%
%TO.N,+3V3*%
X121900000Y-98070000D03*
%TD*%
D17*
%TO.P,C19,2*%
%TO.N,GND*%
X129950000Y-89150000D03*
%TO.P,C19,1*%
%TO.N,+3V3*%
X128400000Y-89150000D03*
%TD*%
D12*
%TO.P,C13,2*%
%TO.N,GND*%
X129150000Y-90450000D03*
%TO.P,C13,1*%
%TO.N,+3V3*%
X128190000Y-90450000D03*
%TD*%
D13*
%TO.P,C18,2*%
%TO.N,GND*%
X126200000Y-98660000D03*
%TO.P,C18,1*%
%TO.N,+3V3*%
X126200000Y-97700000D03*
%TD*%
D14*
%TO.P,C6,2*%
%TO.N,GND*%
X123150000Y-86570000D03*
%TO.P,C6,1*%
%TO.N,+3V3*%
X123150000Y-87530000D03*
%TD*%
D18*
%TO.P,U7,7,NC_7*%
%TO.N,unconnected-(U7-NC-Pad7)*%
X143450000Y-116050000D03*
%TO.P,U7,6,NC_6*%
%TO.N,unconnected-(U7-NC-Pad6)*%
X141450000Y-116050000D03*
%TO.P,U7,5,VCC_5*%
%TO.N,+3V3*%
X139450000Y-116050000D03*
%TO.P,U7,4,DATA_4*%
%TO.N,/NES_DATA_2*%
X137450000Y-116050000D03*
%TO.P,U7,3,LATCH_3*%
%TO.N,/NES_LATCH*%
X135450000Y-116050000D03*
%TO.P,U7,2,CLOCK_2*%
%TO.N,/NES_CLOCK*%
X133450000Y-116050000D03*
D19*
%TO.P,U7,1,GND_1*%
%TO.N,GND*%
X131450000Y-116050000D03*
%TD*%
D18*
%TO.P,U6,7,NC_7*%
%TO.N,unconnected-(U6-NC-Pad7)*%
X125800000Y-116250000D03*
%TO.P,U6,6,NC_6*%
%TO.N,unconnected-(U6-NC-Pad6)*%
X123800000Y-116250000D03*
%TO.P,U6,5,VCC_5*%
%TO.N,+3V3*%
X121800000Y-116250000D03*
%TO.P,U6,4,DATA_4*%
%TO.N,/NES_DATA_1*%
X119800000Y-116250000D03*
%TO.P,U6,3,LATCH_3*%
%TO.N,/NES_LATCH*%
X117800000Y-116250000D03*
%TO.P,U6,2,CLOCK_2*%
%TO.N,/NES_CLOCK*%
X115800000Y-116250000D03*
D19*
%TO.P,U6,1,GND_1*%
%TO.N,GND*%
X113800000Y-116250000D03*
%TD*%
D20*
%TO.P,J3,SH,SH_SH*%
%TO.N,GND*%
X92585000Y-89850000D03*
X92585000Y-104350000D03*
D21*
X98545000Y-89850000D03*
X98545000Y-104350000D03*
%TD*%
D11*
%TO.P,AV2,2,2_2*%
%TO.N,GND*%
X155000000Y-82850000D03*
D10*
%TO.P,AV2,1,1_1*%
%TO.N,/VDAC_OUT*%
X158900000Y-82850000D03*
%TD*%
D22*
%TO.P,U8,5,LED_K_5*%
%TO.N,+3V3*%
X93450000Y-69300000D03*
%TO.P,U8,4,RST_OUT_4*%
%TO.N,/RST_BTN*%
X98450000Y-69300000D03*
%TO.P,U8,3,RST_VCC_3*%
%TO.N,/PWR_LED*%
X103450000Y-69300000D03*
%TO.P,U8,2,PWR_SW_B_2*%
%TO.N,VBUS*%
X108450000Y-69300000D03*
D23*
%TO.P,U8,1,PWR_SW_A_1*%
%TO.N,/VBUS_RAW*%
X115950000Y-69300000D03*
%TD*%
D24*
%TO.P,Card1,*%
%TO.N,*%
X92750000Y-109750000D03*
X92750000Y-117750000D03*
%TD*%
D25*
%TO.P,J1,*%
%TO.N,*%
X129400000Y-70732456D03*
X123600000Y-70732456D03*
D26*
%TO.P,J1,1,EH_1*%
%TO.N,GND*%
X122170000Y-71232456D03*
D27*
%TO.P,J1,2,EH_2*%
X122170000Y-67052456D03*
%TO.P,J1,3,EH_3*%
X130830000Y-67052456D03*
D26*
%TO.P,J1,4,EH_4*%
X130830000Y-71232456D03*
%TD*%
D28*
%TO.N,GND*%
X116933885Y-91983885D03*
%TO.N,/CARD_CLX*%
X118300000Y-91403864D03*
%TO.N,+3V3*%
X127650000Y-90500000D03*
X127450000Y-89650000D03*
X126600000Y-96900000D03*
%TO.N,+1V1*%
X124679996Y-88473199D03*
%TO.N,+3V3*%
X107650000Y-114800000D03*
X101850000Y-113850000D03*
%TO.N,GND*%
X142600000Y-86100000D03*
X133700000Y-69900000D03*
X117190000Y-94500000D03*
X102100000Y-111400000D03*
%TO.N,VBUS*%
X101450000Y-93100000D03*
%TO.N,GND*%
X97300000Y-101100000D03*
X97500000Y-99600000D03*
X97400000Y-98100000D03*
X97450000Y-96600000D03*
X101300000Y-93650000D03*
X132700000Y-71450000D03*
X130267019Y-73617018D03*
X144300000Y-89550000D03*
%TO.N,VBUS*%
X137950000Y-67150000D03*
X136100000Y-67250000D03*
%TO.N,GND*%
X135650000Y-103550000D03*
X140200000Y-107200000D03*
X136250000Y-111200000D03*
%TO.N,/SWCLK*%
X130900000Y-105650000D03*
%TO.N,/SWD*%
X139800000Y-109050000D03*
%TO.N,GND*%
X130350000Y-99800000D03*
%TO.N,/RUN*%
X130250000Y-98800000D03*
X126750000Y-99250000D03*
%TO.N,/SWD*%
X126150000Y-99500000D03*
%TO.N,/SWCLK*%
X125267464Y-99369077D03*
%TO.N,GND*%
X124650000Y-99350000D03*
X156450000Y-76450000D03*
%TO.N,+3.3VDAC*%
X159450000Y-76250000D03*
%TO.N,GND*%
X93500000Y-75050000D03*
%TO.N,+3V3*%
X91600000Y-75100000D03*
%TO.N,GND*%
X151950000Y-96550000D03*
X140900000Y-102650000D03*
X141350000Y-97450000D03*
X137702500Y-90450000D03*
X137450000Y-86450000D03*
X137600000Y-82750000D03*
X138150000Y-78950000D03*
%TO.N,+3.3VDAC*%
X133900000Y-79300000D03*
X133950000Y-83050000D03*
X133750000Y-87200000D03*
X133850000Y-91350000D03*
X142000000Y-91650000D03*
X141200000Y-93050000D03*
%TO.N,GND*%
X144850000Y-91650000D03*
X148800000Y-93200000D03*
%TO.N,+3.3VDAC*%
X150700000Y-93300000D03*
%TO.N,GND*%
X152950000Y-92100000D03*
X152500000Y-80900000D03*
X149400000Y-83550000D03*
X146950000Y-80150000D03*
%TO.N,+3.3VDAC*%
X145100000Y-80150000D03*
%TO.N,+3V3*%
X128350000Y-94712500D03*
%TO.N,GND*%
X129450000Y-93412500D03*
X129606801Y-89956801D03*
%TO.N,+3V3*%
X127900000Y-90900000D03*
%TO.N,GND*%
X130450000Y-92750000D03*
%TO.N,+1V1*%
X127950000Y-92700000D03*
%TO.N,GND*%
X96300000Y-88650000D03*
X94350000Y-88550000D03*
X91050000Y-105850000D03*
X98550000Y-106100000D03*
X103500000Y-89500000D03*
X114300000Y-85650000D03*
%TO.N,+3V3*%
X121600000Y-81850000D03*
%TO.N,GND*%
X118950000Y-73400000D03*
X116750000Y-90000000D03*
%TO.N,+3V3*%
X119400000Y-89950000D03*
%TO.N,/PWR_LED*%
X104750000Y-71450000D03*
%TO.N,GND*%
X112600000Y-93350000D03*
X112650000Y-89450000D03*
X122600000Y-86000000D03*
X121350000Y-86800000D03*
%TO.N,+3V3*%
X123031704Y-88226975D03*
X123379996Y-88550000D03*
%TO.N,GND*%
X126050000Y-86150000D03*
X129600000Y-86900000D03*
%TO.N,+3V3*%
X128100000Y-84950000D03*
X125100000Y-90300000D03*
%TO.N,GND*%
X125850000Y-90350000D03*
%TO.N,+3V3*%
X127050000Y-97000000D03*
%TO.N,GND*%
X130100000Y-88250000D03*
%TO.N,+3V3*%
X128300000Y-88250000D03*
%TO.N,GND*%
X127650000Y-76350000D03*
%TO.N,/USB_D+*%
X129550000Y-75700000D03*
%TO.N,VBUS*%
X132350000Y-73950000D03*
%TO.N,/USB_D+*%
X126250000Y-70650000D03*
%TO.N,GND*%
X124400000Y-75300000D03*
%TO.N,/PWR_LED*%
X127950000Y-95350000D03*
%TO.N,/RST_BTN*%
X99500000Y-71550000D03*
X126100000Y-95450000D03*
%TO.N,GND*%
X124150000Y-99300000D03*
X100950000Y-107000000D03*
X95250000Y-107050000D03*
X95050000Y-121100000D03*
X103900000Y-121150000D03*
%TO.N,+3V3*%
X107950000Y-117750000D03*
X105600000Y-114300000D03*
%TO.N,GND*%
X108250000Y-113200000D03*
X107729720Y-110279720D03*
%TO.N,+3V3*%
X105200000Y-110600000D03*
X107400000Y-107600000D03*
X150850000Y-105250000D03*
%TO.N,GND*%
X151300000Y-113550000D03*
%TO.N,+3V3*%
X139800000Y-118300000D03*
%TO.N,GND*%
X131600000Y-118100000D03*
%TO.N,+3V3*%
X122250000Y-118100000D03*
%TO.N,GND*%
X113750000Y-118200000D03*
%TO.N,/NES_DATA_1*%
X137500000Y-120350000D03*
X119750000Y-119000000D03*
%TO.N,/NES_LATCH*%
X118000000Y-118450000D03*
X135050000Y-119950000D03*
%TO.N,/NES_DATA_1*%
X119400000Y-114550000D03*
%TO.N,/NES_LATCH*%
X117800000Y-114450000D03*
%TO.N,/NES_CLOCK*%
X115750000Y-114500000D03*
X117693092Y-95303070D03*
%TO.N,/NES_LATCH*%
X118150000Y-95100000D03*
%TO.N,/NES_DATA_1*%
X118600000Y-94850000D03*
%TO.N,/NES_DATA_2*%
X120800000Y-95150000D03*
%TO.N,+3V3*%
X119150000Y-94312500D03*
%TO.N,+1V1*%
X123400000Y-95750000D03*
%TO.N,GND*%
X124400000Y-101100000D03*
X121600000Y-101850000D03*
X124200000Y-102450000D03*
X121600000Y-99750000D03*
X121200827Y-99400827D03*
%TO.N,+3V3*%
X120778861Y-98550000D03*
X122179996Y-97650000D03*
%TO.N,/CARD_CD_DAT3*%
X105100000Y-115600000D03*
%TO.N,/CARD_CMD*%
X104800000Y-114750000D03*
%TO.N,/CARD_CLX*%
X104730074Y-112100124D03*
%TO.N,/CARD_DAT0*%
X104850124Y-109780074D03*
%TO.N,/CARD_CD*%
X104150000Y-107350000D03*
%TO.N,/CARD_CD_DAT3*%
X116915001Y-93112500D03*
%TO.N,/CARD_CMD*%
X116650000Y-92650000D03*
%TO.N,/CARD_DAT0*%
X116970094Y-90953864D03*
%TO.N,/CARD_CD*%
X116650000Y-90500000D03*
D29*
%TO.N,+3V3*%
X95300000Y-70750000D03*
X118300000Y-80550000D03*
%TO.N,GND*%
X118283795Y-79590443D03*
X117450000Y-76950000D03*
X120150000Y-75550000D03*
%TO.N,+3V3*%
X118050000Y-75850000D03*
X117150000Y-76200000D03*
X107600000Y-74500000D03*
%TO.N,+3.3VDAC*%
X140000000Y-66700000D03*
X143000000Y-75650000D03*
%TO.N,GND*%
X143600000Y-66550000D03*
X143750000Y-67350000D03*
X133800000Y-67250000D03*
%TO.N,VBUS*%
X136250000Y-70550000D03*
X132800000Y-72950000D03*
X110600000Y-69500000D03*
X116950000Y-71700000D03*
%TO.N,/VBUS_RAW*%
X118050000Y-69400000D03*
X129620832Y-73202544D03*
X123200000Y-73202544D03*
%TO.N,GND*%
X130500000Y-72800000D03*
X122450000Y-72800000D03*
D30*
X132193685Y-70515645D03*
X131970000Y-67002456D03*
X120770001Y-67352456D03*
X120770001Y-70852456D03*
D28*
%TO.N,+3V3*%
X126000000Y-93450000D03*
%TD*%
%TO.N,/CARD_CLX*%
D31*
X118300000Y-91403864D02*
X116877508Y-91403864D01*
%TO.N,+3V3*%
X128140000Y-90500000D02*
X128190000Y-90450000D01*
X127650000Y-90500000D02*
X128140000Y-90500000D01*
X127450000Y-89650000D02*
X127700000Y-89650000D01*
X127700000Y-89650000D02*
X127800000Y-89750000D01*
%TO.N,GND*%
X121900000Y-99030000D02*
X121571654Y-99030000D01*
X121571654Y-99030000D02*
X121200827Y-99400827D01*
X123400000Y-98880000D02*
X123730000Y-98880000D01*
X123730000Y-98880000D02*
X124150000Y-99300000D01*
X128980000Y-93450000D02*
X129412500Y-93450000D01*
X129412500Y-93450000D02*
X129450000Y-93412500D01*
%TO.N,/PWR_LED*%
X125508013Y-91541987D02*
X125508013Y-94608013D01*
X125508013Y-94608013D02*
X125800000Y-94900000D01*
%TO.N,+1V1*%
X124679996Y-88350004D02*
X125400000Y-87630000D01*
X124679996Y-88473199D02*
X124679996Y-88350004D01*
X128840000Y-92500000D02*
X128150000Y-92500000D01*
X128150000Y-92500000D02*
X127950000Y-92700000D01*
X123400000Y-97920000D02*
X123400000Y-95750000D01*
%TO.N,GND*%
X117520000Y-94170000D02*
X117190000Y-94500000D01*
X117520000Y-93800000D02*
X117520000Y-94170000D01*
%TO.N,/SWCLK*%
X125267464Y-101567464D02*
X129350000Y-105650000D01*
X129350000Y-105650000D02*
X130900000Y-105650000D01*
%TO.N,/SWD*%
X139800000Y-109150000D02*
X139800000Y-109050000D01*
X139600000Y-109350000D02*
X139800000Y-109150000D01*
X136000000Y-109350000D02*
X139600000Y-109350000D01*
X126150000Y-99500000D02*
X136000000Y-109350000D01*
%TO.N,/SWCLK*%
X125267464Y-99369077D02*
X125267464Y-101567464D01*
%TO.N,/RUN*%
X129800000Y-99250000D02*
X130250000Y-98800000D01*
X126750000Y-99250000D02*
X129800000Y-99250000D01*
%TO.N,GND*%
X125340000Y-98660000D02*
X124650000Y-99350000D01*
X126200000Y-98660000D02*
X125340000Y-98660000D01*
X129150000Y-90413602D02*
X129606801Y-89956801D01*
X129150000Y-90450000D02*
X129150000Y-90413602D01*
X129150000Y-90450000D02*
X129126134Y-90450000D01*
%TO.N,+3V3*%
X128180000Y-90900000D02*
X127900000Y-90900000D01*
X128190000Y-90910000D02*
X128180000Y-90900000D01*
%TO.N,GND*%
X130200000Y-92500000D02*
X130450000Y-92750000D01*
X129800000Y-92500000D02*
X130200000Y-92500000D01*
X117470000Y-90000000D02*
X116750000Y-90000000D01*
X117570000Y-90100000D02*
X117470000Y-90000000D01*
%TO.N,+3V3*%
X119400000Y-89950000D02*
X118680000Y-89950000D01*
X118680000Y-89950000D02*
X118530000Y-90100000D01*
%TO.N,/RST_BTN*%
X126100000Y-95450000D02*
X125950000Y-95300000D01*
X125950000Y-95300000D02*
X122250000Y-95300000D01*
X122250000Y-95300000D02*
X121900000Y-95650000D01*
X121900000Y-95650000D02*
X121250000Y-95000000D01*
X121250000Y-95000000D02*
X121250000Y-90400000D01*
X102600000Y-71750000D02*
X102600000Y-71550000D01*
X102600000Y-71550000D02*
X99500000Y-71550000D01*
%TO.N,/PWR_LED*%
X104750000Y-72498529D02*
X104750000Y-71450000D01*
X124866025Y-90900000D02*
X123151471Y-90900000D01*
X123151471Y-90900000D02*
X104750000Y-72498529D01*
%TO.N,GND*%
X123150000Y-86550000D02*
X122600000Y-86000000D01*
X123150000Y-86570000D02*
X123150000Y-86550000D01*
X121630000Y-86520000D02*
X121350000Y-86800000D01*
X121850000Y-86520000D02*
X121630000Y-86520000D01*
X123150000Y-86570000D02*
X123120000Y-86570000D01*
%TO.N,+3V3*%
X123031704Y-88226975D02*
X122596975Y-88226975D01*
X122596975Y-88226975D02*
X121850000Y-87480000D01*
X123379996Y-88550000D02*
X123379996Y-87759996D01*
X123379996Y-87759996D02*
X123150000Y-87530000D01*
%TO.N,GND*%
X125530000Y-86670000D02*
X126050000Y-86150000D01*
X125400000Y-86670000D02*
X125530000Y-86670000D01*
%TO.N,+3V3*%
X126350000Y-97700000D02*
X127050000Y-97000000D01*
X126200000Y-97700000D02*
X126350000Y-97700000D01*
%TO.N,GND*%
X129950000Y-89150000D02*
X129950000Y-88400000D01*
X129950000Y-88400000D02*
X130100000Y-88250000D01*
%TO.N,+3V3*%
X128350000Y-88300000D02*
X128300000Y-88250000D01*
X128350000Y-88400000D02*
X128350000Y-88300000D01*
X128190000Y-90450000D02*
X128190000Y-90910000D01*
%TO.N,/USB_D+*%
X127850000Y-74000000D02*
X127850000Y-72250000D01*
X129550000Y-75700000D02*
X127850000Y-74000000D01*
X126250000Y-70650000D02*
X127850000Y-72250000D01*
%TO.N,/PWR_LED*%
X125800000Y-94900000D02*
X127500000Y-94900000D01*
X127500000Y-94900000D02*
X127950000Y-95350000D01*
X127900000Y-95400000D02*
X127950000Y-95350000D01*
X124866025Y-90900000D02*
X125508013Y-91541987D01*
%TO.N,/NES_DATA_1*%
X137500000Y-120350000D02*
X136150000Y-119000000D01*
X136150000Y-119000000D02*
X119750000Y-119000000D01*
%TO.N,/NES_LATCH*%
X119500000Y-119950000D02*
X118000000Y-118450000D01*
X135050000Y-119950000D02*
X119500000Y-119950000D01*
%TO.N,/NES_DATA_1*%
X118600000Y-113750000D02*
X119400000Y-114550000D01*
X118600000Y-94850000D02*
X118600000Y-113750000D01*
%TO.N,/NES_LATCH*%
X117800000Y-114450000D02*
X118150000Y-114100000D01*
X118150000Y-114100000D02*
X118150000Y-95100000D01*
%TO.N,/NES_CLOCK*%
X117650000Y-112600000D02*
X115750000Y-114500000D01*
X117650000Y-95346162D02*
X117650000Y-112600000D01*
X117693092Y-95303070D02*
X117650000Y-95346162D01*
%TO.N,/NES_DATA_2*%
X120800000Y-95150000D02*
X122629996Y-96979996D01*
X122629996Y-99966393D02*
X137450000Y-114786397D01*
X137450000Y-114786397D02*
X137450000Y-116050000D01*
X122629996Y-96979996D02*
X122629996Y-99966393D01*
%TO.N,+3V3*%
X119150000Y-94312500D02*
X118992500Y-94312500D01*
X118992500Y-94312500D02*
X118480000Y-93800000D01*
X118480000Y-94000000D02*
X118480000Y-93800000D01*
X121258861Y-98070000D02*
X120778861Y-98550000D01*
X121900000Y-98070000D02*
X121258861Y-98070000D01*
X122179996Y-97790004D02*
X121900000Y-98070000D01*
X122179996Y-97650000D02*
X122179996Y-97790004D01*
%TO.N,/CARD_CD_DAT3*%
X105100000Y-115600000D02*
X107854163Y-115600000D01*
X107854163Y-115600000D02*
X116740000Y-106714163D01*
X116740000Y-106714163D02*
X116740000Y-93287501D01*
X116740000Y-93287501D02*
X116915001Y-93112500D01*
%TO.N,/CARD_CMD*%
X116050000Y-102595837D02*
X104800000Y-113845837D01*
X116050000Y-93250000D02*
X116050000Y-102595837D01*
X104800000Y-113845837D02*
X104800000Y-114750000D01*
X116650000Y-92650000D02*
X116050000Y-93250000D01*
%TO.N,/CARD_CLX*%
X115550000Y-92850000D02*
X115550000Y-101280198D01*
X115550000Y-101280198D02*
X104730074Y-112100124D01*
X115750000Y-92650000D02*
X115550000Y-92850000D01*
%TO.N,/CARD_DAT0*%
X104850124Y-102799876D02*
X104850124Y-109780074D01*
X116050000Y-91600000D02*
X104850124Y-102799876D01*
%TO.N,/CARD_CD*%
X104150000Y-102934315D02*
X104150000Y-107350000D01*
X115884315Y-91200000D02*
X104150000Y-102934315D01*
X115950000Y-91200000D02*
X115884315Y-91200000D01*
%TO.N,/CARD_CLX*%
X116877508Y-91403864D02*
X115750000Y-92531372D01*
X115750000Y-92531372D02*
X115750000Y-92650000D01*
%TO.N,/CARD_DAT0*%
X116115686Y-91600000D02*
X116050000Y-91600000D01*
X116761822Y-90953864D02*
X116115686Y-91600000D01*
X116970094Y-90953864D02*
X116761822Y-90953864D01*
%TO.N,/CARD_CD*%
X116650000Y-90500000D02*
X115950000Y-91200000D01*
%TO.N,GND*%
X117680000Y-90310000D02*
X117740000Y-90310000D01*
X117570000Y-90200000D02*
X117680000Y-90310000D01*
%TO.N,+3V3*%
X118530000Y-90200000D02*
X118700000Y-90370000D01*
X122966609Y-87530000D02*
X123150000Y-87530000D01*
%TO.N,GND*%
X123150000Y-86570000D02*
X123241177Y-86570000D01*
%TO.N,+3V3*%
X128098986Y-90541014D02*
X128190000Y-90450000D01*
X128400000Y-88450000D02*
X128350000Y-88400000D01*
X128400000Y-89150000D02*
X128400000Y-88450000D01*
X127800000Y-89750000D02*
X128400000Y-89150000D01*
%TO.N,/RST_BTN*%
X121250000Y-90400000D02*
X102600000Y-71750000D01*
%TO.N,+3V3*%
X126000000Y-93450000D02*
X128020000Y-93450000D01*
X128020000Y-94382500D02*
X128350000Y-94712500D01*
X128020000Y-93450000D02*
X128020000Y-93406397D01*
X128020000Y-93450000D02*
X128020000Y-94382500D01*
X127849950Y-93279950D02*
X128020000Y-93450000D01*
X128020000Y-93450000D02*
X128220000Y-93650000D01*
%TD*%
M02*
